<svg width="257" height="67" viewBox="0 0 257 67" fill="none" xmlns="http://www.w3.org/2000/svg">
<path d="M110.014 30.1259V48.6835H114.297H118.581V40.8266C118.581 33.982 118.671 32.8252 119.437 31.6202C121.106 28.9209 123.811 27.764 125.795 28.9209C127.193 29.6921 127.598 32.4878 127.598 40.8266V48.6835H131.927H136.255L136.075 39.1396C135.849 28.4389 135.353 26.0288 132.874 23.5705C131.025 21.7871 127.193 20.5338 124.758 20.9194C122.909 21.2568 119.573 22.9439 118.942 23.8597C118.761 24.1007 118.581 21.4497 118.581 17.9309V11.5684H114.297H110.014V30.1259Z" fill="white"/>
<path d="M16.2315 18.0755V21.2086H14.428H12.6245V24.8237V28.4388H14.428H16.2315L16.2766 35.7654C16.2766 46.8999 17.1784 48.587 23.4005 49.069C25.0236 49.1654 27.2329 49.0208 28.315 48.7316L30.2087 48.1532V44.5863V41.0194L27.6387 41.1158L25.0236 41.2122L24.8884 34.8014L24.7531 28.4388H27.4584H30.1636L30.0735 24.9201L29.9833 21.4496L27.4133 21.305L24.7982 21.1604V18.0755V14.9424H20.5149H16.2315V18.0755Z" fill="white"/>
<path d="M47.7928 21.0158C45.6286 21.7871 43.1488 23.3777 42.9684 24.1489C42.5626 25.7396 41.9314 25.113 41.9314 23.1367V21.2086H37.6481H33.3647V34.9461V48.6835H37.603H41.8412L42.0216 42.0317C42.2019 34.6086 42.6077 33.259 45.313 31.0417C46.5304 30.0777 47.6576 29.6439 49.7316 29.4511L52.527 29.1619L52.6623 25.354C52.7525 22.6065 52.6172 21.4015 52.2114 21.1604C51.5802 20.7266 48.92 20.6302 47.7928 21.0158Z" fill="white"/>
<path d="M63.7088 21.5942C59.7411 23.0885 57.5318 25.3058 56.134 29.1619C55.097 32.054 54.9167 33.0662 55.097 36.1993C55.3676 41.4532 57.0809 44.8273 60.5977 47.141C62.807 48.6352 63.6186 48.8763 66.6395 49.0691C69.2095 49.2137 70.5621 49.0691 71.9148 48.4906C73.0419 47.9604 73.7633 47.864 73.8535 48.2014C73.9437 48.4906 75.7021 48.6834 78.2721 48.6834H82.5104V34.946V21.2086H78.227C74.7102 21.2086 73.9437 21.3532 73.9437 21.9317C73.9437 22.8475 73.9437 22.8475 72.0951 21.8352C69.8858 20.6302 66.4591 20.5338 63.7088 21.5942ZM70.9228 29.1137C73.8084 30.3669 75.0258 34.223 73.7183 37.8863C72.8165 40.3928 71.2835 41.4532 68.5783 41.4532C62.807 41.4532 61.0937 31.6201 66.414 29.1619C68.2626 28.2942 69.1193 28.2942 70.9228 29.1137Z" fill="white"/>
<path d="M92.3394 21.2568C91.3926 21.546 89.8145 22.5583 88.7775 23.5705C87.1093 25.1129 86.8838 25.6432 86.6584 27.9086C86.2075 33.1626 87.8758 35.428 94.4586 38.0791C98.0205 39.5734 98.9673 40.6338 97.6598 41.7424C96.2621 42.8029 94.7291 42.5619 93.3314 40.9712C91.8435 39.2842 91.8435 39.2842 88.3717 40.3446C85.3508 41.3086 84.945 42.2727 86.5682 44.4899C87.0642 45.1647 87.47 45.8878 87.47 46.1288C87.47 46.3216 88.6873 47.141 90.1752 47.9122C97.2991 51.7201 106.858 47.623 106.858 40.7302C106.858 38.4165 105.866 36.0547 104.378 34.8014C103.747 34.223 101.537 33.1144 99.5084 32.295C95.4054 30.6079 94.4135 29.8367 94.8193 28.728C95.2701 27.523 97.2089 27.8122 98.1558 29.1619L98.9673 30.3669L102.349 29.3547C104.198 28.8244 105.776 28.2942 105.866 28.1978C105.956 28.1014 105.505 27.041 104.919 25.7878C102.935 21.8352 97.254 19.8108 92.3394 21.2568Z" fill="white"/>
<path d="M148.924 21.4014C142.838 23.5223 139.321 28.5834 139.321 35.2352C139.321 41.1158 141.395 44.7791 146.309 47.623C148.293 48.7798 149.06 48.9244 152.847 48.9244C156.725 48.9244 157.356 48.7798 159.52 47.5266C161.504 46.3216 164.119 43.6223 164.119 42.7065C164.119 42.5618 162.766 41.7424 161.098 40.9712L158.032 39.477L156.409 40.4892C153.839 41.9834 151.449 41.7906 149.42 39.8144C148.158 38.5611 147.752 37.7417 147.572 36.1029C147.256 33.259 148.293 30.6561 150.232 29.4029C152.126 28.1978 153.523 28.1978 155.778 29.4029C158.077 30.6561 158.258 30.6561 161.459 28.9208C163.758 27.6676 164.074 27.3302 163.713 26.559C162.992 25.1611 160.196 22.7511 158.348 21.8834C156.003 20.823 151.224 20.582 148.924 21.4014Z" fill="white"/>
<path d="M175.842 21.3533C172.505 22.6547 171.513 23.3295 169.981 25.354C167.771 28.2943 166.869 30.9936 166.869 34.9943C166.824 41.0677 168.673 44.8274 173.092 47.5749C175.797 49.3101 180.892 49.6957 183.597 48.3943C184.995 47.7195 185.536 47.6713 185.671 48.1051C185.761 48.4907 187.114 48.6835 190.09 48.6835H194.328V34.9461V21.2087H190.045C186.392 21.2087 185.761 21.3051 185.761 21.9799C185.761 22.5583 185.536 22.6547 184.995 22.4137C180.982 20.5821 178.592 20.3411 175.842 21.3533ZM182.966 29.3547C183.056 29.6439 183.417 29.8849 183.777 29.8849C184.138 29.8849 184.409 30.2223 184.409 30.608C184.409 30.9936 184.589 31.331 184.814 31.331C185.04 31.331 185.446 32.054 185.761 32.9698C186.979 36.9706 184.228 41.4533 180.531 41.4533C178.953 41.4533 178.277 41.1641 176.924 39.8144C172.821 35.7655 175.662 27.9087 181.027 28.6317C182.019 28.7763 182.876 29.1137 182.966 29.3547Z" fill="white"/>
<path d="M210.559 21.5461C209.432 21.9317 208.17 22.6065 207.764 23.0403C206.997 23.7151 206.952 23.6669 206.952 22.5101V21.2087H202.669H198.386V34.9461V48.6835H202.669H206.952V40.7302C206.952 31.8612 207.268 30.4633 209.658 29.1619C211.777 28.0051 213.175 28.2461 214.888 30.1259C215.745 31.0899 216.421 32.295 216.466 32.9216C216.466 33.5 216.511 37.3079 216.511 41.3087L216.556 48.6835H220.794H224.987V41.2122C224.987 34.6569 225.123 33.4518 225.889 31.813C227.512 28.4389 230.849 27.4748 232.878 29.7403C234.726 31.813 234.907 32.777 234.907 41.0194V48.6835H239.19H243.473V41.0676C243.473 33.3072 242.977 28.7281 241.895 26.5108C239.912 22.4137 235.313 20.1964 230.714 21.1123C227.963 21.6907 224.086 23.9079 224.086 24.9202C224.086 25.8842 223.545 25.6914 221.02 23.6669C219.577 22.5101 217.819 21.5943 216.421 21.2569C213.49 20.582 213.039 20.6302 210.559 21.5461Z" fill="white"/>
</svg>
