<svg width="389" height="248" viewBox="0 0 389 248" fill="none" xmlns="http://www.w3.org/2000/svg">
<g filter="url(#filter0_dd_3529_4421)">
<g clip-path="url(#clip0_3529_4421)">
<rect x="4" y="3" width="381" height="240" rx="16" fill="white"/>
<path d="M16.9897 31.6172V22.5746H23.065V23.585H18.1024V26.9744H22.4383V27.9976H18.1024V31.6172H16.9897ZM24.3905 31.6172V24.8768H25.4776V31.6172H24.3905ZM24.9277 23.8792C24.706 23.8792 24.5269 23.8109 24.3905 23.6745C24.2626 23.5381 24.1986 23.3633 24.1986 23.1501C24.1986 22.937 24.2668 22.7664 24.4033 22.6385C24.5397 22.5021 24.7145 22.4339 24.9277 22.4339C25.1238 22.4339 25.2943 22.5021 25.4393 22.6385C25.5928 22.7749 25.6695 22.9455 25.6695 23.1501C25.6695 23.3633 25.597 23.5381 25.4521 23.6745C25.3071 23.8109 25.1323 23.8792 24.9277 23.8792ZM27.1883 31.6172V24.8768H28.2371L28.2883 25.9C28.4418 25.6527 28.6379 25.4481 28.8766 25.2861C29.1154 25.1241 29.3754 25.0047 29.6568 24.928C29.9467 24.8427 30.2281 24.8001 30.501 24.8001C31.1575 24.8001 31.6691 24.9365 32.0358 25.2093C32.411 25.4822 32.6753 25.8531 32.8288 26.3221C32.9908 26.7825 33.0718 27.3069 33.0718 27.8953V31.6172H31.9846V28.1894C31.9846 27.8739 31.9633 27.5712 31.9207 27.2813C31.8866 26.9914 31.8098 26.7314 31.6904 26.5011C31.5796 26.2709 31.4176 26.0919 31.2044 25.964C30.9912 25.8275 30.7056 25.7593 30.3475 25.7593C29.9041 25.7593 29.5246 25.8829 29.2092 26.1302C28.9022 26.3775 28.6677 26.71 28.5057 27.1279C28.3522 27.5457 28.2755 28.0146 28.2755 28.5348V31.6172H27.1883ZM37.6611 31.6939C36.9449 31.6939 36.3523 31.549 35.8833 31.2591C35.4143 30.9606 35.0647 30.5513 34.8345 30.0312C34.6043 29.5111 34.4892 28.9185 34.4892 28.2534C34.4892 27.5798 34.6086 26.9872 34.8473 26.4756C35.0946 25.9554 35.4527 25.5461 35.9217 25.2477C36.3906 24.9493 36.9662 24.8001 37.6483 24.8001C38.177 24.8001 38.6289 24.9024 39.0041 25.107C39.3878 25.3031 39.7033 25.5675 39.9506 25.9C40.1978 26.2325 40.3769 26.5992 40.4877 27C40.5986 27.3922 40.6455 27.7887 40.6284 28.1894C40.6199 28.2662 40.6114 28.3429 40.6029 28.4197C40.6029 28.4964 40.5986 28.5731 40.5901 28.6499H35.5891C35.6232 29.0421 35.7213 29.396 35.8833 29.7115C36.0453 30.0269 36.2755 30.2785 36.574 30.4661C36.8724 30.6451 37.2433 30.7347 37.6867 30.7347C37.9084 30.7347 38.1301 30.7091 38.3518 30.6579C38.582 30.5982 38.7867 30.5002 38.9657 30.3638C39.1533 30.2273 39.2855 30.044 39.3622 29.8138H40.475C40.3726 30.2486 40.1808 30.6068 39.8994 30.8882C39.618 31.161 39.2812 31.3656 38.889 31.5021C38.4968 31.63 38.0875 31.6939 37.6611 31.6939ZM35.6147 27.7034H39.5157C39.5072 27.3197 39.4219 26.9829 39.2599 26.693C39.0979 26.4031 38.8762 26.1771 38.5948 26.0151C38.322 25.8531 37.9937 25.7721 37.61 25.7721C37.1922 25.7721 36.8383 25.8616 36.5484 26.0407C36.267 26.2198 36.0496 26.4542 35.8961 26.7442C35.7426 27.0341 35.6488 27.3538 35.6147 27.7034ZM44.7951 31.6172L48.1589 22.5746H49.7577L53.1087 31.6172H51.9064L51.1902 29.6731H46.7136L45.9974 31.6172H44.7951ZM47.0846 28.6627H50.8193L48.9519 23.5466L47.0846 28.6627ZM54.0925 31.6172V24.8768H55.1413L55.1925 25.9C55.346 25.6527 55.5421 25.4481 55.7808 25.2861C56.0196 25.1241 56.2797 25.0047 56.561 24.928C56.8509 24.8427 57.1323 24.8001 57.4052 24.8001C58.0617 24.8001 58.5733 24.9365 58.94 25.2093C59.3152 25.4822 59.5795 25.8531 59.733 26.3221C59.895 26.7825 59.976 27.3069 59.976 27.8953V31.6172H58.8888V28.1894C58.8888 27.8739 58.8675 27.5712 58.8249 27.2813C58.7908 26.9914 58.714 26.7314 58.5947 26.5011C58.4838 26.2709 58.3218 26.0919 58.1086 25.964C57.8955 25.8275 57.6098 25.7593 57.2517 25.7593C56.8083 25.7593 56.4289 25.8829 56.1134 26.1302C55.8064 26.3775 55.5719 26.71 55.4099 27.1279C55.2564 27.5457 55.1797 28.0146 55.1797 28.5348V31.6172H54.0925ZM63.8107 31.6939C63.5038 31.6939 63.2053 31.6556 62.9154 31.5788C62.634 31.4935 62.3782 31.3699 62.148 31.2079C61.9263 31.0374 61.7473 30.8285 61.6108 30.5812C61.4829 30.3254 61.419 30.0312 61.419 29.6987C61.419 29.315 61.4872 28.9909 61.6236 28.7266C61.7686 28.4623 61.9604 28.2534 62.1992 28.0999C62.4379 27.9464 62.715 27.8356 63.0305 27.7674C63.346 27.6991 63.6743 27.665 64.0154 27.665H65.9978C65.9978 27.2813 65.9424 26.9488 65.8316 26.6674C65.7293 26.386 65.5587 26.1686 65.32 26.0151C65.0812 25.8531 64.7657 25.7721 64.3735 25.7721C64.1348 25.7721 63.9131 25.7977 63.7084 25.8488C63.5038 25.9 63.329 25.981 63.184 26.0919C63.0391 26.2027 62.9325 26.3519 62.8643 26.5395H61.7004C61.7601 26.2325 61.8752 25.9725 62.0457 25.7593C62.2248 25.5376 62.4379 25.3586 62.6852 25.2221C62.941 25.0772 63.2139 24.9706 63.5038 24.9024C63.7937 24.8342 64.0836 24.8001 64.3735 24.8001C65.3456 24.8001 66.0362 25.0857 66.4455 25.657C66.8548 26.2283 67.0594 27 67.0594 27.972V31.6172H66.1513L66.0874 30.7602C65.8998 31.0161 65.6738 31.2122 65.4095 31.3486C65.1452 31.485 64.8723 31.5746 64.5909 31.6172C64.3181 31.6683 64.058 31.6939 63.8107 31.6939ZM63.9131 30.7347C64.3394 30.7347 64.706 30.6665 65.013 30.53C65.3285 30.3851 65.5715 30.1762 65.742 29.9033C65.9126 29.6305 65.9978 29.2979 65.9978 28.9057V28.5731H64.8084C64.527 28.5731 64.2499 28.5774 63.977 28.5859C63.7042 28.5945 63.4569 28.6286 63.2352 28.6882C63.0135 28.7479 62.8344 28.8503 62.698 28.9952C62.5701 29.1402 62.5061 29.3491 62.5061 29.6219C62.5061 29.8777 62.5701 30.0866 62.698 30.2486C62.8344 30.4107 63.0092 30.5343 63.2224 30.6196C63.4441 30.6963 63.6743 30.7347 63.9131 30.7347ZM68.7437 31.6172V22.5746H69.8309V31.6172H68.7437ZM74.5089 34.6357C73.9887 34.6357 73.4857 34.5632 72.9996 34.4182C72.5221 34.2733 72.0915 34.0217 71.7078 33.6636L72.1811 32.8067C72.5136 33.071 72.8675 33.2799 73.2427 33.4334C73.6264 33.5869 74.0271 33.6636 74.4449 33.6636C75.1441 33.6636 75.6429 33.459 75.9414 33.0497C76.2483 32.6489 76.4018 32.1373 76.4018 31.5149V30.7091C76.2483 30.9393 76.0522 31.1312 75.8135 31.2846C75.5832 31.4296 75.3274 31.5404 75.0461 31.6172C74.7647 31.6854 74.4748 31.7195 74.1763 31.7195C73.5112 31.7195 72.9868 31.5873 72.6031 31.323C72.2194 31.0587 71.9466 30.692 71.7846 30.2231C71.6226 29.7541 71.5416 29.2126 71.5416 28.5987V24.8768H72.6287V28.2918C72.6287 28.5987 72.6458 28.9014 72.6799 29.1999C72.7225 29.4898 72.8035 29.7541 72.9229 29.9928C73.0423 30.2231 73.2171 30.4107 73.4473 30.5556C73.6775 30.692 73.9845 30.7602 74.3682 30.7602C74.8542 30.7602 75.2422 30.6409 75.5321 30.4021C75.8305 30.1634 76.0437 29.8436 76.1716 29.4429C76.308 29.0421 76.3762 28.5987 76.3762 28.1127V24.8768H77.4634V31.6172C77.4634 32.1032 77.3994 32.5338 77.2715 32.909C77.1436 33.2842 76.9518 33.5997 76.696 33.8555C76.4402 34.1113 76.129 34.3031 75.7623 34.431C75.4042 34.5674 74.9864 34.6357 74.5089 34.6357ZM81.6289 31.6939C81.3219 31.6939 81.0107 31.6641 80.6952 31.6044C80.3882 31.5447 80.0983 31.4424 79.8255 31.2974C79.5611 31.1525 79.3394 30.9564 79.1604 30.7091C78.9813 30.4618 78.8662 30.1549 78.815 29.7882H79.915C80.0003 30.0184 80.1367 30.206 80.3243 30.351C80.5204 30.4874 80.7378 30.5855 80.9766 30.6451C81.2239 30.7048 81.4583 30.7347 81.68 30.7347C81.8165 30.7347 81.9742 30.7261 82.1533 30.7091C82.3323 30.692 82.5029 30.6537 82.6649 30.594C82.8354 30.5258 82.9718 30.4277 83.0742 30.2998C83.185 30.1719 83.2404 29.9928 83.2404 29.7626C83.2404 29.5921 83.2021 29.4514 83.1253 29.3405C83.0486 29.2297 82.942 29.1402 82.8056 29.072C82.6691 28.9952 82.5029 28.9398 82.3068 28.9057C81.906 28.8204 81.4754 28.7394 81.015 28.6627C80.563 28.5859 80.1623 28.441 79.8127 28.2278C79.6933 28.1511 79.5825 28.0658 79.4801 27.972C79.3863 27.8697 79.3053 27.7588 79.2371 27.6395C79.1689 27.5116 79.1135 27.3751 79.0709 27.2302C79.0367 27.0767 79.0197 26.9104 79.0197 26.7314C79.0197 26.3988 79.0836 26.1132 79.2115 25.8744C79.348 25.6271 79.5356 25.4268 79.7743 25.2733C80.0131 25.1113 80.2859 24.9919 80.5929 24.9152C80.9084 24.8384 81.2452 24.8001 81.6033 24.8001C82.0467 24.8001 82.4432 24.8725 82.7928 25.0175C83.1509 25.1539 83.4451 25.3586 83.6753 25.6314C83.9055 25.8957 84.0419 26.224 84.0846 26.6162H83.0742C83.0145 26.369 82.8525 26.1686 82.5881 26.0151C82.3238 25.8531 81.987 25.7721 81.5777 25.7721C81.4413 25.7721 81.2878 25.7849 81.1173 25.8105C80.9467 25.8275 80.7847 25.8702 80.6312 25.9384C80.4778 25.9981 80.3499 26.0919 80.2475 26.2198C80.1452 26.3391 80.0941 26.5011 80.0941 26.7058C80.0941 26.8934 80.141 27.0511 80.2348 27.179C80.3371 27.3069 80.4778 27.4092 80.6568 27.486C80.8359 27.5627 81.0405 27.6267 81.2708 27.6778C81.5692 27.7375 81.8975 27.8015 82.2556 27.8697C82.6137 27.9294 82.8951 27.9933 83.0997 28.0615C83.3726 28.1468 83.5986 28.2662 83.7776 28.4197C83.9652 28.5731 84.1016 28.7565 84.1869 28.9696C84.2807 29.1828 84.3276 29.4301 84.3276 29.7115C84.3276 30.1122 84.2466 30.4405 84.0846 30.6963C83.9311 30.9521 83.7222 31.1525 83.4579 31.2974C83.1935 31.4424 82.8994 31.5447 82.5753 31.6044C82.2599 31.6641 81.9444 31.6939 81.6289 31.6939ZM85.6806 31.6172V24.8768H86.7678V31.6172H85.6806ZM86.2178 23.8792C85.9961 23.8792 85.8171 23.8109 85.6806 23.6745C85.5527 23.5381 85.4888 23.3633 85.4888 23.1501C85.4888 22.937 85.557 22.7664 85.6934 22.6385C85.8299 22.5021 86.0047 22.4339 86.2178 22.4339C86.4139 22.4339 86.5845 22.5021 86.7294 22.6385C86.8829 22.7749 86.9597 22.9455 86.9597 23.1501C86.9597 23.3633 86.8872 23.5381 86.7422 23.6745C86.5973 23.8109 86.4225 23.8792 86.2178 23.8792ZM90.9342 31.6939C90.6272 31.6939 90.316 31.6641 90.0005 31.6044C89.6936 31.5447 89.4036 31.4424 89.1308 31.2974C88.8665 31.1525 88.6448 30.9564 88.4657 30.7091C88.2866 30.4618 88.1715 30.1549 88.1204 29.7882H89.2203C89.3056 30.0184 89.442 30.206 89.6296 30.351C89.8257 30.4874 90.0431 30.5855 90.2819 30.6451C90.5292 30.7048 90.7637 30.7347 90.9854 30.7347C91.1218 30.7347 91.2795 30.7261 91.4586 30.7091C91.6377 30.692 91.8082 30.6537 91.9702 30.594C92.1407 30.5258 92.2772 30.4277 92.3795 30.2998C92.4903 30.1719 92.5457 29.9928 92.5457 29.7626C92.5457 29.5921 92.5074 29.4514 92.4306 29.3405C92.3539 29.2297 92.2473 29.1402 92.1109 29.072C91.9745 28.9952 91.8082 28.9398 91.6121 28.9057C91.2113 28.8204 90.7807 28.7394 90.3203 28.6627C89.8683 28.5859 89.4676 28.441 89.118 28.2278C88.9986 28.1511 88.8878 28.0658 88.7855 27.972C88.6917 27.8697 88.6107 27.7588 88.5424 27.6395C88.4742 27.5116 88.4188 27.3751 88.3762 27.2302C88.3421 27.0767 88.325 26.9104 88.325 26.7314C88.325 26.3988 88.389 26.1132 88.5169 25.8744C88.6533 25.6271 88.8409 25.4268 89.0796 25.2733C89.3184 25.1113 89.5912 24.9919 89.8982 24.9152C90.2137 24.8384 90.5505 24.8001 90.9086 24.8001C91.352 24.8001 91.7485 24.8725 92.0981 25.0175C92.4562 25.1539 92.7504 25.3586 92.9806 25.6314C93.2108 25.8957 93.3473 26.224 93.3899 26.6162H92.3795C92.3198 26.369 92.1578 26.1686 91.8935 26.0151C91.6291 25.8531 91.2923 25.7721 90.883 25.7721C90.7466 25.7721 90.5931 25.7849 90.4226 25.8105C90.2521 25.8275 90.09 25.8702 89.9366 25.9384C89.7831 25.9981 89.6552 26.0919 89.5529 26.2198C89.4505 26.3391 89.3994 26.5011 89.3994 26.7058C89.3994 26.8934 89.4463 27.0511 89.5401 27.179C89.6424 27.3069 89.7831 27.4092 89.9621 27.486C90.1412 27.5627 90.3458 27.6267 90.5761 27.6778C90.8745 27.7375 91.2028 27.8015 91.5609 27.8697C91.919 27.9294 92.2004 27.9933 92.4051 28.0615C92.6779 28.1468 92.9039 28.2662 93.0829 28.4197C93.2705 28.5731 93.407 28.7565 93.4922 28.9696C93.586 29.1828 93.6329 29.4301 93.6329 29.7115C93.6329 30.1122 93.5519 30.4405 93.3899 30.6963C93.2364 30.9521 93.0275 31.1525 92.7632 31.2974C92.4989 31.4424 92.2047 31.5447 91.8807 31.6044C91.5652 31.6641 91.2497 31.6939 90.9342 31.6939Z" fill="#7C7A81"/>
<path d="M17.5214 66.9258V51.4022H23.7703C24.545 51.4022 25.2832 51.4826 25.9848 51.6434C26.7011 51.7896 27.3442 52.0454 27.9143 52.4108C28.4844 52.7762 28.9302 53.2879 29.2518 53.9456C29.588 54.5888 29.7561 55.4147 29.7561 56.4233C29.7561 57.1687 29.6318 57.8411 29.3833 58.4404C29.1348 59.0398 28.7694 59.5514 28.287 59.9753C27.8047 60.3992 27.2273 60.7281 26.5549 60.9619L29.9973 66.9258H26.4672L23.4414 61.4662H20.6568V66.9258H17.5214ZM20.6568 58.6816H23.551C24.0042 58.6816 24.4134 58.6451 24.7789 58.572C25.1589 58.4843 25.4805 58.3527 25.7436 58.1773C26.0213 58.0019 26.2333 57.7681 26.3795 57.4757C26.5403 57.1834 26.6207 56.8252 26.6207 56.4013C26.6353 55.8605 26.5183 55.4439 26.2698 55.1516C26.036 54.8446 25.6998 54.6326 25.2613 54.5157C24.8373 54.3842 24.3331 54.3184 23.7484 54.3184H20.6568V58.6816ZM36.5024 67.0793C35.9616 67.0793 35.4061 67.0208 34.836 66.9039C34.266 66.7869 33.7397 66.5896 33.2574 66.3119C32.775 66.0195 32.3657 65.6322 32.0295 65.1498C31.6933 64.6528 31.4741 64.0389 31.3717 63.308H34.4852C34.5729 63.5711 34.7264 63.7977 34.9457 63.9877C35.1795 64.1777 35.4426 64.3166 35.735 64.4043C36.042 64.492 36.3489 64.5359 36.6559 64.5359C36.8605 64.5359 37.0652 64.5212 37.2698 64.492C37.4744 64.4628 37.6645 64.4043 37.8399 64.3166C38.0153 64.2289 38.1542 64.1193 38.2565 63.9877C38.3588 63.8415 38.41 63.6588 38.41 63.4396C38.41 63.2057 38.3369 63.023 38.1907 62.8914C38.0445 62.7599 37.8399 62.6575 37.5768 62.5844C37.3137 62.4967 37.014 62.4163 36.6778 62.3433C36.0785 62.2117 35.4353 62.0655 34.7483 61.9047C34.0613 61.744 33.4693 61.5101 32.9723 61.2031C32.7677 61.0569 32.585 60.8962 32.4242 60.7207C32.2634 60.5453 32.1318 60.348 32.0295 60.1287C31.9272 59.9095 31.8468 59.6829 31.7883 59.449C31.7299 59.2005 31.7006 58.9374 31.7006 58.6597C31.7006 58.0312 31.8322 57.4976 32.0953 57.0591C32.373 56.606 32.7384 56.2405 33.1916 55.9628C33.6447 55.6851 34.149 55.4878 34.7045 55.3708C35.2599 55.2393 35.83 55.1735 36.4147 55.1735C37.204 55.1735 37.9349 55.305 38.6073 55.5682C39.2797 55.8166 39.8351 56.2113 40.2737 56.7522C40.7122 57.2784 40.9826 57.9654 41.0849 58.8132H38.1468C38.0884 58.4916 37.891 58.2358 37.5548 58.0458C37.2186 57.8411 36.8021 57.7388 36.3051 57.7388C36.1297 57.7388 35.9396 57.7534 35.735 57.7827C35.545 57.8119 35.3696 57.8631 35.2088 57.9362C35.048 58.0092 34.9164 58.1116 34.8141 58.2431C34.7118 58.3601 34.6606 58.5208 34.6606 58.7255C34.6606 58.8863 34.7045 59.0324 34.7922 59.164C34.8945 59.2956 35.0334 59.4052 35.2088 59.4929C35.3988 59.5806 35.6254 59.661 35.8885 59.7341C36.3855 59.851 36.8824 59.9606 37.3794 60.063C37.891 60.1507 38.3442 60.2457 38.7388 60.348C39.2212 60.4503 39.6597 60.6184 40.0544 60.8523C40.4637 61.0862 40.7926 61.4078 41.0411 61.817C41.3042 62.2117 41.4357 62.7306 41.4357 63.3738C41.4357 64.1046 41.2896 64.7113 40.9972 65.1936C40.7049 65.6614 40.3102 66.0341 39.8132 66.3119C39.3308 66.5896 38.7973 66.7869 38.2126 66.9039C37.6425 67.0208 37.0725 67.0793 36.5024 67.0793ZM51.5419 66.9258V55.5462H48.4942V53.1782C49.0935 53.1636 49.6343 53.1124 50.1167 53.0247C50.5991 52.9224 51.0303 52.747 51.4103 52.4985C51.7904 52.2354 52.1193 51.87 52.397 51.4022H54.6773V66.9258H51.5419ZM63.9662 67.1012C62.826 67.1012 61.8613 66.8965 61.0719 66.4873C60.2826 66.078 59.6394 65.5152 59.1425 64.799C58.6455 64.0681 58.2873 63.2276 58.0681 62.2775C57.8488 61.3127 57.7392 60.2895 57.7392 59.2079C57.7392 58.0969 57.8488 57.0591 58.0681 56.0944C58.302 55.1296 58.6674 54.2818 59.1644 53.551C59.676 52.8201 60.3265 52.25 61.1158 51.8407C61.9197 51.4315 62.8845 51.2268 64.01 51.2268C65.1794 51.2268 66.1588 51.4388 66.9481 51.8627C67.752 52.2866 68.3952 52.8786 68.8776 53.6387C69.3746 54.3842 69.7254 55.232 69.93 56.1821C70.1493 57.1322 70.2589 58.1262 70.2589 59.164C70.2589 60.2311 70.1493 61.2397 69.93 62.1898C69.7108 63.1399 69.3599 63.9877 68.8776 64.7332C68.3952 65.4641 67.752 66.0414 66.9481 66.4653C66.1441 66.8892 65.1502 67.1012 63.9662 67.1012ZM63.9662 64.207C64.6824 64.207 65.2452 64.0462 65.6545 63.7246C66.0784 63.3884 66.3926 62.9572 66.5973 62.431C66.8165 61.9047 66.9554 61.3566 67.0139 60.7865C67.087 60.2018 67.1235 59.661 67.1235 59.164C67.1235 58.6963 67.087 58.1773 67.0139 57.6073C66.9554 57.0226 66.8238 56.4744 66.6192 55.9628C66.4146 55.4366 66.1076 55.0054 65.6983 54.6692C65.289 54.333 64.7336 54.1649 64.0319 54.1649C63.3303 54.1649 62.7675 54.333 62.3436 54.6692C61.9197 54.9908 61.5982 55.4147 61.3789 55.9409C61.1743 56.4671 61.0354 57.0153 60.9623 57.5853C60.8892 58.1554 60.8527 58.6816 60.8527 59.164C60.8527 59.6464 60.8819 60.1799 60.9404 60.7646C61.0135 61.3493 61.1523 61.9047 61.357 62.431C61.5616 62.9572 61.8686 63.3884 62.2779 63.7246C62.7018 64.0462 63.2645 64.207 63.9662 64.207ZM78.046 67.1012C77.3152 67.1012 76.6062 67.0208 75.9192 66.86C75.2322 66.6846 74.6037 66.4142 74.0336 66.0487C73.4781 65.6687 73.0323 65.1717 72.6961 64.5578C72.3745 63.9439 72.2137 63.2057 72.2137 62.3433C72.2137 61.7732 72.2941 61.2616 72.4549 60.8084C72.6303 60.3407 72.8788 59.9314 73.2004 59.5806C73.5366 59.2152 73.9386 58.9228 74.4063 58.7036C74.0117 58.4551 73.6901 58.1627 73.4416 57.8265C73.1931 57.4757 73.0104 57.0957 72.8934 56.6864C72.7765 56.2771 72.718 55.8605 72.718 55.4366C72.718 54.6619 72.8715 54.0114 73.1785 53.4852C73.4854 52.9443 73.8947 52.5131 74.4063 52.1916C74.9179 51.8554 75.4953 51.6142 76.1385 51.468C76.7816 51.3072 77.4321 51.2268 78.0899 51.2268C78.7623 51.2268 79.4127 51.3072 80.0413 51.468C80.6698 51.6142 81.2399 51.8627 81.7515 52.2135C82.2631 52.5497 82.6724 52.9955 82.9794 53.551C83.2863 54.0918 83.4398 54.7496 83.4398 55.5243C83.4398 55.919 83.374 56.3209 83.2425 56.7302C83.1255 57.1249 82.9355 57.4903 82.6724 57.8265C82.4239 58.1627 82.1023 58.4478 81.7077 58.6816C82.1754 58.8863 82.5774 59.164 82.9136 59.5148C83.2498 59.8656 83.5056 60.2822 83.681 60.7646C83.8564 61.247 83.9441 61.7878 83.9441 62.3871C83.9441 63.2495 83.776 63.9804 83.4398 64.5797C83.1036 65.179 82.6505 65.6687 82.0804 66.0487C81.5103 66.4142 80.8745 66.6846 80.1728 66.86C79.4858 67.0208 78.7769 67.1012 78.046 67.1012ZM78.068 64.2727C78.3895 64.2727 78.7111 64.2362 79.0327 64.1631C79.3543 64.09 79.6466 63.9731 79.9097 63.8123C80.1728 63.6369 80.3775 63.4249 80.5237 63.1764C80.6845 62.9133 80.7648 62.5918 80.7648 62.2117C80.7648 61.744 80.6479 61.3639 80.414 61.0716C80.1802 60.7646 79.8586 60.538 79.4493 60.3919C79.0546 60.2311 78.5942 60.1507 78.068 60.1507C77.5564 60.1507 77.0886 60.2311 76.6647 60.3919C76.2554 60.538 75.9338 60.7646 75.7 61.0716C75.4661 61.3639 75.3491 61.744 75.3491 62.2117C75.3491 62.5918 75.4295 62.9133 75.5903 63.1764C75.7511 63.4249 75.9558 63.6369 76.2043 63.8123C76.4674 63.9731 76.7597 64.09 77.0813 64.1631C77.4029 64.2362 77.7318 64.2727 78.068 64.2727ZM78.0899 57.7607C78.5576 57.7607 78.9523 57.6877 79.2739 57.5415C79.6101 57.3807 79.8659 57.1614 80.0413 56.8837C80.2313 56.5914 80.3263 56.2698 80.3263 55.919C80.3263 55.4804 80.2313 55.1223 80.0413 54.8446C79.8513 54.5522 79.5808 54.333 79.23 54.1868C78.8938 54.026 78.4919 53.9456 78.0241 53.9456C77.571 53.9456 77.1763 54.026 76.8401 54.1868C76.5185 54.333 76.2627 54.5449 76.0727 54.8227C75.8973 55.1004 75.8096 55.4366 75.8096 55.8313C75.8096 56.2259 75.9046 56.5694 76.0946 56.8618C76.2847 57.1541 76.5478 57.3807 76.884 57.5415C77.2348 57.6877 77.6367 57.7607 78.0899 57.7607ZM87.0137 70.2804L86.1367 68.943C86.356 68.826 86.5971 68.6579 86.8603 68.4387C87.138 68.2194 87.3865 67.9782 87.6057 67.7151C87.825 67.4666 87.9712 67.2327 88.0443 67.0135C87.6057 66.9843 87.2184 66.8162 86.8822 66.5092C86.546 66.2022 86.3779 65.7783 86.3779 65.2375C86.3925 64.6382 86.5898 64.185 86.9699 63.8781C87.3645 63.5565 87.8104 63.3957 88.3074 63.3957C88.9505 63.3957 89.4475 63.6296 89.7983 64.0973C90.1491 64.5505 90.3245 65.1498 90.3245 65.8953C90.3245 66.5823 90.1638 67.2254 89.8422 67.8247C89.5206 68.4241 89.1113 68.9357 88.6143 69.3596C88.1173 69.7835 87.5838 70.0904 87.0137 70.2804ZM97.9281 67.1012C97.0364 67.1012 96.2105 66.955 95.4504 66.6627C94.6903 66.3557 94.0472 65.888 93.5209 65.2594C93.0093 64.6309 92.6804 63.8415 92.5343 62.8914H95.6039C95.7647 63.3299 96.079 63.6661 96.5467 63.9C97.0145 64.1193 97.5115 64.2289 98.0377 64.2289C98.637 64.2289 99.1413 64.112 99.5506 63.8781C99.9745 63.6296 100.311 63.308 100.559 62.9133C100.808 62.5041 100.99 62.0582 101.107 61.5759C101.224 61.0789 101.29 60.5746 101.305 60.063C101.305 60.0045 101.305 59.946 101.305 59.8876C101.305 59.8145 101.305 59.7487 101.305 59.6902C100.983 60.158 100.596 60.5234 100.143 60.7865C99.6894 61.0496 99.2217 61.2323 98.7393 61.3347C98.2569 61.437 97.7965 61.4882 97.358 61.4882C96.4371 61.4882 95.6039 61.2981 94.8584 60.9181C94.1129 60.5234 93.5209 59.9606 93.0824 59.2298C92.6585 58.4989 92.4466 57.6146 92.4466 56.5767C92.4466 55.422 92.7097 54.4499 93.2359 53.6606C93.7621 52.8566 94.4564 52.25 95.3189 51.8407C96.1959 51.4315 97.1533 51.2268 98.1912 51.2268C99.3313 51.2268 100.289 51.4534 101.063 51.9065C101.838 52.3597 102.452 52.9736 102.905 53.7483C103.358 54.523 103.68 55.3854 103.87 56.3356C104.075 57.2857 104.177 58.2577 104.177 59.2517C104.177 60.3334 104.06 61.3493 103.826 62.2994C103.607 63.2349 103.249 64.0681 102.752 64.799C102.269 65.5152 101.626 66.078 100.822 66.4873C100.033 66.8965 99.0682 67.1012 97.9281 67.1012ZM98.0596 58.857C98.6297 58.857 99.0974 58.7401 99.4629 58.5062C99.8429 58.2723 100.128 57.98 100.318 57.6292C100.523 57.2638 100.625 56.8837 100.625 56.489C100.625 55.9921 100.508 55.5682 100.274 55.2173C100.055 54.8519 99.7552 54.5742 99.3752 54.3842C99.0097 54.1795 98.5858 54.0772 98.1035 54.0772C97.5772 54.0772 97.1241 54.1868 96.7441 54.4061C96.364 54.6253 96.0717 54.9177 95.867 55.2831C95.6624 55.6485 95.5601 56.0432 95.5601 56.4671C95.5601 57.1395 95.772 57.7096 96.1959 58.1773C96.6344 58.6305 97.2557 58.857 98.0596 58.857ZM112.357 67.1012C111.217 67.1012 110.252 66.8965 109.463 66.4873C108.674 66.078 108.031 65.5152 107.534 64.799C107.037 64.0681 106.679 63.2276 106.459 62.2775C106.24 61.3127 106.13 60.2895 106.13 59.2079C106.13 58.0969 106.24 57.0591 106.459 56.0944C106.693 55.1296 107.059 54.2818 107.556 53.551C108.067 52.8201 108.718 52.25 109.507 51.8407C110.311 51.4315 111.276 51.2268 112.401 51.2268C113.571 51.2268 114.55 51.4388 115.339 51.8627C116.143 52.2866 116.786 52.8786 117.269 53.6387C117.766 54.3842 118.117 55.232 118.321 56.1821C118.54 57.1322 118.65 58.1262 118.65 59.164C118.65 60.2311 118.54 61.2397 118.321 62.1898C118.102 63.1399 117.751 63.9877 117.269 64.7332C116.786 65.4641 116.143 66.0414 115.339 66.4653C114.535 66.8892 113.541 67.1012 112.357 67.1012ZM112.357 64.207C113.074 64.207 113.636 64.0462 114.046 63.7246C114.47 63.3884 114.784 62.9572 114.988 62.431C115.208 61.9047 115.347 61.3566 115.405 60.7865C115.478 60.2018 115.515 59.661 115.515 59.164C115.515 58.6963 115.478 58.1773 115.405 57.6073C115.347 57.0226 115.215 56.4744 115.01 55.9628C114.806 55.4366 114.499 55.0054 114.09 54.6692C113.68 54.333 113.125 54.1649 112.423 54.1649C111.722 54.1649 111.159 54.333 110.735 54.6692C110.311 54.9908 109.989 55.4147 109.77 55.9409C109.565 56.4671 109.427 57.0153 109.354 57.5853C109.28 58.1554 109.244 58.6816 109.244 59.164C109.244 59.6464 109.273 60.1799 109.332 60.7646C109.405 61.3493 109.544 61.9047 109.748 62.431C109.953 62.9572 110.26 63.3884 110.669 63.7246C111.093 64.0462 111.656 64.207 112.357 64.207ZM126.832 67.1012C125.692 67.1012 124.727 66.8965 123.938 66.4873C123.148 66.078 122.505 65.5152 122.008 64.799C121.511 64.0681 121.153 63.2276 120.934 62.2775C120.715 61.3127 120.605 60.2895 120.605 59.2079C120.605 58.0969 120.715 57.0591 120.934 56.0944C121.168 55.1296 121.533 54.2818 122.03 53.551C122.542 52.8201 123.192 52.25 123.982 51.8407C124.785 51.4315 125.75 51.2268 126.876 51.2268C128.045 51.2268 129.024 51.4388 129.814 51.8627C130.618 52.2866 131.261 52.8786 131.743 53.6387C132.24 54.3842 132.591 55.232 132.796 56.1821C133.015 57.1322 133.125 58.1262 133.125 59.164C133.125 60.2311 133.015 61.2397 132.796 62.1898C132.576 63.1399 132.226 63.9877 131.743 64.7332C131.261 65.4641 130.618 66.0414 129.814 66.4653C129.01 66.8892 128.016 67.1012 126.832 67.1012ZM126.832 64.207C127.548 64.207 128.111 64.0462 128.52 63.7246C128.944 63.3884 129.258 62.9572 129.463 62.431C129.682 61.9047 129.821 61.3566 129.88 60.7865C129.953 60.2018 129.989 59.661 129.989 59.164C129.989 58.6963 129.953 58.1773 129.88 57.6073C129.821 57.0226 129.69 56.4744 129.485 55.9628C129.28 55.4366 128.973 55.0054 128.564 54.6692C128.155 54.333 127.599 54.1649 126.898 54.1649C126.196 54.1649 125.633 54.333 125.209 54.6692C124.785 54.9908 124.464 55.4147 124.245 55.9409C124.04 56.4671 123.901 57.0153 123.828 57.5853C123.755 58.1554 123.718 58.6816 123.718 59.164C123.718 59.6464 123.748 60.1799 123.806 60.7646C123.879 61.3493 124.018 61.9047 124.223 62.431C124.427 62.9572 124.734 63.3884 125.144 63.7246C125.568 64.0462 126.13 64.207 126.832 64.207Z" fill="#0C0815"/>
<rect x="251.815" y="59.3853" width="47.9387" height="15.5405" rx="2.3023" fill="#F0FDFA"/>
<path d="M260.056 64.6699V65.4984H263.614L259.642 69.471L260.226 70.055L264.198 66.0825V69.6408H265.027V64.6699H260.056Z" fill="#05DFAD"/>
<path d="M271.554 70.6558V65.4341H270.228V64.8908C270.474 64.8724 270.692 64.8447 270.882 64.8079C271.072 64.7649 271.241 64.6943 271.389 64.5961C271.542 64.4917 271.677 64.3413 271.794 64.1448H272.356V70.6558H271.554ZM276.208 70.7294C275.913 70.7294 275.624 70.6987 275.342 70.6373C275.066 70.5698 274.817 70.4624 274.596 70.315C274.375 70.1677 274.197 69.9743 274.062 69.7348C273.933 69.4893 273.869 69.1915 273.869 68.8415C273.869 68.596 273.911 68.3719 273.997 68.1693C274.083 67.9667 274.206 67.7917 274.366 67.6443C274.532 67.497 274.725 67.3804 274.946 67.2944C274.7 67.1777 274.513 67.0335 274.384 66.8616C274.255 66.6835 274.169 66.4993 274.126 66.309C274.083 66.1187 274.062 65.9468 274.062 65.7933C274.062 65.4863 274.12 65.2254 274.237 65.0105C274.36 64.7956 274.522 64.6176 274.725 64.4764C274.934 64.3352 275.164 64.2339 275.416 64.1725C275.674 64.1049 275.938 64.0712 276.208 64.0712C276.478 64.0712 276.739 64.1049 276.99 64.1725C277.248 64.2339 277.479 64.3352 277.681 64.4764C277.89 64.6176 278.053 64.7956 278.169 65.0105C278.292 65.2254 278.353 65.4863 278.353 65.7933C278.353 65.9529 278.329 66.1248 278.28 66.309C278.237 66.4932 278.151 66.6712 278.022 66.8431C277.893 67.0089 277.706 67.1501 277.46 67.2668C277.693 67.3527 277.89 67.4724 278.049 67.6259C278.215 67.7794 278.338 67.9605 278.418 68.1693C278.504 68.3719 278.547 68.596 278.547 68.8415C278.547 69.1915 278.479 69.4893 278.344 69.7348C278.215 69.9743 278.037 70.1677 277.81 70.315C277.589 70.4624 277.34 70.5698 277.064 70.6373C276.788 70.6987 276.502 70.7294 276.208 70.7294ZM276.208 70.0019C276.355 70.0019 276.515 69.9866 276.687 69.9559C276.858 69.9252 277.021 69.8699 277.175 69.7901C277.334 69.7041 277.463 69.5875 277.561 69.4401C277.666 69.2867 277.718 69.0902 277.718 68.8508C277.718 68.5683 277.644 68.3442 277.497 68.1785C277.356 68.0127 277.168 67.893 276.935 67.8193C276.708 67.7457 276.466 67.7088 276.208 67.7088C275.956 67.7088 275.713 67.7457 275.48 67.8193C275.247 67.893 275.056 68.0127 274.909 68.1785C274.762 68.3442 274.688 68.5683 274.688 68.8508C274.688 69.0902 274.737 69.2867 274.835 69.4401C274.94 69.5875 275.072 69.7041 275.231 69.7901C275.391 69.8699 275.557 69.9252 275.729 69.9559C275.901 69.9866 276.06 70.0019 276.208 70.0019ZM276.208 66.9997C276.441 66.9997 276.656 66.9629 276.852 66.8892C277.049 66.8094 277.208 66.6927 277.331 66.5392C277.46 66.3796 277.525 66.1801 277.525 65.9406C277.531 65.6582 277.472 65.4341 277.35 65.2684C277.227 65.1026 277.064 64.9829 276.861 64.9092C276.665 64.8355 276.447 64.7987 276.208 64.7987C275.962 64.7987 275.738 64.8386 275.535 64.9184C275.339 64.9921 275.182 65.1118 275.066 65.2776C274.949 65.4372 274.891 65.646 274.891 65.9038C274.891 66.1617 274.952 66.3735 275.075 66.5392C275.204 66.6989 275.367 66.8155 275.563 66.8892C275.766 66.9629 275.98 66.9997 276.208 66.9997ZM280.242 70.7294C280.082 70.7294 279.95 70.6772 279.846 70.5729C279.742 70.4685 279.689 70.3365 279.689 70.1769C279.689 70.0173 279.742 69.8853 279.846 69.7809C279.95 69.6765 280.082 69.6243 280.242 69.6243C280.402 69.6243 280.534 69.6765 280.638 69.7809C280.742 69.8853 280.794 70.0173 280.794 70.1769C280.794 70.3365 280.742 70.4685 280.638 70.5729C280.534 70.6772 280.402 70.7294 280.242 70.7294ZM282.332 70.6558L284.965 64.8816H281.521V64.1448H285.849V64.8079L283.216 70.6558H282.332ZM287.34 70.6558L291.346 64.1448H292.157L288.16 70.6558H287.34ZM291.595 70.711C291.3 70.711 291.052 70.6466 290.849 70.5176C290.653 70.3887 290.502 70.2168 290.398 70.0019C290.293 69.7809 290.241 69.5353 290.241 69.2652C290.241 68.9828 290.293 68.7341 290.398 68.5192C290.502 68.3043 290.656 68.1355 290.858 68.0127C291.061 67.8899 291.306 67.8285 291.595 67.8285C291.877 67.8285 292.117 67.8899 292.313 68.0127C292.51 68.1355 292.66 68.3043 292.765 68.5192C292.869 68.7341 292.921 68.9828 292.921 69.2652C292.921 69.5353 292.869 69.7809 292.765 70.0019C292.66 70.2168 292.51 70.3887 292.313 70.5176C292.117 70.6466 291.877 70.711 291.595 70.711ZM291.586 70.0572C291.745 70.0572 291.871 70.0203 291.963 69.9467C292.062 69.873 292.129 69.7747 292.166 69.652C292.209 69.5292 292.23 69.4002 292.23 69.2652C292.23 69.1301 292.209 69.0042 292.166 68.8876C292.129 68.7648 292.062 68.6666 291.963 68.5929C291.871 68.5192 291.745 68.4824 291.586 68.4824C291.34 68.4824 291.165 68.5622 291.061 68.7218C290.963 68.8815 290.913 69.0626 290.913 69.2652C290.913 69.4801 290.966 69.6673 291.07 69.8269C291.174 69.9804 291.346 70.0572 291.586 70.0572ZM287.948 66.9537C287.653 66.9537 287.405 66.8892 287.202 66.7603C287.006 66.6313 286.855 66.4594 286.751 66.2445C286.653 66.0235 286.604 65.7779 286.604 65.5078C286.604 65.2254 286.653 64.9767 286.751 64.7619C286.855 64.547 287.009 64.3781 287.211 64.2554C287.414 64.1326 287.66 64.0712 287.948 64.0712C288.237 64.0712 288.479 64.1326 288.676 64.2554C288.872 64.3781 289.019 64.547 289.118 64.7619C289.222 64.9767 289.274 65.2254 289.274 65.5078C289.274 65.7779 289.222 66.0235 289.118 66.2445C289.019 66.4594 288.872 66.6313 288.676 66.7603C288.479 66.8892 288.237 66.9537 287.948 66.9537ZM287.948 66.2998C288.108 66.2998 288.234 66.263 288.326 66.1893C288.418 66.1156 288.485 66.0174 288.528 65.8946C288.571 65.7718 288.593 65.6429 288.593 65.5078C288.593 65.3727 288.571 65.2469 288.528 65.1302C288.485 65.0074 288.418 64.9092 288.326 64.8355C288.234 64.7619 288.108 64.725 287.948 64.725C287.703 64.725 287.528 64.8048 287.423 64.9645C287.319 65.1241 287.267 65.3052 287.267 65.5078C287.267 65.7227 287.319 65.9099 287.423 66.0696C287.528 66.2231 287.703 66.2998 287.948 66.2998Z" fill="#05DFAD"/>
<path d="M307.805 70.6558L305.364 64.1448H306.239L308.385 69.9651L310.531 64.1448H311.396L308.965 70.6558H307.805ZM313.448 70.711C313.227 70.711 313.003 70.6895 312.776 70.6466C312.555 70.6036 312.346 70.5299 312.15 70.4255C311.959 70.3212 311.8 70.18 311.671 70.0019C311.542 69.8239 311.459 69.6028 311.422 69.3388H312.214C312.276 69.5046 312.374 69.6397 312.509 69.744C312.65 69.8423 312.807 69.9129 312.979 69.9559C313.157 69.9988 313.325 70.0203 313.485 70.0203C313.583 70.0203 313.697 70.0142 313.826 70.0019C313.955 69.9896 314.078 69.962 314.194 69.919C314.317 69.8699 314.415 69.7993 314.489 69.7072C314.569 69.6151 314.609 69.4862 314.609 69.3204C314.609 69.1976 314.581 69.0963 314.526 69.0165C314.47 68.9367 314.394 68.8722 314.295 68.8231C314.197 68.7679 314.078 68.728 313.936 68.7034C313.648 68.642 313.338 68.5837 313.006 68.5284C312.681 68.4732 312.392 68.3688 312.141 68.2153C312.055 68.1601 311.975 68.0987 311.901 68.0311C311.834 67.9575 311.775 67.8776 311.726 67.7917C311.677 67.6996 311.637 67.6014 311.606 67.497C311.582 67.3865 311.57 67.2668 311.57 67.1378C311.57 66.8984 311.616 66.6927 311.708 66.5208C311.806 66.3428 311.941 66.1985 312.113 66.088C312.285 65.9713 312.481 65.8854 312.702 65.8301C312.929 65.7749 313.172 65.7473 313.43 65.7473C313.749 65.7473 314.035 65.7994 314.286 65.9038C314.544 66.002 314.756 66.1494 314.922 66.3459C315.087 66.5362 315.186 66.7725 315.216 67.055H314.489C314.446 66.8769 314.329 66.7326 314.139 66.6221C313.949 66.5055 313.706 66.4472 313.411 66.4472C313.313 66.4472 313.203 66.4564 313.08 66.4748C312.957 66.4871 312.84 66.5178 312.73 66.5669C312.619 66.6098 312.527 66.6774 312.454 66.7695C312.38 66.8554 312.343 66.9721 312.343 67.1194C312.343 67.2545 312.377 67.3681 312.444 67.4602C312.518 67.5523 312.619 67.6259 312.748 67.6812C312.877 67.7364 313.025 67.7825 313.19 67.8193C313.405 67.8623 313.642 67.9083 313.899 67.9575C314.157 68.0004 314.36 68.0465 314.507 68.0956C314.704 68.157 314.866 68.2429 314.995 68.3535C315.13 68.464 315.229 68.596 315.29 68.7495C315.358 68.9029 315.391 69.081 315.391 69.2836C315.391 69.5721 315.333 69.8085 315.216 69.9927C315.106 70.1769 314.955 70.3212 314.765 70.4255C314.575 70.5299 314.363 70.6036 314.13 70.6466C313.903 70.6895 313.675 70.711 313.448 70.711ZM320.819 70.6558C320.45 70.6558 320.152 70.6005 319.925 70.49C319.704 70.3795 319.542 70.2076 319.437 69.9743C319.339 69.741 319.29 69.4463 319.29 69.0902V66.4932H318.498V65.8025H319.29V64.3567H320.073V65.8025H321.371V66.4932H320.073V69.0073C320.073 69.3388 320.131 69.5844 320.248 69.744C320.37 69.8975 320.616 69.9743 320.984 69.9743H321.343V70.6558H320.819ZM322.256 70.6558V64.1448H323.039V66.5485C323.156 66.3765 323.297 66.2323 323.463 66.1156C323.635 65.9928 323.822 65.9007 324.024 65.8393C324.227 65.7779 324.436 65.7473 324.651 65.7473C325.123 65.7473 325.492 65.8455 325.756 66.0419C326.026 66.2384 326.216 66.5055 326.327 66.8431C326.437 67.1747 326.493 67.5553 326.493 67.9851V70.6558H325.71V68.2245C325.71 68.0096 325.694 67.7978 325.664 67.5891C325.639 67.3742 325.587 67.1808 325.507 67.0089C325.427 66.837 325.305 66.6989 325.139 66.5945C324.979 66.4901 324.761 66.4379 324.485 66.4379C324.221 66.4379 323.994 66.4963 323.803 66.6129C323.619 66.7296 323.472 66.8861 323.361 67.0826C323.251 67.2729 323.168 67.4847 323.113 67.718C323.064 67.9452 323.039 68.1693 323.039 68.3903V70.6558H322.256ZM327.697 70.6558V65.8025H328.48V70.6558H327.697ZM328.084 65.0842C327.924 65.0842 327.795 65.0351 327.697 64.9368C327.605 64.8386 327.559 64.7128 327.559 64.5593C327.559 64.4058 327.608 64.283 327.706 64.1909C327.805 64.0927 327.931 64.0435 328.084 64.0435C328.225 64.0435 328.348 64.0927 328.452 64.1909C328.563 64.2891 328.618 64.4119 328.618 64.5593C328.618 64.7128 328.566 64.8386 328.462 64.9368C328.357 65.0351 328.231 65.0842 328.084 65.0842ZM331.48 70.711C331.259 70.711 331.035 70.6895 330.808 70.6466C330.587 70.6036 330.378 70.5299 330.181 70.4255C329.991 70.3212 329.831 70.18 329.703 70.0019C329.574 69.8239 329.491 69.6028 329.454 69.3388H330.246C330.307 69.5046 330.406 69.6397 330.541 69.744C330.682 69.8423 330.838 69.9129 331.01 69.9559C331.188 69.9988 331.357 70.0203 331.517 70.0203C331.615 70.0203 331.729 70.0142 331.858 70.0019C331.986 69.9896 332.109 69.962 332.226 69.919C332.349 69.8699 332.447 69.7993 332.521 69.7072C332.6 69.6151 332.64 69.4862 332.64 69.3204C332.64 69.1976 332.613 69.0963 332.557 69.0165C332.502 68.9367 332.425 68.8722 332.327 68.8231C332.229 68.7679 332.109 68.728 331.968 68.7034C331.679 68.642 331.369 68.5837 331.038 68.5284C330.713 68.4732 330.424 68.3688 330.172 68.2153C330.086 68.1601 330.006 68.0987 329.933 68.0311C329.865 67.9575 329.807 67.8776 329.758 67.7917C329.709 67.6996 329.669 67.6014 329.638 67.497C329.614 67.3865 329.601 67.2668 329.601 67.1378C329.601 66.8984 329.647 66.6927 329.739 66.5208C329.838 66.3428 329.973 66.1985 330.145 66.088C330.317 65.9713 330.513 65.8854 330.734 65.8301C330.961 65.7749 331.204 65.7473 331.462 65.7473C331.781 65.7473 332.066 65.7994 332.318 65.9038C332.576 66.002 332.788 66.1494 332.953 66.3459C333.119 66.5362 333.217 66.7725 333.248 67.055H332.521C332.478 66.8769 332.361 66.7326 332.171 66.6221C331.98 66.5055 331.738 66.4472 331.443 66.4472C331.345 66.4472 331.234 66.4564 331.112 66.4748C330.989 66.4871 330.872 66.5178 330.762 66.5669C330.651 66.6098 330.559 66.6774 330.485 66.7695C330.412 66.8554 330.375 66.9721 330.375 67.1194C330.375 67.2545 330.409 67.3681 330.476 67.4602C330.55 67.5523 330.651 67.6259 330.78 67.6812C330.909 67.7364 331.056 67.7825 331.222 67.8193C331.437 67.8623 331.673 67.9083 331.931 67.9575C332.189 68.0004 332.392 68.0465 332.539 68.0956C332.735 68.157 332.898 68.2429 333.027 68.3535C333.162 68.464 333.26 68.596 333.322 68.7495C333.389 68.9029 333.423 69.081 333.423 69.2836C333.423 69.5721 333.365 69.8085 333.248 69.9927C333.138 70.1769 332.987 70.3212 332.797 70.4255C332.607 70.5299 332.395 70.6036 332.161 70.6466C331.934 70.6895 331.707 70.711 331.48 70.711ZM336.879 70.6558V65.8025H337.635L337.671 66.3827C337.776 66.2353 337.893 66.1156 338.021 66.0235C338.157 65.9314 338.304 65.8639 338.463 65.8209C338.629 65.7718 338.804 65.7473 338.988 65.7473C339.326 65.7473 339.599 65.8209 339.808 65.9683C340.017 66.1095 340.173 66.2967 340.278 66.53C340.388 66.3643 340.514 66.2231 340.655 66.1064C340.803 65.9898 340.965 65.9007 341.143 65.8393C341.328 65.7779 341.53 65.7473 341.751 65.7473C342.107 65.7473 342.393 65.824 342.608 65.9775C342.829 66.131 342.988 66.3397 343.087 66.6037C343.185 66.8616 343.234 67.1532 343.234 67.4786V70.6558H342.451V67.8746C342.451 67.715 342.442 67.5523 342.423 67.3865C342.411 67.2207 342.374 67.0672 342.313 66.926C342.252 66.7787 342.159 66.662 342.037 66.5761C341.92 66.484 341.754 66.4379 341.539 66.4379C341.337 66.4379 341.165 66.4871 341.024 66.5853C340.889 66.6774 340.778 66.8032 340.692 66.9629C340.606 67.1225 340.545 67.2944 340.508 67.4786C340.471 67.6566 340.453 67.8347 340.453 68.0127V70.6558H339.67V67.8654C339.67 67.7119 339.661 67.5523 339.642 67.3865C339.63 67.2207 339.596 67.0672 339.541 66.926C339.492 66.7787 339.406 66.662 339.283 66.5761C339.166 66.484 339.004 66.4379 338.795 66.4379C338.5 66.4379 338.27 66.5239 338.104 66.6958C337.939 66.8616 337.822 67.0672 337.754 67.3128C337.693 67.5523 337.662 67.7886 337.662 68.0219V70.6558H336.879ZM346.543 70.711C346.033 70.711 345.607 70.6066 345.263 70.3979C344.919 70.183 344.661 69.8883 344.489 69.5138C344.324 69.1393 344.241 68.7126 344.241 68.2337C344.241 67.7487 344.327 67.322 344.499 66.9537C344.671 66.5792 344.928 66.2845 345.272 66.0696C345.616 65.8547 346.046 65.7473 346.561 65.7473C347.071 65.7473 347.495 65.8547 347.832 66.0696C348.176 66.2845 348.431 66.5792 348.597 66.9537C348.769 67.322 348.855 67.7487 348.855 68.2337C348.855 68.7126 348.769 69.1393 348.597 69.5138C348.425 69.8883 348.167 70.183 347.823 70.3979C347.485 70.6066 347.059 70.711 346.543 70.711ZM346.543 70.0203C346.899 70.0203 347.188 69.9405 347.409 69.7809C347.636 69.6213 347.802 69.4064 347.906 69.1362C348.017 68.8661 348.072 68.5653 348.072 68.2337C348.072 67.9022 348.017 67.6014 347.906 67.3312C347.802 67.0611 347.636 66.8462 347.409 66.6866C347.188 66.527 346.899 66.4472 346.543 66.4472C346.193 66.4472 345.905 66.527 345.677 66.6866C345.456 66.8462 345.291 67.0611 345.18 67.3312C345.076 67.6014 345.024 67.9022 345.024 68.2337C345.024 68.5653 345.076 68.8661 345.18 69.1362C345.291 69.4064 345.456 69.6213 345.677 69.7809C345.905 69.9405 346.193 70.0203 346.543 70.0203ZM349.902 70.6558V65.8025H350.657L350.694 66.5392C350.804 66.3612 350.946 66.2139 351.118 66.0972C351.289 65.9806 351.477 65.8946 351.679 65.8393C351.888 65.7779 352.091 65.7473 352.287 65.7473C352.76 65.7473 353.128 65.8455 353.392 66.0419C353.662 66.2384 353.853 66.5055 353.963 66.8431C354.08 67.1747 354.138 67.5523 354.138 67.9759V70.6558H353.355V68.1877C353.355 67.9605 353.34 67.7426 353.309 67.5338C353.285 67.3251 353.229 67.1378 353.144 66.9721C353.064 66.8063 352.947 66.6774 352.794 66.5853C352.64 66.4871 352.434 66.4379 352.177 66.4379C351.857 66.4379 351.584 66.527 351.357 66.705C351.136 66.8831 350.967 67.1225 350.85 67.4233C350.74 67.7242 350.685 68.0618 350.685 68.4363V70.6558H349.902ZM357.314 70.6558C356.945 70.6558 356.648 70.6005 356.42 70.49C356.199 70.3795 356.037 70.2076 355.932 69.9743C355.834 69.741 355.785 69.4463 355.785 69.0902V66.4932H354.993V65.8025H355.785V64.3567H356.568V65.8025H357.866V66.4932H356.568V69.0073C356.568 69.3388 356.626 69.5844 356.743 69.744C356.865 69.8975 357.111 69.9743 357.479 69.9743H357.839V70.6558H357.314ZM358.751 70.6558V64.1448H359.534V66.5485C359.651 66.3765 359.792 66.2323 359.958 66.1156C360.13 65.9928 360.317 65.9007 360.52 65.8393C360.722 65.7779 360.931 65.7473 361.146 65.7473C361.619 65.7473 361.987 65.8455 362.251 66.0419C362.521 66.2384 362.711 66.5055 362.822 66.8431C362.932 67.1747 362.988 67.5553 362.988 67.9851V70.6558H362.205V68.2245C362.205 68.0096 362.189 67.7978 362.159 67.5891C362.134 67.3742 362.082 67.1808 362.002 67.0089C361.922 66.837 361.8 66.6989 361.634 66.5945C361.474 66.4901 361.256 66.4379 360.98 66.4379C360.716 66.4379 360.489 66.4963 360.299 66.6129C360.114 66.7296 359.967 66.8861 359.856 67.0826C359.746 67.2729 359.663 67.4847 359.608 67.718C359.559 67.9452 359.534 68.1693 359.534 68.3903V70.6558H358.751Z" fill="black"/>
<path d="M18.1361 230.792V227.684H17.3467V227.361C17.4929 227.35 17.6226 227.333 17.7359 227.311C17.8492 227.286 17.9497 227.244 18.0374 227.185C18.1288 227.123 18.2092 227.034 18.2786 226.917H18.613V230.792H18.1361ZM19.5683 230.792V226.917H20.0342V229.148H20.5385L21.4046 227.903H21.9308L20.9661 229.279L22.013 230.792H21.4649L20.5933 229.553H20.0342V230.792H19.5683Z" fill="#615E83"/>
<path d="M16.5517 212.707V212.306L17.648 211.358C17.7467 211.274 17.8545 211.183 17.9714 211.084C18.092 210.982 18.2053 210.872 18.3113 210.755C18.4209 210.638 18.5105 210.514 18.5799 210.382C18.653 210.247 18.6895 210.105 18.6895 209.955C18.6895 209.721 18.6201 209.542 18.4812 209.418C18.3424 209.29 18.156 209.226 17.9221 209.226C17.7357 209.226 17.5731 209.264 17.4343 209.341C17.2954 209.418 17.204 209.529 17.1602 209.675H16.6504C16.687 209.474 16.7692 209.31 16.8971 209.182C17.0286 209.05 17.1858 208.952 17.3685 208.886C17.5549 208.82 17.7467 208.787 17.944 208.787C18.1852 208.787 18.3972 208.831 18.5799 208.919C18.7663 209.007 18.9106 209.134 19.0129 209.303C19.1189 209.467 19.1719 209.67 19.1719 209.911C19.1719 210.149 19.1262 210.357 19.0349 210.536C18.9471 210.715 18.8302 210.878 18.684 211.024C18.5415 211.166 18.388 211.307 18.2236 211.446L17.2424 212.274H19.2157V212.707H16.5517ZM19.8593 212.707V208.831H20.3252V211.062H20.8295L21.6956 209.818H22.2218L21.2571 211.194L22.304 212.707H21.7559L20.8843 211.468H20.3252V212.707H19.8593Z" fill="#615E83"/>
<path d="M17.8058 195.144C17.6523 195.144 17.497 195.13 17.3398 195.101C17.1864 195.068 17.042 195.017 16.9068 194.947C16.7752 194.878 16.662 194.784 16.5669 194.668C16.4756 194.551 16.4171 194.406 16.3915 194.235H16.8849C16.9287 194.359 17.0018 194.456 17.1041 194.525C17.2065 194.594 17.3197 194.644 17.444 194.673C17.5719 194.699 17.6943 194.711 17.8112 194.711C17.8953 194.711 17.9866 194.704 18.0853 194.689C18.184 194.675 18.279 194.644 18.3704 194.596C18.4654 194.549 18.5421 194.479 18.6006 194.388C18.659 194.293 18.6883 194.169 18.6883 194.015C18.6883 193.869 18.6609 193.752 18.6061 193.664C18.5512 193.573 18.4782 193.505 18.3868 193.462C18.2954 193.414 18.1931 193.383 18.0798 193.368C17.9702 193.354 17.8587 193.347 17.7455 193.347H17.3727V192.919H17.5975C17.7254 192.919 17.846 192.908 17.9592 192.886C18.0725 192.86 18.173 192.822 18.2607 192.771C18.3484 192.72 18.416 192.652 18.4635 192.568C18.5147 192.484 18.5403 192.38 18.5403 192.256C18.5403 192.077 18.5019 191.941 18.4252 191.85C18.3521 191.759 18.2571 191.697 18.1401 191.664C18.0232 191.631 17.9008 191.614 17.7729 191.614C17.6705 191.614 17.5646 191.631 17.4549 191.664C17.349 191.693 17.254 191.742 17.1699 191.812C17.0859 191.877 17.0292 191.967 17 192.08H16.5231C16.545 191.919 16.5962 191.782 16.6766 191.669C16.757 191.556 16.8556 191.463 16.9726 191.39C17.0932 191.317 17.2247 191.264 17.3672 191.231C17.5134 191.198 17.6614 191.181 17.8112 191.181C17.9757 191.181 18.1292 191.2 18.2717 191.236C18.4179 191.269 18.5458 191.326 18.6554 191.406C18.765 191.483 18.8509 191.585 18.913 191.713C18.9788 191.841 19.0117 191.996 19.0117 192.179C19.0117 192.314 18.9898 192.438 18.9459 192.552C18.9021 192.665 18.8363 192.764 18.7486 192.848C18.6645 192.932 18.5585 193.001 18.4306 193.056C18.5951 193.085 18.7321 193.144 18.8418 193.231C18.955 193.319 19.0391 193.427 19.0939 193.555C19.1524 193.679 19.1816 193.82 19.1816 193.977C19.1816 194.222 19.1378 194.421 19.0501 194.574C18.9624 194.728 18.8491 194.847 18.7102 194.931C18.5713 195.011 18.4215 195.068 18.2607 195.101C18.0999 195.13 17.9483 195.144 17.8058 195.144ZM19.8593 195.101V191.225H20.3252V193.456H20.8295L21.6956 192.212H22.2218L21.2571 193.588L22.304 195.101H21.7559L20.8843 193.862H20.3252V195.101H19.8593Z" fill="#615E83"/>
<path d="M19.3584 177.016V176.243H17.2535V175.886L19.1501 173.14H19.8353V175.81H20.2903V176.243H19.8353V177.016H19.3584ZM17.8291 175.81H19.3584V173.573L17.8291 175.81ZM20.8593 177.016V173.14H21.3252V175.371H21.8295L22.6956 174.127H23.2218L22.2571 175.503L23.304 177.016H22.7559L21.8843 175.777H21.3252V177.016H20.8593Z" fill="#615E83"/>
<path d="M17.8026 160.636C17.6418 160.636 17.4865 160.618 17.3367 160.581C17.1905 160.545 17.0571 160.49 16.9365 160.417C16.8159 160.34 16.7136 160.243 16.6296 160.126C16.5455 160.01 16.487 159.871 16.4541 159.71H16.9365C16.9767 159.812 17.0407 159.9 17.1284 159.973C17.2161 160.046 17.3147 160.103 17.4244 160.143C17.5377 160.179 17.6491 160.198 17.7587 160.198C17.9378 160.198 18.0968 160.168 18.2356 160.11C18.3781 160.052 18.4914 159.962 18.5755 159.841C18.6595 159.717 18.7016 159.558 18.7016 159.365C18.7016 159.098 18.6212 158.893 18.4604 158.751C18.2996 158.608 18.0913 158.537 17.8355 158.537C17.682 158.537 17.5395 158.564 17.4079 158.619C17.28 158.674 17.1631 158.749 17.0571 158.844H16.5638L16.7392 156.712H19.0578V157.15H17.1667L17.0571 158.367C17.1558 158.287 17.2764 158.223 17.4189 158.175C17.5614 158.124 17.7368 158.098 17.9451 158.098C18.1936 158.098 18.411 158.149 18.5974 158.252C18.7874 158.354 18.9336 158.498 19.0359 158.685C19.1419 158.868 19.1949 159.085 19.1949 159.337C19.1949 159.608 19.1328 159.84 19.0085 160.033C18.8879 160.227 18.7217 160.377 18.5097 160.483C18.3014 160.585 18.0657 160.636 17.8026 160.636ZM19.8593 160.587V156.712H20.3252V158.942H20.8295L21.6956 157.698H22.2218L21.2571 159.074L22.304 160.587H21.7559L20.8843 159.348H20.3252V160.587H19.8593Z" fill="#615E83"/>
<path d="M17.8747 144.203C17.6116 144.203 17.3851 144.153 17.195 144.055C17.0087 143.952 16.8552 143.815 16.7346 143.643C16.6177 143.468 16.5318 143.271 16.477 143.051C16.4222 142.829 16.3947 142.595 16.3947 142.35C16.3947 142.061 16.4222 141.791 16.477 141.539C16.5354 141.283 16.625 141.058 16.7456 140.864C16.8698 140.671 17.0306 140.519 17.2279 140.409C17.4253 140.296 17.6628 140.239 17.9405 140.239C18.1269 140.239 18.3005 140.272 18.4613 140.338C18.6257 140.4 18.7682 140.495 18.8888 140.623C19.0094 140.747 19.0989 140.901 19.1574 141.084H18.6586C18.5928 140.948 18.4923 140.846 18.3571 140.777C18.2219 140.707 18.0812 140.672 17.935 140.672C17.7669 140.672 17.6226 140.705 17.502 140.771C17.3814 140.833 17.2791 140.917 17.195 141.023C17.1146 141.129 17.0489 141.25 16.9977 141.385C16.9502 141.52 16.9155 141.661 16.8936 141.807C16.8716 141.953 16.8607 142.096 16.8607 142.235C16.9447 142.107 17.0416 142.003 17.1512 141.922C17.2645 141.842 17.3869 141.783 17.5185 141.747C17.6537 141.707 17.7907 141.687 17.9296 141.687C18.1854 141.687 18.4065 141.74 18.5928 141.846C18.7828 141.948 18.9308 142.092 19.0368 142.279C19.1428 142.461 19.1958 142.673 19.1958 142.914C19.1958 143.17 19.1391 143.395 19.0259 143.589C18.9126 143.782 18.7554 143.934 18.5545 144.044C18.3571 144.15 18.1306 144.203 17.8747 144.203ZM17.8638 143.77C18.0282 143.77 18.1726 143.735 18.2968 143.665C18.4247 143.592 18.5252 143.495 18.5983 143.375C18.6714 143.251 18.7079 143.114 18.7079 142.964C18.7079 142.803 18.6732 142.66 18.6038 142.536C18.5344 142.412 18.4375 142.313 18.3133 142.24C18.1927 142.167 18.0502 142.131 17.8857 142.131C17.7359 142.131 17.5934 142.165 17.4582 142.235C17.3229 142.3 17.2133 142.395 17.1293 142.52C17.0489 142.64 17.0087 142.785 17.0087 142.953C17.0087 143.106 17.0452 143.245 17.1183 143.369C17.195 143.49 17.2974 143.587 17.4253 143.66C17.5568 143.733 17.703 143.77 17.8638 143.77ZM19.8593 144.159V140.283H20.3252V142.514H20.8295L21.6956 141.27H22.2218L21.2571 142.646L22.304 144.159H21.7559L20.8843 142.92H20.3252V144.159H19.8593Z" fill="#615E83"/>
<rect x="347.506" y="138.21" width="3.65432" height="83.1358" fill="#D9EBFF"/>
<rect x="347.506" y="193.938" width="3.65432" height="52.9877" fill="#007BFF"/>
<rect x="318.271" y="138.21" width="3.65432" height="80.3951" fill="#D9EBFF"/>
<rect x="318.283" y="213.207" width="3.53599" height="33.3938" fill="#007BFF"/>
<rect x="289.037" y="138.21" width="3.65432" height="103.235" fill="#D9EBFF"/>
<rect x="289.037" y="235.808" width="3.53599" height="10.7937" fill="#007BFF"/>
<rect x="259.803" y="138.21" width="3.65432" height="82.2222" fill="#D9EBFF"/>
<rect x="259.803" y="213.207" width="3.53599" height="33.3938" fill="#007BFF"/>
<rect x="230.567" y="138.21" width="3.65432" height="100.494" fill="#D9EBFF"/>
<rect x="230.567" y="233.14" width="3.53599" height="13.4616" fill="#007BFF"/>
<rect x="202.247" y="138.21" width="2.74074" height="95.0123" fill="#D9EBFF"/>
<rect x="201.858" y="222.461" width="3.53599" height="24.1408" fill="#007BFF"/>
<rect x="173.013" y="138.21" width="3.65432" height="63.037" fill="#D9EBFF"/>
<rect x="173.013" y="187.543" width="3.65432" height="59.3827" fill="#007BFF"/>
<rect x="143.777" y="138.21" width="3.65432" height="93.1852" fill="#D9EBFF"/>
<rect x="143.646" y="215.112" width="3.53599" height="31.4887" fill="#007BFF"/>
<rect x="114.54" y="138.159" width="3.53599" height="95.5836" fill="#D9EBFF"/>
<rect x="114.543" y="207.642" width="3.65432" height="39.284" fill="#007BFF"/>
<rect x="85.3086" y="138.21" width="3.65432" height="74" fill="#D9EBFF"/>
<rect x="85.3086" y="186.63" width="3.65432" height="60.2963" fill="#007BFF"/>
<rect x="56.0742" y="138.21" width="3.65432" height="81.3086" fill="#D9EBFF"/>
<rect x="56.3271" y="213.207" width="3.53599" height="33.3938" fill="#007BFF"/>
<rect x="27.8271" y="138.159" width="3.53599" height="95.5836" fill="#D9EBFF"/>
<rect x="27.7529" y="225.913" width="3.65432" height="21.0123" fill="#007BFF"/>
<path d="M19.5277 121.699C18.7311 121.699 18.055 121.531 17.4995 121.195C16.9514 120.851 16.5348 120.38 16.2498 119.781C15.9647 119.181 15.8222 118.502 15.8222 117.741C15.8222 116.974 15.9647 116.291 16.2498 115.691C16.5348 115.092 16.9551 114.624 17.5105 114.288C18.066 113.945 18.742 113.773 19.5387 113.773C20.3426 113.773 21.0187 113.941 21.5668 114.277C22.115 114.613 22.5315 115.081 22.8166 115.68C23.1016 116.28 23.2441 116.963 23.2441 117.73C23.2441 118.491 23.1016 119.17 22.8166 119.77C22.5315 120.369 22.1113 120.84 21.5558 121.184C21.0077 121.527 20.3316 121.699 19.5277 121.699ZM19.5387 120.636C20.1234 120.636 20.6021 120.5 20.9748 120.23C21.3475 119.96 21.6216 119.605 21.797 119.167C21.9724 118.728 22.0601 118.253 22.0601 117.741C22.0601 117.354 22.009 116.985 21.9067 116.634C21.8116 116.283 21.6618 115.973 21.4572 115.702C21.2525 115.432 20.9894 115.22 20.6678 115.066C20.3463 114.913 19.9699 114.836 19.5387 114.836C18.9613 114.836 18.4826 114.971 18.1025 115.242C17.7298 115.512 17.452 115.867 17.2693 116.305C17.0866 116.744 16.9953 117.222 16.9953 117.741C16.9953 118.253 17.083 118.728 17.2584 119.167C17.4411 119.605 17.7188 119.96 18.0915 120.23C18.4716 120.5 18.954 120.636 19.5387 120.636ZM24.4133 121.611V115.834H25.4877L25.5425 116.645C25.6887 116.433 25.8641 116.265 26.0687 116.141C26.2734 116.009 26.4926 115.914 26.7265 115.856C26.9604 115.79 27.187 115.757 27.4062 115.757C27.9617 115.757 28.3965 115.878 28.7108 116.119C29.0324 116.353 29.259 116.671 29.3905 117.073C29.5294 117.467 29.5988 117.917 29.5988 118.421V121.611H28.4587V118.651C28.4587 118.417 28.444 118.187 28.4148 117.961C28.3856 117.734 28.3234 117.533 28.2284 117.358C28.1407 117.175 28.0128 117.032 27.8447 116.93C27.6766 116.821 27.4501 116.766 27.165 116.766C26.8142 116.766 26.5182 116.861 26.277 117.051C26.0358 117.241 25.8531 117.497 25.7289 117.818C25.6046 118.14 25.5425 118.502 25.5425 118.903V121.611H24.4133ZM30.944 121.611V113.861H32.0732V121.611H30.944ZM33.4706 121.611V115.834H34.5998V121.611H33.4706ZM34.0297 115.066C33.8105 115.066 33.6314 115.001 33.4925 114.869C33.361 114.73 33.2952 114.555 33.2952 114.343C33.2952 114.131 33.3646 113.959 33.5035 113.828C33.6424 113.689 33.8178 113.619 34.0297 113.619C34.2271 113.619 34.3988 113.689 34.545 113.828C34.6985 113.959 34.7752 114.131 34.7752 114.343C34.7752 114.555 34.7021 114.73 34.5559 114.869C34.4171 115.001 34.2417 115.066 34.0297 115.066ZM35.9972 121.611V115.834H37.0716L37.1264 116.645C37.2726 116.433 37.448 116.265 37.6526 116.141C37.8573 116.009 38.0765 115.914 38.3104 115.856C38.5443 115.79 38.7709 115.757 38.9901 115.757C39.5456 115.757 39.9804 115.878 40.2947 116.119C40.6163 116.353 40.8429 116.671 40.9744 117.073C41.1133 117.467 41.1827 117.917 41.1827 118.421V121.611H40.0426V118.651C40.0426 118.417 40.028 118.187 39.9987 117.961C39.9695 117.734 39.9074 117.533 39.8123 117.358C39.7246 117.175 39.5967 117.032 39.4286 116.93C39.2605 116.821 39.034 116.766 38.7489 116.766C38.3981 116.766 38.1021 116.861 37.8609 117.051C37.6198 117.241 37.437 117.497 37.3128 117.818C37.1885 118.14 37.1264 118.502 37.1264 118.903V121.611H35.9972ZM45.0713 121.677C44.4647 121.677 43.9567 121.553 43.5475 121.304C43.1382 121.056 42.8276 120.712 42.6156 120.274C42.411 119.828 42.3086 119.316 42.3086 118.739C42.3086 118.154 42.4146 117.639 42.6266 117.193C42.8458 116.747 43.1601 116.397 43.5694 116.141C43.986 115.885 44.4866 115.757 45.0713 115.757C45.5171 115.757 45.9045 115.841 46.2334 116.009C46.5623 116.17 46.8327 116.389 47.0446 116.667C47.2639 116.945 47.4247 117.255 47.527 117.599C47.6293 117.935 47.6732 118.286 47.6586 118.651C47.6586 118.732 47.6549 118.808 47.6476 118.882C47.6403 118.955 47.633 119.031 47.6257 119.112H43.4488C43.4707 119.404 43.5438 119.671 43.6681 119.912C43.7996 120.153 43.9823 120.347 44.2162 120.493C44.4501 120.632 44.7388 120.701 45.0823 120.701C45.2723 120.701 45.455 120.679 45.6304 120.636C45.8131 120.584 45.9739 120.508 46.1128 120.405C46.259 120.296 46.3613 120.157 46.4198 119.989H47.5599C47.4649 120.376 47.2931 120.698 47.0446 120.954C46.8035 121.202 46.5075 121.385 46.1566 121.502C45.8131 121.619 45.4514 121.677 45.0713 121.677ZM43.4707 118.213H46.5404C46.533 117.928 46.4673 117.676 46.343 117.456C46.2188 117.23 46.047 117.054 45.8278 116.93C45.6085 116.799 45.3454 116.733 45.0384 116.733C44.7022 116.733 44.4208 116.802 44.1943 116.941C43.975 117.08 43.8033 117.263 43.679 117.489C43.5621 117.709 43.4926 117.95 43.4707 118.213ZM54.3091 121.677C53.4978 121.677 52.8766 121.465 52.4454 121.041C52.0215 120.61 51.8095 119.956 51.8095 119.079V115.834H52.9387V119.013C52.9387 119.357 52.9862 119.653 53.0812 119.901C53.1835 120.15 53.337 120.34 53.5417 120.471C53.7463 120.603 54.0058 120.669 54.32 120.669C54.6489 120.669 54.912 120.603 55.1094 120.471C55.314 120.332 55.4602 120.139 55.5479 119.89C55.6429 119.642 55.6904 119.349 55.6904 119.013V115.834H56.8196V119.079C56.8196 119.971 56.6003 120.628 56.1618 121.052C55.7306 121.469 55.113 121.677 54.3091 121.677ZM60.3398 121.677C60.0694 121.677 59.799 121.652 59.5286 121.6C59.2581 121.549 59.006 121.458 58.7721 121.326C58.5382 121.195 58.3409 121.019 58.1801 120.8C58.0193 120.574 57.917 120.296 57.8731 119.967H59.0243C59.0827 120.142 59.185 120.285 59.3312 120.394C59.4847 120.504 59.6528 120.584 59.8355 120.636C60.0255 120.687 60.2119 120.712 60.3946 120.712C60.5043 120.712 60.6248 120.705 60.7564 120.69C60.8953 120.676 61.0268 120.643 61.1511 120.592C61.2753 120.541 61.3776 120.468 61.458 120.373C61.5384 120.27 61.5786 120.135 61.5786 119.967C61.5786 119.835 61.5421 119.726 61.469 119.638C61.4032 119.55 61.3082 119.481 61.184 119.43C61.067 119.371 60.9245 119.327 60.7564 119.298C60.4275 119.225 60.073 119.156 59.693 119.09C59.3203 119.017 58.9914 118.893 58.7063 118.717C58.604 118.651 58.5127 118.578 58.4323 118.498C58.3519 118.41 58.2824 118.311 58.224 118.202C58.1655 118.092 58.1216 117.975 58.0924 117.851C58.0632 117.727 58.0486 117.592 58.0486 117.445C58.0486 117.146 58.107 116.89 58.224 116.678C58.3482 116.466 58.5163 116.294 58.7283 116.163C58.9402 116.024 59.1814 115.922 59.4518 115.856C59.7222 115.79 60.0073 115.757 60.3069 115.757C60.6943 115.757 61.0451 115.819 61.3594 115.943C61.6736 116.068 61.9331 116.25 62.1377 116.492C62.3424 116.733 62.463 117.036 62.4995 117.402H61.4361C61.3923 117.204 61.2644 117.047 61.0524 116.93C60.8478 116.806 60.5883 116.744 60.274 116.744C60.1644 116.744 60.0438 116.751 59.9123 116.766C59.788 116.78 59.6674 116.813 59.5505 116.864C59.4335 116.916 59.3385 116.989 59.2654 117.084C59.1924 117.171 59.1558 117.288 59.1558 117.434C59.1558 117.573 59.1887 117.69 59.2545 117.785C59.3276 117.88 59.4299 117.957 59.5614 118.015C59.7003 118.074 59.8574 118.121 60.0328 118.158C60.2813 118.216 60.5481 118.271 60.8331 118.322C61.1255 118.374 61.363 118.428 61.5457 118.487C61.7869 118.553 61.9916 118.648 62.1597 118.772C62.3351 118.896 62.4666 119.053 62.5543 119.243C62.6493 119.433 62.6968 119.664 62.6968 119.934C62.6968 120.285 62.6274 120.574 62.4886 120.8C62.3497 121.019 62.1633 121.195 61.9294 121.326C61.7029 121.458 61.4471 121.549 61.162 121.6C60.8843 121.652 60.6102 121.677 60.3398 121.677ZM66.3121 121.677C65.7054 121.677 65.1975 121.553 64.7882 121.304C64.3789 121.056 64.0683 120.712 63.8564 120.274C63.6517 119.828 63.5494 119.316 63.5494 118.739C63.5494 118.154 63.6554 117.639 63.8673 117.193C64.0866 116.747 64.4008 116.397 64.8101 116.141C65.2267 115.885 65.7274 115.757 66.3121 115.757C66.7579 115.757 67.1452 115.841 67.4741 116.009C67.803 116.17 68.0734 116.389 68.2854 116.667C68.5046 116.945 68.6654 117.255 68.7678 117.599C68.8701 117.935 68.9139 118.286 68.8993 118.651C68.8993 118.732 68.8957 118.808 68.8884 118.882C68.881 118.955 68.8737 119.031 68.8664 119.112H64.6895C64.7115 119.404 64.7845 119.671 64.9088 119.912C65.0404 120.153 65.2231 120.347 65.4569 120.493C65.6908 120.632 65.9795 120.701 66.323 120.701C66.513 120.701 66.6958 120.679 66.8712 120.636C67.0539 120.584 67.2147 120.508 67.3535 120.405C67.4997 120.296 67.602 120.157 67.6605 119.989H68.8006C68.7056 120.376 68.5339 120.698 68.2854 120.954C68.0442 121.202 67.7482 121.385 67.3974 121.502C67.0539 121.619 66.6921 121.677 66.3121 121.677ZM64.7115 118.213H67.7811C67.7738 117.928 67.708 117.676 67.5838 117.456C67.4595 117.23 67.2878 117.054 67.0685 116.93C66.8492 116.799 66.5861 116.733 66.2792 116.733C65.943 116.733 65.6616 116.802 65.435 116.941C65.2158 117.08 65.044 117.263 64.9198 117.489C64.8028 117.709 64.7334 117.95 64.7115 118.213ZM70.0638 121.611V115.834H71.1272L71.182 116.667C71.3282 116.44 71.4963 116.261 71.6863 116.13C71.8763 115.998 72.0846 115.903 72.3112 115.845C72.5378 115.786 72.7753 115.757 73.0238 115.757C73.0896 115.757 73.1517 115.757 73.2102 115.757C73.2686 115.757 73.3234 115.757 73.3746 115.757V116.842H73.0238C72.6072 116.842 72.26 116.926 71.9823 117.095C71.7119 117.263 71.5109 117.497 71.3793 117.796C71.2551 118.096 71.193 118.439 71.193 118.827V121.611H70.0638ZM76.2811 121.677C76.0107 121.677 75.7402 121.652 75.4698 121.6C75.1994 121.549 74.9472 121.458 74.7134 121.326C74.4795 121.195 74.2822 121.019 74.1214 120.8C73.9606 120.574 73.8583 120.296 73.8144 119.967H74.9655C75.024 120.142 75.1263 120.285 75.2725 120.394C75.426 120.504 75.5941 120.584 75.7768 120.636C75.9668 120.687 76.1532 120.712 76.3359 120.712C76.4455 120.712 76.5661 120.705 76.6977 120.69C76.8365 120.676 76.9681 120.643 77.0923 120.592C77.2166 120.541 77.3189 120.468 77.3993 120.373C77.4797 120.27 77.5199 120.135 77.5199 119.967C77.5199 119.835 77.4833 119.726 77.4103 119.638C77.3445 119.55 77.2495 119.481 77.1252 119.43C77.0083 119.371 76.8658 119.327 76.6977 119.298C76.3688 119.225 76.0143 119.156 75.6343 119.09C75.2615 119.017 74.9326 118.893 74.6476 118.717C74.5453 118.651 74.4539 118.578 74.3735 118.498C74.2931 118.41 74.2237 118.311 74.1652 118.202C74.1068 118.092 74.0629 117.975 74.0337 117.851C74.0044 117.727 73.9898 117.592 73.9898 117.445C73.9898 117.146 74.0483 116.89 74.1652 116.678C74.2895 116.466 74.4576 116.294 74.6695 116.163C74.8815 116.024 75.1227 115.922 75.3931 115.856C75.6635 115.79 75.9485 115.757 76.2482 115.757C76.6355 115.757 76.9864 115.819 77.3006 115.943C77.6149 116.068 77.8744 116.25 78.079 116.492C78.2836 116.733 78.4042 117.036 78.4408 117.402H77.3774C77.3335 117.204 77.2056 117.047 76.9937 116.93C76.789 116.806 76.5296 116.744 76.2153 116.744C76.1057 116.744 75.9851 116.751 75.8535 116.766C75.7293 116.78 75.6087 116.813 75.4917 116.864C75.3748 116.916 75.2798 116.989 75.2067 117.084C75.1336 117.171 75.0971 117.288 75.0971 117.434C75.0971 117.573 75.13 117.69 75.1957 117.785C75.2688 117.88 75.3711 117.957 75.5027 118.015C75.6416 118.074 75.7987 118.121 75.9741 118.158C76.2226 118.216 76.4894 118.271 76.7744 118.322C77.0668 118.374 77.3043 118.428 77.487 118.487C77.7282 118.553 77.9328 118.648 78.1009 118.772C78.2763 118.896 78.4079 119.053 78.4956 119.243C78.5906 119.433 78.6381 119.664 78.6381 119.934C78.6381 120.285 78.5687 120.574 78.4298 120.8C78.2909 121.019 78.1046 121.195 77.8707 121.326C77.6441 121.458 77.3883 121.549 77.1033 121.6C76.8256 121.652 76.5515 121.677 76.2811 121.677Z" fill="#1E1B39"/>
<path d="M15.4129 109.106L17.3351 103.939H18.2487L20.1635 109.106H19.4765L19.0673 107.995H16.5092L16.0999 109.106H15.4129ZM16.7212 107.418H18.8553L17.7882 104.494L16.7212 107.418ZM22.3702 109.15C21.9658 109.15 21.6296 109.067 21.3616 108.901C21.0985 108.731 20.9011 108.497 20.7696 108.2C20.6429 107.902 20.5796 107.566 20.5796 107.191C20.5796 106.826 20.6453 106.494 20.7769 106.197C20.9133 105.895 21.118 105.656 21.3908 105.481C21.6686 105.301 22.0194 105.21 22.4433 105.21C22.7064 105.21 22.9403 105.254 23.1449 105.342C23.3544 105.43 23.5274 105.559 23.6638 105.729C23.8002 105.895 23.8953 106.105 23.9489 106.358H23.313C23.2399 106.144 23.123 105.992 22.9622 105.905C22.8063 105.812 22.6211 105.766 22.4067 105.766C22.1144 105.766 21.8805 105.834 21.7051 105.971C21.5297 106.107 21.4006 106.285 21.3177 106.504C21.2398 106.718 21.2008 106.947 21.2008 107.191C21.2008 107.444 21.2422 107.678 21.3251 107.893C21.4079 108.107 21.537 108.28 21.7124 108.412C21.8878 108.538 22.1144 108.602 22.3921 108.602C22.5968 108.602 22.7892 108.558 22.9695 108.47C23.1546 108.382 23.2765 108.226 23.3349 108.002H23.9781C23.9294 108.265 23.8246 108.482 23.6638 108.653C23.5079 108.823 23.3154 108.95 23.0864 109.033C22.8623 109.111 22.6236 109.15 22.3702 109.15ZM26.3295 109.106C26.0372 109.106 25.8009 109.062 25.6206 108.974C25.4452 108.887 25.3161 108.75 25.2332 108.565C25.1553 108.38 25.1163 108.146 25.1163 107.863V105.802H24.4878V105.254H25.1163V104.107H25.7375V105.254H26.768V105.802H25.7375V107.798C25.7375 108.061 25.7838 108.256 25.8764 108.382C25.9738 108.504 26.1687 108.565 26.4611 108.565H26.7461V109.106H26.3295ZM27.4705 109.106V105.254H28.0918V109.106H27.4705ZM27.7775 104.684C27.6508 104.684 27.5485 104.645 27.4705 104.567C27.3974 104.489 27.3609 104.389 27.3609 104.268C27.3609 104.146 27.3999 104.048 27.4778 103.975C27.5558 103.897 27.6557 103.858 27.7775 103.858C27.8896 103.858 27.987 103.897 28.0698 103.975C28.1575 104.053 28.2014 104.151 28.2014 104.268C28.2014 104.389 28.16 104.489 28.0772 104.567C27.9943 104.645 27.8944 104.684 27.7775 104.684ZM30.1144 109.106L28.6308 105.254H29.3324L30.5456 108.507L31.737 105.254H32.4459L30.9622 109.106H30.1144ZM32.9877 109.106V105.254H33.6089V109.106H32.9877ZM33.2947 104.684C33.168 104.684 33.0657 104.645 32.9877 104.567C32.9146 104.489 32.8781 104.389 32.8781 104.268C32.8781 104.146 32.9171 104.048 32.995 103.975C33.073 103.897 33.1729 103.858 33.2947 103.858C33.4067 103.858 33.5042 103.897 33.587 103.975C33.6747 104.053 33.7186 104.151 33.7186 104.268C33.7186 104.389 33.6771 104.489 33.5943 104.567C33.5115 104.645 33.4116 104.684 33.2947 104.684ZM36.0336 109.15C35.6292 109.15 35.3441 109.04 35.1785 108.821C35.0177 108.602 34.9373 108.29 34.9373 107.885V105.802H34.3087V105.254H34.9373V104.1H35.5585V105.254H36.7425V105.802H35.5585V107.805C35.5585 107.951 35.5707 108.085 35.5951 108.207C35.6194 108.324 35.6706 108.419 35.7485 108.492C35.8265 108.56 35.9434 108.597 36.0994 108.602C36.2114 108.602 36.3089 108.582 36.3917 108.543C36.4794 108.504 36.5525 108.458 36.611 108.404L36.8814 108.857C36.7985 108.926 36.7108 108.982 36.6183 109.026C36.5306 109.069 36.438 109.101 36.3405 109.121C36.248 109.14 36.1456 109.15 36.0336 109.15ZM39.1798 110.831C38.8826 110.831 38.5951 110.789 38.3174 110.707C38.0446 110.624 37.7985 110.48 37.5792 110.275L37.8497 109.786C38.0397 109.937 38.2419 110.056 38.4563 110.144C38.6755 110.231 38.9045 110.275 39.1433 110.275C39.5428 110.275 39.8279 110.158 39.9984 109.925C40.1738 109.696 40.2615 109.403 40.2615 109.047V108.587C40.1738 108.719 40.0617 108.828 39.9253 108.916C39.7938 108.999 39.6476 109.062 39.4868 109.106C39.326 109.145 39.1603 109.164 38.9898 109.164C38.6098 109.164 38.3101 109.089 38.0908 108.938C37.8716 108.787 37.7157 108.577 37.6231 108.309C37.5305 108.041 37.4842 107.732 37.4842 107.381V105.254H38.1055V107.206C38.1055 107.381 38.1152 107.554 38.1347 107.725C38.1591 107.89 38.2053 108.041 38.2736 108.178C38.3418 108.309 38.4417 108.417 38.5732 108.499C38.7048 108.577 38.8802 108.616 39.0994 108.616C39.3772 108.616 39.5989 108.548 39.7645 108.412C39.9351 108.275 40.0569 108.092 40.13 107.863C40.2079 107.634 40.2469 107.381 40.2469 107.103V105.254H40.8681V109.106C40.8681 109.384 40.8316 109.63 40.7585 109.844C40.6854 110.059 40.5758 110.239 40.4296 110.385C40.2834 110.531 40.1056 110.641 39.8961 110.714C39.6914 110.792 39.4527 110.831 39.1798 110.831Z" fill="#9291A5"/>
<rect x="265.283" y="99.8394" width="97.7531" height="15.5309" fill="#F5FAFF"/>
<rect width="28.6322" height="15.4425" transform="translate(332.178 99.8394)" fill="#007BFF"/>
<path d="M337.775 109.383L339.217 105.508H339.902L341.338 109.383H340.823L340.516 108.55H338.598L338.291 109.383H337.775ZM338.757 108.117H340.357L339.557 105.924L338.757 108.117ZM341.76 109.383V106.495H342.209L342.231 106.933C342.297 106.827 342.381 106.739 342.484 106.67C342.586 106.601 342.697 106.549 342.818 106.516C342.942 106.48 343.063 106.462 343.18 106.462C343.461 106.462 343.68 106.52 343.837 106.637C343.998 106.754 344.112 106.913 344.177 107.114C344.247 107.311 344.281 107.536 344.281 107.788V109.383H343.816V107.914C343.816 107.779 343.806 107.649 343.788 107.525C343.774 107.401 343.741 107.289 343.689 107.191C343.642 107.092 343.573 107.015 343.481 106.96C343.39 106.902 343.267 106.873 343.114 106.873C342.924 106.873 342.761 106.926 342.626 107.032C342.495 107.138 342.394 107.28 342.325 107.459C342.259 107.638 342.226 107.839 342.226 108.062V109.383H341.76ZM344.999 109.383V106.495H345.448L345.47 106.933C345.536 106.827 345.62 106.739 345.722 106.67C345.824 106.601 345.936 106.549 346.056 106.516C346.181 106.48 346.301 106.462 346.418 106.462C346.7 106.462 346.919 106.52 347.076 106.637C347.237 106.754 347.35 106.913 347.416 107.114C347.485 107.311 347.52 107.536 347.52 107.788V109.383H347.054V107.914C347.054 107.779 347.045 107.649 347.027 107.525C347.012 107.401 346.979 107.289 346.928 107.191C346.881 107.092 346.811 107.015 346.72 106.96C346.628 106.902 346.506 106.873 346.352 106.873C346.162 106.873 346 106.926 345.865 107.032C345.733 107.138 345.633 107.28 345.563 107.459C345.497 107.638 345.464 107.839 345.464 108.062V109.383H344.999ZM349.443 109.416C349.045 109.416 348.741 109.31 348.533 109.098C348.328 108.886 348.226 108.561 348.226 108.123V106.495H348.692V108.101C348.692 108.291 348.719 108.453 348.774 108.588C348.829 108.724 348.911 108.828 349.021 108.901C349.134 108.97 349.275 109.005 349.443 109.005C349.618 109.005 349.763 108.97 349.876 108.901C349.989 108.828 350.072 108.724 350.123 108.588C350.178 108.453 350.205 108.291 350.205 108.101V106.495H350.671V108.123C350.671 108.561 350.565 108.886 350.353 109.098C350.145 109.31 349.841 109.416 349.443 109.416ZM352.322 109.416C352.19 109.416 352.062 109.4 351.938 109.367C351.817 109.33 351.708 109.277 351.609 109.208C351.514 109.135 351.437 109.045 351.379 108.939C351.324 108.83 351.297 108.704 351.297 108.561C351.297 108.397 351.326 108.258 351.384 108.144C351.447 108.031 351.529 107.942 351.631 107.876C351.733 107.81 351.852 107.763 351.987 107.733C352.123 107.704 352.263 107.69 352.409 107.69H353.259C353.259 107.525 353.235 107.383 353.188 107.262C353.144 107.141 353.071 107.048 352.969 106.982C352.866 106.913 352.731 106.878 352.563 106.878C352.461 106.878 352.366 106.889 352.278 106.911C352.19 106.933 352.115 106.968 352.053 107.015C351.991 107.063 351.945 107.127 351.916 107.207H351.417C351.443 107.076 351.492 106.964 351.565 106.873C351.642 106.778 351.733 106.701 351.839 106.643C351.949 106.58 352.066 106.535 352.19 106.506C352.314 106.476 352.439 106.462 352.563 106.462C352.98 106.462 353.276 106.584 353.451 106.829C353.626 107.074 353.714 107.404 353.714 107.821V109.383H353.325L353.297 109.016C353.217 109.126 353.12 109.21 353.007 109.268C352.894 109.327 352.777 109.365 352.656 109.383C352.539 109.405 352.428 109.416 352.322 109.416ZM352.366 109.005C352.548 109.005 352.705 108.976 352.837 108.917C352.972 108.855 353.076 108.766 353.149 108.649C353.223 108.532 353.259 108.389 353.259 108.221V108.079H352.749C352.629 108.079 352.51 108.081 352.393 108.084C352.276 108.088 352.17 108.102 352.075 108.128C351.98 108.154 351.903 108.197 351.845 108.26C351.79 108.322 351.763 108.411 351.763 108.528C351.763 108.638 351.79 108.727 351.845 108.797C351.903 108.866 351.978 108.919 352.07 108.956C352.165 108.989 352.263 109.005 352.366 109.005ZM354.436 109.383V105.508H354.902V109.383H354.436Z" fill="white"/>
<path d="M304.856 110.452C304.611 110.452 304.379 110.419 304.16 110.353C303.944 110.283 303.759 110.172 303.606 110.019C303.452 109.861 303.348 109.653 303.294 109.394H303.792C303.844 109.558 303.926 109.686 304.039 109.777C304.156 109.869 304.289 109.933 304.439 109.969C304.589 110.002 304.739 110.019 304.889 110.019C305.038 110.019 305.177 109.998 305.305 109.958C305.437 109.914 305.543 109.845 305.623 109.75C305.707 109.655 305.749 109.533 305.749 109.383C305.749 109.266 305.727 109.171 305.683 109.098C305.643 109.025 305.585 108.966 305.508 108.922C305.435 108.875 305.347 108.836 305.245 108.807C305.11 108.763 304.965 108.727 304.812 108.697C304.658 108.668 304.507 108.634 304.357 108.593C304.211 108.553 304.074 108.502 303.946 108.44C303.876 108.403 303.809 108.359 303.743 108.308C303.681 108.253 303.626 108.191 303.579 108.122C303.535 108.049 303.498 107.967 303.469 107.875C303.443 107.784 303.431 107.683 303.431 107.574C303.431 107.409 303.456 107.267 303.507 107.146C303.558 107.026 303.628 106.923 303.716 106.839C303.803 106.755 303.906 106.688 304.023 106.636C304.14 106.585 304.264 106.549 304.395 106.527C304.531 106.501 304.666 106.488 304.801 106.488C305.024 106.488 305.232 106.523 305.426 106.593C305.623 106.658 305.786 106.766 305.914 106.916C306.045 107.066 306.116 107.269 306.127 107.524H305.662C305.643 107.371 305.592 107.25 305.508 107.163C305.424 107.075 305.32 107.013 305.196 106.976C305.071 106.94 304.94 106.921 304.801 106.921C304.699 106.921 304.594 106.931 304.488 106.949C304.386 106.967 304.291 107 304.203 107.048C304.119 107.091 304.052 107.154 304.001 107.234C303.949 107.311 303.924 107.409 303.924 107.53C303.924 107.625 303.94 107.709 303.973 107.782C304.01 107.855 304.057 107.917 304.116 107.968C304.178 108.016 304.245 108.056 304.319 108.089C304.494 108.162 304.688 108.217 304.9 108.253C305.115 108.286 305.316 108.336 305.503 108.401C305.612 108.438 305.713 108.484 305.804 108.539C305.895 108.593 305.972 108.657 306.034 108.73C306.1 108.803 306.149 108.888 306.182 108.983C306.219 109.074 306.237 109.178 306.237 109.295C306.237 109.507 306.201 109.688 306.127 109.838C306.054 109.984 305.954 110.103 305.826 110.194C305.698 110.285 305.55 110.351 305.382 110.391C305.218 110.431 305.042 110.452 304.856 110.452ZM308.174 110.441C307.867 110.441 307.613 110.378 307.412 110.254C307.211 110.126 307.061 109.951 306.963 109.728C306.864 109.505 306.815 109.251 306.815 108.966C306.815 108.677 306.866 108.423 306.968 108.204C307.074 107.981 307.227 107.806 307.428 107.678C307.629 107.55 307.876 107.486 308.168 107.486C308.395 107.486 308.589 107.53 308.749 107.618C308.914 107.702 309.049 107.815 309.155 107.957C309.261 108.1 309.338 108.257 309.385 108.429C309.433 108.597 309.453 108.767 309.446 108.939C309.442 108.972 309.438 109.004 309.435 109.037C309.435 109.07 309.433 109.103 309.429 109.136H307.286C307.301 109.304 307.343 109.456 307.412 109.591C307.481 109.726 307.58 109.834 307.708 109.914C307.836 109.991 307.995 110.029 308.185 110.029C308.28 110.029 308.375 110.019 308.47 109.997C308.569 109.971 308.656 109.929 308.733 109.871C308.813 109.812 308.87 109.733 308.903 109.635H309.38C309.336 109.821 309.254 109.975 309.133 110.095C309.013 110.212 308.868 110.3 308.7 110.358C308.532 110.413 308.357 110.441 308.174 110.441ZM307.297 108.73H308.969C308.965 108.566 308.929 108.422 308.859 108.297C308.79 108.173 308.695 108.076 308.574 108.007C308.457 107.937 308.316 107.903 308.152 107.903C307.973 107.903 307.821 107.941 307.697 108.018C307.576 108.095 307.483 108.195 307.417 108.319C307.352 108.444 307.312 108.581 307.297 108.73ZM310.066 110.408V107.519H310.516L310.538 107.864C310.6 107.777 310.669 107.705 310.746 107.651C310.826 107.596 310.914 107.556 311.009 107.53C311.108 107.501 311.212 107.486 311.322 107.486C311.523 107.486 311.685 107.53 311.809 107.618C311.934 107.702 312.027 107.813 312.089 107.952C312.155 107.853 312.23 107.769 312.314 107.7C312.401 107.63 312.498 107.577 312.604 107.541C312.714 107.504 312.835 107.486 312.966 107.486C313.178 107.486 313.348 107.532 313.476 107.623C313.607 107.714 313.702 107.839 313.761 107.996C313.819 108.149 313.849 108.323 313.849 108.517V110.408H313.383V108.752C313.383 108.657 313.377 108.56 313.366 108.462C313.359 108.363 313.337 108.272 313.3 108.188C313.264 108.1 313.209 108.031 313.136 107.979C313.067 107.925 312.968 107.897 312.84 107.897C312.719 107.897 312.617 107.926 312.533 107.985C312.453 108.04 312.387 108.115 312.336 108.21C312.285 108.305 312.248 108.407 312.226 108.517C312.204 108.623 312.193 108.729 312.193 108.835V110.408H311.727V108.747C311.727 108.655 311.722 108.56 311.711 108.462C311.704 108.363 311.683 108.272 311.651 108.188C311.621 108.1 311.57 108.031 311.497 107.979C311.428 107.925 311.331 107.897 311.207 107.897C311.031 107.897 310.894 107.948 310.795 108.051C310.697 108.149 310.627 108.272 310.587 108.418C310.551 108.56 310.532 108.701 310.532 108.84V110.408H310.066ZM315.807 110.441C315.5 110.441 315.246 110.378 315.045 110.254C314.844 110.126 314.695 109.951 314.596 109.728C314.497 109.505 314.448 109.251 314.448 108.966C314.448 108.677 314.499 108.423 314.601 108.204C314.707 107.981 314.861 107.806 315.062 107.678C315.263 107.55 315.509 107.486 315.802 107.486C316.028 107.486 316.222 107.53 316.383 107.618C316.547 107.702 316.683 107.815 316.789 107.957C316.894 108.1 316.971 108.257 317.019 108.429C317.066 108.597 317.086 108.767 317.079 108.939C317.075 108.972 317.072 109.004 317.068 109.037C317.068 109.07 317.066 109.103 317.063 109.136H314.919C314.934 109.304 314.976 109.456 315.045 109.591C315.115 109.726 315.213 109.834 315.341 109.914C315.469 109.991 315.628 110.029 315.818 110.029C315.913 110.029 316.008 110.019 316.103 109.997C316.202 109.971 316.29 109.929 316.366 109.871C316.447 109.812 316.503 109.733 316.536 109.635H317.013C316.969 109.821 316.887 109.975 316.767 110.095C316.646 110.212 316.502 110.3 316.334 110.358C316.165 110.413 315.99 110.441 315.807 110.441ZM314.93 108.73H316.602C316.598 108.566 316.562 108.422 316.493 108.297C316.423 108.173 316.328 108.076 316.207 108.007C316.091 107.937 315.95 107.903 315.785 107.903C315.606 107.903 315.455 107.941 315.33 108.018C315.21 108.095 315.117 108.195 315.051 108.319C314.985 108.444 314.945 108.581 314.93 108.73ZM318.752 110.441C318.621 110.441 318.487 110.428 318.352 110.402C318.221 110.377 318.096 110.333 317.979 110.271C317.866 110.209 317.771 110.125 317.694 110.019C317.618 109.913 317.568 109.781 317.546 109.624H318.018C318.054 109.723 318.113 109.803 318.193 109.865C318.277 109.924 318.37 109.966 318.473 109.991C318.579 110.017 318.679 110.029 318.774 110.029C318.833 110.029 318.9 110.026 318.977 110.019C319.054 110.011 319.127 109.995 319.196 109.969C319.269 109.94 319.328 109.898 319.372 109.843C319.419 109.788 319.443 109.712 319.443 109.613C319.443 109.54 319.426 109.48 319.394 109.432C319.361 109.385 319.315 109.346 319.257 109.317C319.198 109.284 319.127 109.26 319.043 109.246C318.871 109.209 318.686 109.174 318.489 109.141C318.295 109.109 318.124 109.046 317.974 108.955C317.923 108.922 317.875 108.886 317.831 108.845C317.791 108.802 317.756 108.754 317.727 108.703C317.698 108.648 317.674 108.59 317.656 108.528C317.641 108.462 317.634 108.391 317.634 108.314C317.634 108.171 317.661 108.049 317.716 107.947C317.775 107.841 317.855 107.755 317.957 107.689C318.06 107.619 318.177 107.568 318.308 107.535C318.443 107.503 318.588 107.486 318.741 107.486C318.931 107.486 319.101 107.517 319.251 107.579C319.405 107.638 319.531 107.725 319.629 107.842C319.728 107.956 319.786 108.096 319.805 108.264H319.372C319.346 108.158 319.277 108.073 319.163 108.007C319.05 107.937 318.906 107.903 318.73 107.903C318.672 107.903 318.606 107.908 318.533 107.919C318.46 107.926 318.39 107.945 318.325 107.974C318.259 108 318.204 108.04 318.16 108.095C318.116 108.146 318.094 108.215 318.094 108.303C318.094 108.383 318.115 108.451 318.155 108.506C318.199 108.56 318.259 108.604 318.336 108.637C318.412 108.67 318.5 108.697 318.599 108.719C318.727 108.745 318.867 108.772 319.021 108.802C319.174 108.827 319.295 108.855 319.383 108.884C319.5 108.92 319.596 108.972 319.673 109.037C319.753 109.103 319.812 109.182 319.849 109.273C319.889 109.364 319.909 109.47 319.909 109.591C319.909 109.763 319.874 109.903 319.805 110.013C319.739 110.123 319.649 110.209 319.536 110.271C319.423 110.333 319.297 110.377 319.158 110.402C319.023 110.428 318.887 110.441 318.752 110.441ZM321.574 110.441C321.271 110.441 321.057 110.358 320.933 110.194C320.812 110.029 320.752 109.796 320.752 109.492V107.93H320.28V107.519H320.752V106.653H321.218V107.519H322.106V107.93H321.218V109.432C321.218 109.542 321.227 109.642 321.245 109.733C321.263 109.821 321.302 109.892 321.36 109.947C321.419 109.998 321.506 110.026 321.623 110.029C321.707 110.029 321.78 110.015 321.843 109.986C321.908 109.956 321.963 109.922 322.007 109.881L322.21 110.221C322.148 110.273 322.082 110.315 322.013 110.347C321.947 110.38 321.877 110.404 321.804 110.419C321.735 110.433 321.658 110.441 321.574 110.441ZM323.912 110.441C323.605 110.441 323.351 110.378 323.15 110.254C322.949 110.126 322.799 109.951 322.7 109.728C322.602 109.505 322.552 109.251 322.552 108.966C322.552 108.677 322.604 108.423 322.706 108.204C322.812 107.981 322.965 107.806 323.166 107.678C323.367 107.55 323.614 107.486 323.906 107.486C324.133 107.486 324.327 107.53 324.487 107.618C324.652 107.702 324.787 107.815 324.893 107.957C324.999 108.1 325.076 108.257 325.123 108.429C325.171 108.597 325.191 108.767 325.183 108.939C325.18 108.972 325.176 109.004 325.173 109.037C325.173 109.07 325.171 109.103 325.167 109.136H323.024C323.038 109.304 323.08 109.456 323.15 109.591C323.219 109.726 323.318 109.834 323.446 109.914C323.574 109.991 323.733 110.029 323.923 110.029C324.018 110.029 324.113 110.019 324.208 109.997C324.306 109.971 324.394 109.929 324.471 109.871C324.551 109.812 324.608 109.733 324.641 109.635H325.118C325.074 109.821 324.992 109.975 324.871 110.095C324.75 110.212 324.606 110.3 324.438 110.358C324.27 110.413 324.094 110.441 323.912 110.441ZM323.035 108.73H324.707C324.703 108.566 324.666 108.422 324.597 108.297C324.528 108.173 324.433 108.076 324.312 108.007C324.195 107.937 324.054 107.903 323.89 107.903C323.711 107.903 323.559 107.941 323.435 108.018C323.314 108.095 323.221 108.195 323.155 108.319C323.09 108.444 323.049 108.581 323.035 108.73ZM325.804 110.408V107.519H326.254L326.276 107.968C326.349 107.855 326.433 107.764 326.528 107.694C326.626 107.625 326.734 107.574 326.851 107.541C326.972 107.504 327.102 107.486 327.24 107.486C327.266 107.486 327.29 107.486 327.312 107.486C327.337 107.486 327.363 107.486 327.388 107.486V107.925H327.218C326.992 107.925 326.807 107.974 326.665 108.073C326.526 108.168 326.425 108.297 326.363 108.462C326.301 108.623 326.27 108.802 326.27 108.999V110.408H325.804Z" fill="#9291A5"/>
<path d="M276.795 111.098L276.214 110.304C276.101 110.351 275.978 110.388 275.847 110.413C275.719 110.439 275.58 110.452 275.43 110.452C275.028 110.452 274.692 110.366 274.421 110.194C274.151 110.022 273.946 109.786 273.807 109.487C273.672 109.187 273.605 108.849 273.605 108.473C273.605 108.093 273.672 107.753 273.807 107.453C273.946 107.154 274.151 106.918 274.421 106.746C274.692 106.574 275.028 106.488 275.43 106.488C275.832 106.488 276.166 106.574 276.433 106.746C276.703 106.918 276.906 107.154 277.042 107.453C277.18 107.753 277.25 108.093 277.25 108.473C277.25 108.805 277.195 109.107 277.085 109.377C276.979 109.644 276.822 109.867 276.614 110.046L277.168 110.813L276.795 111.098ZM275.43 110.019C275.737 110.019 275.989 109.949 276.186 109.81C276.384 109.668 276.528 109.48 276.619 109.246C276.714 109.012 276.762 108.754 276.762 108.473C276.762 108.188 276.714 107.928 276.619 107.694C276.524 107.461 276.378 107.274 276.181 107.135C275.984 106.993 275.733 106.921 275.43 106.921C275.127 106.921 274.874 106.993 274.674 107.135C274.476 107.278 274.328 107.466 274.23 107.7C274.134 107.934 274.087 108.191 274.087 108.473C274.087 108.75 274.134 109.006 274.23 109.24C274.325 109.474 274.471 109.662 274.668 109.805C274.869 109.947 275.123 110.019 275.43 110.019ZM279.085 110.441C278.686 110.441 278.383 110.335 278.175 110.123C277.97 109.911 277.868 109.585 277.868 109.147V107.519H278.334V109.125C278.334 109.315 278.361 109.478 278.416 109.613C278.471 109.748 278.553 109.852 278.663 109.925C278.776 109.995 278.917 110.029 279.085 110.029C279.26 110.029 279.404 109.995 279.518 109.925C279.631 109.852 279.713 109.748 279.764 109.613C279.819 109.478 279.847 109.315 279.847 109.125V107.519H280.313V109.147C280.313 109.585 280.207 109.911 279.995 110.123C279.786 110.335 279.483 110.441 279.085 110.441ZM281.963 110.441C281.832 110.441 281.704 110.424 281.58 110.391C281.459 110.355 281.349 110.302 281.251 110.232C281.156 110.159 281.079 110.07 281.021 109.964C280.966 109.854 280.938 109.728 280.938 109.585C280.938 109.421 280.968 109.282 281.026 109.169C281.088 109.056 281.17 108.966 281.273 108.9C281.375 108.835 281.494 108.787 281.629 108.758C281.764 108.729 281.905 108.714 282.051 108.714H282.901C282.901 108.549 282.877 108.407 282.829 108.286C282.786 108.166 282.713 108.073 282.61 108.007C282.508 107.937 282.373 107.903 282.205 107.903C282.102 107.903 282.007 107.914 281.92 107.936C281.832 107.957 281.757 107.992 281.695 108.04C281.633 108.087 281.587 108.151 281.558 108.232H281.059C281.085 108.1 281.134 107.989 281.207 107.897C281.284 107.802 281.375 107.725 281.481 107.667C281.591 107.605 281.708 107.559 281.832 107.53C281.956 107.501 282.08 107.486 282.205 107.486C282.621 107.486 282.917 107.609 283.093 107.853C283.268 108.098 283.356 108.429 283.356 108.845V110.408H282.967L282.939 110.04C282.859 110.15 282.762 110.234 282.649 110.293C282.535 110.351 282.418 110.389 282.298 110.408C282.181 110.43 282.069 110.441 281.963 110.441ZM282.007 110.029C282.19 110.029 282.347 110 282.479 109.942C282.614 109.88 282.718 109.79 282.791 109.673C282.864 109.556 282.901 109.414 282.901 109.246V109.103H282.391C282.27 109.103 282.152 109.105 282.035 109.109C281.918 109.112 281.812 109.127 281.717 109.152C281.622 109.178 281.545 109.222 281.487 109.284C281.432 109.346 281.404 109.436 281.404 109.553C281.404 109.662 281.432 109.752 281.487 109.821C281.545 109.891 281.62 109.944 281.711 109.98C281.806 110.013 281.905 110.029 282.007 110.029ZM284.078 110.408V107.519H284.527L284.549 107.968C284.622 107.855 284.706 107.764 284.801 107.694C284.9 107.625 285.008 107.574 285.125 107.541C285.245 107.504 285.375 107.486 285.514 107.486C285.539 107.486 285.563 107.486 285.585 107.486C285.611 107.486 285.636 107.486 285.662 107.486V107.925H285.492C285.265 107.925 285.081 107.974 284.938 108.073C284.799 108.168 284.699 108.297 284.637 108.462C284.575 108.623 284.543 108.802 284.543 108.999V110.408H284.078ZM287.208 110.441C286.904 110.441 286.691 110.358 286.566 110.194C286.446 110.029 286.386 109.796 286.386 109.492V107.93H285.914V107.519H286.386V106.653H286.851V107.519H287.739V107.93H286.851V109.432C286.851 109.542 286.861 109.642 286.879 109.733C286.897 109.821 286.935 109.892 286.994 109.947C287.052 109.998 287.14 110.026 287.257 110.029C287.341 110.029 287.414 110.015 287.476 109.986C287.542 109.956 287.597 109.922 287.641 109.881L287.844 110.221C287.781 110.273 287.716 110.315 287.646 110.347C287.58 110.38 287.511 110.404 287.438 110.419C287.369 110.433 287.292 110.441 287.208 110.441ZM289.545 110.441C289.239 110.441 288.985 110.378 288.784 110.254C288.583 110.126 288.433 109.951 288.334 109.728C288.235 109.505 288.186 109.251 288.186 108.966C288.186 108.677 288.237 108.423 288.34 108.204C288.446 107.981 288.599 107.806 288.8 107.678C289.001 107.55 289.248 107.486 289.54 107.486C289.767 107.486 289.96 107.53 290.121 107.618C290.285 107.702 290.421 107.815 290.527 107.957C290.633 108.1 290.709 108.257 290.757 108.429C290.804 108.597 290.825 108.767 290.817 108.939C290.814 108.972 290.81 109.004 290.806 109.037C290.806 109.07 290.804 109.103 290.801 109.136H288.657C288.672 109.304 288.714 109.456 288.784 109.591C288.853 109.726 288.952 109.834 289.08 109.914C289.207 109.991 289.366 110.029 289.556 110.029C289.651 110.029 289.746 110.019 289.841 109.997C289.94 109.971 290.028 109.929 290.105 109.871C290.185 109.812 290.242 109.733 290.275 109.635H290.751C290.708 109.821 290.625 109.975 290.505 110.095C290.384 110.212 290.24 110.3 290.072 110.358C289.904 110.413 289.728 110.441 289.545 110.441ZM288.668 108.73H290.34C290.337 108.566 290.3 108.422 290.231 108.297C290.161 108.173 290.066 108.076 289.946 108.007C289.829 107.937 289.688 107.903 289.524 107.903C289.345 107.903 289.193 107.941 289.069 108.018C288.948 108.095 288.855 108.195 288.789 108.319C288.723 108.444 288.683 108.581 288.668 108.73ZM291.438 110.408V107.519H291.887L291.909 107.968C291.982 107.855 292.066 107.764 292.161 107.694C292.26 107.625 292.368 107.574 292.485 107.541C292.605 107.504 292.735 107.486 292.874 107.486C292.9 107.486 292.923 107.486 292.945 107.486C292.971 107.486 292.997 107.486 293.022 107.486V107.925H292.852C292.626 107.925 292.441 107.974 292.299 108.073C292.16 108.168 292.059 108.297 291.997 108.462C291.935 108.623 291.904 108.802 291.904 108.999V110.408H291.438Z" fill="#9291A5"/>
</g>
<rect x="3.54321" y="2.54321" width="381.914" height="240.914" rx="16.4568" stroke="#F5FAFF" stroke-width="0.91358"/>
</g>
<defs>
<filter id="filter0_dd_3529_4421" x="0.0859375" y="0.0864258" width="388.828" height="247.827" filterUnits="userSpaceOnUse" color-interpolation-filters="sRGB">
<feFlood flood-opacity="0" result="BackgroundImageFix"/>
<feColorMatrix in="SourceAlpha" type="matrix" values="0 0 0 0 0 0 0 0 0 0 0 0 0 0 0 0 0 0 127 0" result="hardAlpha"/>
<feOffset dy="1"/>
<feGaussianBlur stdDeviation="1"/>
<feColorMatrix type="matrix" values="0 0 0 0 0.0627451 0 0 0 0 0.0941176 0 0 0 0 0.156863 0 0 0 0.06 0"/>
<feBlend mode="normal" in2="BackgroundImageFix" result="effect1_dropShadow_3529_4421"/>
<feColorMatrix in="SourceAlpha" type="matrix" values="0 0 0 0 0 0 0 0 0 0 0 0 0 0 0 0 0 0 127 0" result="hardAlpha"/>
<feOffset dy="1"/>
<feGaussianBlur stdDeviation="1.5"/>
<feColorMatrix type="matrix" values="0 0 0 0 0.0627451 0 0 0 0 0.0941176 0 0 0 0 0.156863 0 0 0 0.1 0"/>
<feBlend mode="normal" in2="effect1_dropShadow_3529_4421" result="effect2_dropShadow_3529_4421"/>
<feBlend mode="normal" in="SourceGraphic" in2="effect2_dropShadow_3529_4421" result="shape"/>
</filter>
<clipPath id="clip0_3529_4421">
<rect x="4" y="3" width="381" height="240" rx="16" fill="white"/>
</clipPath>
</defs>
</svg>
