<svg width="391" height="249" viewBox="0 0 391 249" fill="none" xmlns="http://www.w3.org/2000/svg">
<g filter="url(#filter0_dd_3530_4451)">
<g filter="url(#filter1_d_3530_4451)">
<rect x="5" y="3.00049" width="381" height="240" rx="16" fill="white"/>
</g>
<path d="M51.7126 216.411H52.7349V222.446C52.7349 222.984 52.636 223.442 52.4381 223.818C52.2402 224.195 51.9613 224.481 51.6013 224.676C51.2413 224.871 50.8167 224.968 50.3276 224.968C49.8659 224.968 49.4551 224.885 49.0951 224.717C48.7351 224.547 48.452 224.305 48.2459 223.992C48.0398 223.678 47.9368 223.306 47.9368 222.874H48.9426C48.9426 223.113 49.0016 223.322 49.1198 223.501C49.2407 223.677 49.4056 223.814 49.6145 223.913C49.8233 224.012 50.061 224.062 50.3276 224.062C50.6216 224.062 50.8717 224 51.0778 223.876C51.2839 223.752 51.4406 223.571 51.5477 223.332C51.6577 223.09 51.7126 222.795 51.7126 222.446V216.411ZM56.5149 225.001C56.1136 225.001 55.7495 224.926 55.4225 224.775C55.0955 224.621 54.8358 224.4 54.6434 224.111C54.4511 223.82 54.3549 223.468 54.3549 223.056C54.3549 222.693 54.4263 222.399 54.5692 222.174C54.7121 221.946 54.9031 221.767 55.1422 221.638C55.3813 221.509 55.6451 221.412 55.9336 221.349C56.2249 221.283 56.5176 221.231 56.8117 221.193C57.1964 221.143 57.5083 221.106 57.7474 221.081C57.9892 221.054 58.1651 221.008 58.275 220.945C58.3877 220.882 58.444 220.772 58.444 220.616V220.583C58.444 220.176 58.3327 219.86 58.1101 219.634C57.8903 219.409 57.5564 219.296 57.1084 219.296C56.644 219.296 56.2799 219.398 56.0161 219.601C55.7523 219.805 55.5668 220.022 55.4596 220.253L54.5363 219.923C54.7011 219.538 54.921 219.239 55.1958 219.024C55.4733 218.807 55.7756 218.656 56.1027 218.571C56.4324 218.483 56.7567 218.439 57.0755 218.439C57.2788 218.439 57.5124 218.464 57.7762 218.513C58.0428 218.56 58.2997 218.658 58.5471 218.806C58.7971 218.954 59.0046 219.178 59.1695 219.478C59.3344 219.777 59.4168 220.179 59.4168 220.681V224.853H58.444V223.996H58.3945C58.3286 224.133 58.2187 224.28 58.0648 224.437C57.9109 224.593 57.7062 224.727 57.4506 224.837C57.195 224.946 56.8831 225.001 56.5149 225.001ZM56.6633 224.128C57.048 224.128 57.3723 224.052 57.6361 223.901C57.9026 223.75 58.1032 223.555 58.2379 223.315C58.3753 223.076 58.444 222.825 58.444 222.561V221.671C58.4028 221.72 58.3121 221.766 58.1719 221.807C58.0345 221.845 57.8752 221.88 57.6938 221.91C57.5152 221.937 57.3407 221.962 57.1703 221.984C57.0026 222.003 56.8666 222.02 56.7622 222.034C56.5094 222.066 56.273 222.12 56.0532 222.194C55.8361 222.266 55.6602 222.374 55.5256 222.52C55.3937 222.663 55.3277 222.858 55.3277 223.105C55.3277 223.443 55.4527 223.699 55.7028 223.872C55.9556 224.042 56.2758 224.128 56.6633 224.128ZM62.1652 221.044V224.853H61.1924V218.521H62.1323V219.511H62.2147C62.3631 219.189 62.5884 218.931 62.8907 218.736C63.193 218.538 63.5832 218.439 64.0614 218.439C64.4901 218.439 64.8652 218.527 65.1867 218.703C65.5083 218.876 65.7583 219.14 65.937 219.494C66.1156 219.846 66.2049 220.291 66.2049 220.83V224.853H65.2321V220.896C65.2321 220.398 65.1029 220.011 64.8446 219.733C64.5863 219.453 64.2318 219.313 63.7811 219.313C63.4706 219.313 63.193 219.38 62.9484 219.515C62.7066 219.65 62.5156 219.846 62.3755 220.104C62.2353 220.363 62.1652 220.676 62.1652 221.044Z" fill="#615E83"/>
<rect x="161.339" y="205.572" width="64.0196" height="25.6078" rx="12.8039" fill="#007BFF"/>
<path d="M177.203 213.933H178.423L181.292 220.941H181.391L184.26 213.933H185.48V222.375H184.524V215.961H184.441L181.803 222.375H180.88L178.242 215.961H178.159V222.375H177.203V213.933ZM189.261 222.524C188.86 222.524 188.496 222.448 188.169 222.297C187.842 222.143 187.582 221.922 187.39 221.634C187.197 221.342 187.101 220.99 187.101 220.578C187.101 220.216 187.173 219.921 187.315 219.696C187.458 219.468 187.649 219.289 187.888 219.16C188.127 219.031 188.391 218.935 188.68 218.872C188.971 218.806 189.264 218.754 189.558 218.715C189.943 218.666 190.254 218.628 190.494 218.604C190.735 218.576 190.911 218.531 191.021 218.468C191.134 218.405 191.19 218.295 191.19 218.138V218.105C191.19 217.698 191.079 217.382 190.856 217.157C190.636 216.932 190.303 216.819 189.855 216.819C189.39 216.819 189.026 216.921 188.762 217.124C188.498 217.327 188.313 217.544 188.206 217.775L187.282 217.445C187.447 217.061 187.667 216.761 187.942 216.547C188.22 216.33 188.522 216.179 188.849 216.093C189.179 216.005 189.503 215.961 189.822 215.961C190.025 215.961 190.259 215.986 190.522 216.036C190.789 216.082 191.046 216.18 191.293 216.328C191.543 216.477 191.751 216.701 191.916 217C192.081 217.3 192.163 217.701 192.163 218.204V222.375H191.19V221.518H191.141C191.075 221.655 190.965 221.803 190.811 221.959C190.657 222.116 190.452 222.249 190.197 222.359C189.941 222.469 189.629 222.524 189.261 222.524ZM189.409 221.65C189.794 221.65 190.118 221.574 190.382 221.423C190.649 221.272 190.849 221.077 190.984 220.838C191.121 220.599 191.19 220.347 191.19 220.084V219.193C191.149 219.243 191.058 219.288 190.918 219.329C190.781 219.368 190.621 219.402 190.44 219.432C190.261 219.46 190.087 219.485 189.916 219.507C189.749 219.526 189.613 219.542 189.508 219.556C189.256 219.589 189.019 219.643 188.799 219.717C188.582 219.788 188.406 219.897 188.272 220.042C188.14 220.185 188.074 220.38 188.074 220.628C188.074 220.966 188.199 221.221 188.449 221.394C188.702 221.565 189.022 221.65 189.409 221.65ZM193.939 222.375V216.044H194.878V217H194.944C195.06 216.687 195.269 216.433 195.571 216.238C195.873 216.043 196.214 215.945 196.593 215.945C196.665 215.945 196.754 215.946 196.861 215.949C196.968 215.952 197.049 215.956 197.104 215.961V216.951C197.071 216.943 196.996 216.93 196.878 216.914C196.762 216.894 196.64 216.885 196.511 216.885C196.203 216.885 195.928 216.949 195.686 217.079C195.447 217.205 195.258 217.381 195.118 217.606C194.98 217.829 194.911 218.083 194.911 218.369V222.375H193.939ZM200.637 222.507C200.043 222.507 199.532 222.367 199.104 222.087C198.675 221.807 198.345 221.421 198.114 220.929C197.883 220.437 197.768 219.875 197.768 219.243C197.768 218.6 197.886 218.032 198.123 217.54C198.362 217.046 198.694 216.66 199.12 216.382C199.549 216.102 200.049 215.961 200.621 215.961C201.066 215.961 201.467 216.044 201.824 216.209C202.181 216.374 202.474 216.605 202.702 216.901C202.93 217.198 203.072 217.544 203.127 217.94H202.154C202.08 217.652 201.915 217.396 201.659 217.173C201.406 216.948 201.066 216.835 200.637 216.835C200.258 216.835 199.925 216.934 199.639 217.132C199.356 217.327 199.135 217.603 198.976 217.961C198.819 218.315 198.741 218.732 198.741 219.21C198.741 219.699 198.818 220.125 198.972 220.488C199.128 220.85 199.348 221.132 199.631 221.333C199.917 221.533 200.252 221.634 200.637 221.634C200.89 221.634 201.119 221.59 201.325 221.502C201.532 221.414 201.706 221.287 201.849 221.122C201.992 220.957 202.094 220.76 202.154 220.529H203.127C203.072 220.903 202.936 221.239 202.719 221.539C202.504 221.835 202.22 222.072 201.865 222.248C201.514 222.421 201.104 222.507 200.637 222.507ZM205.522 218.567V222.375H204.549V213.933H205.522V217.033H205.604C205.753 216.706 205.975 216.447 206.272 216.254C206.571 216.059 206.97 215.961 207.467 215.961C207.899 215.961 208.277 216.048 208.601 216.221C208.925 216.392 209.177 216.654 209.355 217.009C209.537 217.36 209.627 217.808 209.627 218.352V222.375H208.655V218.418C208.655 217.915 208.524 217.527 208.263 217.252C208.005 216.974 207.646 216.835 207.187 216.835C206.868 216.835 206.582 216.903 206.33 217.037C206.08 217.172 205.882 217.369 205.736 217.627C205.593 217.885 205.522 218.198 205.522 218.567Z" fill="white"/>
<path d="M112.538 224.853V216.411H117.6V217.318H113.561V220.17H117.221V221.077H113.561V224.853H112.538ZM121.409 224.985C120.799 224.985 120.273 224.85 119.83 224.581C119.391 224.309 119.051 223.93 118.812 223.443C118.576 222.954 118.458 222.385 118.458 221.737C118.458 221.088 118.576 220.517 118.812 220.022C119.051 219.525 119.384 219.137 119.81 218.859C120.238 218.579 120.739 218.439 121.31 218.439C121.64 218.439 121.966 218.494 122.287 218.604C122.609 218.714 122.901 218.892 123.165 219.14C123.429 219.384 123.639 219.709 123.796 220.113C123.952 220.517 124.031 221.014 124.031 221.605V222.017H119.15V221.176H123.041C123.041 220.819 122.97 220.5 122.827 220.22C122.687 219.939 122.486 219.718 122.225 219.556C121.967 219.394 121.662 219.313 121.31 219.313C120.923 219.313 120.587 219.409 120.304 219.601C120.024 219.791 119.808 220.038 119.657 220.343C119.506 220.648 119.43 220.976 119.43 221.325V221.885C119.43 222.363 119.513 222.769 119.678 223.101C119.845 223.431 120.078 223.682 120.374 223.855C120.671 224.026 121.016 224.111 121.409 224.111C121.665 224.111 121.895 224.075 122.102 224.004C122.31 223.93 122.49 223.82 122.642 223.674C122.793 223.526 122.909 223.342 122.992 223.122L123.932 223.386C123.833 223.704 123.667 223.985 123.433 224.226C123.199 224.466 122.911 224.652 122.567 224.787C122.224 224.919 121.838 224.985 121.409 224.985ZM125.642 224.853V216.411H126.615V219.527H126.698C126.769 219.417 126.868 219.277 126.994 219.107C127.124 218.934 127.308 218.78 127.547 218.645C127.789 218.508 128.116 218.439 128.528 218.439C129.061 218.439 129.531 218.572 129.938 218.839C130.344 219.105 130.662 219.483 130.89 219.972C131.118 220.462 131.232 221.039 131.232 221.704C131.232 222.374 131.118 222.955 130.89 223.447C130.662 223.937 130.346 224.316 129.942 224.585C129.538 224.852 129.072 224.985 128.544 224.985C128.138 224.985 127.812 224.918 127.567 224.783C127.323 224.646 127.135 224.49 127.003 224.317C126.871 224.141 126.769 223.996 126.698 223.88H126.582V224.853H125.642ZM126.599 221.687C126.599 222.165 126.669 222.587 126.809 222.953C126.949 223.315 127.154 223.6 127.423 223.806C127.692 224.009 128.022 224.111 128.412 224.111C128.819 224.111 129.159 224.004 129.431 223.79C129.705 223.572 129.912 223.281 130.049 222.916C130.189 222.547 130.259 222.138 130.259 221.687C130.259 221.242 130.19 220.841 130.053 220.484C129.918 220.124 129.714 219.839 129.439 219.63C129.167 219.419 128.825 219.313 128.412 219.313C128.017 219.313 127.684 219.413 127.415 219.614C127.146 219.812 126.942 220.089 126.805 220.446C126.667 220.801 126.599 221.215 126.599 221.687Z" fill="#615E83"/>
<path d="M256.634 224.853H255.562L258.662 216.411H259.717L262.817 224.853H261.745L259.223 217.747H259.157L256.634 224.853ZM257.03 221.555H261.35V222.462H257.03V221.555ZM264 227.227V218.521H264.94V219.527H265.055C265.127 219.417 265.226 219.277 265.352 219.107C265.481 218.934 265.665 218.78 265.905 218.645C266.146 218.508 266.473 218.439 266.886 218.439C267.419 218.439 267.889 218.572 268.295 218.839C268.702 219.105 269.019 219.483 269.248 219.972C269.476 220.462 269.59 221.039 269.59 221.704C269.59 222.374 269.476 222.955 269.248 223.447C269.019 223.937 268.703 224.316 268.299 224.585C267.896 224.852 267.43 224.985 266.902 224.985C266.495 224.985 266.17 224.918 265.925 224.783C265.681 224.646 265.492 224.49 265.36 224.317C265.229 224.141 265.127 223.996 265.055 223.88H264.973V227.227H264ZM264.956 221.687C264.956 222.165 265.027 222.587 265.167 222.953C265.307 223.315 265.512 223.6 265.781 223.806C266.05 224.009 266.38 224.111 266.77 224.111C267.177 224.111 267.516 224.004 267.788 223.79C268.063 223.572 268.269 223.281 268.407 222.916C268.547 222.547 268.617 222.138 268.617 221.687C268.617 221.242 268.548 220.841 268.411 220.484C268.276 220.124 268.071 219.839 267.797 219.63C267.525 219.419 267.182 219.313 266.77 219.313C266.374 219.313 266.042 219.413 265.773 219.614C265.503 219.812 265.3 220.089 265.163 220.446C265.025 220.801 264.956 221.215 264.956 221.687ZM271.074 224.853V218.521H272.013V219.478H272.079C272.195 219.165 272.404 218.91 272.706 218.715C273.008 218.52 273.349 218.423 273.728 218.423C273.8 218.423 273.889 218.424 273.996 218.427C274.103 218.429 274.184 218.434 274.239 218.439V219.428C274.206 219.42 274.131 219.408 274.013 219.391C273.897 219.372 273.775 219.362 273.646 219.362C273.338 219.362 273.063 219.427 272.821 219.556C272.582 219.683 272.393 219.858 272.253 220.084C272.115 220.306 272.046 220.561 272.046 220.846V224.853H271.074Z" fill="#615E83"/>
<path d="M321.29 216.411H322.511L325.38 223.419H325.479L328.347 216.411H329.568V224.853H328.611V218.439H328.529L325.891 224.853H324.967L322.329 218.439H322.247V224.853H321.29V216.411ZM333.349 225.001C332.947 225.001 332.583 224.926 332.256 224.775C331.929 224.621 331.67 224.4 331.477 224.111C331.285 223.82 331.189 223.468 331.189 223.056C331.189 222.693 331.26 222.399 331.403 222.174C331.546 221.946 331.737 221.767 331.976 221.638C332.215 221.509 332.479 221.412 332.767 221.349C333.059 221.283 333.351 221.231 333.645 221.193C334.03 221.143 334.342 221.106 334.581 221.081C334.823 221.054 334.999 221.008 335.109 220.945C335.221 220.882 335.278 220.772 335.278 220.616V220.583C335.278 220.176 335.166 219.86 334.944 219.634C334.724 219.409 334.39 219.296 333.942 219.296C333.478 219.296 333.114 219.398 332.85 219.601C332.586 219.805 332.401 220.022 332.293 220.253L331.37 219.923C331.535 219.538 331.755 219.239 332.03 219.024C332.307 218.807 332.609 218.656 332.936 218.571C333.266 218.483 333.59 218.439 333.909 218.439C334.113 218.439 334.346 218.464 334.61 218.513C334.877 218.56 335.134 218.658 335.381 218.806C335.631 218.954 335.838 219.178 336.003 219.478C336.168 219.777 336.251 220.179 336.251 220.681V224.853H335.278V223.996H335.228C335.162 224.133 335.052 224.28 334.899 224.437C334.745 224.593 334.54 224.727 334.284 224.837C334.029 224.946 333.717 225.001 333.349 225.001ZM333.497 224.128C333.882 224.128 334.206 224.052 334.47 223.901C334.736 223.75 334.937 223.555 335.072 223.315C335.209 223.076 335.278 222.825 335.278 222.561V221.671C335.237 221.72 335.146 221.766 335.006 221.807C334.868 221.845 334.709 221.88 334.528 221.91C334.349 221.937 334.174 221.962 334.004 221.984C333.836 222.003 333.7 222.02 333.596 222.034C333.343 222.066 333.107 222.12 332.887 222.194C332.67 222.266 332.494 222.374 332.359 222.52C332.227 222.663 332.161 222.858 332.161 223.105C332.161 223.443 332.287 223.699 332.537 223.872C332.789 224.042 333.11 224.128 333.497 224.128ZM338.426 227.227C338.261 227.227 338.114 227.214 337.985 227.186C337.856 227.161 337.767 227.137 337.717 227.112L337.964 226.255C338.201 226.315 338.41 226.337 338.591 226.32C338.772 226.304 338.933 226.223 339.073 226.077C339.216 225.934 339.347 225.702 339.465 225.381L339.646 224.886L337.305 218.521H338.36L340.108 223.567H340.174L341.922 218.521H342.977L340.289 225.776C340.168 226.103 340.019 226.374 339.84 226.588C339.661 226.806 339.454 226.966 339.217 227.071C338.984 227.175 338.72 227.227 338.426 227.227Z" fill="#615E83"/>
<g style="mix-blend-mode:multiply" opacity="0.33">
<path d="M62.4331 132.089L29.7197 154.917V201.792H361.078V158.618C354.36 154.177 339.709 144.337 334.844 140.504C328.763 135.712 317.471 137.933 309.653 137.816C301.835 137.699 298.36 133.258 298.708 126.246C299.055 119.234 297.144 119.467 291.585 116.663C287.137 114.419 279.424 118.688 276.123 121.103C264.714 128.817 240.334 145.319 234.08 149.619C227.825 153.92 221.513 151.411 219.139 149.619C209.41 143.269 187.902 129.191 179.702 123.675C171.501 118.158 163.892 121.376 161.112 123.675C158.101 125.622 151.14 130.032 147.388 132.089C142.697 134.66 131.23 132.907 124.802 132.089C118.374 131.271 115.421 130.57 108.298 135.128C101.175 139.685 96.3973 140.094 84.4967 132.089C74.9762 125.685 65.8207 129.421 62.4331 132.089Z" fill="url(#paint0_linear_3530_4451)"/>
</g>
<path d="M31.167 154.917L63.5947 132.089C66.9528 129.421 76.0283 125.685 85.4657 132.089C97.2625 140.094 101.998 139.685 109.059 135.128C116.12 130.57 119.048 131.271 125.42 132.089C131.792 132.907 143.158 134.66 147.808 132.089C151.527 130.032 158.428 125.622 161.413 123.675C164.168 121.376 171.711 118.158 179.84 123.675C187.968 129.191 209.288 143.269 218.932 149.619C221.286 151.411 227.543 153.92 233.743 149.619C239.943 145.319 264.11 128.817 275.419 121.103C278.691 118.688 286.337 114.419 290.746 116.663C296.257 119.467 298.151 119.234 297.807 126.246C297.462 133.258 300.907 137.699 308.656 137.816C316.406 137.933 327.6 135.712 333.628 140.504C338.45 144.337 352.973 154.177 359.632 158.618" stroke="#007BFF" stroke-width="2.90196" stroke-linecap="round" stroke-linejoin="round"/>
<line x1="194.438" y1="133.647" x2="194.438" y2="196.683" stroke="#007BFF" stroke-width="2.17647" stroke-linecap="round"/>
<g filter="url(#filter2_d_3530_4451)">
<ellipse cx="194.241" cy="132.559" rx="8.10092" ry="5.44942" fill="#007BFF"/>
<path d="M201.253 132.559C201.253 133.592 200.632 134.655 199.361 135.51C198.098 136.36 196.291 136.92 194.241 136.92C192.19 136.92 190.383 136.36 189.12 135.51C187.85 134.655 187.228 133.592 187.228 132.559C187.228 131.527 187.85 130.463 189.12 129.609C190.383 128.759 192.19 128.198 194.241 128.198C196.291 128.198 198.098 128.759 199.361 129.609C200.632 130.463 201.253 131.527 201.253 132.559Z" stroke="white" stroke-width="2.17647"/>
</g>
<line x1="29.7197" y1="55.9063" x2="361.078" y2="55.9063" stroke="#E5E5EF" stroke-width="0.72549"/>
<path d="M31.9252 46.1421V38.6115H29.9084V37.0444C30.305 37.0348 30.6629 37.0009 30.9821 36.9429C31.3013 36.8752 31.5867 36.7591 31.8382 36.5946C32.0897 36.4205 32.3073 36.1787 32.4911 35.8692H34.0001V46.1421H31.9252ZM41.0178 46.1421V44.2558H35.8087V42.6742L40.5825 35.8692H43.0927V42.3695H44.2534V44.2558H43.0927V46.1421H41.0178ZM38.1884 42.3695H41.0178V38.1617L38.1884 42.3695ZM49.0521 46.2582C48.5685 46.2582 48.1186 46.2001 47.7027 46.0841C47.2868 45.9583 46.9143 45.7697 46.5854 45.5182C46.2662 45.2667 45.9954 44.9474 45.7729 44.5605C45.5601 44.1736 45.415 43.7141 45.3376 43.1821H47.3835C47.4415 43.3756 47.5479 43.5593 47.7027 43.7335C47.8575 43.9076 48.0509 44.0478 48.2831 44.1542C48.5249 44.2607 48.7958 44.3139 49.0956 44.3139C49.4632 44.3139 49.7728 44.251 50.0243 44.1252C50.2758 43.9898 50.4692 43.806 50.6047 43.5739C50.7401 43.3417 50.8078 43.066 50.8078 42.7468C50.8078 42.2631 50.653 41.8762 50.3435 41.586C50.0436 41.2861 49.618 41.1362 49.0666 41.1362C48.7474 41.1362 48.4475 41.1942 48.167 41.3103C47.8962 41.4167 47.635 41.5667 47.3835 41.7601H45.6133L45.8019 35.8692H52.5635V37.7699H47.7607L47.6447 39.8593C47.9349 39.6562 48.2686 39.5159 48.6458 39.4386C49.0328 39.3515 49.4149 39.3128 49.7921 39.3225C50.4596 39.3418 51.0254 39.4869 51.4898 39.7578C51.9541 40.0286 52.3071 40.4059 52.549 40.8895C52.8005 41.3732 52.9262 41.9391 52.9262 42.5872C52.9262 43.3707 52.7521 44.0382 52.4039 44.5895C52.0653 45.1409 51.601 45.5569 51.0109 45.8374C50.4305 46.1179 49.7776 46.2582 49.0521 46.2582ZM58.7223 46.1421V35.8692H60.7972V46.1421H58.7223ZM62.683 46.1421V38.4954H64.5838L64.6854 39.3805C64.8982 39.1193 65.14 38.9162 65.4109 38.7711C65.6914 38.6163 65.9719 38.5099 66.2525 38.4519C66.5427 38.3939 66.8038 38.3648 67.036 38.3648C67.7712 38.3648 68.3419 38.5244 68.7481 38.8437C69.1641 39.1629 69.4591 39.5933 69.6332 40.135C69.817 40.6671 69.9089 41.262 69.9089 41.9197V46.1421H67.8776V42.1809C67.8776 41.9488 67.8582 41.7166 67.8195 41.4844C67.7808 41.2523 67.7083 41.0395 67.6019 40.846C67.5051 40.6525 67.3649 40.4978 67.1811 40.3817C66.9973 40.2656 66.7555 40.2076 66.4556 40.2076C66.0687 40.2076 65.7446 40.3043 65.4834 40.4978C65.2223 40.6912 65.0288 40.9524 64.903 41.2813C64.7773 41.6102 64.7144 41.9729 64.7144 42.3695V46.1421H62.683ZM74.8926 46.2437C74.1091 46.2437 73.4368 46.0841 72.8757 45.7648C72.3244 45.4456 71.9036 44.9958 71.6134 44.4154C71.3232 43.8254 71.1781 43.1337 71.1781 42.3405C71.1781 41.5376 71.328 40.8412 71.6279 40.2511C71.9278 39.6514 72.3582 39.1871 72.9193 38.8582C73.49 38.5293 74.1768 38.3648 74.9797 38.3648C75.5987 38.3648 76.1501 38.4761 76.6338 38.6986C77.1174 38.921 77.5044 39.2403 77.7946 39.6562C78.0944 40.0722 78.2685 40.5848 78.3169 41.1942H76.3291C76.242 40.8557 76.0727 40.609 75.8212 40.4542C75.5794 40.2995 75.2892 40.2221 74.9506 40.2221C74.5153 40.2221 74.1671 40.3285 73.9059 40.5413C73.6544 40.7541 73.4706 41.025 73.3546 41.3539C73.2482 41.6827 73.1949 42.0116 73.1949 42.3405C73.1949 42.6984 73.253 43.037 73.3691 43.3562C73.4851 43.6658 73.6689 43.9221 73.9204 44.1252C74.1816 44.3187 74.5202 44.4154 74.9361 44.4154C75.2844 44.4154 75.5891 44.338 75.8502 44.1833C76.1114 44.0188 76.2807 43.7673 76.3581 43.4288H78.3895C78.3411 44.0575 78.1525 44.5799 77.8236 44.9958C77.4947 45.4118 77.0739 45.7261 76.5612 45.939C76.0582 46.1421 75.502 46.2437 74.8926 46.2437ZM79.6159 46.1421V38.4954H81.6472V46.1421H79.6159ZM80.6316 37.7264C80.2543 37.7264 79.9496 37.6152 79.7174 37.3927C79.4853 37.1605 79.3692 36.8655 79.3692 36.5076C79.3692 36.1303 79.4901 35.8256 79.732 35.5935C79.9738 35.3613 80.2785 35.2452 80.6461 35.2452C80.9846 35.2452 81.2748 35.3613 81.5167 35.5935C81.7682 35.8159 81.8939 36.1158 81.8939 36.4931C81.8939 36.8607 81.773 37.1605 81.5312 37.3927C81.299 37.6152 80.9991 37.7264 80.6316 37.7264ZM86.4061 46.2437C85.6323 46.2437 84.989 46.0695 84.4763 45.7213C83.9733 45.3634 83.5961 44.8894 83.3446 44.2993C83.093 43.6996 82.9673 43.037 82.9673 42.3115C82.9673 41.5473 83.1027 40.8702 83.3736 40.2801C83.6444 39.6804 84.0459 39.2112 84.5779 38.8727C85.1099 38.5341 85.7725 38.3648 86.5657 38.3648C86.8366 38.3648 87.1026 38.3987 87.3638 38.4664C87.6346 38.5244 87.8813 38.6163 88.1038 38.7421C88.3359 38.8582 88.5342 39.0129 88.6987 39.2064V35.8692H90.73V46.1421H88.7567L88.7277 45.286C88.5536 45.5085 88.3408 45.6923 88.0893 45.8374C87.8474 45.9728 87.5863 46.0744 87.3057 46.1421C87.0252 46.2098 86.7253 46.2437 86.4061 46.2437ZM86.8124 44.4154C87.2477 44.4154 87.6008 44.3139 87.8716 44.1107C88.1521 43.9076 88.3601 43.6464 88.4955 43.3272C88.631 43.008 88.6987 42.6646 88.6987 42.297C88.6987 41.9197 88.631 41.5763 88.4955 41.2668C88.3698 40.9476 88.1666 40.6961 87.8861 40.5123C87.6153 40.3188 87.2574 40.2221 86.8124 40.2221C86.3674 40.2221 86.0095 40.3237 85.7387 40.5268C85.4678 40.7299 85.2744 40.9959 85.1583 41.3248C85.0519 41.6441 84.9987 41.9874 84.9987 42.355C84.9987 42.6259 85.0277 42.8871 85.0857 43.1386C85.1534 43.3804 85.2598 43.598 85.4049 43.7915C85.55 43.985 85.7387 44.1397 85.9708 44.2558C86.203 44.3622 86.4835 44.4154 86.8124 44.4154ZM95.823 46.2437C95.0201 46.2437 94.3381 46.0841 93.7771 45.7648C93.2161 45.4456 92.7856 44.9958 92.4857 44.4154C92.1859 43.8254 92.0359 43.1386 92.0359 42.355C92.0359 41.5618 92.1907 40.8702 92.5002 40.2801C92.8098 39.6804 93.2451 39.2112 93.8061 38.8727C94.3768 38.5341 95.0491 38.3648 95.823 38.3648C96.4034 38.3648 96.9112 38.4616 97.3465 38.655C97.7915 38.8485 98.1639 39.1193 98.4638 39.4676C98.7733 39.8158 99.0006 40.2221 99.1457 40.6864C99.3005 41.141 99.373 41.6344 99.3634 42.1664C99.3634 42.3018 99.3585 42.4324 99.3489 42.5582C99.3392 42.6839 99.3198 42.8097 99.2908 42.9354H94.0528C94.0818 43.2256 94.164 43.4916 94.2995 43.7335C94.4349 43.9753 94.6235 44.1688 94.8653 44.3139C95.1168 44.4493 95.4264 44.517 95.794 44.517C96.0358 44.517 96.2583 44.4928 96.4614 44.4444C96.6646 44.3864 96.8387 44.2993 96.9838 44.1833C97.1289 44.0672 97.2304 43.9318 97.2885 43.777H99.2908C99.1651 44.3477 98.9281 44.8169 98.5798 45.1844C98.2413 45.552 97.8302 45.8229 97.3465 45.997C96.8629 46.1614 96.355 46.2437 95.823 46.2437ZM94.0963 41.5135H97.4191C97.4094 41.2523 97.3417 41.0105 97.2159 40.788C97.0998 40.5558 96.9209 40.372 96.6791 40.2366C96.4469 40.0915 96.147 40.019 95.7795 40.019C95.4119 40.019 95.1023 40.0915 94.8508 40.2366C94.609 40.3817 94.4252 40.5703 94.2995 40.8025C94.1834 41.025 94.1157 41.262 94.0963 41.5135ZM100.672 46.1421V38.4954H102.573L102.674 39.3805C102.887 39.1193 103.129 38.9162 103.4 38.7711C103.68 38.6163 103.961 38.5099 104.242 38.4519C104.532 38.3939 104.793 38.3648 105.025 38.3648C105.76 38.3648 106.331 38.5244 106.737 38.8437C107.153 39.1629 107.448 39.5933 107.622 40.135C107.806 40.6671 107.898 41.262 107.898 41.9197V46.1421H105.867V42.1809C105.867 41.9488 105.847 41.7166 105.809 41.4844C105.77 41.2523 105.697 41.0395 105.591 40.846C105.494 40.6525 105.354 40.4978 105.17 40.3817C104.986 40.2656 104.745 40.2076 104.445 40.2076C104.058 40.2076 103.734 40.3043 103.472 40.4978C103.211 40.6912 103.018 40.9524 102.892 41.2813C102.766 41.6102 102.703 41.9729 102.703 42.3695V46.1421H100.672ZM112.577 46.2437C111.716 46.2437 111.078 46.0018 110.662 45.5182C110.255 45.0345 110.052 44.3719 110.052 43.5303V40.3091H108.906V38.4954H110.052V36.435H112.084V38.4954H114.405V40.3091H112.084V43.1095C112.084 43.361 112.113 43.5787 112.171 43.7625C112.238 43.9463 112.345 44.0914 112.49 44.1978C112.645 44.2945 112.853 44.3429 113.114 44.3429C113.346 44.3429 113.539 44.309 113.694 44.2413C113.859 44.1639 113.994 44.0817 114.1 43.9946L114.739 45.5617C114.536 45.7261 114.308 45.8616 114.057 45.968C113.815 46.0647 113.568 46.1324 113.317 46.1711C113.065 46.2195 112.819 46.2437 112.577 46.2437ZM118.568 46.2437C118.21 46.2437 117.842 46.205 117.465 46.1276C117.088 46.0502 116.739 45.9196 116.42 45.7358C116.101 45.5424 115.83 45.286 115.608 44.9668C115.385 44.6379 115.24 44.2316 115.172 43.748H117.233C117.291 43.9221 117.392 44.072 117.537 44.1978C117.692 44.3235 117.866 44.4154 118.06 44.4735C118.263 44.5315 118.466 44.5605 118.669 44.5605C118.805 44.5605 118.94 44.5508 119.076 44.5315C119.211 44.5122 119.337 44.4735 119.453 44.4154C119.569 44.3574 119.661 44.2848 119.728 44.1978C119.796 44.101 119.83 43.9801 119.83 43.835C119.83 43.6803 119.782 43.5593 119.685 43.4723C119.588 43.3852 119.453 43.3175 119.279 43.2691C119.105 43.2111 118.906 43.1579 118.684 43.1095C118.287 43.0225 117.862 42.9258 117.407 42.8193C116.952 42.7129 116.56 42.5582 116.232 42.355C116.096 42.2583 115.975 42.1519 115.869 42.0358C115.762 41.9197 115.675 41.7891 115.608 41.6441C115.54 41.499 115.487 41.349 115.448 41.1942C115.409 41.0298 115.39 40.8557 115.39 40.6719C115.39 40.2559 115.477 39.9029 115.651 39.6127C115.835 39.3128 116.077 39.071 116.377 38.8872C116.677 38.7034 117.01 38.5728 117.378 38.4954C117.745 38.4084 118.123 38.3648 118.51 38.3648C119.032 38.3648 119.516 38.4519 119.961 38.626C120.406 38.7905 120.773 39.0516 121.063 39.4095C121.354 39.7578 121.533 40.2124 121.6 40.7735H119.656C119.617 40.5607 119.487 40.3914 119.264 40.2656C119.042 40.1302 118.766 40.0625 118.437 40.0625C118.321 40.0625 118.195 40.0722 118.06 40.0915C117.934 40.1108 117.818 40.1447 117.712 40.1931C117.605 40.2414 117.518 40.3091 117.45 40.3962C117.383 40.4736 117.349 40.58 117.349 40.7154C117.349 40.8218 117.378 40.9186 117.436 41.0056C117.504 41.0927 117.596 41.1652 117.712 41.2233C117.837 41.2813 117.987 41.3345 118.161 41.3829C118.49 41.4603 118.819 41.5328 119.148 41.6005C119.487 41.6586 119.786 41.7214 120.048 41.7891C120.367 41.8569 120.657 41.9681 120.918 42.1229C121.189 42.2776 121.407 42.4905 121.571 42.7613C121.745 43.0225 121.832 43.3659 121.832 43.7915C121.832 44.2752 121.736 44.6766 121.542 44.9958C121.349 45.3054 121.088 45.552 120.759 45.7358C120.439 45.9196 120.086 46.0502 119.699 46.1276C119.322 46.205 118.945 46.2437 118.568 46.2437Z" fill="#1E1B39"/>
<path d="M30.7296 31.0815V22.8748H31.7395V30.1645H36.2433V31.0815H30.7296ZM37.1629 31.0815V24.9642H38.1496V31.0815H37.1629ZM37.6504 24.0588C37.4492 24.0588 37.2867 23.9969 37.1629 23.8731C37.0468 23.7493 36.9888 23.5906 36.9888 23.3972C36.9888 23.2037 37.0507 23.0489 37.1745 22.9328C37.2983 22.809 37.457 22.7471 37.6504 22.7471C37.8284 22.7471 37.9832 22.809 38.1147 22.9328C38.254 23.0567 38.3237 23.2114 38.3237 23.3972C38.3237 23.5906 38.2579 23.7493 38.1263 23.8731C37.9948 23.9969 37.8361 24.0588 37.6504 24.0588ZM42.0005 31.1512C41.3582 31.1512 40.9055 30.9771 40.6423 30.6288C40.387 30.2806 40.2593 29.7853 40.2593 29.143V25.8348H39.261V24.9642H40.2593V23.1302H41.246V24.9642H43.1264V25.8348H41.246V29.0153C41.246 29.2475 41.2653 29.4603 41.304 29.6538C41.3427 29.8395 41.4239 29.9904 41.5478 30.1065C41.6716 30.2148 41.8573 30.2729 42.1049 30.2806C42.2829 30.2806 42.4377 30.2496 42.5692 30.1877C42.7085 30.1258 42.8246 30.0523 42.9175 29.9672L43.347 30.6869C43.2154 30.7952 43.0761 30.8842 42.9291 30.9539C42.7898 31.0235 42.6428 31.0738 42.488 31.1048C42.341 31.1357 42.1784 31.1512 42.0005 31.1512ZM46.6028 31.1512C45.9605 31.1512 45.5078 30.9771 45.2447 30.6288C44.9893 30.2806 44.8616 29.7853 44.8616 29.143V25.8348H43.8633V24.9642H44.8616V23.1302H45.8483V24.9642H47.7287V25.8348H45.8483V29.0153C45.8483 29.2475 45.8676 29.4603 45.9063 29.6538C45.945 29.8395 46.0263 29.9904 46.1501 30.1065C46.2739 30.2148 46.4596 30.2729 46.7073 30.2806C46.8852 30.2806 47.04 30.2496 47.1716 30.1877C47.3109 30.1258 47.4269 30.0523 47.5198 29.9672L47.9493 30.6869C47.8177 30.7952 47.6784 30.8842 47.5314 30.9539C47.3921 31.0235 47.2451 31.0738 47.0903 31.1048C46.9433 31.1357 46.7808 31.1512 46.6028 31.1512ZM51.5534 31.1512C50.9033 31.1512 50.3655 31.0196 49.9399 30.7565C49.5142 30.4857 49.197 30.1142 48.988 29.6422C48.7791 29.1701 48.6746 28.6323 48.6746 28.0287C48.6746 27.4173 48.7829 26.8795 48.9996 26.4152C49.224 25.9431 49.5491 25.5717 49.9747 25.3008C50.4003 25.03 50.9227 24.8946 51.5417 24.8946C52.0215 24.8946 52.4317 24.9874 52.7722 25.1732C53.1204 25.3511 53.4067 25.591 53.6312 25.8928C53.8556 26.1946 54.0181 26.5274 54.1187 26.8911C54.2193 27.2471 54.2619 27.6069 54.2464 27.9706C54.2386 28.0403 54.2309 28.1099 54.2232 28.1796C54.2232 28.2492 54.2193 28.3189 54.2115 28.3885H49.6729C49.7038 28.7445 49.7928 29.0656 49.9399 29.352C50.0869 29.6383 50.2958 29.8666 50.5667 30.0368C50.8375 30.1993 51.1742 30.2806 51.5766 30.2806C51.7778 30.2806 51.979 30.2574 52.1802 30.211C52.3891 30.1568 52.5748 30.0678 52.7374 29.944C52.9076 29.8202 53.0275 29.6538 53.0972 29.4448H54.1071C54.0142 29.8395 53.8401 30.1645 53.5847 30.4199C53.3294 30.6675 53.0237 30.8533 52.6677 30.9771C52.3117 31.0932 51.9403 31.1512 51.5534 31.1512ZM49.6961 27.5295H53.2365C53.2288 27.1813 53.1514 26.8756 53.0043 26.6125C52.8573 26.3494 52.6561 26.1443 52.4007 25.9973C52.1531 25.8503 51.8552 25.7768 51.5069 25.7768C51.1277 25.7768 50.8066 25.858 50.5435 26.0205C50.2881 26.183 50.0908 26.3958 49.9515 26.659C49.8122 26.9221 49.7271 27.2123 49.6961 27.5295ZM55.5609 31.0815V24.9642H56.5127L56.5591 25.9161C56.7139 25.6762 56.8919 25.4827 57.0931 25.3357C57.302 25.1886 57.5303 25.0803 57.778 25.0106C58.0333 24.9333 58.3081 24.8946 58.6021 24.8946C58.6563 24.8946 58.7066 24.8946 58.753 24.8946C58.8072 24.8946 58.8614 24.8946 58.9155 24.8946V25.8232H58.5557C58.0759 25.8232 57.6851 25.9277 57.3833 26.1366C57.0892 26.3378 56.8764 26.6125 56.7449 26.9608C56.6133 27.3013 56.5475 27.6804 56.5475 28.0983V31.0815H55.5609ZM65.0396 31.0815V23.7918H62.4046V22.8748H68.6844V23.7918H66.0495V31.0815H65.0396ZM69.4019 31.0815V24.9642H70.3537L70.4001 25.9161C70.5549 25.6762 70.7329 25.4827 70.9341 25.3357C71.143 25.1886 71.3713 25.0803 71.619 25.0106C71.8743 24.9333 72.1491 24.8946 72.4431 24.8946C72.4973 24.8946 72.5476 24.8946 72.594 24.8946C72.6482 24.8946 72.7024 24.8946 72.7565 24.8946V25.8232H72.3967C71.9169 25.8232 71.5261 25.9277 71.2243 26.1366C70.9302 26.3378 70.7174 26.6125 70.5859 26.9608C70.4543 27.3013 70.3885 27.6804 70.3885 28.0983V31.0815H69.4019ZM76.2654 31.1512C75.6153 31.1512 75.0775 31.0196 74.6519 30.7565C74.2263 30.4857 73.909 30.1142 73.7 29.6422C73.4911 29.1701 73.3866 28.6323 73.3866 28.0287C73.3866 27.4173 73.495 26.8795 73.7116 26.4152C73.9361 25.9431 74.2611 25.5717 74.6867 25.3008C75.1123 25.03 75.6347 24.8946 76.2538 24.8946C76.7335 24.8946 77.1437 24.9874 77.4842 25.1732C77.8324 25.3511 78.1187 25.591 78.3432 25.8928C78.5676 26.1946 78.7301 26.5274 78.8307 26.8911C78.9313 27.2471 78.9739 27.6069 78.9584 27.9706C78.9506 28.0403 78.9429 28.1099 78.9352 28.1796C78.9352 28.2492 78.9313 28.3189 78.9236 28.3885H74.3849C74.4158 28.7445 74.5048 29.0656 74.6519 29.352C74.7989 29.6383 75.0078 29.8666 75.2787 30.0368C75.5495 30.1993 75.8862 30.2806 76.2886 30.2806C76.4898 30.2806 76.691 30.2574 76.8922 30.211C77.1011 30.1568 77.2869 30.0678 77.4494 29.944C77.6196 29.8202 77.7396 29.6538 77.8092 29.4448H78.8191C78.7262 29.8395 78.5521 30.1645 78.2967 30.4199C78.0414 30.6675 77.7357 30.8533 77.3797 30.9771C77.0237 31.0932 76.6523 31.1512 76.2654 31.1512ZM74.4081 27.5295H77.9485C77.9408 27.1813 77.8634 26.8756 77.7163 26.6125C77.5693 26.3494 77.3681 26.1443 77.1127 25.9973C76.8651 25.8503 76.5672 25.7768 76.2189 25.7768C75.8397 25.7768 75.5186 25.858 75.2555 26.0205C75.0001 26.183 74.8028 26.3958 74.6635 26.659C74.5242 26.9221 74.4391 27.2123 74.4081 27.5295ZM80.2729 31.0815V24.9642H81.2247L81.2712 25.8928C81.4104 25.6684 81.5884 25.4827 81.8051 25.3357C82.0218 25.1886 82.2578 25.0803 82.5132 25.0106C82.7763 24.9333 83.0317 24.8946 83.2793 24.8946C83.8752 24.8946 84.3395 25.0184 84.6722 25.266C85.0127 25.5136 85.2526 25.8503 85.3919 26.2759C85.539 26.6938 85.6125 27.1697 85.6125 27.7037V31.0815H84.6258V27.9706C84.6258 27.6843 84.6065 27.4096 84.5678 27.1465C84.5368 26.8834 84.4672 26.6473 84.3588 26.4384C84.2582 26.2295 84.1112 26.067 83.9177 25.9509C83.7243 25.8271 83.465 25.7652 83.14 25.7652C82.7376 25.7652 82.3932 25.8774 82.1069 26.1018C81.8283 26.3262 81.6155 26.628 81.4685 27.0072C81.3292 27.3864 81.2595 27.812 81.2595 28.2841V31.0815H80.2729ZM89.5803 31.1512C88.9689 31.1512 88.4659 31.0158 88.0713 30.7449C87.6766 30.4663 87.3825 30.0949 87.1891 29.6306C86.9956 29.1585 86.8989 28.6284 86.8989 28.0403C86.8989 27.4522 86.9956 26.9221 87.1891 26.45C87.3825 25.9702 87.6805 25.591 88.0829 25.3124C88.4853 25.0339 88.9999 24.8946 89.6267 24.8946C89.8666 24.8946 90.1065 24.9255 90.3464 24.9874C90.594 25.0416 90.8262 25.1306 91.0429 25.2544C91.2596 25.3705 91.4453 25.5291 91.6 25.7303V22.8748H92.5867V31.0815H91.6465L91.6 30.1645C91.4608 30.3967 91.2828 30.5863 91.0661 30.7333C90.8571 30.8726 90.625 30.9771 90.3696 31.0467C90.1142 31.1164 89.8511 31.1512 89.5803 31.1512ZM89.7196 30.2806C90.1297 30.2806 90.4741 30.1761 90.7527 29.9672C91.0313 29.7582 91.2441 29.4797 91.3911 29.1314C91.5381 28.7832 91.6117 28.404 91.6117 27.9939C91.6117 27.5682 91.5381 27.189 91.3911 26.8563C91.2518 26.5235 91.0429 26.2604 90.7643 26.067C90.4857 25.8735 90.1336 25.7768 89.708 25.7768C89.2669 25.7768 88.9109 25.8774 88.64 26.0786C88.3769 26.2798 88.1835 26.5545 88.0597 26.9027C87.9436 27.2432 87.8855 27.6263 87.8855 28.0519C87.8855 28.3614 87.9165 28.6516 87.9784 28.9225C88.048 29.1856 88.1525 29.4216 88.2918 29.6306C88.4388 29.8318 88.6284 29.9904 88.8606 30.1065C89.0928 30.2226 89.3791 30.2806 89.7196 30.2806Z" fill="#9291A5"/>
</g>
<defs>
<filter id="filter0_dd_3530_4451" x="2" y="1" width="387" height="246" filterUnits="userSpaceOnUse" color-interpolation-filters="sRGB">
<feFlood flood-opacity="0" result="BackgroundImageFix"/>
<feColorMatrix in="SourceAlpha" type="matrix" values="0 0 0 0 0 0 0 0 0 0 0 0 0 0 0 0 0 0 127 0" result="hardAlpha"/>
<feOffset dy="1"/>
<feGaussianBlur stdDeviation="1"/>
<feColorMatrix type="matrix" values="0 0 0 0 0.0627451 0 0 0 0 0.0941176 0 0 0 0 0.156863 0 0 0 0.06 0"/>
<feBlend mode="normal" in2="BackgroundImageFix" result="effect1_dropShadow_3530_4451"/>
<feColorMatrix in="SourceAlpha" type="matrix" values="0 0 0 0 0 0 0 0 0 0 0 0 0 0 0 0 0 0 127 0" result="hardAlpha"/>
<feOffset dy="1"/>
<feGaussianBlur stdDeviation="1.5"/>
<feColorMatrix type="matrix" values="0 0 0 0 0.0627451 0 0 0 0 0.0941176 0 0 0 0 0.156863 0 0 0 0.1 0"/>
<feBlend mode="normal" in2="effect1_dropShadow_3530_4451" result="effect2_dropShadow_3530_4451"/>
<feBlend mode="normal" in="SourceGraphic" in2="effect2_dropShadow_3530_4451" result="shape"/>
</filter>
<filter id="filter1_d_3530_4451" x="0.647059" y="0.098528" width="389.706" height="248.706" filterUnits="userSpaceOnUse" color-interpolation-filters="sRGB">
<feFlood flood-opacity="0" result="BackgroundImageFix"/>
<feColorMatrix in="SourceAlpha" type="matrix" values="0 0 0 0 0 0 0 0 0 0 0 0 0 0 0 0 0 0 127 0" result="hardAlpha"/>
<feOffset dy="1.45098"/>
<feGaussianBlur stdDeviation="2.17647"/>
<feComposite in2="hardAlpha" operator="out"/>
<feColorMatrix type="matrix" values="0 0 0 0 0.0509804 0 0 0 0 0.0392157 0 0 0 0 0.172549 0 0 0 0.08 0"/>
<feBlend mode="normal" in2="BackgroundImageFix" result="effect1_dropShadow_3530_4451"/>
<feBlend mode="normal" in="SourceGraphic" in2="effect1_dropShadow_3530_4451" result="shape"/>
</filter>
<filter id="filter2_d_3530_4451" x="180.336" y="126.384" width="27.81" height="22.5068" filterUnits="userSpaceOnUse" color-interpolation-filters="sRGB">
<feFlood flood-opacity="0" result="BackgroundImageFix"/>
<feColorMatrix in="SourceAlpha" type="matrix" values="0 0 0 0 0 0 0 0 0 0 0 0 0 0 0 0 0 0 127 0" result="hardAlpha"/>
<feOffset dy="5.07843"/>
<feGaussianBlur stdDeviation="2.90196"/>
<feComposite in2="hardAlpha" operator="out"/>
<feColorMatrix type="matrix" values="0 0 0 0 0.290196 0 0 0 0 0.227451 0 0 0 0 1 0 0 0 0.13 0"/>
<feBlend mode="normal" in2="BackgroundImageFix" result="effect1_dropShadow_3530_4451"/>
<feBlend mode="normal" in="SourceGraphic" in2="effect1_dropShadow_3530_4451" result="shape"/>
</filter>
<linearGradient id="paint0_linear_3530_4451" x1="195.399" y1="154.049" x2="195.399" y2="201.792" gradientUnits="userSpaceOnUse">
<stop stop-color="#007BFF" stop-opacity="0.52"/>
<stop offset="0.46679" stop-color="#C6D2FD"/>
<stop offset="1" stop-color="white" stop-opacity="0.31"/>
</linearGradient>
</defs>
</svg>
