<svg width="1413" height="791" viewBox="0 0 1413 791" fill="none" xmlns="http://www.w3.org/2000/svg">
<g clip-path="url(#clip0_3510_47)">
<path d="M0 0C466.29 0 932.58 0 1413 0C1413 261.03 1413 522.06 1413 791C946.71 791 480.42 791 0 791C0 529.97 0 268.94 0 0Z" fill="#FEFEFE"/>
<path d="M1413 682C1413 717.97 1413 753.94 1413 791C1167.15 791 921.3 791 668 791C668 790.67 668 790.34 668 790C668.943 789.945 669.886 789.889 670.858 789.832C674.371 789.625 677.884 789.414 681.397 789.201C682.915 789.109 684.433 789.019 685.951 788.93C688.138 788.802 690.325 788.669 692.512 788.535C694.483 788.417 694.483 788.417 696.495 788.297C699.425 788.049 702.133 787.611 705 787C706.518 786.832 708.04 786.689 709.562 786.57C710.429 786.499 711.296 786.428 712.19 786.355C713.117 786.279 714.044 786.203 715 786.125C752.12 782.85 789.912 775.539 825.703 765.207C830.333 763.881 835.007 762.758 839.688 761.625C847.887 759.623 855.93 757.243 863.986 754.734C872.554 752.085 881.191 749.742 889.87 747.485C894.963 746.147 899.975 744.71 904.961 743.012C911.215 740.882 917.547 739.169 923.938 737.5C930.467 735.789 936.966 734.039 943.41 732.027C950.392 729.85 957.432 727.935 964.5 726.063C965.471 725.804 965.471 725.804 966.462 725.54C975.666 723.091 984.89 720.749 994.178 718.635C998.135 717.727 1002 716.708 1005.88 715.488C1011.25 713.845 1016.65 712.893 1022.19 712C1024.23 711.659 1026.27 711.317 1028.32 710.973C1029.3 710.808 1030.28 710.643 1031.29 710.473C1034.75 709.869 1038.18 709.164 1041.62 708.438C1047.16 707.31 1052.7 706.398 1058.29 705.602C1059.2 705.473 1060.1 705.344 1061.03 705.212C1072.89 703.557 1084.79 702.258 1096.69 700.938C1098.99 700.679 1101.3 700.421 1103.6 700.162C1108.06 699.663 1112.51 699.167 1116.96 698.673C1120.62 698.268 1124.28 697.854 1127.93 697.424C1139.06 696.127 1150.2 695.262 1161.38 694.5C1171.42 693.812 1181.44 693.09 1191.45 692.027C1204.09 690.705 1216.76 689.961 1229.45 689.188C1231.53 689.06 1233.62 688.932 1235.71 688.803C1276.28 686.306 1316.87 684.236 1357.5 682.813C1358.69 682.77 1359.88 682.727 1361.11 682.683C1362.27 682.642 1363.42 682.6 1364.61 682.558C1365.61 682.522 1366.61 682.487 1367.64 682.45C1382.8 681.983 1397.81 682 1413 682Z" fill="#006650"/>
<path d="M256.75 696.688C257.537 696.684 258.324 696.68 259.134 696.677C270.233 696.649 281.01 697.483 292 699C293.085 699.141 294.17 699.281 295.289 699.426C313.966 701.908 332.634 705.872 349.902 713.629C353.294 715.13 356.728 716.486 360.181 717.841C368.814 721.233 377.26 724.87 385.629 728.875C390.882 731.368 396.162 733.804 401.438 736.25C402.043 736.531 402.649 736.812 403.273 737.101C406.339 738.523 409.405 739.944 412.471 741.364C414.714 742.404 416.956 743.445 419.197 744.487C437.879 753.178 456.701 761.632 476 768.875C476.655 769.125 477.31 769.375 477.986 769.632C492.649 774.985 507.744 778.141 523.125 780.563C524.045 780.71 524.966 780.857 525.914 781.009C557.442 786.035 589.128 788.515 621 790C621 790.33 621 790.66 621 791C416.07 791 211.14 791 0 791C0 782.75 0 774.5 0 766C6.76339 763.295 13.5212 760.662 20.3594 758.164C21.3295 757.808 22.2997 757.452 23.2992 757.086C26.4489 755.931 29.5994 754.778 32.75 753.625C37.1864 752.001 41.6226 750.375 46.0586 748.75C47.1644 748.345 48.2702 747.94 49.4095 747.523C56.0836 745.076 62.7505 742.611 69.4102 740.125C106.875 726.155 144.69 712.723 183.918 704.636C186.73 704.056 189.537 703.454 192.344 702.848C213.629 698.377 235.043 696.727 256.75 696.688Z" fill="#00936F"/>
<path d="M1403.81 -0.312496C1404.7 -0.289937 1405.58 -0.267379 1406.49 -0.244136C1408.66 -0.18547 1410.83 -0.0957957 1413 4.11272e-06C1413.41 6.82567 1413.69 13.6481 1413.88 20.4834C1413.96 22.8004 1414.07 25.1165 1414.21 27.4307C1415.4 47.6843 1415.4 47.6843 1409.61 54.9141C1406.35 58.3754 1402.79 61.3503 1399.05 64.2725C1396.24 66.6431 1393.93 69.3316 1391.58 72.1499C1389.97 74.0351 1388.27 75.7692 1386.5 77.5C1384.11 79.8503 1381.87 82.2642 1379.69 84.8125C1376.92 88.0233 1374.01 91.0227 1371 94C1367.41 97.5423 1364.05 101.176 1360.78 105.004C1358.05 108.068 1355.1 110.905 1352.18 113.785C1350.22 115.777 1348.38 117.813 1346.56 119.938C1343.06 124.031 1339.24 127.772 1335.41 131.559C1332.73 134.272 1330.25 137.108 1327.78 140.004C1325.12 142.985 1322.27 145.753 1319.41 148.531C1316.78 151.228 1314.33 154.043 1311.86 156.885C1308.84 160.314 1305.7 163.623 1302.56 166.938C1301.16 168.423 1299.76 169.909 1298.35 171.395C1297.64 172.151 1296.92 172.907 1296.18 173.686C1294 175.999 1291.82 178.317 1289.65 180.637C1288.94 181.389 1288.24 182.141 1287.51 182.916C1286.17 184.344 1284.83 185.773 1283.49 187.203C1280.46 190.436 1277.39 193.628 1274.24 196.754C1271.95 199.03 1269.76 201.334 1267.69 203.812C1264.92 207.023 1262.01 210.023 1259 213C1255.41 216.542 1252.05 220.176 1248.78 224.004C1246.05 227.068 1243.1 229.905 1240.18 232.785C1238.22 234.777 1236.38 236.813 1234.56 238.938C1231.03 243.066 1227.18 246.838 1223.31 250.656C1220.69 253.318 1218.32 256.067 1216 259C1212.39 258.424 1209.68 257.479 1206.52 255.664C1205.67 255.182 1204.82 254.699 1203.95 254.202C1203.06 253.682 1202.17 253.161 1201.25 252.625C1200.33 252.094 1199.41 251.563 1198.46 251.017C1189.79 245.965 1181.36 240.563 1173 235C1180.15 226.581 1187.52 218.367 1195.4 210.629C1197.12 208.877 1198.72 207.051 1200.31 205.188C1203.08 201.977 1205.99 198.977 1209 196C1212.59 192.458 1215.95 188.824 1219.22 184.996C1221.95 181.932 1224.9 179.095 1227.82 176.215C1229.78 174.223 1231.62 172.187 1233.44 170.062C1236.94 165.969 1240.76 162.228 1244.59 158.441C1247.27 155.728 1249.75 152.892 1252.22 149.996C1254.95 146.932 1257.9 144.095 1260.82 141.215C1262.78 139.223 1264.62 137.187 1266.44 135.062C1269.94 130.969 1273.76 127.228 1277.59 123.441C1280.26 120.733 1282.74 117.904 1285.21 115.012C1287.99 111.89 1290.99 108.992 1293.98 106.078C1296.04 104.056 1296.04 104.056 1297.64 101.734C1298.09 101.162 1298.54 100.59 1299 100C1299.66 100 1300.32 100 1301 100C1301.27 99.4054 1301.54 98.8108 1301.81 98.1982C1303.01 95.9776 1304.21 94.5756 1306.01 92.8281C1306.6 92.2502 1307.19 91.6723 1307.8 91.0769C1308.42 90.474 1309.05 89.8712 1309.69 89.25C1314.1 84.9196 1318.37 80.5762 1322.36 75.8555C1325.03 72.829 1327.94 70.0479 1330.82 67.2149C1332.78 65.2234 1334.62 63.187 1336.44 61.0625C1339.16 57.8896 1342.03 54.9366 1345 52C1347.95 49.0837 1350.8 46.1539 1353.5 43C1356.91 39.0073 1360.61 35.3504 1364.38 31.6875C1367.08 28.9187 1369.61 26.0419 1372.14 23.1187C1375.22 19.6087 1378.42 16.2129 1381.62 12.8125C1382.27 12.1274 1382.91 11.4422 1383.57 10.7363C1385.37 8.81704 1387.18 6.8994 1389 5C1390.04 3.65749 1390.04 3.65749 1391.11 2.28785C1395.27 -1.00452 1398.67 -0.561722 1403.81 -0.312496Z" fill="#055241"/>
<path d="M1291.8 -0.585951C1293.25 -0.574749 1294.7 -0.566213 1296.15 -0.560225C1299.95 -0.537404 1303.75 -0.478543 1307.54 -0.412001C1311.42 -0.350429 1315.31 -0.323178 1319.19 -0.292982C1326.79 -0.22879 1334.4 -0.126497 1342 -1.32918e-05C1341.04 1.12703 1340.08 2.25326 1339.12 3.37914C1338.31 4.32002 1338.31 4.32002 1337.5 5.27991C1335.92 7.08629 1334.29 8.78004 1332.56 10.4375C1330.13 12.829 1327.85 15.2845 1325.62 17.875C1323.03 20.8847 1320.33 23.7109 1317.5 26.5C1314.71 29.2485 1312.05 32.0286 1309.5 35C1306.95 37.9714 1304.29 40.7514 1301.5 43.5C1298.73 46.2283 1296.09 48.9852 1293.56 51.9375C1290.06 56.0306 1286.24 59.7722 1282.41 63.5586C1279.73 66.272 1277.25 69.1078 1274.78 72.0039C1272.05 75.068 1269.1 77.9048 1266.18 80.7851C1264.22 82.7766 1262.38 84.813 1260.56 86.9375C1257.84 90.1103 1254.97 93.0634 1252 96C1249.05 98.9163 1246.2 101.846 1243.5 105C1240.09 108.993 1236.39 112.65 1232.62 116.312C1229.92 119.084 1227.39 121.964 1224.85 124.89C1221.81 128.354 1218.66 131.707 1215.5 135.062C1214.87 135.731 1214.25 136.399 1213.61 137.088C1210.53 140.361 1207.43 143.59 1204.24 146.754C1201.93 149.05 1199.72 151.378 1197.62 153.875C1195.03 156.885 1192.33 159.711 1189.5 162.5C1186.73 165.228 1184.09 167.985 1181.56 170.937C1178.06 175.031 1174.24 178.772 1170.41 182.559C1167.73 185.272 1165.25 188.108 1162.78 191.004C1160.06 194.058 1157.12 196.887 1154.21 199.75C1151.49 202.517 1149.03 205.449 1146.61 208.469C1144.64 210.345 1143.74 211 1141 211C1138.48 209.156 1138.48 209.156 1135.75 206.5C1134.76 205.557 1133.77 204.614 1132.79 203.672C1131.41 202.349 1131.41 202.349 1130 201C1128.74 199.907 1127.47 198.823 1126.19 197.75C1119.79 192.207 1113.95 186.021 1108 180C1112.16 173.934 1116.96 168.92 1122.18 163.787C1125.72 160.307 1129.05 156.742 1132.26 152.957C1135.22 149.631 1138.43 146.563 1141.59 143.437C1143.65 141.35 1145.6 139.228 1147.5 137C1150.98 132.925 1154.78 129.207 1158.59 125.441C1161.27 122.728 1163.75 119.892 1166.22 116.996C1168.95 113.932 1171.9 111.095 1174.82 108.215C1176.78 106.223 1178.62 104.187 1180.44 102.062C1183.16 98.8896 1186.03 95.9366 1189 93C1191.89 90.1447 1194.68 87.285 1197.31 84.1875C1201.05 79.8122 1205.15 75.8265 1209.23 71.7847C1212.74 68.3001 1216.06 64.729 1219.26 60.957C1222.21 57.6323 1225.43 54.5655 1228.59 51.4414C1231.27 48.728 1233.75 45.8922 1236.22 42.9961C1238.95 39.932 1241.9 37.0952 1244.82 34.2148C1246.78 32.2234 1248.62 30.187 1250.44 28.0625C1253.94 23.9736 1257.75 20.2355 1261.58 16.4531C1264.26 13.7326 1266.78 10.9095 1269.23 7.98436C1269.82 7.32952 1270.4 6.67467 1271 5.99999C1271.72 4.98114 1272.44 3.9623 1273.19 2.91258C1278.17 -2.00259 1285.29 -0.734014 1291.8 -0.585951Z" fill="#033E31"/>
<path d="M1413 120C1413.21 128.841 1413.37 137.681 1413.47 146.523C1413.51 150.63 1413.58 154.735 1413.68 158.841C1413.78 162.809 1413.83 166.776 1413.85 170.746C1413.87 172.254 1413.9 173.762 1413.95 175.27C1414.32 187.063 1414.32 187.063 1411.06 191.845C1408.82 194.095 1406.49 196.031 1404 198C1402.76 199.348 1401.55 200.719 1400.38 202.125C1398.17 204.693 1395.91 207.13 1393.5 209.5C1391.11 211.85 1388.87 214.264 1386.69 216.812C1383.92 220.023 1381.01 223.023 1378 226C1374.41 229.542 1371.05 233.176 1367.78 237.004C1365.12 239.985 1362.27 242.753 1359.41 245.531C1356.79 248.214 1354.35 251.013 1351.9 253.841C1348.68 257.494 1345.34 261.025 1342 264.562C1341.33 265.279 1340.65 265.995 1339.96 266.732C1336.76 270.128 1333.53 273.486 1330.22 276.773C1327.86 279.124 1325.6 281.515 1323.44 284.062C1322.56 285.053 1322.56 285.053 1321.67 286.062C1320.6 287.302 1319.57 288.571 1318.58 289.875C1317.13 291.636 1315.94 292.794 1314 294C1306.04 294.597 1297.77 291.472 1290.25 289.25C1289.02 288.892 1287.78 288.533 1286.51 288.164C1278.23 285.732 1270.04 283.144 1262 280C1269.35 271.265 1277.04 262.859 1285.18 254.855C1287.01 252.986 1288.73 251.051 1290.44 249.062C1293.01 246.072 1295.69 243.269 1298.5 240.5C1301.27 237.772 1303.91 235.015 1306.44 232.062C1309.94 227.969 1313.76 224.228 1317.59 220.441C1320.27 217.728 1322.75 214.892 1325.22 211.996C1327.23 209.739 1329.35 207.623 1331.5 205.5C1334.18 202.853 1336.75 200.189 1339.19 197.312C1343.16 192.669 1347.53 188.44 1351.87 184.145C1355.54 180.506 1359.03 176.797 1362.36 172.855C1365.03 169.829 1367.94 167.048 1370.82 164.215C1372.78 162.223 1374.62 160.187 1376.44 158.062C1379.87 154.051 1383.59 150.371 1387.38 146.688C1390.07 143.925 1392.59 141.057 1395.12 138.141C1398.3 134.522 1401.58 131.012 1404.88 127.5C1405.55 126.773 1406.23 126.046 1406.92 125.297C1407.56 124.611 1408.21 123.925 1408.87 123.219C1409.45 122.599 1410.02 121.98 1410.62 121.342C1412 120 1412 120 1413 120Z" fill="#06624E"/>
<path d="M1167.2 -1.0742C1168.64 -1.05364 1170.08 -1.038 1171.52 -1.02703C1175.29 -0.985374 1179.05 -0.877664 1182.82 -0.755289C1186.67 -0.641993 1190.53 -0.592363 1194.38 -0.537088C1201.92 -0.419726 1209.46 -0.23245 1217 2.08616e-05C1215.23 3.00376 1213.62 5.62603 1211.11 8.0508C1210.57 8.5802 1210.03 9.10961 1209.47 9.65505C1208.9 10.202 1208.33 10.749 1207.75 11.3125C1203.56 15.4216 1199.54 19.5644 1195.74 24.043C1192.78 27.3691 1189.57 30.4371 1186.41 33.5625C1184.35 35.65 1182.4 37.7717 1180.5 40C1177.02 44.0749 1173.22 47.7929 1169.41 51.5586C1166.73 54.272 1164.25 57.1078 1161.78 60.0039C1159.12 62.9849 1156.27 65.7529 1153.41 68.5313C1150.78 71.2276 1148.33 74.0426 1145.86 76.8853C1142.84 80.3139 1139.7 83.6231 1136.56 86.9375C1135.16 88.4231 1133.76 89.9088 1132.35 91.3946C1131.64 92.1508 1130.92 92.9069 1130.18 93.6861C1128 95.9987 1125.82 98.3167 1123.65 100.637C1122.94 101.389 1122.24 102.141 1121.51 102.916C1120.17 104.344 1118.83 105.773 1117.49 107.203C1114.46 110.435 1111.39 113.626 1108.25 116.75C1105.93 119.048 1103.72 121.376 1101.62 123.875C1098.33 127.696 1094.81 131.219 1091.21 134.746C1088.48 137.535 1086.02 140.504 1083.61 143.566C1082 145 1082 145 1078 145C1076.54 143.649 1076.54 143.649 1075.19 141.73C1074.67 141.015 1074.16 140.3 1073.63 139.563C1072.82 138.387 1072.82 138.387 1072 137.188C1071.44 136.388 1070.88 135.589 1070.3 134.765C1068.51 132.191 1066.75 129.6 1065 127C1064.41 126.125 1063.82 125.249 1063.21 124.347C1061.49 121.786 1059.8 119.21 1058.12 116.625C1057.6 115.823 1057.07 115.022 1056.52 114.196C1055.8 113.066 1055.8 113.066 1055.07 111.914C1054.64 111.254 1054.22 110.593 1053.78 109.913C1052.78 107.458 1052.99 106.43 1054 104C1055.29 102.388 1055.29 102.388 1056.91 100.828C1057.51 100.25 1058.1 99.6725 1058.71 99.0772C1059.34 98.4742 1059.97 97.8713 1060.62 97.25C1061.92 95.9915 1063.2 94.7311 1064.49 93.4688C1065.11 92.8668 1065.72 92.2648 1066.35 91.6446C1068.81 89.1874 1071.05 86.5733 1073.3 83.9219C1076.24 80.605 1079.44 77.5511 1082.59 74.4375C1084.65 72.35 1086.6 70.2283 1088.5 68C1091.98 63.9252 1095.78 60.2071 1099.59 56.4414C1102.27 53.728 1104.75 50.8922 1107.22 47.9961C1109.95 44.932 1112.9 42.0952 1115.82 39.2149C1117.78 37.2234 1119.62 35.187 1121.44 33.0625C1124.16 29.8897 1127.03 26.9366 1130 24C1132.93 21.0961 1135.8 18.182 1138.5 15.0625C1139.29 14.1739 1139.29 14.1739 1140.09 13.2673C1142.08 10.9667 1142.08 10.9667 1143.99 8.23481C1150.87 -0.59845 1156.41 -1.53033 1167.2 -1.0742Z" fill="#01392C"/>
<path d="M1030.71 -0.240479C1031.86 -0.236037 1033.01 -0.231596 1034.19 -0.22702C1035.49 -0.226869 1036.8 -0.226718 1038.14 -0.226562C1039.56 -0.216348 1040.99 -0.205916 1042.41 -0.195282C1043.87 -0.191552 1045.32 -0.188705 1046.78 -0.186707C1050.61 -0.179065 1054.44 -0.159413 1058.27 -0.137299C1062.18 -0.11685 1066.08 -0.107707 1069.99 -0.0976257C1077.66 -0.0761675 1085.33 -0.042026 1093 3.05176e-05C1085.71 8.51306 1078.31 16.8622 1070.61 25C1067.45 28.3428 1064.35 31.7147 1061.34 35.1875C1058.68 38.2575 1055.92 41.161 1053 44C1050.5 46.4749 1048 48.9566 1045.5 51.4375C1044.85 52.0801 1044.2 52.7227 1043.53 53.3848C1040.58 56.3139 1037.75 59.2291 1035.16 62.4727C1034.44 63.3067 1033.73 64.1407 1033 65C1032.34 65 1031.68 65 1031 65C1020.08 37.9101 1020.08 37.9101 1016.25 26C1016 25.2371 1015.75 24.4743 1015.49 23.6883C1014.36 20.0467 1013.7 17.6093 1015 14C1016.76 11.8645 1018.53 9.86978 1020.44 7.87503C1020.94 7.33749 1021.44 6.79995 1021.96 6.24612C1027.81 0.0167565 1027.81 0.0167567 1030.71 -0.240479Z" fill="#024334"/>
<path d="M1413 252C1413 268.83 1413 285.66 1413 303C1405.99 303.041 1398.97 303.082 1391.75 303.125C1389.54 303.143 1387.33 303.161 1385.06 303.18C1383.3 303.186 1381.55 303.191 1379.8 303.195C1378.89 303.206 1377.98 303.216 1377.05 303.226C1376.17 303.227 1375.3 303.227 1374.4 303.227C1373.27 303.234 1373.27 303.234 1372.11 303.241C1369.71 302.967 1368.09 302.192 1366 301C1369.82 296.472 1373.78 292.164 1378 288C1381.59 284.458 1384.95 280.824 1388.22 276.996C1390.95 273.937 1393.89 271.106 1396.8 268.23C1399.45 265.544 1401.9 262.723 1404.36 259.863C1411.27 252 1411.27 252 1413 252Z" fill="#0B7961"/>
</g>
<defs>
<clipPath id="clip0_3510_47">
<rect width="1413" height="791" fill="white"/>
</clipPath>
</defs>
</svg>
