<?xml version="1.0" standalone="no"?>
<!DOCTYPE svg PUBLIC "-//W3C//DTD SVG 20010904//EN"
 "http://www.w3.org/TR/2001/REC-SVG-20010904/DTD/svg10.dtd">
<svg version="1.0" xmlns="http://www.w3.org/2000/svg"
 width="570.000000pt" height="139.000000pt" viewBox="0 0 570.000000 139.000000"
 preserveAspectRatio="xMidYMid meet">

<g transform="translate(0.000000,139.000000) scale(0.100000,-0.100000)"
fill="#000000" stroke="none">
<path d="M2440 765 l0 -385 95 0 95 0 0 163 c0 142 2 166 19 191 37 56 97 80
141 56 31 -16 40 -74 40 -247 l0 -163 96 0 96 0 -4 198 c-5 222 -16 272 -71
323 -41 37 -126 63 -180 55 -41 -7 -115 -42 -129 -61 -4 -5 -8 50 -8 123 l0
132 -95 0 -95 0 0 -385z"/>
<path d="M360 1015 l0 -65 -40 0 -40 0 0 -75 0 -75 40 0 40 0 1 -152 c0 -231
20 -266 158 -276 36 -2 85 1 109 7 l42 12 0 74 0 74 -57 -2 -58 -2 -3 133 -3
132 60 0 60 0 -2 73 -2 72 -57 3 -58 3 0 64 0 65 -95 0 -95 0 0 -65z"/>
<path d="M1060 954 c-48 -16 -103 -49 -107 -65 -9 -33 -23 -20 -23 21 l0 40
-95 0 -95 0 0 -285 0 -285 94 0 94 0 4 138 c4 154 13 182 73 228 27 20 52 29
98 33 l62 6 3 79 c2 57 -1 82 -10 87 -14 9 -73 11 -98 3z"/>
<path d="M1413 942 c-88 -31 -137 -77 -168 -157 -23 -60 -27 -81 -23 -146 6
-109 44 -179 122 -227 49 -31 67 -36 134 -40 57 -3 87 0 117 12 25 11 41 13
43 6 2 -6 41 -10 98 -10 l94 0 0 285 0 285 -95 0 c-78 0 -95 -3 -95 -15 0 -19
0 -19 -41 2 -49 25 -125 27 -186 5z m160 -156 c64 -26 91 -106 62 -182 -20
-52 -54 -74 -114 -74 -128 0 -166 204 -48 255 41 18 60 18 100 1z"/>
<path d="M2048 949 c-21 -6 -56 -27 -79 -48 -37 -32 -42 -43 -47 -90 -10 -109
27 -156 173 -211 79 -31 100 -53 71 -76 -31 -22 -65 -17 -96 16 -33 35 -33 35
-110 13 -67 -20 -76 -40 -40 -86 11 -14 20 -29 20 -34 0 -4 27 -21 60 -37 158
-79 370 6 370 149 0 48 -22 97 -55 123 -14 12 -63 35 -108 52 -91 35 -113 51
-104 74 10 25 53 19 74 -9 l18 -25 75 21 c41 11 76 22 78 24 2 2 -8 24 -21 50
-44 82 -170 124 -279 94z"/>
<path d="M3303 946 c-135 -44 -213 -149 -213 -287 0 -122 46 -198 155 -257 44
-24 61 -27 145 -27 86 0 100 3 148 29 44 25 102 81 102 100 0 3 -30 20 -67 36
l-68 31 -36 -21 c-57 -31 -110 -27 -155 14 -28 26 -37 43 -41 77 -7 59 16 113
59 139 42 25 73 25 123 0 51 -26 55 -26 126 10 51 26 58 33 50 49 -16 29 -78
79 -119 97 -52 22 -158 27 -209 10z"/>
<path d="M3900 947 c-74 -27 -96 -41 -130 -83 -49 -61 -69 -117 -69 -200 -1
-126 40 -204 138 -261 60 -36 173 -44 233 -17 31 14 43 15 46 6 2 -8 32 -12
98 -12 l94 0 0 285 0 285 -95 0 c-81 0 -95 -2 -95 -16 0 -12 -5 -14 -17 -9
-89 38 -142 43 -203 22z m158 -166 c2 -6 10 -11 18 -11 8 0 14 -7 14 -15 0 -8
4 -15 9 -15 5 0 14 -15 21 -34 27 -83 -34 -176 -116 -176 -35 0 -50 6 -80 34
-91 84 -28 247 91 232 22 -3 41 -10 43 -15z"/>
<path d="M4670 943 c-25 -8 -53 -22 -62 -31 -17 -14 -18 -13 -18 11 l0 27 -95
0 -95 0 0 -285 0 -285 95 0 95 0 0 165 c0 184 7 213 60 240 47 24 78 19 116
-20 19 -20 34 -45 35 -58 0 -12 1 -91 1 -174 l1 -153 94 0 93 0 0 155 c0 136
3 161 20 195 36 70 110 90 155 43 41 -43 45 -63 45 -234 l0 -159 95 0 95 0 0
158 c0 161 -11 256 -35 302 -44 85 -146 131 -248 112 -61 -12 -147 -58 -147
-79 0 -20 -12 -16 -68 26 -32 24 -71 43 -102 50 -65 14 -75 13 -130 -6z"/>
</g>
</svg>
