<svg width="373" height="207" viewBox="0 0 373 207" fill="none" xmlns="http://www.w3.org/2000/svg">
<g filter="url(#filter0_dd_3528_4321)">
<g opacity="0.8" filter="url(#filter1_dd_3528_4321)">
<rect x="6" y="2" width="270.954" height="147.426" rx="8" fill="white"/>
<rect x="6.4261" y="2.4261" width="270.102" height="146.573" rx="7.5739" stroke="#EAECF0" stroke-width="0.852207"/>
<path d="M27.9471 41.4531V28.7271H30.1611L36.5511 38.6631V28.7271H38.4411V41.4531H36.2811L29.8551 31.5711V41.4531H27.9471ZM45.2455 41.5611C44.2495 41.5611 43.4155 41.3571 42.7435 40.9491C42.0715 40.5411 41.5615 39.9771 41.2135 39.2571C40.8775 38.5251 40.7095 37.6851 40.7095 36.7371C40.7095 35.7771 40.8835 34.9311 41.2315 34.1991C41.5915 33.4671 42.1075 32.8911 42.7795 32.4711C43.4635 32.0511 44.2855 31.8411 45.2455 31.8411C45.9775 31.8411 46.6135 31.9791 47.1535 32.2551C47.6935 32.5191 48.1375 32.8791 48.4855 33.3351C48.8455 33.7911 49.1095 34.3011 49.2775 34.8651C49.4455 35.4171 49.5175 35.9931 49.4935 36.5931C49.4935 36.7251 49.4875 36.8511 49.4755 36.9711C49.4635 37.0911 49.4515 37.2171 49.4395 37.3491H42.5815C42.6175 37.8291 42.7375 38.2671 42.9415 38.6631C43.1575 39.0591 43.4575 39.3771 43.8415 39.6171C44.2255 39.8451 44.6995 39.9591 45.2635 39.9591C45.5755 39.9591 45.8755 39.9231 46.1635 39.8511C46.4635 39.7671 46.7275 39.6411 46.9555 39.4731C47.1955 39.2931 47.3635 39.0651 47.4595 38.7891H49.3315C49.1755 39.4251 48.8935 39.9531 48.4855 40.3731C48.0895 40.7811 47.6035 41.0811 47.0275 41.2731C46.4635 41.4651 45.8695 41.5611 45.2455 41.5611ZM42.6175 35.8731H47.6575C47.6455 35.4051 47.5375 34.9911 47.3335 34.6311C47.1295 34.2591 46.8475 33.9711 46.4875 33.7671C46.1275 33.5511 45.6955 33.4431 45.1915 33.4431C44.6395 33.4431 44.1775 33.5571 43.8055 33.7851C43.4455 34.0131 43.1635 34.3131 42.9595 34.6851C42.7675 35.0451 42.6535 35.4411 42.6175 35.8731ZM53.3855 41.4531L50.4335 31.9671H52.5035L54.5915 39.5091L56.7875 31.9671H59.1095L61.3055 39.5091L63.3575 31.9671H65.4275L62.4755 41.4531H60.1175L57.9215 34.1991L55.7435 41.4531H53.3855ZM77.3975 41.5971C76.0895 41.5971 74.9795 41.3211 74.0675 40.7691C73.1675 40.2051 72.4835 39.4311 72.0155 38.4471C71.5475 37.4631 71.3135 36.3471 71.3135 35.0991C71.3135 33.8391 71.5475 32.7171 72.0155 31.7331C72.4835 30.7491 73.1735 29.9811 74.0855 29.4291C74.9975 28.8651 76.1075 28.5831 77.4155 28.5831C78.7355 28.5831 79.8455 28.8591 80.7455 29.4111C81.6455 29.9631 82.3295 30.7311 82.7975 31.7151C83.2655 32.6991 83.4995 33.8211 83.4995 35.0811C83.4995 36.3291 83.2655 37.4451 82.7975 38.4291C82.3295 39.4131 81.6395 40.1871 80.7275 40.7511C79.8275 41.3151 78.7175 41.5971 77.3975 41.5971ZM77.4155 39.8511C78.3755 39.8511 79.1615 39.6291 79.7735 39.1851C80.3855 38.7411 80.8355 38.1591 81.1235 37.4391C81.4115 36.7191 81.5555 35.9391 81.5555 35.0991C81.5555 34.4631 81.4715 33.8571 81.3035 33.2811C81.1475 32.7051 80.9015 32.1951 80.5655 31.7511C80.2295 31.3071 79.7975 30.9591 79.2695 30.7071C78.7415 30.4551 78.1235 30.3291 77.4155 30.3291C76.4675 30.3291 75.6815 30.5511 75.0575 30.9951C74.4455 31.4391 73.9895 32.0211 73.6895 32.7411C73.3895 33.4611 73.2395 34.2471 73.2395 35.0991C73.2395 35.9391 73.3835 36.7191 73.6715 37.4391C73.9715 38.1591 74.4275 38.7411 75.0395 39.1851C75.6635 39.6291 76.4555 39.8511 77.4155 39.8511ZM86.3012 41.4531V33.6231H84.7892V31.9671H86.3012V31.0131C86.3012 30.2931 86.4032 29.7111 86.6072 29.2671C86.8232 28.8111 87.1532 28.4751 87.5972 28.2591C88.0532 28.0431 88.6472 27.9351 89.3792 27.9351H90.6212V29.5731H89.5952C89.2232 29.5731 88.9292 29.6391 88.7132 29.7711C88.5092 29.8911 88.3652 30.0771 88.2812 30.3291C88.1972 30.5691 88.1552 30.8631 88.1552 31.2111V31.9671H90.6212V33.6231H88.1552V41.4531H86.3012ZM92.9984 41.4531V33.6231H91.4864V31.9671H92.9984V31.0131C92.9984 30.2931 93.1004 29.7111 93.3044 29.2671C93.5204 28.8111 93.8504 28.4751 94.2944 28.2591C94.7504 28.0431 95.3444 27.9351 96.0764 27.9351H97.3184V29.5731H96.2924C95.9204 29.5731 95.6264 29.6391 95.4104 29.7711C95.2064 29.8911 95.0624 30.0771 94.9784 30.3291C94.8944 30.5691 94.8524 30.8631 94.8524 31.2111V31.9671H97.3184V33.6231H94.8524V41.4531H92.9984ZM102.814 41.5611C101.818 41.5611 100.984 41.3571 100.312 40.9491C99.6399 40.5411 99.1299 39.9771 98.7819 39.2571C98.4459 38.5251 98.2779 37.6851 98.2779 36.7371C98.2779 35.7771 98.4519 34.9311 98.7999 34.1991C99.1599 33.4671 99.6759 32.8911 100.348 32.4711C101.032 32.0511 101.854 31.8411 102.814 31.8411C103.546 31.8411 104.182 31.9791 104.722 32.2551C105.262 32.5191 105.706 32.8791 106.054 33.3351C106.414 33.7911 106.678 34.3011 106.846 34.8651C107.014 35.4171 107.086 35.9931 107.062 36.5931C107.062 36.7251 107.056 36.8511 107.044 36.9711C107.032 37.0911 107.02 37.2171 107.008 37.3491H100.15C100.186 37.8291 100.306 38.2671 100.51 38.6631C100.726 39.0591 101.026 39.3771 101.41 39.6171C101.794 39.8451 102.268 39.9591 102.832 39.9591C103.144 39.9591 103.444 39.9231 103.732 39.8511C104.032 39.7671 104.296 39.6411 104.524 39.4731C104.764 39.2931 104.932 39.0651 105.028 38.7891H106.9C106.744 39.4251 106.462 39.9531 106.054 40.3731C105.658 40.7811 105.172 41.0811 104.596 41.2731C104.032 41.4651 103.438 41.5611 102.814 41.5611ZM100.186 35.8731H105.226C105.214 35.4051 105.106 34.9911 104.902 34.6311C104.698 34.2591 104.416 33.9711 104.056 33.7671C103.696 33.5511 103.264 33.4431 102.76 33.4431C102.208 33.4431 101.746 33.5571 101.374 33.7851C101.014 34.0131 100.732 34.3131 100.528 34.6851C100.336 35.0451 100.222 35.4411 100.186 35.8731ZM108.974 41.4531V31.9671H110.738L110.828 33.2991C111.068 32.9511 111.356 32.6751 111.692 32.4711C112.028 32.2551 112.388 32.0991 112.772 32.0031C113.156 31.8951 113.528 31.8411 113.888 31.8411C114.8 31.8411 115.514 32.0391 116.03 32.4351C116.558 32.8191 116.93 33.3411 117.146 34.0011C117.374 34.6491 117.488 35.3871 117.488 36.2151V41.4531H115.616V36.5931C115.616 36.2091 115.592 35.8311 115.544 35.4591C115.496 35.0871 115.394 34.7571 115.238 34.4691C115.094 34.1691 114.884 33.9351 114.608 33.7671C114.332 33.5871 113.96 33.4971 113.492 33.4971C112.916 33.4971 112.43 33.6531 112.034 33.9651C111.638 34.2771 111.338 34.6971 111.134 35.2251C110.93 35.7531 110.828 36.3471 110.828 37.0071V41.4531H108.974ZM123.531 41.5611C122.583 41.5611 121.797 41.3511 121.173 40.9311C120.561 40.4991 120.099 39.9171 119.787 39.1851C119.487 38.4531 119.337 37.6311 119.337 36.7191C119.337 35.7951 119.493 34.9671 119.805 34.2351C120.117 33.4911 120.591 32.9091 121.227 32.4891C121.863 32.0571 122.667 31.8411 123.639 31.8411C123.999 31.8411 124.359 31.8831 124.719 31.9671C125.091 32.0511 125.433 32.1831 125.745 32.3631C126.069 32.5311 126.345 32.7591 126.573 33.0471V28.7271H128.427V41.4531H126.645L126.573 40.1571C126.357 40.4811 126.087 40.7511 125.763 40.9671C125.451 41.1711 125.103 41.3211 124.719 41.4171C124.335 41.5131 123.939 41.5611 123.531 41.5611ZM123.837 39.9051C124.449 39.9051 124.953 39.7551 125.349 39.4551C125.757 39.1551 126.063 38.7591 126.267 38.2671C126.471 37.7751 126.573 37.2411 126.573 36.6651C126.573 36.0771 126.471 35.5491 126.267 35.0811C126.075 34.6011 125.775 34.2231 125.367 33.9471C124.971 33.6591 124.461 33.5151 123.837 33.5151C123.189 33.5151 122.673 33.6651 122.289 33.9651C121.905 34.2531 121.623 34.6431 121.443 35.1351C121.275 35.6271 121.191 36.1671 121.191 36.7551C121.191 37.1871 121.239 37.5951 121.335 37.9791C121.431 38.3511 121.581 38.6871 121.785 38.9871C122.001 39.2751 122.277 39.5031 122.613 39.6711C122.949 39.8271 123.357 39.9051 123.837 39.9051ZM134.876 41.5611C133.88 41.5611 133.046 41.3571 132.374 40.9491C131.702 40.5411 131.192 39.9771 130.844 39.2571C130.508 38.5251 130.34 37.6851 130.34 36.7371C130.34 35.7771 130.514 34.9311 130.862 34.1991C131.222 33.4671 131.738 32.8911 132.41 32.4711C133.094 32.0511 133.916 31.8411 134.876 31.8411C135.608 31.8411 136.244 31.9791 136.784 32.2551C137.324 32.5191 137.768 32.8791 138.116 33.3351C138.476 33.7911 138.74 34.3011 138.908 34.8651C139.076 35.4171 139.148 35.9931 139.124 36.5931C139.124 36.7251 139.118 36.8511 139.106 36.9711C139.094 37.0911 139.082 37.2171 139.07 37.3491H132.212C132.248 37.8291 132.368 38.2671 132.572 38.6631C132.788 39.0591 133.088 39.3771 133.472 39.6171C133.856 39.8451 134.33 39.9591 134.894 39.9591C135.206 39.9591 135.506 39.9231 135.794 39.8511C136.094 39.7671 136.358 39.6411 136.586 39.4731C136.826 39.2931 136.994 39.0651 137.09 38.7891H138.962C138.806 39.4251 138.524 39.9531 138.116 40.3731C137.72 40.7811 137.234 41.0811 136.658 41.2731C136.094 41.4651 135.5 41.5611 134.876 41.5611ZM132.248 35.8731H137.288C137.276 35.4051 137.168 34.9911 136.964 34.6311C136.76 34.2591 136.478 33.9711 136.118 33.7671C135.758 33.5511 135.326 33.4431 134.822 33.4431C134.27 33.4431 133.808 33.5571 133.436 33.7851C133.076 34.0131 132.794 34.3131 132.59 34.6851C132.398 35.0451 132.284 35.4411 132.248 35.8731ZM141.036 41.4531V31.9671H142.782L142.872 33.3351C143.112 32.9631 143.388 32.6691 143.7 32.4531C144.012 32.2371 144.354 32.0811 144.726 31.9851C145.098 31.8891 145.488 31.8411 145.896 31.8411C146.004 31.8411 146.106 31.8411 146.202 31.8411C146.298 31.8411 146.388 31.8411 146.472 31.8411V33.6231H145.896C145.212 33.6231 144.642 33.7611 144.186 34.0371C143.742 34.3131 143.412 34.6971 143.196 35.1891C142.992 35.6811 142.89 36.2451 142.89 36.8811V41.4531H141.036ZM151.244 41.5611C150.8 41.5611 150.356 41.5191 149.912 41.4351C149.468 41.3511 149.054 41.2011 148.67 40.9851C148.286 40.7691 147.962 40.4811 147.698 40.1211C147.434 39.7491 147.266 39.2931 147.194 38.7531H149.084C149.18 39.0411 149.348 39.2751 149.588 39.4551C149.84 39.6351 150.116 39.7671 150.416 39.8511C150.728 39.9351 151.034 39.9771 151.334 39.9771C151.514 39.9771 151.712 39.9651 151.928 39.9411C152.156 39.9171 152.372 39.8631 152.576 39.7791C152.78 39.6951 152.948 39.5751 153.08 39.4191C153.212 39.2511 153.278 39.0291 153.278 38.7531C153.278 38.5371 153.218 38.3571 153.098 38.2131C152.99 38.0691 152.834 37.9551 152.63 37.8711C152.438 37.7751 152.204 37.7031 151.928 37.6551C151.388 37.5351 150.806 37.4211 150.182 37.3131C149.57 37.1931 149.03 36.9891 148.562 36.7011C148.394 36.5931 148.244 36.4731 148.112 36.3411C147.98 36.1971 147.866 36.0351 147.77 35.8551C147.674 35.6751 147.602 35.4831 147.554 35.2791C147.506 35.0751 147.482 34.8531 147.482 34.6131C147.482 34.1211 147.578 33.7011 147.77 33.3531C147.974 33.0051 148.25 32.7231 148.598 32.5071C148.946 32.2791 149.342 32.1111 149.786 32.0031C150.23 31.8951 150.698 31.8411 151.19 31.8411C151.826 31.8411 152.402 31.9431 152.918 32.1471C153.434 32.3511 153.86 32.6511 154.196 33.0471C154.532 33.4431 154.73 33.9411 154.79 34.5411H153.044C152.972 34.2171 152.762 33.9591 152.414 33.7671C152.078 33.5631 151.652 33.4611 151.136 33.4611C150.956 33.4611 150.758 33.4731 150.542 33.4971C150.338 33.5211 150.14 33.5751 149.948 33.6591C149.756 33.7431 149.6 33.8631 149.48 34.0191C149.36 34.1631 149.3 34.3551 149.3 34.5951C149.3 34.8231 149.354 35.0151 149.462 35.1711C149.582 35.3271 149.75 35.4531 149.966 35.5491C150.194 35.6451 150.452 35.7231 150.74 35.7831C151.148 35.8791 151.586 35.9691 152.054 36.0531C152.534 36.1371 152.924 36.2271 153.224 36.3231C153.62 36.4311 153.956 36.5871 154.232 36.7911C154.52 36.9951 154.736 37.2531 154.88 37.5651C155.036 37.8771 155.114 38.2551 155.114 38.6991C155.114 39.2751 155 39.7491 154.772 40.1211C154.544 40.4811 154.238 40.7691 153.854 40.9851C153.482 41.2011 153.062 41.3511 152.594 41.4351C152.138 41.5191 151.688 41.5611 151.244 41.5611Z" fill="#141A18"/>
<rect x="156.453" y="28.9531" width="83" height="14" rx="7" fill="white"/>
<path d="M247.975 36.665C248.367 36.665 248.685 36.347 248.685 35.9547C248.685 35.5624 248.367 35.2444 247.975 35.2444C247.583 35.2444 247.265 35.5624 247.265 35.9547C247.265 36.347 247.583 36.665 247.975 36.665Z" stroke="#05605B" stroke-width="1.42068" stroke-linecap="round" stroke-linejoin="round"/>
<path d="M247.975 31.6927C248.367 31.6927 248.685 31.3746 248.685 30.9823C248.685 30.59 248.367 30.272 247.975 30.272C247.583 30.272 247.265 30.59 247.265 30.9823C247.265 31.3746 247.583 31.6927 247.975 31.6927Z" stroke="#05605B" stroke-width="1.42068" stroke-linecap="round" stroke-linejoin="round"/>
<path d="M247.975 41.6374C248.367 41.6374 248.685 41.3194 248.685 40.9271C248.685 40.5348 248.367 40.2167 247.975 40.2167C247.583 40.2167 247.265 40.5348 247.265 40.9271C247.265 41.3194 247.583 41.6374 247.975 41.6374Z" stroke="#05605B" stroke-width="1.42068" stroke-linecap="round" stroke-linejoin="round"/>
<path d="M32.5731 91.0658C31.9065 91.0658 31.2865 90.9858 30.7131 90.8258C30.1398 90.6524 29.6265 90.3924 29.1731 90.0458C28.7331 89.6991 28.3598 89.2591 28.0531 88.7258C27.7598 88.1924 27.5598 87.5591 27.4531 86.8258H30.2731C30.3531 87.0924 30.4998 87.3458 30.7131 87.5858C30.9265 87.8258 31.1931 88.0191 31.5131 88.1658C31.8465 88.3124 32.2198 88.3858 32.6331 88.3858C33.1398 88.3858 33.5665 88.2991 33.9131 88.1258C34.2598 87.9391 34.5265 87.6858 34.7131 87.3658C34.8998 87.0458 34.9931 86.6658 34.9931 86.2258C34.9931 85.5591 34.7798 85.0258 34.3531 84.6258C33.9398 84.2124 33.3531 84.0058 32.5931 84.0058C32.1531 84.0058 31.7398 84.0858 31.3531 84.2458C30.9798 84.3924 30.6198 84.5991 30.2731 84.8658H27.8331L28.0931 76.7458H37.4131V79.3658H30.7931L30.6331 82.2458C31.0331 81.9658 31.4931 81.7724 32.0131 81.6658C32.5465 81.5458 33.0731 81.4924 33.5931 81.5058C34.5131 81.5324 35.2931 81.7324 35.9331 82.1058C36.5731 82.4791 37.0598 82.9991 37.3931 83.6658C37.7398 84.3324 37.9131 85.1124 37.9131 86.0058C37.9131 87.0858 37.6731 88.0058 37.1931 88.7658C36.7265 89.5258 36.0865 90.0991 35.2731 90.4858C34.4731 90.8724 33.5731 91.0658 32.5731 91.0658ZM45.3378 91.0658C44.2978 91.0658 43.4178 90.8791 42.6978 90.5058C41.9778 90.1324 41.3911 89.6191 40.9378 88.9658C40.4845 88.2991 40.1578 87.5324 39.9578 86.6658C39.7578 85.7858 39.6578 84.8524 39.6578 83.8658C39.6578 82.8524 39.7578 81.9058 39.9578 81.0258C40.1711 80.1458 40.5045 79.3724 40.9578 78.7058C41.4245 78.0391 42.0178 77.5191 42.7378 77.1458C43.4711 76.7724 44.3511 76.5858 45.3778 76.5858C46.4445 76.5858 47.3378 76.7791 48.0578 77.1658C48.7911 77.5524 49.3778 78.0924 49.8178 78.7858C50.2711 79.4658 50.5911 80.2391 50.7778 81.1058C50.9778 81.9724 51.0778 82.8791 51.0778 83.8258C51.0778 84.7991 50.9778 85.7191 50.7778 86.5858C50.5778 87.4524 50.2578 88.2258 49.8178 88.9058C49.3778 89.5724 48.7911 90.0991 48.0578 90.4858C47.3245 90.8724 46.4178 91.0658 45.3378 91.0658ZM45.3378 88.4258C45.9911 88.4258 46.5045 88.2791 46.8778 87.9858C47.2645 87.6791 47.5511 87.2858 47.7378 86.8058C47.9378 86.3258 48.0645 85.8258 48.1178 85.3058C48.1845 84.7724 48.2178 84.2791 48.2178 83.8258C48.2178 83.3991 48.1845 82.9258 48.1178 82.4058C48.0645 81.8724 47.9445 81.3724 47.7578 80.9058C47.5711 80.4258 47.2911 80.0324 46.9178 79.7258C46.5445 79.4191 46.0378 79.2658 45.3978 79.2658C44.7578 79.2658 44.2445 79.4191 43.8578 79.7258C43.4711 80.0191 43.1778 80.4058 42.9778 80.8858C42.7911 81.3658 42.6645 81.8658 42.5978 82.3858C42.5311 82.9058 42.4978 83.3858 42.4978 83.8258C42.4978 84.2658 42.5245 84.7524 42.5778 85.2858C42.6445 85.8191 42.7711 86.3258 42.9578 86.8058C43.1445 87.2858 43.4245 87.6791 43.7978 87.9858C44.1845 88.2791 44.6978 88.4258 45.3378 88.4258ZM52.088 90.9058V88.5458L56.008 85.2858C56.288 85.0458 56.608 84.7791 56.968 84.4858C57.3413 84.1791 57.6946 83.8524 58.028 83.5058C58.3746 83.1591 58.6546 82.7924 58.868 82.4058C59.0946 82.0191 59.208 81.6191 59.208 81.2058C59.208 80.6324 59.028 80.1658 58.668 79.8058C58.3213 79.4458 57.808 79.2658 57.128 79.2658C56.488 79.2658 55.9813 79.4124 55.608 79.7058C55.248 79.9858 55.0213 80.3458 54.928 80.7858H52.168C52.248 79.8391 52.528 79.0591 53.008 78.4458C53.5013 77.8191 54.1213 77.3524 54.868 77.0458C55.6146 76.7391 56.4013 76.5858 57.228 76.5858C58.1213 76.5858 58.9346 76.7524 59.668 77.0858C60.4013 77.4191 60.9813 77.9058 61.408 78.5458C61.8346 79.1724 62.048 79.9524 62.048 80.8858C62.048 81.6858 61.8946 82.4124 61.588 83.0658C61.2946 83.7058 60.888 84.3058 60.368 84.8658C59.848 85.4124 59.2613 85.9391 58.608 86.4458L56.368 88.2658H62.028V90.9058H52.088ZM69.4589 91.0658C68.4189 91.0658 67.5389 90.8791 66.8189 90.5058C66.0989 90.1324 65.5122 89.6191 65.0589 88.9658C64.6056 88.2991 64.2789 87.5324 64.0789 86.6658C63.8789 85.7858 63.7789 84.8524 63.7789 83.8658C63.7789 82.8524 63.8789 81.9058 64.0789 81.0258C64.2922 80.1458 64.6256 79.3724 65.0789 78.7058C65.5456 78.0391 66.1389 77.5191 66.8589 77.1458C67.5922 76.7724 68.4722 76.5858 69.4989 76.5858C70.5656 76.5858 71.4589 76.7791 72.1789 77.1658C72.9122 77.5524 73.4989 78.0924 73.9389 78.7858C74.3922 79.4658 74.7122 80.2391 74.8989 81.1058C75.0989 81.9724 75.1989 82.8791 75.1989 83.8258C75.1989 84.7991 75.0989 85.7191 74.8989 86.5858C74.6989 87.4524 74.3789 88.2258 73.9389 88.9058C73.4989 89.5724 72.9122 90.0991 72.1789 90.4858C71.4456 90.8724 70.5389 91.0658 69.4589 91.0658ZM69.4589 88.4258C70.1122 88.4258 70.6256 88.2791 70.9989 87.9858C71.3856 87.6791 71.6722 87.2858 71.8589 86.8058C72.0589 86.3258 72.1856 85.8258 72.2389 85.3058C72.3056 84.7724 72.3389 84.2791 72.3389 83.8258C72.3389 83.3991 72.3056 82.9258 72.2389 82.4058C72.1856 81.8724 72.0656 81.3724 71.8789 80.9058C71.6922 80.4258 71.4122 80.0324 71.0389 79.7258C70.6656 79.4191 70.1589 79.2658 69.5189 79.2658C68.8789 79.2658 68.3656 79.4191 67.9789 79.7258C67.5922 80.0191 67.2989 80.4058 67.0989 80.8858C66.9122 81.3658 66.7856 81.8658 66.7189 82.3858C66.6522 82.9058 66.6189 83.3858 66.6189 83.8258C66.6189 84.2658 66.6456 84.7524 66.6989 85.2858C66.7656 85.8191 66.8922 86.3258 67.0789 86.8058C67.2656 87.2858 67.5456 87.6791 67.9189 87.9858C68.3056 88.2791 68.8189 88.4258 69.4589 88.4258Z" fill="#141A18"/>
<path d="M30.9643 138.167C30.5537 138.167 30.157 138.12 29.7743 138.027C29.401 137.934 29.0603 137.794 28.7523 137.607C28.4443 137.411 28.183 137.164 27.9683 136.865C27.7537 136.566 27.6043 136.212 27.5203 135.801H28.7523C28.855 136.062 29.0183 136.286 29.2423 136.473C29.4663 136.66 29.7183 136.804 29.9983 136.907C30.2877 137 30.5723 137.047 30.8523 137.047C31.3097 137.047 31.7157 136.972 32.0703 136.823C32.4343 136.674 32.7237 136.445 32.9383 136.137C33.153 135.82 33.2603 135.414 33.2603 134.919C33.2603 134.238 33.055 133.715 32.6443 133.351C32.2337 132.987 31.7017 132.805 31.0483 132.805C30.6563 132.805 30.2923 132.875 29.9563 133.015C29.6297 133.155 29.331 133.346 29.0603 133.589H27.8003L28.2483 128.143H34.1703V129.263H29.3403L29.0603 132.371C29.3123 132.166 29.6203 132.002 29.9843 131.881C30.3483 131.75 30.7963 131.685 31.3283 131.685C31.963 131.685 32.5183 131.816 32.9943 132.077C33.4797 132.338 33.853 132.707 34.1143 133.183C34.385 133.65 34.5203 134.205 34.5203 134.849C34.5203 135.54 34.3617 136.132 34.0443 136.627C33.7363 137.122 33.3117 137.504 32.7703 137.775C32.2383 138.036 31.6363 138.167 30.9643 138.167ZM39.8713 138.153C39.1993 138.153 38.6206 138.027 38.1353 137.775C37.6593 137.514 37.2673 137.164 36.9593 136.725C36.6606 136.277 36.4413 135.773 36.3013 135.213C36.1613 134.644 36.0913 134.046 36.0913 133.421C36.0913 132.684 36.1613 131.993 36.3013 131.349C36.4506 130.696 36.6793 130.122 36.9873 129.627C37.3046 129.132 37.7153 128.745 38.2193 128.465C38.7233 128.176 39.33 128.031 40.0393 128.031C40.5153 128.031 40.9586 128.115 41.3693 128.283C41.7893 128.442 42.1533 128.684 42.4613 129.011C42.7693 129.328 42.998 129.72 43.1473 130.187H41.8733C41.7053 129.842 41.4486 129.58 41.1033 129.403C40.758 129.226 40.3986 129.137 40.0253 129.137C39.596 129.137 39.2273 129.221 38.9193 129.389C38.6113 129.548 38.35 129.762 38.1353 130.033C37.93 130.304 37.762 130.612 37.6313 130.957C37.51 131.302 37.4213 131.662 37.3653 132.035C37.3093 132.408 37.2813 132.772 37.2813 133.127C37.496 132.8 37.7433 132.534 38.0233 132.329C38.3126 132.124 38.6253 131.974 38.9613 131.881C39.3066 131.778 39.6566 131.727 40.0113 131.727C40.6646 131.727 41.2293 131.862 41.7053 132.133C42.1906 132.394 42.5686 132.763 42.8393 133.239C43.11 133.706 43.2453 134.247 43.2453 134.863C43.2453 135.516 43.1006 136.09 42.8113 136.585C42.522 137.08 42.1206 137.467 41.6073 137.747C41.1033 138.018 40.5246 138.153 39.8713 138.153ZM39.8433 137.047C40.2633 137.047 40.632 136.958 40.9493 136.781C41.276 136.594 41.5326 136.347 41.7193 136.039C41.906 135.722 41.9993 135.372 41.9993 134.989C41.9993 134.578 41.9106 134.214 41.7333 133.897C41.556 133.58 41.3086 133.328 40.9913 133.141C40.6833 132.954 40.3193 132.861 39.8993 132.861C39.5166 132.861 39.1526 132.95 38.8073 133.127C38.462 133.295 38.182 133.538 37.9673 133.855C37.762 134.163 37.6593 134.532 37.6593 134.961C37.6593 135.353 37.7526 135.708 37.9393 136.025C38.1353 136.333 38.3966 136.58 38.7233 136.767C39.0593 136.954 39.4326 137.047 39.8433 137.047ZM45.948 138.041L52.038 128.143H53.27L47.194 138.041H45.948ZM52.416 138.125C51.968 138.125 51.59 138.027 51.282 137.831C50.9833 137.635 50.7546 137.374 50.596 137.047C50.4373 136.711 50.358 136.338 50.358 135.927C50.358 135.498 50.4373 135.12 50.596 134.793C50.7546 134.466 50.988 134.21 51.296 134.023C51.604 133.836 51.9773 133.743 52.416 133.743C52.8453 133.743 53.2093 133.836 53.508 134.023C53.8066 134.21 54.0353 134.466 54.194 134.793C54.3526 135.12 54.432 135.498 54.432 135.927C54.432 136.338 54.3526 136.711 54.194 137.047C54.0353 137.374 53.8066 137.635 53.508 137.831C53.2093 138.027 52.8453 138.125 52.416 138.125ZM52.402 137.131C52.6446 137.131 52.836 137.075 52.976 136.963C53.1253 136.851 53.228 136.702 53.284 136.515C53.3493 136.328 53.382 136.132 53.382 135.927C53.382 135.722 53.3493 135.53 53.284 135.353C53.228 135.166 53.1253 135.017 52.976 134.905C52.836 134.793 52.6446 134.737 52.402 134.737C52.0286 134.737 51.7626 134.858 51.604 135.101C51.4546 135.344 51.38 135.619 51.38 135.927C51.38 136.254 51.4593 136.538 51.618 136.781C51.7766 137.014 52.038 137.131 52.402 137.131ZM46.872 132.413C46.424 132.413 46.046 132.315 45.738 132.119C45.4393 131.923 45.2106 131.662 45.052 131.335C44.9026 130.999 44.828 130.626 44.828 130.215C44.828 129.786 44.9026 129.408 45.052 129.081C45.2106 128.754 45.444 128.498 45.752 128.311C46.06 128.124 46.4333 128.031 46.872 128.031C47.3106 128.031 47.6793 128.124 47.978 128.311C48.2766 128.498 48.5006 128.754 48.65 129.081C48.8086 129.408 48.888 129.786 48.888 130.215C48.888 130.626 48.8086 130.999 48.65 131.335C48.5006 131.662 48.2766 131.923 47.978 132.119C47.6793 132.315 47.3106 132.413 46.872 132.413ZM46.872 131.419C47.1146 131.419 47.306 131.363 47.446 131.251C47.586 131.139 47.6886 130.99 47.754 130.803C47.8193 130.616 47.852 130.42 47.852 130.215C47.852 130.01 47.8193 129.818 47.754 129.641C47.6886 129.454 47.586 129.305 47.446 129.193C47.306 129.081 47.1146 129.025 46.872 129.025C46.4986 129.025 46.2326 129.146 46.074 129.389C45.9153 129.632 45.836 129.907 45.836 130.215C45.836 130.542 45.9153 130.826 46.074 131.069C46.2326 131.302 46.4986 131.419 46.872 131.419Z" fill="#373C3B"/>
<path d="M61.3955 133.542L62.2896 132.648L65.8341 136.186V128.469H67.1023V136.186L70.6405 132.642L71.5409 133.542L66.4682 138.615L61.3955 133.542Z" fill="#05DFAD"/>
<path d="M83.8375 127.541L80.9955 120.163H82.3395L84.6635 126.393L86.9455 120.163H88.3035L85.4615 127.541H83.8375ZM92.0293 127.625C91.6933 127.625 91.3527 127.592 91.0073 127.527C90.6713 127.462 90.354 127.35 90.0553 127.191C89.766 127.032 89.5233 126.818 89.3273 126.547C89.1313 126.276 89.0053 125.94 88.9493 125.539H90.1533C90.2467 125.791 90.396 125.996 90.6013 126.155C90.816 126.304 91.054 126.412 91.3153 126.477C91.586 126.542 91.8427 126.575 92.0853 126.575C92.2347 126.575 92.4073 126.566 92.6033 126.547C92.7993 126.528 92.986 126.486 93.1633 126.421C93.35 126.346 93.4993 126.239 93.6113 126.099C93.7327 125.959 93.7933 125.763 93.7933 125.511C93.7933 125.324 93.7513 125.17 93.6673 125.049C93.5833 124.928 93.4667 124.83 93.3173 124.755C93.168 124.671 92.986 124.61 92.7713 124.573C92.3327 124.48 91.8613 124.391 91.3573 124.307C90.8627 124.223 90.424 124.064 90.0413 123.831C89.9107 123.747 89.7893 123.654 89.6773 123.551C89.5747 123.439 89.486 123.318 89.4113 123.187C89.3367 123.047 89.276 122.898 89.2293 122.739C89.192 122.571 89.1733 122.389 89.1733 122.193C89.1733 121.829 89.2433 121.516 89.3833 121.255C89.5327 120.984 89.738 120.765 89.9993 120.597C90.2607 120.42 90.5593 120.289 90.8953 120.205C91.2407 120.121 91.6093 120.079 92.0013 120.079C92.4867 120.079 92.9207 120.158 93.3033 120.317C93.6953 120.466 94.0173 120.69 94.2693 120.989C94.5213 121.278 94.6707 121.638 94.7173 122.067H93.6113C93.546 121.796 93.3687 121.577 93.0793 121.409C92.79 121.232 92.4213 121.143 91.9733 121.143C91.824 121.143 91.656 121.157 91.4693 121.185C91.2827 121.204 91.1053 121.25 90.9373 121.325C90.7693 121.39 90.6293 121.493 90.5173 121.633C90.4053 121.764 90.3493 121.941 90.3493 122.165C90.3493 122.37 90.4007 122.543 90.5033 122.683C90.6153 122.823 90.7693 122.935 90.9653 123.019C91.1613 123.103 91.3853 123.173 91.6373 123.229C91.964 123.294 92.3233 123.364 92.7153 123.439C93.1073 123.504 93.4153 123.574 93.6393 123.649C93.938 123.742 94.1853 123.873 94.3813 124.041C94.5867 124.209 94.736 124.41 94.8293 124.643C94.932 124.876 94.9833 125.147 94.9833 125.455C94.9833 125.894 94.8947 126.253 94.7173 126.533C94.5493 126.813 94.3207 127.032 94.0313 127.191C93.742 127.35 93.42 127.462 93.0653 127.527C92.72 127.592 92.3747 127.625 92.0293 127.625ZM100.518 127.541V117.643H107.168V118.749H101.736V122.459H106.482V123.579H101.736V127.541H100.518ZM110.561 127.625C110.225 127.625 109.898 127.583 109.581 127.499C109.273 127.406 108.993 127.27 108.741 127.093C108.498 126.906 108.302 126.678 108.153 126.407C108.013 126.127 107.943 125.805 107.943 125.441C107.943 125.021 108.018 124.666 108.167 124.377C108.326 124.088 108.536 123.859 108.797 123.691C109.058 123.523 109.362 123.402 109.707 123.327C110.052 123.252 110.412 123.215 110.785 123.215H112.955C112.955 122.795 112.894 122.431 112.773 122.123C112.661 121.815 112.474 121.577 112.213 121.409C111.952 121.232 111.606 121.143 111.177 121.143C110.916 121.143 110.673 121.171 110.449 121.227C110.225 121.283 110.034 121.372 109.875 121.493C109.716 121.614 109.6 121.778 109.525 121.983H108.251C108.316 121.647 108.442 121.362 108.629 121.129C108.825 120.886 109.058 120.69 109.329 120.541C109.609 120.382 109.908 120.266 110.225 120.191C110.542 120.116 110.86 120.079 111.177 120.079C112.241 120.079 112.997 120.392 113.445 121.017C113.893 121.642 114.117 122.487 114.117 123.551V127.541H113.123L113.053 126.603C112.848 126.883 112.6 127.098 112.311 127.247C112.022 127.396 111.723 127.494 111.415 127.541C111.116 127.597 110.832 127.625 110.561 127.625ZM110.673 126.575C111.14 126.575 111.541 126.5 111.877 126.351C112.222 126.192 112.488 125.964 112.675 125.665C112.862 125.366 112.955 125.002 112.955 124.573V124.209H111.653C111.345 124.209 111.042 124.214 110.743 124.223C110.444 124.232 110.174 124.27 109.931 124.335C109.688 124.4 109.492 124.512 109.343 124.671C109.203 124.83 109.133 125.058 109.133 125.357C109.133 125.637 109.203 125.866 109.343 126.043C109.492 126.22 109.684 126.356 109.917 126.449C110.16 126.533 110.412 126.575 110.673 126.575ZM118.648 127.625C118.312 127.625 117.972 127.592 117.626 127.527C117.29 127.462 116.973 127.35 116.674 127.191C116.385 127.032 116.142 126.818 115.946 126.547C115.75 126.276 115.624 125.94 115.568 125.539H116.772C116.866 125.791 117.015 125.996 117.22 126.155C117.435 126.304 117.673 126.412 117.934 126.477C118.205 126.542 118.462 126.575 118.704 126.575C118.854 126.575 119.026 126.566 119.222 126.547C119.418 126.528 119.605 126.486 119.782 126.421C119.969 126.346 120.118 126.239 120.23 126.099C120.352 125.959 120.412 125.763 120.412 125.511C120.412 125.324 120.37 125.17 120.286 125.049C120.202 124.928 120.086 124.83 119.936 124.755C119.787 124.671 119.605 124.61 119.39 124.573C118.952 124.48 118.48 124.391 117.976 124.307C117.482 124.223 117.043 124.064 116.66 123.831C116.53 123.747 116.408 123.654 116.296 123.551C116.194 123.439 116.105 123.318 116.03 123.187C115.956 123.047 115.895 122.898 115.848 122.739C115.811 122.571 115.792 122.389 115.792 122.193C115.792 121.829 115.862 121.516 116.002 121.255C116.152 120.984 116.357 120.765 116.618 120.597C116.88 120.42 117.178 120.289 117.514 120.205C117.86 120.121 118.228 120.079 118.62 120.079C119.106 120.079 119.54 120.158 119.922 120.317C120.314 120.466 120.636 120.69 120.888 120.989C121.14 121.278 121.29 121.638 121.336 122.067H120.23C120.165 121.796 119.988 121.577 119.698 121.409C119.409 121.232 119.04 121.143 118.592 121.143C118.443 121.143 118.275 121.157 118.088 121.185C117.902 121.204 117.724 121.25 117.556 121.325C117.388 121.39 117.248 121.493 117.136 121.633C117.024 121.764 116.968 121.941 116.968 122.165C116.968 122.37 117.02 122.543 117.122 122.683C117.234 122.823 117.388 122.935 117.584 123.019C117.78 123.103 118.004 123.173 118.256 123.229C118.583 123.294 118.942 123.364 119.334 123.439C119.726 123.504 120.034 123.574 120.258 123.649C120.557 123.742 120.804 123.873 121 124.041C121.206 124.209 121.355 124.41 121.448 124.643C121.551 124.876 121.602 125.147 121.602 125.455C121.602 125.894 121.514 126.253 121.336 126.533C121.168 126.813 120.94 127.032 120.65 127.191C120.361 127.35 120.039 127.462 119.684 127.527C119.339 127.592 118.994 127.625 118.648 127.625ZM125.856 127.625C125.081 127.625 124.535 127.415 124.218 126.995C123.91 126.575 123.756 125.978 123.756 125.203V121.213H122.552V120.163H123.756V117.951H124.946V120.163H127.214V121.213H124.946V125.049C124.946 125.329 124.969 125.586 125.016 125.819C125.062 126.043 125.16 126.225 125.31 126.365C125.459 126.496 125.683 126.566 125.982 126.575C126.196 126.575 126.383 126.538 126.542 126.463C126.71 126.388 126.85 126.3 126.962 126.197L127.48 127.065C127.321 127.196 127.153 127.303 126.976 127.387C126.808 127.471 126.63 127.532 126.444 127.569C126.266 127.606 126.07 127.625 125.856 127.625ZM81.8355 149.541V142.163H82.9835L83.0395 143.045C83.1981 142.821 83.3755 142.639 83.5715 142.499C83.7768 142.359 84.0008 142.256 84.2435 142.191C84.4955 142.116 84.7615 142.079 85.0415 142.079C85.5548 142.079 85.9701 142.191 86.2875 142.415C86.6048 142.63 86.8428 142.914 87.0015 143.269C87.1695 143.017 87.3608 142.802 87.5755 142.625C87.7995 142.448 88.0468 142.312 88.3175 142.219C88.5975 142.126 88.9055 142.079 89.2415 142.079C89.7828 142.079 90.2168 142.196 90.5435 142.429C90.8795 142.662 91.1221 142.98 91.2715 143.381C91.4208 143.773 91.4955 144.216 91.4955 144.711V149.541H90.3055V145.313C90.3055 145.07 90.2915 144.823 90.2635 144.571C90.2448 144.319 90.1888 144.086 90.0955 143.871C90.0021 143.647 89.8621 143.47 89.6755 143.339C89.4981 143.199 89.2461 143.129 88.9195 143.129C88.6115 143.129 88.3501 143.204 88.1355 143.353C87.9301 143.493 87.7621 143.684 87.6315 143.927C87.5008 144.17 87.4075 144.431 87.3515 144.711C87.2955 144.982 87.2675 145.252 87.2675 145.523V149.541H86.0775V145.299C86.0775 145.066 86.0635 144.823 86.0355 144.571C86.0168 144.319 85.9655 144.086 85.8815 143.871C85.8068 143.647 85.6761 143.47 85.4895 143.339C85.3121 143.199 85.0648 143.129 84.7475 143.129C84.2995 143.129 83.9495 143.26 83.6975 143.521C83.4455 143.773 83.2681 144.086 83.1655 144.459C83.0721 144.823 83.0255 145.182 83.0255 145.537V149.541H81.8355ZM96.5262 149.625C95.7515 149.625 95.1028 149.466 94.5802 149.149C94.0575 148.822 93.6655 148.374 93.4042 147.805C93.1522 147.236 93.0262 146.587 93.0262 145.859C93.0262 145.122 93.1568 144.473 93.4182 143.913C93.6795 143.344 94.0715 142.896 94.5942 142.569C95.1168 142.242 95.7702 142.079 96.5542 142.079C97.3288 142.079 97.9728 142.242 98.4862 142.569C99.0088 142.896 99.3962 143.344 99.6482 143.913C99.9095 144.473 100.04 145.122 100.04 145.859C100.04 146.587 99.9095 147.236 99.6482 147.805C99.3868 148.374 98.9948 148.822 98.4722 149.149C97.9588 149.466 97.3102 149.625 96.5262 149.625ZM96.5262 148.575C97.0675 148.575 97.5062 148.454 97.8422 148.211C98.1875 147.968 98.4395 147.642 98.5982 147.231C98.7662 146.82 98.8502 146.363 98.8502 145.859C98.8502 145.355 98.7662 144.898 98.5982 144.487C98.4395 144.076 98.1875 143.75 97.8422 143.507C97.5062 143.264 97.0675 143.143 96.5262 143.143C95.9942 143.143 95.5555 143.264 95.2102 143.507C94.8742 143.75 94.6222 144.076 94.4542 144.487C94.2955 144.898 94.2162 145.355 94.2162 145.859C94.2162 146.363 94.2955 146.82 94.4542 147.231C94.6222 147.642 94.8742 147.968 95.2102 148.211C95.5555 148.454 95.9942 148.575 96.5262 148.575ZM101.632 149.541V142.163H102.78L102.836 143.283C103.004 143.012 103.219 142.788 103.48 142.611C103.742 142.434 104.026 142.303 104.334 142.219C104.652 142.126 104.96 142.079 105.258 142.079C105.977 142.079 106.537 142.228 106.938 142.527C107.349 142.826 107.638 143.232 107.806 143.745C107.984 144.249 108.072 144.823 108.072 145.467V149.541H106.882V145.789C106.882 145.444 106.859 145.112 106.812 144.795C106.775 144.478 106.691 144.193 106.56 143.941C106.439 143.689 106.262 143.493 106.028 143.353C105.795 143.204 105.482 143.129 105.09 143.129C104.605 143.129 104.19 143.264 103.844 143.535C103.508 143.806 103.252 144.17 103.074 144.627C102.906 145.084 102.822 145.598 102.822 146.167V149.541H101.632ZM112.9 149.541C112.34 149.541 111.887 149.457 111.542 149.289C111.206 149.121 110.958 148.86 110.8 148.505C110.65 148.15 110.576 147.702 110.576 147.161V143.213H109.372V142.163H110.576V139.965H111.766V142.163H113.74V143.213H111.766V147.035C111.766 147.539 111.854 147.912 112.032 148.155C112.218 148.388 112.592 148.505 113.152 148.505H113.698V149.541H112.9ZM115.085 149.541V139.643H116.275V143.297C116.453 143.036 116.667 142.816 116.919 142.639C117.181 142.452 117.465 142.312 117.773 142.219C118.081 142.126 118.399 142.079 118.725 142.079C119.444 142.079 120.004 142.228 120.405 142.527C120.816 142.826 121.105 143.232 121.273 143.745C121.441 144.249 121.525 144.828 121.525 145.481V149.541H120.335V145.845C120.335 145.518 120.312 145.196 120.265 144.879C120.228 144.552 120.149 144.258 120.027 143.997C119.906 143.736 119.719 143.526 119.467 143.367C119.225 143.208 118.893 143.129 118.473 143.129C118.072 143.129 117.727 143.218 117.437 143.395C117.157 143.572 116.933 143.81 116.765 144.109C116.597 144.398 116.471 144.72 116.387 145.075C116.313 145.42 116.275 145.761 116.275 146.097V149.541H115.085Z" fill="#373C3B"/>
<path d="M164.625 140.438L165.569 138.326L166.513 135.906L167.458 137.247L168.402 136.865L169.346 137.09L170.29 135.947L171.235 136.61L172.179 135.42L173.123 135.324L174.067 134.4L175.012 135.557L175.956 134.667L176.9 132.484L177.844 131.93L178.789 133.492L179.733 134.464L180.677 137.296L181.621 136.531L182.566 139.616L183.51 140.951L184.454 139.665L185.398 141.358L186.343 141.417L187.287 144.195L188.231 145.456L189.175 144.394L190.12 144.504L191.064 141.48L192.008 143.133L192.952 141.245L193.897 140.36L194.841 140.575L195.785 136.364L196.729 134.949L197.674 134.351L198.618 132.774L199.562 132.403L200.506 133.674L201.451 131.516L202.395 133.666L203.339 132.374L204.283 132.237L205.228 129.056L206.172 126.488L207.116 127.699L208.06 127.78L209.005 127.459L209.949 127.003L210.893 125.421L211.837 123.16L212.782 123.697L213.726 125.053L214.67 126.75L215.614 126.032L216.559 128.217L217.503 128.837L218.447 126.735L219.391 127.3L220.336 127.515L221.28 127.368L222.224 123.38L223.168 124.464L224.112 125.362L225.057 127.228L226.001 128.428L226.945 130.145L227.889 131.106L228.834 132.268L229.778 132.085L230.722 132.987L231.666 131.425L232.611 132.268L233.555 133.384L234.499 131.16L235.443 129.823L236.388 129.62L237.332 129.517L238.276 129.801L239.22 126.892L240.165 126.868L241.109 126.878L242.053 129.024L242.997 128.95L243.942 130.77L244.886 129.168L245.83 130.944L246.774 129.132L247.719 130.39L248.663 131.508L249.607 129.276L250.551 127.474L251.496 126.417L252.44 124.994L253.384 125.234L254.328 128.759L255.273 127.746L256.217 126.068L257.161 125.141L258.105 123.429L259.05 120.93" stroke="#FC6B21" stroke-width="1.34779" stroke-linecap="round" stroke-linejoin="round"/>
</g>
<g filter="url(#filter2_dd_3528_4321)">
<rect x="69" y="49" width="297.704" height="147.426" rx="8" fill="white"/>
<rect x="69.4261" y="49.4261" width="296.852" height="146.573" rx="7.5739" stroke="#EAECF0" stroke-width="0.852207"/>
<path d="M90.9471 88.4531V75.7271H95.8431C96.5271 75.7271 97.1511 75.7991 97.7151 75.9431C98.2791 76.0751 98.7711 76.2971 99.1911 76.6091C99.6111 76.9091 99.9351 77.3171 100.163 77.8331C100.391 78.3491 100.505 78.9851 100.505 79.7411C100.505 80.4251 100.385 81.0131 100.145 81.5051C99.9051 81.9971 99.5751 82.4051 99.1551 82.7291C98.7351 83.0531 98.2611 83.2991 97.7331 83.4671L100.451 88.4531H98.3451L95.8251 83.7731H92.8551V88.4531H90.9471ZM92.8551 82.0631H95.4471C95.8791 82.0631 96.2811 82.0331 96.6531 81.9731C97.0371 81.9011 97.3731 81.7811 97.6611 81.6131C97.9491 81.4331 98.1711 81.1931 98.3271 80.8931C98.4951 80.5811 98.5791 80.1851 98.5791 79.7051C98.5911 79.1531 98.4831 78.7151 98.2551 78.3911C98.0391 78.0551 97.7151 77.8211 97.2831 77.6891C96.8511 77.5451 96.3291 77.4731 95.7171 77.4731H92.8551V82.0631ZM106.611 88.5611C105.615 88.5611 104.781 88.3571 104.109 87.9491C103.437 87.5411 102.927 86.9771 102.579 86.2571C102.243 85.5251 102.075 84.6851 102.075 83.7371C102.075 82.7771 102.249 81.9311 102.597 81.1991C102.957 80.4671 103.473 79.8911 104.145 79.4711C104.829 79.0511 105.651 78.8411 106.611 78.8411C107.343 78.8411 107.979 78.9791 108.519 79.2551C109.059 79.5191 109.503 79.8791 109.851 80.3351C110.211 80.7911 110.475 81.3011 110.643 81.8651C110.811 82.4171 110.883 82.9931 110.859 83.5931C110.859 83.7251 110.853 83.8511 110.841 83.9711C110.829 84.0911 110.817 84.2171 110.805 84.3491H103.947C103.983 84.8291 104.103 85.2671 104.307 85.6631C104.523 86.0591 104.823 86.3771 105.207 86.6171C105.591 86.8451 106.065 86.9591 106.629 86.9591C106.941 86.9591 107.241 86.9231 107.529 86.8511C107.829 86.7671 108.093 86.6411 108.321 86.4731C108.561 86.2931 108.729 86.0651 108.825 85.7891H110.697C110.541 86.4251 110.259 86.9531 109.851 87.3731C109.455 87.7811 108.969 88.0811 108.393 88.2731C107.829 88.4651 107.235 88.5611 106.611 88.5611ZM103.983 82.8731H109.023C109.011 82.4051 108.903 81.9911 108.699 81.6311C108.495 81.2591 108.213 80.9711 107.853 80.7671C107.493 80.5511 107.061 80.4431 106.557 80.4431C106.005 80.4431 105.543 80.5571 105.171 80.7851C104.811 81.0131 104.529 81.3131 104.325 81.6851C104.133 82.0451 104.019 82.4411 103.983 82.8731ZM112.771 91.9091V78.9671H114.535L114.625 80.3171C114.961 79.8251 115.399 79.4591 115.939 79.2191C116.479 78.9671 117.067 78.8411 117.703 78.8411C118.651 78.8411 119.431 79.0571 120.043 79.4891C120.655 79.9091 121.111 80.4911 121.411 81.2351C121.711 81.9671 121.861 82.7891 121.861 83.7011C121.861 84.6371 121.705 85.4711 121.393 86.2031C121.093 86.9351 120.625 87.5111 119.989 87.9311C119.365 88.3511 118.573 88.5611 117.613 88.5611C117.157 88.5611 116.737 88.5131 116.353 88.4171C115.981 88.3211 115.651 88.1831 115.363 88.0031C115.087 87.8111 114.841 87.5891 114.625 87.3371V91.9091H112.771ZM117.379 86.9051C118.027 86.9051 118.543 86.7611 118.927 86.4731C119.311 86.1731 119.587 85.7831 119.755 85.3031C119.923 84.8231 120.007 84.3011 120.007 83.7371C120.007 83.1491 119.917 82.6151 119.737 82.1351C119.569 81.6431 119.287 81.2531 118.891 80.9651C118.507 80.6651 117.991 80.5151 117.343 80.5151C116.755 80.5151 116.257 80.6651 115.849 80.9651C115.441 81.2531 115.129 81.6431 114.913 82.1351C114.709 82.6271 114.607 83.1611 114.607 83.7371C114.607 84.3251 114.703 84.8651 114.895 85.3571C115.099 85.8371 115.405 86.2151 115.813 86.4911C116.233 86.7671 116.755 86.9051 117.379 86.9051ZM128.005 88.5611C127.021 88.5611 126.187 88.3631 125.503 87.9671C124.819 87.5591 124.297 86.9891 123.937 86.2571C123.589 85.5251 123.415 84.6791 123.415 83.7191C123.415 82.7471 123.595 81.9011 123.955 81.1811C124.315 80.4491 124.837 79.8791 125.521 79.4711C126.205 79.0511 127.039 78.8411 128.023 78.8411C129.007 78.8411 129.841 79.0511 130.525 79.4711C131.209 79.8791 131.725 80.4491 132.073 81.1811C132.421 81.9131 132.595 82.7651 132.595 83.7371C132.595 84.6851 132.415 85.5251 132.055 86.2571C131.707 86.9891 131.191 87.5591 130.507 87.9671C129.835 88.3631 129.001 88.5611 128.005 88.5611ZM128.005 86.9051C128.653 86.9051 129.175 86.7611 129.571 86.4731C129.979 86.1851 130.279 85.8011 130.471 85.3211C130.663 84.8291 130.759 84.2951 130.759 83.7191C130.759 83.1431 130.663 82.6151 130.471 82.1351C130.279 81.6551 129.979 81.2711 129.571 80.9831C129.175 80.6831 128.653 80.5331 128.005 80.5331C127.369 80.5331 126.847 80.6831 126.439 80.9831C126.031 81.2711 125.731 81.6551 125.539 82.1351C125.359 82.6151 125.269 83.1431 125.269 83.7191C125.269 84.3071 125.359 84.8411 125.539 85.3211C125.731 85.8011 126.031 86.1851 126.439 86.4731C126.847 86.7611 127.369 86.9051 128.005 86.9051ZM134.497 88.4531V78.9671H136.243L136.333 80.3351C136.573 79.9631 136.849 79.6691 137.161 79.4531C137.473 79.2371 137.815 79.0811 138.187 78.9851C138.559 78.8891 138.949 78.8411 139.357 78.8411C139.465 78.8411 139.567 78.8411 139.663 78.8411C139.759 78.8411 139.849 78.8411 139.933 78.8411V80.6231H139.357C138.673 80.6231 138.103 80.7611 137.647 81.0371C137.203 81.3131 136.873 81.6971 136.657 82.1891C136.453 82.6811 136.351 83.2451 136.351 83.8811V88.4531H134.497ZM145.007 88.5611C143.987 88.5611 143.255 88.2851 142.811 87.7331C142.379 87.1691 142.163 86.3831 142.163 85.3751V80.6231H140.651V78.9671H142.163V76.2131H144.017V78.9671H146.915V80.6231H144.017V85.0691C144.017 85.4051 144.047 85.7111 144.107 85.9871C144.179 86.2631 144.311 86.4791 144.503 86.6351C144.695 86.7911 144.971 86.8751 145.331 86.8871C145.607 86.8871 145.847 86.8391 146.051 86.7431C146.267 86.6471 146.441 86.5391 146.573 86.4191L147.293 87.8051C147.065 87.9851 146.825 88.1351 146.573 88.2551C146.333 88.3631 146.081 88.4411 145.817 88.4891C145.553 88.5371 145.283 88.5611 145.007 88.5611ZM156.684 88.4531V77.4731H152.652V75.7271H162.606V77.4731H158.592V88.4531H156.684ZM163.976 88.4531V78.9671H165.83V88.4531H163.976ZM164.894 77.7071C164.534 77.7071 164.24 77.5991 164.012 77.3831C163.796 77.1551 163.688 76.8671 163.688 76.5191C163.688 76.1711 163.802 75.8891 164.03 75.6731C164.258 75.4451 164.546 75.3311 164.894 75.3311C165.218 75.3311 165.5 75.4451 165.74 75.6731C165.992 75.8891 166.118 76.1711 166.118 76.5191C166.118 76.8671 165.998 77.1551 165.758 77.3831C165.53 77.5991 165.242 77.7071 164.894 77.7071ZM168.124 88.4531V78.9671H169.87L169.978 80.0831C170.194 79.7711 170.434 79.5311 170.698 79.3631C170.974 79.1831 171.268 79.0511 171.58 78.9671C171.892 78.8831 172.21 78.8411 172.534 78.8411C173.17 78.8411 173.692 78.9731 174.1 79.2371C174.52 79.5011 174.844 79.8611 175.072 80.3171C175.3 79.9931 175.558 79.7231 175.846 79.5071C176.134 79.2791 176.452 79.1111 176.8 79.0031C177.148 78.8951 177.52 78.8411 177.916 78.8411C178.624 78.8411 179.194 78.9971 179.626 79.3091C180.07 79.6091 180.388 80.0171 180.58 80.5331C180.784 81.0491 180.886 81.6431 180.886 82.3151V88.4531H179.014V83.0531C179.014 82.7651 179.002 82.4771 178.978 82.1891C178.954 81.9011 178.882 81.6311 178.762 81.3791C178.654 81.1151 178.492 80.9051 178.276 80.7491C178.072 80.5811 177.778 80.4971 177.394 80.4971C177.022 80.4971 176.71 80.5811 176.458 80.7491C176.218 80.9171 176.02 81.1451 175.864 81.4331C175.72 81.7091 175.612 82.0091 175.54 82.3331C175.48 82.6571 175.45 82.9811 175.45 83.3051V88.4531H173.578V83.0351C173.578 82.7591 173.566 82.4771 173.542 82.1891C173.518 81.9011 173.458 81.6311 173.362 81.3791C173.266 81.1151 173.104 80.9051 172.876 80.7491C172.66 80.5811 172.366 80.4971 171.994 80.4971C171.454 80.4971 171.034 80.6531 170.734 80.9651C170.446 81.2651 170.248 81.6371 170.14 82.0811C170.032 82.5131 169.978 82.9271 169.978 83.3231V88.4531H168.124ZM187.242 88.5611C186.246 88.5611 185.412 88.3571 184.74 87.9491C184.068 87.5411 183.558 86.9771 183.21 86.2571C182.874 85.5251 182.706 84.6851 182.706 83.7371C182.706 82.7771 182.88 81.9311 183.228 81.1991C183.588 80.4671 184.104 79.8911 184.776 79.4711C185.46 79.0511 186.282 78.8411 187.242 78.8411C187.974 78.8411 188.61 78.9791 189.15 79.2551C189.69 79.5191 190.134 79.8791 190.482 80.3351C190.842 80.7911 191.106 81.3011 191.274 81.8651C191.442 82.4171 191.514 82.9931 191.49 83.5931C191.49 83.7251 191.484 83.8511 191.472 83.9711C191.46 84.0911 191.448 84.2171 191.436 84.3491H184.578C184.614 84.8291 184.734 85.2671 184.938 85.6631C185.154 86.0591 185.454 86.3771 185.838 86.6171C186.222 86.8451 186.696 86.9591 187.26 86.9591C187.572 86.9591 187.872 86.9231 188.16 86.8511C188.46 86.7671 188.724 86.6411 188.952 86.4731C189.192 86.2931 189.36 86.0651 189.456 85.7891H191.328C191.172 86.4251 190.89 86.9531 190.482 87.3731C190.086 87.7811 189.6 88.0811 189.024 88.2731C188.46 88.4651 187.866 88.5611 187.242 88.5611ZM184.614 82.8731H189.654C189.642 82.4051 189.534 81.9911 189.33 81.6311C189.126 81.2591 188.844 80.9711 188.484 80.7671C188.124 80.5511 187.692 80.4431 187.188 80.4431C186.636 80.4431 186.174 80.5571 185.802 80.7851C185.442 81.0131 185.16 81.3131 184.956 81.6851C184.764 82.0451 184.65 82.4411 184.614 82.8731Z" fill="#141A18"/>
<rect x="193.359" y="75.9253" width="134.937" height="14.056" rx="7.02799" fill="white"/>
<path d="M337.727 83.665C338.119 83.665 338.437 83.347 338.437 82.9547C338.437 82.5624 338.119 82.2444 337.727 82.2444C337.335 82.2444 337.017 82.5624 337.017 82.9547C337.017 83.347 337.335 83.665 337.727 83.665Z" stroke="#05605B" stroke-width="1.42068" stroke-linecap="round" stroke-linejoin="round"/>
<path d="M337.727 78.6927C338.119 78.6927 338.437 78.3746 338.437 77.9823C338.437 77.59 338.119 77.272 337.727 77.272C337.335 77.272 337.017 77.59 337.017 77.9823C337.017 78.3746 337.335 78.6927 337.727 78.6927Z" stroke="#05605B" stroke-width="1.42068" stroke-linecap="round" stroke-linejoin="round"/>
<path d="M337.727 88.6374C338.119 88.6374 338.437 88.3194 338.437 87.9271C338.437 87.5348 338.119 87.2167 337.727 87.2167C337.335 87.2167 337.017 87.5348 337.017 87.9271C337.017 88.3194 337.335 88.6374 337.727 88.6374Z" stroke="#05605B" stroke-width="1.42068" stroke-linecap="round" stroke-linejoin="round"/>
<path d="M97.2331 137.906V135.306H90.0531V133.126L96.6331 123.746H100.093V132.706H101.693V135.306H100.093V137.906H97.2331ZM93.3331 132.706H97.2331V126.906L93.3331 132.706ZM108.768 138.066C107.728 138.066 106.848 137.879 106.128 137.506C105.408 137.132 104.821 136.619 104.368 135.966C103.914 135.299 103.588 134.532 103.388 133.666C103.188 132.786 103.088 131.852 103.088 130.866C103.088 129.852 103.188 128.906 103.388 128.026C103.601 127.146 103.934 126.372 104.388 125.706C104.854 125.039 105.448 124.519 106.168 124.146C106.901 123.772 107.781 123.586 108.808 123.586C109.874 123.586 110.768 123.779 111.488 124.166C112.221 124.552 112.808 125.092 113.248 125.786C113.701 126.466 114.021 127.239 114.208 128.106C114.408 128.972 114.508 129.879 114.508 130.826C114.508 131.799 114.408 132.719 114.208 133.586C114.008 134.452 113.688 135.226 113.248 135.906C112.808 136.572 112.221 137.099 111.488 137.486C110.754 137.872 109.848 138.066 108.768 138.066ZM108.768 135.426C109.421 135.426 109.934 135.279 110.308 134.986C110.694 134.679 110.981 134.286 111.168 133.806C111.368 133.326 111.494 132.826 111.548 132.306C111.614 131.772 111.648 131.279 111.648 130.826C111.648 130.399 111.614 129.926 111.548 129.406C111.494 128.872 111.374 128.372 111.188 127.906C111.001 127.426 110.721 127.032 110.348 126.726C109.974 126.419 109.468 126.266 108.828 126.266C108.188 126.266 107.674 126.419 107.288 126.726C106.901 127.019 106.608 127.406 106.408 127.886C106.221 128.366 106.094 128.866 106.028 129.386C105.961 129.906 105.928 130.386 105.928 130.826C105.928 131.266 105.954 131.752 106.008 132.286C106.074 132.819 106.201 133.326 106.388 133.806C106.574 134.286 106.854 134.679 107.228 134.986C107.614 135.279 108.128 135.426 108.768 135.426ZM117.134 140.966L116.334 139.746C116.534 139.639 116.754 139.486 116.994 139.286C117.248 139.086 117.474 138.866 117.674 138.626C117.874 138.399 118.008 138.186 118.074 137.986C117.674 137.959 117.321 137.806 117.014 137.526C116.708 137.246 116.554 136.859 116.554 136.366C116.568 135.819 116.748 135.406 117.094 135.126C117.454 134.832 117.861 134.686 118.314 134.686C118.901 134.686 119.354 134.899 119.674 135.326C119.994 135.739 120.154 136.286 120.154 136.966C120.154 137.592 120.008 138.179 119.714 138.726C119.421 139.272 119.048 139.739 118.594 140.126C118.141 140.512 117.654 140.792 117.134 140.966ZM129.03 137.906V135.306H121.85V133.126L128.43 123.746H131.89V132.706H133.49V135.306H131.89V137.906H129.03ZM125.13 132.706H129.03V126.906L125.13 132.706ZM134.404 137.906V135.546L138.324 132.286C138.604 132.046 138.924 131.779 139.284 131.486C139.658 131.179 140.011 130.852 140.344 130.506C140.691 130.159 140.971 129.792 141.184 129.406C141.411 129.019 141.524 128.619 141.524 128.206C141.524 127.632 141.344 127.166 140.984 126.806C140.638 126.446 140.124 126.266 139.444 126.266C138.804 126.266 138.298 126.412 137.924 126.706C137.564 126.986 137.338 127.346 137.244 127.786H134.484C134.564 126.839 134.844 126.059 135.324 125.446C135.818 124.819 136.438 124.352 137.184 124.046C137.931 123.739 138.718 123.586 139.544 123.586C140.438 123.586 141.251 123.752 141.984 124.086C142.718 124.419 143.298 124.906 143.724 125.546C144.151 126.172 144.364 126.952 144.364 127.886C144.364 128.686 144.211 129.412 143.904 130.066C143.611 130.706 143.204 131.306 142.684 131.866C142.164 132.412 141.578 132.939 140.924 133.446L138.684 135.266H144.344V137.906H134.404ZM151.775 138.066C150.735 138.066 149.855 137.879 149.135 137.506C148.415 137.132 147.829 136.619 147.375 135.966C146.922 135.299 146.595 134.532 146.395 133.666C146.195 132.786 146.095 131.852 146.095 130.866C146.095 129.852 146.195 128.906 146.395 128.026C146.609 127.146 146.942 126.372 147.395 125.706C147.862 125.039 148.455 124.519 149.175 124.146C149.909 123.772 150.789 123.586 151.815 123.586C152.882 123.586 153.775 123.779 154.495 124.166C155.229 124.552 155.815 125.092 156.255 125.786C156.709 126.466 157.029 127.239 157.215 128.106C157.415 128.972 157.515 129.879 157.515 130.826C157.515 131.799 157.415 132.719 157.215 133.586C157.015 134.452 156.695 135.226 156.255 135.906C155.815 136.572 155.229 137.099 154.495 137.486C153.762 137.872 152.855 138.066 151.775 138.066ZM151.775 135.426C152.429 135.426 152.942 135.279 153.315 134.986C153.702 134.679 153.989 134.286 154.175 133.806C154.375 133.326 154.502 132.826 154.555 132.306C154.622 131.772 154.655 131.279 154.655 130.826C154.655 130.399 154.622 129.926 154.555 129.406C154.502 128.872 154.382 128.372 154.195 127.906C154.009 127.426 153.729 127.032 153.355 126.726C152.982 126.419 152.475 126.266 151.835 126.266C151.195 126.266 150.682 126.419 150.295 126.726C149.909 127.019 149.615 127.406 149.415 127.886C149.229 128.366 149.102 128.866 149.035 129.386C148.969 129.906 148.935 130.386 148.935 130.826C148.935 131.266 148.962 131.752 149.015 132.286C149.082 132.819 149.209 133.326 149.395 133.806C149.582 134.286 149.862 134.679 150.235 134.986C150.622 135.279 151.135 135.426 151.775 135.426Z" fill="#141A18"/>
<path d="M90.127 173.541V172.519L92.927 170.097C93.179 169.882 93.4544 169.649 93.753 169.397C94.061 169.136 94.3504 168.856 94.621 168.557C94.901 168.258 95.1297 167.941 95.307 167.605C95.4937 167.26 95.587 166.896 95.587 166.513C95.587 165.916 95.4097 165.458 95.055 165.141C94.7004 164.814 94.2244 164.651 93.627 164.651C93.151 164.651 92.7357 164.749 92.381 164.945C92.0264 165.141 91.793 165.426 91.681 165.799H90.379C90.4724 165.286 90.6824 164.866 91.009 164.539C91.345 164.203 91.7464 163.951 92.213 163.783C92.689 163.615 93.179 163.531 93.683 163.531C94.299 163.531 94.8404 163.643 95.307 163.867C95.783 164.091 96.1517 164.418 96.413 164.847C96.6837 165.267 96.819 165.785 96.819 166.401C96.819 167.008 96.7024 167.54 96.469 167.997C96.245 168.454 95.9464 168.87 95.573 169.243C95.209 169.607 94.817 169.966 94.397 170.321L91.891 172.435H96.931V173.541H90.127ZM102.299 173.653C101.608 173.653 101.015 173.527 100.521 173.275C100.035 173.014 99.6387 172.654 99.3307 172.197C99.0227 171.73 98.7941 171.194 98.6447 170.587C98.5047 169.971 98.4347 169.308 98.4347 168.599C98.4347 167.89 98.5047 167.232 98.6447 166.625C98.7847 166.009 99.0087 165.472 99.3167 165.015C99.6247 164.548 100.021 164.184 100.507 163.923C101.001 163.662 101.599 163.531 102.299 163.531C103.036 163.531 103.652 163.676 104.147 163.965C104.651 164.245 105.047 164.628 105.337 165.113C105.635 165.598 105.845 166.144 105.967 166.751C106.097 167.348 106.163 167.964 106.163 168.599C106.163 169.234 106.097 169.854 105.967 170.461C105.845 171.058 105.635 171.6 105.337 172.085C105.047 172.561 104.651 172.944 104.147 173.233C103.652 173.513 103.036 173.653 102.299 173.653ZM102.299 172.547C102.849 172.547 103.293 172.43 103.629 172.197C103.974 171.954 104.24 171.637 104.427 171.245C104.613 170.853 104.739 170.428 104.805 169.971C104.87 169.504 104.903 169.047 104.903 168.599C104.903 168.16 104.87 167.712 104.805 167.255C104.739 166.788 104.613 166.359 104.427 165.967C104.24 165.566 103.974 165.244 103.629 165.001C103.293 164.758 102.849 164.637 102.299 164.637C101.739 164.637 101.286 164.758 100.941 165.001C100.595 165.244 100.329 165.566 100.143 165.967C99.9654 166.359 99.8441 166.788 99.7787 167.255C99.7134 167.712 99.6807 168.16 99.6807 168.599C99.6807 169.047 99.7134 169.504 99.7787 169.971C99.8441 170.428 99.9654 170.853 100.143 171.245C100.329 171.637 100.595 171.954 100.941 172.197C101.286 172.43 101.739 172.547 102.299 172.547ZM108.893 173.541L114.983 163.643H116.215L110.139 173.541H108.893ZM115.361 173.625C114.913 173.625 114.535 173.527 114.227 173.331C113.929 173.135 113.7 172.874 113.541 172.547C113.383 172.211 113.303 171.838 113.303 171.427C113.303 170.998 113.383 170.62 113.541 170.293C113.7 169.966 113.933 169.71 114.241 169.523C114.549 169.336 114.923 169.243 115.361 169.243C115.791 169.243 116.155 169.336 116.453 169.523C116.752 169.71 116.981 169.966 117.139 170.293C117.298 170.62 117.377 170.998 117.377 171.427C117.377 171.838 117.298 172.211 117.139 172.547C116.981 172.874 116.752 173.135 116.453 173.331C116.155 173.527 115.791 173.625 115.361 173.625ZM115.347 172.631C115.59 172.631 115.781 172.575 115.921 172.463C116.071 172.351 116.173 172.202 116.229 172.015C116.295 171.828 116.327 171.632 116.327 171.427C116.327 171.222 116.295 171.03 116.229 170.853C116.173 170.666 116.071 170.517 115.921 170.405C115.781 170.293 115.59 170.237 115.347 170.237C114.974 170.237 114.708 170.358 114.549 170.601C114.4 170.844 114.325 171.119 114.325 171.427C114.325 171.754 114.405 172.038 114.563 172.281C114.722 172.514 114.983 172.631 115.347 172.631ZM109.817 167.913C109.369 167.913 108.991 167.815 108.683 167.619C108.385 167.423 108.156 167.162 107.997 166.835C107.848 166.499 107.773 166.126 107.773 165.715C107.773 165.286 107.848 164.908 107.997 164.581C108.156 164.254 108.389 163.998 108.697 163.811C109.005 163.624 109.379 163.531 109.817 163.531C110.256 163.531 110.625 163.624 110.923 163.811C111.222 163.998 111.446 164.254 111.595 164.581C111.754 164.908 111.833 165.286 111.833 165.715C111.833 166.126 111.754 166.499 111.595 166.835C111.446 167.162 111.222 167.423 110.923 167.619C110.625 167.815 110.256 167.913 109.817 167.913ZM109.817 166.919C110.06 166.919 110.251 166.863 110.391 166.751C110.531 166.639 110.634 166.49 110.699 166.303C110.765 166.116 110.797 165.92 110.797 165.715C110.797 165.51 110.765 165.318 110.699 165.141C110.634 164.954 110.531 164.805 110.391 164.693C110.251 164.581 110.06 164.525 109.817 164.525C109.444 164.525 109.178 164.646 109.019 164.889C108.861 165.132 108.781 165.407 108.781 165.715C108.781 166.042 108.861 166.326 109.019 166.569C109.178 166.802 109.444 166.919 109.817 166.919Z" fill="#373C3B"/>
<path d="M124.396 169.041L125.29 169.936L128.834 166.397V174.114H130.102V166.397L133.641 169.942L134.541 169.041L129.468 163.969L124.396 169.041Z" fill="#20B9FC"/>
<path d="M146.837 173.541L143.995 166.163H145.339L147.663 172.393L149.945 166.163H151.303L148.461 173.541H146.837ZM155.029 173.625C154.693 173.625 154.353 173.592 154.007 173.527C153.671 173.462 153.354 173.35 153.055 173.191C152.766 173.032 152.523 172.818 152.327 172.547C152.131 172.276 152.005 171.94 151.949 171.539H153.153C153.247 171.791 153.396 171.996 153.601 172.155C153.816 172.304 154.054 172.412 154.315 172.477C154.586 172.542 154.843 172.575 155.085 172.575C155.235 172.575 155.407 172.566 155.603 172.547C155.799 172.528 155.986 172.486 156.163 172.421C156.35 172.346 156.499 172.239 156.611 172.099C156.733 171.959 156.793 171.763 156.793 171.511C156.793 171.324 156.751 171.17 156.667 171.049C156.583 170.928 156.467 170.83 156.317 170.755C156.168 170.671 155.986 170.61 155.771 170.573C155.333 170.48 154.861 170.391 154.357 170.307C153.863 170.223 153.424 170.064 153.041 169.831C152.911 169.747 152.789 169.654 152.677 169.551C152.575 169.439 152.486 169.318 152.411 169.187C152.337 169.047 152.276 168.898 152.229 168.739C152.192 168.571 152.173 168.389 152.173 168.193C152.173 167.829 152.243 167.516 152.383 167.255C152.533 166.984 152.738 166.765 152.999 166.597C153.261 166.42 153.559 166.289 153.895 166.205C154.241 166.121 154.609 166.079 155.001 166.079C155.487 166.079 155.921 166.158 156.303 166.317C156.695 166.466 157.017 166.69 157.269 166.989C157.521 167.278 157.671 167.638 157.717 168.067H156.611C156.546 167.796 156.369 167.577 156.079 167.409C155.79 167.232 155.421 167.143 154.973 167.143C154.824 167.143 154.656 167.157 154.469 167.185C154.283 167.204 154.105 167.25 153.937 167.325C153.769 167.39 153.629 167.493 153.517 167.633C153.405 167.764 153.349 167.941 153.349 168.165C153.349 168.37 153.401 168.543 153.503 168.683C153.615 168.823 153.769 168.935 153.965 169.019C154.161 169.103 154.385 169.173 154.637 169.229C154.964 169.294 155.323 169.364 155.715 169.439C156.107 169.504 156.415 169.574 156.639 169.649C156.938 169.742 157.185 169.873 157.381 170.041C157.587 170.209 157.736 170.41 157.829 170.643C157.932 170.876 157.983 171.147 157.983 171.455C157.983 171.894 157.895 172.253 157.717 172.533C157.549 172.813 157.321 173.032 157.031 173.191C156.742 173.35 156.42 173.462 156.065 173.527C155.72 173.592 155.375 173.625 155.029 173.625ZM163.518 173.541V163.643H170.168V164.749H164.736V168.459H169.482V169.579H164.736V173.541H163.518ZM173.561 173.625C173.225 173.625 172.898 173.583 172.581 173.499C172.273 173.406 171.993 173.27 171.741 173.093C171.498 172.906 171.302 172.678 171.153 172.407C171.013 172.127 170.943 171.805 170.943 171.441C170.943 171.021 171.018 170.666 171.167 170.377C171.326 170.088 171.536 169.859 171.797 169.691C172.058 169.523 172.362 169.402 172.707 169.327C173.052 169.252 173.412 169.215 173.785 169.215H175.955C175.955 168.795 175.894 168.431 175.773 168.123C175.661 167.815 175.474 167.577 175.213 167.409C174.952 167.232 174.606 167.143 174.177 167.143C173.916 167.143 173.673 167.171 173.449 167.227C173.225 167.283 173.034 167.372 172.875 167.493C172.716 167.614 172.6 167.778 172.525 167.983H171.251C171.316 167.647 171.442 167.362 171.629 167.129C171.825 166.886 172.058 166.69 172.329 166.541C172.609 166.382 172.908 166.266 173.225 166.191C173.542 166.116 173.86 166.079 174.177 166.079C175.241 166.079 175.997 166.392 176.445 167.017C176.893 167.642 177.117 168.487 177.117 169.551V173.541H176.123L176.053 172.603C175.848 172.883 175.6 173.098 175.311 173.247C175.022 173.396 174.723 173.494 174.415 173.541C174.116 173.597 173.832 173.625 173.561 173.625ZM173.673 172.575C174.14 172.575 174.541 172.5 174.877 172.351C175.222 172.192 175.488 171.964 175.675 171.665C175.862 171.366 175.955 171.002 175.955 170.573V170.209H174.653C174.345 170.209 174.042 170.214 173.743 170.223C173.444 170.232 173.174 170.27 172.931 170.335C172.688 170.4 172.492 170.512 172.343 170.671C172.203 170.83 172.133 171.058 172.133 171.357C172.133 171.637 172.203 171.866 172.343 172.043C172.492 172.22 172.684 172.356 172.917 172.449C173.16 172.533 173.412 172.575 173.673 172.575ZM181.648 173.625C181.312 173.625 180.972 173.592 180.626 173.527C180.29 173.462 179.973 173.35 179.674 173.191C179.385 173.032 179.142 172.818 178.946 172.547C178.75 172.276 178.624 171.94 178.568 171.539H179.772C179.866 171.791 180.015 171.996 180.22 172.155C180.435 172.304 180.673 172.412 180.934 172.477C181.205 172.542 181.462 172.575 181.704 172.575C181.854 172.575 182.026 172.566 182.222 172.547C182.418 172.528 182.605 172.486 182.782 172.421C182.969 172.346 183.118 172.239 183.23 172.099C183.352 171.959 183.412 171.763 183.412 171.511C183.412 171.324 183.37 171.17 183.286 171.049C183.202 170.928 183.086 170.83 182.936 170.755C182.787 170.671 182.605 170.61 182.39 170.573C181.952 170.48 181.48 170.391 180.976 170.307C180.482 170.223 180.043 170.064 179.66 169.831C179.53 169.747 179.408 169.654 179.296 169.551C179.194 169.439 179.105 169.318 179.03 169.187C178.956 169.047 178.895 168.898 178.848 168.739C178.811 168.571 178.792 168.389 178.792 168.193C178.792 167.829 178.862 167.516 179.002 167.255C179.152 166.984 179.357 166.765 179.618 166.597C179.88 166.42 180.178 166.289 180.514 166.205C180.86 166.121 181.228 166.079 181.62 166.079C182.106 166.079 182.54 166.158 182.922 166.317C183.314 166.466 183.636 166.69 183.888 166.989C184.14 167.278 184.29 167.638 184.336 168.067H183.23C183.165 167.796 182.988 167.577 182.698 167.409C182.409 167.232 182.04 167.143 181.592 167.143C181.443 167.143 181.275 167.157 181.088 167.185C180.902 167.204 180.724 167.25 180.556 167.325C180.388 167.39 180.248 167.493 180.136 167.633C180.024 167.764 179.968 167.941 179.968 168.165C179.968 168.37 180.02 168.543 180.122 168.683C180.234 168.823 180.388 168.935 180.584 169.019C180.78 169.103 181.004 169.173 181.256 169.229C181.583 169.294 181.942 169.364 182.334 169.439C182.726 169.504 183.034 169.574 183.258 169.649C183.557 169.742 183.804 169.873 184 170.041C184.206 170.209 184.355 170.41 184.448 170.643C184.551 170.876 184.602 171.147 184.602 171.455C184.602 171.894 184.514 172.253 184.336 172.533C184.168 172.813 183.94 173.032 183.65 173.191C183.361 173.35 183.039 173.462 182.684 173.527C182.339 173.592 181.994 173.625 181.648 173.625ZM188.856 173.625C188.081 173.625 187.535 173.415 187.218 172.995C186.91 172.575 186.756 171.978 186.756 171.203V167.213H185.552V166.163H186.756V163.951H187.946V166.163H190.214V167.213H187.946V171.049C187.946 171.329 187.969 171.586 188.016 171.819C188.062 172.043 188.16 172.225 188.31 172.365C188.459 172.496 188.683 172.566 188.982 172.575C189.196 172.575 189.383 172.538 189.542 172.463C189.71 172.388 189.85 172.3 189.962 172.197L190.48 173.065C190.321 173.196 190.153 173.303 189.976 173.387C189.808 173.471 189.63 173.532 189.444 173.569C189.266 173.606 189.07 173.625 188.856 173.625ZM195.408 173.541V166.163H196.556L196.612 167.045C196.77 166.821 196.948 166.639 197.144 166.499C197.349 166.359 197.573 166.256 197.816 166.191C198.068 166.116 198.334 166.079 198.614 166.079C199.127 166.079 199.542 166.191 199.86 166.415C200.177 166.63 200.415 166.914 200.574 167.269C200.742 167.017 200.933 166.802 201.148 166.625C201.372 166.448 201.619 166.312 201.89 166.219C202.17 166.126 202.478 166.079 202.814 166.079C203.355 166.079 203.789 166.196 204.116 166.429C204.452 166.662 204.694 166.98 204.844 167.381C204.993 167.773 205.068 168.216 205.068 168.711V173.541H203.878V169.313C203.878 169.07 203.864 168.823 203.836 168.571C203.817 168.319 203.761 168.086 203.668 167.871C203.574 167.647 203.434 167.47 203.248 167.339C203.07 167.199 202.818 167.129 202.492 167.129C202.184 167.129 201.922 167.204 201.708 167.353C201.502 167.493 201.334 167.684 201.204 167.927C201.073 168.17 200.98 168.431 200.924 168.711C200.868 168.982 200.84 169.252 200.84 169.523V173.541H199.65V169.299C199.65 169.066 199.636 168.823 199.608 168.571C199.589 168.319 199.538 168.086 199.454 167.871C199.379 167.647 199.248 167.47 199.062 167.339C198.884 167.199 198.637 167.129 198.32 167.129C197.872 167.129 197.522 167.26 197.27 167.521C197.018 167.773 196.84 168.086 196.738 168.459C196.644 168.823 196.598 169.182 196.598 169.537V173.541H195.408ZM210.098 173.625C209.324 173.625 208.675 173.466 208.152 173.149C207.63 172.822 207.238 172.374 206.976 171.805C206.724 171.236 206.598 170.587 206.598 169.859C206.598 169.122 206.729 168.473 206.99 167.913C207.252 167.344 207.644 166.896 208.166 166.569C208.689 166.242 209.342 166.079 210.126 166.079C210.901 166.079 211.545 166.242 212.058 166.569C212.581 166.896 212.968 167.344 213.22 167.913C213.482 168.473 213.612 169.122 213.612 169.859C213.612 170.587 213.482 171.236 213.22 171.805C212.959 172.374 212.567 172.822 212.044 173.149C211.531 173.466 210.882 173.625 210.098 173.625ZM210.098 172.575C210.64 172.575 211.078 172.454 211.414 172.211C211.76 171.968 212.012 171.642 212.17 171.231C212.338 170.82 212.422 170.363 212.422 169.859C212.422 169.355 212.338 168.898 212.17 168.487C212.012 168.076 211.76 167.75 211.414 167.507C211.078 167.264 210.64 167.143 210.098 167.143C209.566 167.143 209.128 167.264 208.782 167.507C208.446 167.75 208.194 168.076 208.026 168.487C207.868 168.898 207.788 169.355 207.788 169.859C207.788 170.363 207.868 170.82 208.026 171.231C208.194 171.642 208.446 171.968 208.782 172.211C209.128 172.454 209.566 172.575 210.098 172.575ZM215.205 173.541V166.163H216.353L216.409 167.283C216.577 167.012 216.791 166.788 217.053 166.611C217.314 166.434 217.599 166.303 217.907 166.219C218.224 166.126 218.532 166.079 218.831 166.079C219.549 166.079 220.109 166.228 220.511 166.527C220.921 166.826 221.211 167.232 221.379 167.745C221.556 168.249 221.645 168.823 221.645 169.467V173.541H220.455V169.789C220.455 169.444 220.431 169.112 220.385 168.795C220.347 168.478 220.263 168.193 220.133 167.941C220.011 167.689 219.834 167.493 219.601 167.353C219.367 167.204 219.055 167.129 218.663 167.129C218.177 167.129 217.762 167.264 217.417 167.535C217.081 167.806 216.824 168.17 216.647 168.627C216.479 169.084 216.395 169.598 216.395 170.167V173.541H215.205ZM226.472 173.541C225.912 173.541 225.459 173.457 225.114 173.289C224.778 173.121 224.531 172.86 224.372 172.505C224.223 172.15 224.148 171.702 224.148 171.161V167.213H222.944V166.163H224.148V163.965H225.338V166.163H227.312V167.213H225.338V171.035C225.338 171.539 225.427 171.912 225.604 172.155C225.791 172.388 226.164 172.505 226.724 172.505H227.27V173.541H226.472ZM228.658 173.541V163.643H229.848V167.297C230.025 167.036 230.24 166.816 230.492 166.639C230.753 166.452 231.038 166.312 231.346 166.219C231.654 166.126 231.971 166.079 232.298 166.079C233.016 166.079 233.576 166.228 233.978 166.527C234.388 166.826 234.678 167.232 234.846 167.745C235.014 168.249 235.098 168.828 235.098 169.481V173.541H233.908V169.845C233.908 169.518 233.884 169.196 233.838 168.879C233.8 168.552 233.721 168.258 233.6 167.997C233.478 167.736 233.292 167.526 233.04 167.367C232.797 167.208 232.466 167.129 232.046 167.129C231.644 167.129 231.299 167.218 231.01 167.395C230.73 167.572 230.506 167.81 230.338 168.109C230.17 168.398 230.044 168.72 229.96 169.075C229.885 169.42 229.848 169.761 229.848 170.097V173.541H228.658Z" fill="#373C3B"/>
<path d="M254.378 164.438L255.322 162.326L256.266 159.906L257.211 161.247L258.155 160.865L259.099 161.09L260.043 159.947L260.988 160.61L261.932 159.42L262.876 159.324L263.82 158.4L264.765 159.557L265.709 158.667L266.653 156.484L267.597 155.93L268.542 157.492L269.486 158.464L270.43 161.296L271.374 160.531L272.319 163.616L273.263 164.951L274.207 163.665L275.151 165.358L276.096 165.417L277.04 168.195L277.984 169.456L278.928 168.394L279.873 168.504L280.817 165.48L281.761 167.133L282.705 165.245L283.65 164.36L284.594 164.575L285.538 160.364L286.482 158.949L287.427 158.351L288.371 156.774L289.315 156.403L290.259 157.674L291.204 155.516L292.148 157.666L293.092 156.374L294.036 156.237L294.981 153.056L295.925 150.488L296.869 151.699L297.813 151.78L298.757 151.459L299.702 151.003L300.646 149.421L301.59 147.16L302.534 147.697L303.479 149.053L304.423 150.75L305.367 150.032L306.311 152.217L307.256 152.837L308.2 150.735L309.144 151.3L310.088 151.515L311.033 151.368L311.977 147.38L312.921 148.464L313.865 149.362L314.81 151.228L315.754 152.428L316.698 154.145L317.642 155.106L318.587 156.268L319.531 156.085L320.475 156.987L321.419 155.425L322.364 156.268L323.308 157.384L324.252 155.16L325.196 153.823L326.141 153.62L327.085 153.517L328.029 153.801L328.973 150.892L329.918 150.868L330.862 150.878L331.806 153.024L332.75 152.95L333.695 154.77L334.639 153.168L335.583 154.944L336.527 153.132L337.472 154.39L338.416 155.508L339.36 153.276L340.304 151.474L341.249 150.417L342.193 148.994L343.137 149.234L344.081 152.759L345.026 151.746L345.97 150.068L346.914 149.141L347.858 147.429L348.803 144.93" stroke="#1486FF" stroke-width="1.34779" stroke-linecap="round" stroke-linejoin="round"/>
</g>
</g>
<defs>
<filter id="filter0_dd_3528_4321" x="3" y="0" width="367" height="201" filterUnits="userSpaceOnUse" color-interpolation-filters="sRGB">
<feFlood flood-opacity="0" result="BackgroundImageFix"/>
<feColorMatrix in="SourceAlpha" type="matrix" values="0 0 0 0 0 0 0 0 0 0 0 0 0 0 0 0 0 0 127 0" result="hardAlpha"/>
<feOffset dy="1"/>
<feGaussianBlur stdDeviation="1"/>
<feColorMatrix type="matrix" values="0 0 0 0 0.0627451 0 0 0 0 0.0941176 0 0 0 0 0.156863 0 0 0 0.06 0"/>
<feBlend mode="normal" in2="BackgroundImageFix" result="effect1_dropShadow_3528_4321"/>
<feColorMatrix in="SourceAlpha" type="matrix" values="0 0 0 0 0 0 0 0 0 0 0 0 0 0 0 0 0 0 127 0" result="hardAlpha"/>
<feOffset dy="1"/>
<feGaussianBlur stdDeviation="1.5"/>
<feColorMatrix type="matrix" values="0 0 0 0 0.0627451 0 0 0 0 0.0941176 0 0 0 0 0.156863 0 0 0 0.1 0"/>
<feBlend mode="normal" in2="effect1_dropShadow_3528_4321" result="effect2_dropShadow_3528_4321"/>
<feBlend mode="normal" in="SourceGraphic" in2="effect2_dropShadow_3528_4321" result="shape"/>
</filter>
<filter id="filter1_dd_3528_4321" x="0" y="0" width="282.954" height="165.541" filterUnits="userSpaceOnUse" color-interpolation-filters="sRGB">
<feFlood flood-opacity="0" result="BackgroundImageFix"/>
<feColorMatrix in="SourceAlpha" type="matrix" values="0 0 0 0 0 0 0 0 0 0 0 0 0 0 0 0 0 0 127 0" result="hardAlpha"/>
<feMorphology radius="2" operator="erode" in="SourceAlpha" result="effect1_dropShadow_3528_4321"/>
<feOffset dy="2"/>
<feGaussianBlur stdDeviation="2"/>
<feColorMatrix type="matrix" values="0 0 0 0 0.0627451 0 0 0 0 0.0941176 0 0 0 0 0.156863 0 0 0 0.06 0"/>
<feBlend mode="normal" in2="BackgroundImageFix" result="effect1_dropShadow_3528_4321"/>
<feColorMatrix in="SourceAlpha" type="matrix" values="0 0 0 0 0 0 0 0 0 0 0 0 0 0 0 0 0 0 127 0" result="hardAlpha"/>
<feMorphology radius="2" operator="erode" in="SourceAlpha" result="effect2_dropShadow_3528_4321"/>
<feOffset dy="4"/>
<feGaussianBlur stdDeviation="4"/>
<feColorMatrix type="matrix" values="0 0 0 0 0.0627451 0 0 0 0 0.0941176 0 0 0 0 0.156863 0 0 0 0.1 0"/>
<feBlend mode="normal" in2="effect1_dropShadow_3528_4321" result="effect2_dropShadow_3528_4321"/>
<feBlend mode="normal" in="SourceGraphic" in2="effect2_dropShadow_3528_4321" result="shape"/>
</filter>
<filter id="filter2_dd_3528_4321" x="63" y="47" width="309.704" height="159.425" filterUnits="userSpaceOnUse" color-interpolation-filters="sRGB">
<feFlood flood-opacity="0" result="BackgroundImageFix"/>
<feColorMatrix in="SourceAlpha" type="matrix" values="0 0 0 0 0 0 0 0 0 0 0 0 0 0 0 0 0 0 127 0" result="hardAlpha"/>
<feMorphology radius="2" operator="erode" in="SourceAlpha" result="effect1_dropShadow_3528_4321"/>
<feOffset dy="2"/>
<feGaussianBlur stdDeviation="2"/>
<feColorMatrix type="matrix" values="0 0 0 0 0.0627451 0 0 0 0 0.0941176 0 0 0 0 0.156863 0 0 0 0.06 0"/>
<feBlend mode="normal" in2="BackgroundImageFix" result="effect1_dropShadow_3528_4321"/>
<feColorMatrix in="SourceAlpha" type="matrix" values="0 0 0 0 0 0 0 0 0 0 0 0 0 0 0 0 0 0 127 0" result="hardAlpha"/>
<feMorphology radius="2" operator="erode" in="SourceAlpha" result="effect2_dropShadow_3528_4321"/>
<feOffset dy="4"/>
<feGaussianBlur stdDeviation="4"/>
<feColorMatrix type="matrix" values="0 0 0 0 0.0627451 0 0 0 0 0.0941176 0 0 0 0 0.156863 0 0 0 0.1 0"/>
<feBlend mode="normal" in2="effect1_dropShadow_3528_4321" result="effect2_dropShadow_3528_4321"/>
<feBlend mode="normal" in="SourceGraphic" in2="effect2_dropShadow_3528_4321" result="shape"/>
</filter>
</defs>
</svg>
