<svg width="798" height="412" viewBox="0 0 798 412" fill="none" xmlns="http://www.w3.org/2000/svg">
<g filter="url(#filter0_dd_3519_3041)">
<rect x="3" y="2" width="676" height="406" rx="25" fill="white" shape-rendering="crispEdges"/>
<path d="M24.584 30V18.4544H26.0448V28.7504H31.096V30H24.584ZM33.0026 30V21.4464H34.4458V30H33.0026ZM33.7418 19.6864C33.4602 19.6864 33.2255 19.6043 33.0378 19.44C32.8618 19.264 32.7738 19.0293 32.7738 18.736C32.7738 18.4544 32.8618 18.2256 33.0378 18.0496C33.2255 17.8736 33.4602 17.7856 33.7418 17.7856C34.0234 17.7856 34.2522 17.8736 34.4282 18.0496C34.6159 18.2256 34.7098 18.4544 34.7098 18.736C34.7098 19.0293 34.6159 19.264 34.4282 19.44C34.2522 19.6043 34.0234 19.6864 33.7418 19.6864ZM40.0266 30.2112C39.1114 30.2112 38.472 29.9472 38.1082 29.4192C37.7562 28.8912 37.5802 28.2048 37.5802 27.36V22.6256H36.313V21.5344L37.6506 21.4464L37.8266 19.0528H39.041V21.4464H41.3466V22.6256H39.041V27.3776C39.041 27.9056 39.1349 28.3163 39.3226 28.6096C39.5221 28.8912 39.8682 29.032 40.361 29.032C40.5136 29.032 40.6778 29.0085 40.8538 28.9616C41.0298 28.9029 41.1882 28.8501 41.329 28.8032L41.6106 29.8944C41.376 29.9765 41.1178 30.0469 40.8362 30.1056C40.5664 30.176 40.2965 30.2112 40.0266 30.2112ZM45.6297 30.2112C44.7145 30.2112 44.0751 29.9472 43.7113 29.4192C43.3593 28.8912 43.1833 28.2048 43.1833 27.36V22.6256H41.9161V21.5344L43.2537 21.4464L43.4297 19.0528H44.6441V21.4464H46.9497V22.6256H44.6441V27.3776C44.6441 27.9056 44.738 28.3163 44.9257 28.6096C45.1252 28.8912 45.4713 29.032 45.9641 29.032C46.1167 29.032 46.2809 29.0085 46.4569 28.9616C46.633 28.9029 46.7914 28.8501 46.9322 28.8032L47.2138 29.8944C46.9791 29.9765 46.7209 30.0469 46.4394 30.1056C46.1695 30.176 45.8996 30.2112 45.6297 30.2112ZM52.1104 30.2112C51.3477 30.2112 50.6555 30.0352 50.0336 29.6832C49.4117 29.3195 48.9189 28.8032 48.5552 28.1344C48.1915 27.4656 48.0096 26.6677 48.0096 25.7408C48.0096 24.8021 48.1915 23.9984 48.5552 23.3296C48.9307 22.6608 49.4117 22.1445 49.9984 21.7808C50.5851 21.4171 51.2011 21.2352 51.8464 21.2352C52.9376 21.2352 53.7765 21.5989 54.3632 22.3264C54.9616 23.0539 55.2608 24.0277 55.2608 25.248C55.2608 25.4005 55.2549 25.5531 55.2432 25.7056C55.2432 25.8464 55.2315 25.9696 55.208 26.0752H49.4352C49.4939 26.9787 49.7755 27.7003 50.28 28.24C50.7963 28.7797 51.4651 29.0496 52.2864 29.0496C52.6971 29.0496 53.0725 28.9909 53.4128 28.8736C53.7648 28.7445 54.0992 28.5803 54.416 28.3808L54.9264 29.3312C54.5627 29.5659 54.1461 29.7712 53.6768 29.9472C53.2192 30.1232 52.6971 30.2112 52.1104 30.2112ZM49.4176 25.0368H53.9936C53.9936 24.1685 53.8059 23.5115 53.4304 23.0656C53.0667 22.608 52.5504 22.3792 51.8816 22.3792C51.2832 22.3792 50.7435 22.6139 50.2624 23.0832C49.7931 23.5408 49.5115 24.192 49.4176 25.0368ZM57.3745 30V21.4464H58.5713L58.6945 22.9952H58.7473C59.0406 22.4555 59.3985 22.0272 59.8209 21.7104C60.2433 21.3936 60.695 21.2352 61.1761 21.2352C61.5163 21.2352 61.8214 21.2939 62.0913 21.4112L61.8097 22.6784C61.6689 22.6315 61.5398 22.5963 61.4225 22.5728C61.3051 22.5493 61.1585 22.5376 60.9825 22.5376C60.6187 22.5376 60.2374 22.6843 59.8385 22.9776C59.4513 23.2709 59.111 23.7813 58.8177 24.5088V30H57.3745ZM67.1403 30V18.4544H70.7483C71.5344 18.4544 72.2325 18.56 72.8427 18.7712C73.4528 18.9707 73.928 19.3109 74.2683 19.792C74.6203 20.2613 74.7963 20.8949 74.7963 21.6928C74.7963 22.5845 74.5616 23.3061 74.0923 23.8576C73.6229 24.3973 72.9893 24.7669 72.1915 24.9664L75.1307 30H73.4763L70.6955 25.1248H68.6011V30H67.1403ZM68.6011 23.928H70.5371C71.4405 23.928 72.1328 23.7461 72.6139 23.3824C73.0949 23.0069 73.3355 22.4437 73.3355 21.6928C73.3355 20.9301 73.0949 20.3963 72.6139 20.0912C72.1328 19.7861 71.4405 19.6336 70.5371 19.6336H68.6011V23.928ZM78.9222 30.2112C78.2065 30.2112 77.6081 30 77.127 29.5776C76.6577 29.1435 76.423 28.5451 76.423 27.7824C76.423 26.8437 76.8395 26.128 77.6726 25.6352C78.5174 25.1307 79.8491 24.7787 81.6678 24.5792C81.6678 24.2155 81.615 23.8693 81.5094 23.5408C81.4155 23.2123 81.2395 22.9483 80.9814 22.7488C80.735 22.5376 80.3771 22.432 79.9078 22.432C79.415 22.432 78.9515 22.5259 78.5174 22.7136C78.0833 22.9013 77.6961 23.1125 77.3558 23.3472L76.7926 22.344C77.1915 22.0859 77.6785 21.8395 78.2534 21.6048C78.8401 21.3584 79.4737 21.2352 80.1542 21.2352C81.1985 21.2352 81.9553 21.5579 82.4246 22.2032C82.8939 22.8368 83.1286 23.6875 83.1286 24.7552V30H81.9318L81.8086 28.9792H81.7558C81.3569 29.3077 80.9169 29.5952 80.4358 29.8416C79.9665 30.088 79.4619 30.2112 78.9222 30.2112ZM79.3446 29.0496C79.7553 29.0496 80.1425 28.9499 80.5062 28.7504C80.8699 28.5509 81.2571 28.2693 81.6678 27.9056V25.5296C80.2481 25.7056 79.2507 25.9696 78.6758 26.3216C78.1126 26.6736 77.831 27.1253 77.831 27.6768C77.831 28.1579 77.9777 28.5099 78.271 28.7328C78.5643 28.944 78.9222 29.0496 79.3446 29.0496ZM88.2719 30.2112C87.3567 30.2112 86.7173 29.9472 86.3535 29.4192C86.0015 28.8912 85.8255 28.2048 85.8255 27.36V22.6256H84.5583V21.5344L85.8959 21.4464L86.0719 19.0528H87.2863V21.4464H89.5919V22.6256H87.2863V27.3776C87.2863 27.9056 87.3802 28.3163 87.5679 28.6096C87.7674 28.8912 88.1135 29.032 88.6063 29.032C88.7589 29.032 88.9231 29.0085 89.0991 28.9616C89.2751 28.9029 89.4335 28.8501 89.5743 28.8032L89.8559 29.8944C89.6213 29.9765 89.3631 30.0469 89.0815 30.1056C88.8117 30.176 88.5418 30.2112 88.2719 30.2112ZM94.7526 30.2112C93.9899 30.2112 93.2977 30.0352 92.6758 29.6832C92.0539 29.3195 91.5611 28.8032 91.1974 28.1344C90.8337 27.4656 90.6518 26.6677 90.6518 25.7408C90.6518 24.8021 90.8337 23.9984 91.1974 23.3296C91.5729 22.6608 92.0539 22.1445 92.6406 21.7808C93.2273 21.4171 93.8433 21.2352 94.4886 21.2352C95.5798 21.2352 96.4187 21.5989 97.0054 22.3264C97.6038 23.0539 97.903 24.0277 97.903 25.248C97.903 25.4005 97.8971 25.5531 97.8854 25.7056C97.8854 25.8464 97.8737 25.9696 97.8502 26.0752H92.0774C92.1361 26.9787 92.4177 27.7003 92.9222 28.24C93.4385 28.7797 94.1073 29.0496 94.9286 29.0496C95.3393 29.0496 95.7147 28.9909 96.055 28.8736C96.407 28.7445 96.7414 28.5803 97.0582 28.3808L97.5686 29.3312C97.2049 29.5659 96.7883 29.7712 96.319 29.9472C95.8614 30.1232 95.3393 30.2112 94.7526 30.2112ZM92.0598 25.0368H96.6358C96.6358 24.1685 96.4481 23.5115 96.0726 23.0656C95.7089 22.608 95.1926 22.3792 94.5238 22.3792C93.9254 22.3792 93.3857 22.6139 92.9046 23.0832C92.4353 23.5408 92.1537 24.192 92.0598 25.0368Z" fill="#212529"/>
<path d="M538.36 29L535 18.504H536.424L538.104 24.168C538.296 24.7867 538.461 25.368 538.6 25.912C538.749 26.4453 538.925 27.0213 539.128 27.64H539.192C539.384 27.0213 539.555 26.4453 539.704 25.912C539.853 25.368 540.019 24.7867 540.2 24.168L541.88 18.504H543.24L539.912 29H538.36ZM544.546 29V21.224H545.858V29H544.546ZM545.218 19.624C544.962 19.624 544.749 19.5493 544.578 19.4C544.418 19.24 544.338 19.0267 544.338 18.76C544.338 18.504 544.418 18.296 544.578 18.136C544.749 17.976 544.962 17.896 545.218 17.896C545.474 17.896 545.682 17.976 545.842 18.136C546.013 18.296 546.098 18.504 546.098 18.76C546.098 19.0267 546.013 19.24 545.842 19.4C545.682 19.5493 545.474 19.624 545.218 19.624ZM551.636 29.192C550.943 29.192 550.313 29.032 549.748 28.712C549.183 28.3813 548.735 27.912 548.404 27.304C548.073 26.696 547.908 25.9707 547.908 25.128C547.908 24.2747 548.073 23.544 548.404 22.936C548.745 22.328 549.183 21.8587 549.716 21.528C550.249 21.1973 550.809 21.032 551.396 21.032C552.388 21.032 553.151 21.3627 553.684 22.024C554.228 22.6853 554.5 23.5707 554.5 24.68C554.5 24.8187 554.495 24.9573 554.484 25.096C554.484 25.224 554.473 25.336 554.452 25.432H549.204C549.257 26.2533 549.513 26.9093 549.972 27.4C550.441 27.8907 551.049 28.136 551.796 28.136C552.169 28.136 552.511 28.0827 552.82 27.976C553.14 27.8587 553.444 27.7093 553.732 27.528L554.196 28.392C553.865 28.6053 553.487 28.792 553.06 28.952C552.644 29.112 552.169 29.192 551.636 29.192ZM549.188 24.488H553.348C553.348 23.6987 553.177 23.1013 552.836 22.696C552.505 22.28 552.036 22.072 551.428 22.072C550.884 22.072 550.393 22.2853 549.956 22.712C549.529 23.128 549.273 23.72 549.188 24.488ZM557.732 29L555.572 21.224H556.916L558.068 25.72C558.153 26.0827 558.233 26.4453 558.308 26.808C558.382 27.16 558.457 27.5173 558.532 27.88H558.596C558.681 27.5173 558.766 27.16 558.852 26.808C558.937 26.4453 559.028 26.0827 559.124 25.72L560.324 21.224H561.604L562.82 25.72C562.916 26.0827 563.006 26.4453 563.092 26.808C563.188 27.16 563.278 27.5173 563.364 27.88H563.428C563.513 27.5173 563.593 27.16 563.668 26.808C563.753 26.4453 563.833 26.0827 563.908 25.72L565.044 21.224H566.292L564.212 29H562.612L561.492 24.824C561.396 24.4507 561.305 24.0827 561.22 23.72C561.145 23.3573 561.06 22.9787 560.964 22.584H560.9C560.814 22.9787 560.729 23.3627 560.644 23.736C560.558 24.0987 560.462 24.4667 560.356 24.84L559.268 29H557.732ZM571.315 29V18.504H574.595C575.31 18.504 575.944 18.6 576.499 18.792C577.054 18.9733 577.486 19.2827 577.795 19.72C578.115 20.1467 578.275 20.7227 578.275 21.448C578.275 22.2587 578.062 22.9147 577.635 23.416C577.208 23.9067 576.632 24.2427 575.907 24.424L578.579 29H577.075L574.547 24.568H572.643V29H571.315ZM572.643 23.48H574.403C575.224 23.48 575.854 23.3147 576.291 22.984C576.728 22.6427 576.947 22.1307 576.947 21.448C576.947 20.7547 576.728 20.2693 576.291 19.992C575.854 19.7147 575.224 19.576 574.403 19.576H572.643V23.48ZM583.292 29.192C582.599 29.192 581.969 29.032 581.404 28.712C580.839 28.3813 580.391 27.912 580.06 27.304C579.729 26.696 579.564 25.9707 579.564 25.128C579.564 24.2747 579.729 23.544 580.06 22.936C580.401 22.328 580.839 21.8587 581.372 21.528C581.905 21.1973 582.465 21.032 583.052 21.032C584.044 21.032 584.807 21.3627 585.34 22.024C585.884 22.6853 586.156 23.5707 586.156 24.68C586.156 24.8187 586.151 24.9573 586.14 25.096C586.14 25.224 586.129 25.336 586.108 25.432H580.86C580.913 26.2533 581.169 26.9093 581.628 27.4C582.097 27.8907 582.705 28.136 583.452 28.136C583.825 28.136 584.167 28.0827 584.476 27.976C584.796 27.8587 585.1 27.7093 585.388 27.528L585.852 28.392C585.521 28.6053 585.143 28.792 584.716 28.952C584.3 29.112 583.825 29.192 583.292 29.192ZM580.844 24.488H585.004C585.004 23.6987 584.833 23.1013 584.492 22.696C584.161 22.28 583.692 22.072 583.084 22.072C582.54 22.072 582.049 22.2853 581.612 22.712C581.185 23.128 580.929 23.72 580.844 24.488ZM588.078 32.28V21.224H589.166L589.278 22.12H589.326C589.678 21.8213 590.062 21.5653 590.478 21.352C590.904 21.1387 591.347 21.032 591.806 21.032C592.808 21.032 593.571 21.3947 594.094 22.12C594.616 22.8347 594.878 23.7947 594.878 25C594.878 25.8747 594.718 26.6267 594.398 27.256C594.088 27.8853 593.678 28.3653 593.166 28.696C592.664 29.0267 592.115 29.192 591.518 29.192C591.155 29.192 590.792 29.112 590.43 28.952C590.078 28.792 589.72 28.5733 589.358 28.296L589.39 29.656V32.28H588.078ZM591.294 28.088C591.934 28.088 592.462 27.816 592.878 27.272C593.304 26.7173 593.518 25.96 593.518 25C593.518 24.1467 593.358 23.4587 593.038 22.936C592.728 22.4027 592.206 22.136 591.47 22.136C591.139 22.136 590.803 22.2267 590.462 22.408C590.131 22.5893 589.774 22.8507 589.39 23.192V27.272C589.742 27.5707 590.083 27.784 590.414 27.912C590.744 28.0293 591.038 28.088 591.294 28.088ZM599.977 29.192C599.347 29.192 598.755 29.032 598.201 28.712C597.657 28.392 597.214 27.928 596.873 27.32C596.542 26.712 596.377 25.9813 596.377 25.128C596.377 24.2533 596.542 23.512 596.873 22.904C597.214 22.296 597.657 21.832 598.201 21.512C598.755 21.192 599.347 21.032 599.977 21.032C600.617 21.032 601.209 21.192 601.753 21.512C602.297 21.832 602.734 22.296 603.065 22.904C603.406 23.512 603.577 24.2533 603.577 25.128C603.577 25.9813 603.406 26.712 603.065 27.32C602.734 27.928 602.297 28.392 601.753 28.712C601.209 29.032 600.617 29.192 599.977 29.192ZM599.977 28.104C600.649 28.104 601.187 27.832 601.593 27.288C602.009 26.7333 602.217 26.0133 602.217 25.128C602.217 24.232 602.009 23.5067 601.593 22.952C601.187 22.3973 600.649 22.12 599.977 22.12C599.315 22.12 598.777 22.3973 598.361 22.952C597.945 23.5067 597.737 24.232 597.737 25.128C597.737 26.0133 597.945 26.7333 598.361 27.288C598.777 27.832 599.315 28.104 599.977 28.104ZM605.625 29V21.224H606.713L606.825 22.632H606.873C607.139 22.1413 607.465 21.752 607.849 21.464C608.233 21.176 608.643 21.032 609.081 21.032C609.39 21.032 609.667 21.0853 609.913 21.192L609.657 22.344C609.529 22.3013 609.411 22.2693 609.305 22.248C609.198 22.2267 609.065 22.216 608.905 22.216C608.574 22.216 608.227 22.3493 607.865 22.616C607.513 22.8827 607.203 23.3467 606.937 24.008V29H605.625ZM613.619 29.192C612.787 29.192 612.206 28.952 611.875 28.472C611.555 27.992 611.395 27.368 611.395 26.6V22.296H610.243V21.304L611.459 21.224L611.619 19.048H612.723V21.224H614.819V22.296H612.723V26.616C612.723 27.096 612.809 27.4693 612.979 27.736C613.161 27.992 613.475 28.12 613.923 28.12C614.062 28.12 614.211 28.0987 614.371 28.056C614.531 28.0027 614.675 27.9547 614.803 27.912L615.059 28.904C614.846 28.9787 614.611 29.0427 614.355 29.096C614.11 29.16 613.865 29.192 613.619 29.192Z" fill="#007BFF"/>
<path d="M28.76 92.24C27.92 92.24 27.1667 92.0933 26.5 91.8C25.8333 91.5067 25.3067 91.1 24.92 90.58C24.5333 90.0467 24.34 89.44 24.34 88.76C24.34 87.9867 24.5467 87.3533 24.96 86.86C25.3867 86.3667 25.9 85.96 26.5 85.64V85.56C26.0067 85.1867 25.6 84.76 25.28 84.28C24.96 83.8 24.8 83.2267 24.8 82.56C24.8 81.84 24.9733 81.22 25.32 80.7C25.6667 80.1667 26.1467 79.76 26.76 79.48C27.3733 79.2 28.0733 79.06 28.86 79.06C30.02 79.06 30.9533 79.38 31.66 80.02C32.3667 80.6467 32.72 81.4867 32.72 82.54C32.72 83.1533 32.5533 83.7 32.22 84.18C31.8867 84.6467 31.5 85.0267 31.06 85.32V85.4C31.6733 85.7333 32.1933 86.16 32.62 86.68C33.0467 87.2 33.26 87.88 33.26 88.72C33.26 89.3867 33.0733 89.9867 32.7 90.52C32.3267 91.0533 31.8 91.4733 31.12 91.78C30.4533 92.0867 29.6667 92.24 28.76 92.24ZM29.56 84.6C30.08 84 30.34 83.38 30.34 82.74C30.34 82.2467 30.2 81.8533 29.92 81.56C29.6533 81.2533 29.28 81.1 28.8 81.1C28.4133 81.1 28.08 81.22 27.8 81.46C27.52 81.7 27.38 82.0667 27.38 82.56C27.38 83.08 27.58 83.4867 27.98 83.78C28.38 84.0733 28.9067 84.3467 29.56 84.6ZM28.82 90.2C29.3133 90.2 29.72 90.0733 30.04 89.82C30.36 89.5533 30.52 89.1533 30.52 88.62C30.52 88.2467 30.4067 87.94 30.18 87.7C29.9533 87.4467 29.64 87.2267 29.24 87.04C28.84 86.84 28.3733 86.6267 27.84 86.4C27.56 86.6533 27.3267 86.96 27.14 87.32C26.9533 87.6667 26.86 88.0333 26.86 88.42C26.86 88.98 27.0533 89.42 27.44 89.74C27.8267 90.0467 28.2867 90.2 28.82 90.2ZM34.8064 92V90.32C35.8864 89.2933 36.8397 88.3667 37.6664 87.54C38.5064 86.7 39.1597 85.9333 39.6264 85.24C40.0931 84.5333 40.3264 83.88 40.3264 83.28C40.3264 82.6533 40.1597 82.18 39.8264 81.86C39.5064 81.5267 39.0731 81.36 38.5264 81.36C38.0731 81.36 37.6597 81.4933 37.2864 81.76C36.9264 82.0133 36.5864 82.3133 36.2664 82.66L34.6664 81.08C35.2931 80.4133 35.9331 79.9133 36.5864 79.58C37.2397 79.2333 38.0197 79.06 38.9264 79.06C39.7664 79.06 40.4997 79.2267 41.1264 79.56C41.7531 79.8933 42.2397 80.3667 42.5864 80.98C42.9464 81.58 43.1264 82.2867 43.1264 83.1C43.1264 83.8067 42.9264 84.5333 42.5264 85.28C42.1397 86.0133 41.6397 86.7533 41.0264 87.5C40.4131 88.2333 39.7597 88.96 39.0664 89.68C39.3864 89.64 39.7464 89.6067 40.1464 89.58C40.5464 89.54 40.8931 89.52 41.1864 89.52H43.7464V92H34.8064ZM49.9128 92.24C48.5528 92.24 47.4528 91.6733 46.6128 90.54C45.7861 89.4067 45.3728 87.76 45.3728 85.6C45.3728 83.44 45.7861 81.8133 46.6128 80.72C47.4528 79.6133 48.5528 79.06 49.9128 79.06C51.2728 79.06 52.3661 79.6133 53.1928 80.72C54.0328 81.8133 54.4528 83.44 54.4528 85.6C54.4528 87.76 54.0328 89.4067 53.1928 90.54C52.3661 91.6733 51.2728 92.24 49.9128 92.24ZM49.9128 89.96C50.2461 89.96 50.5461 89.84 50.8128 89.6C51.0795 89.3467 51.2861 88.9067 51.4328 88.28C51.5928 87.6533 51.6728 86.76 51.6728 85.6C51.6728 84.44 51.5928 83.5533 51.4328 82.94C51.2861 82.3267 51.0795 81.9067 50.8128 81.68C50.5461 81.4533 50.2461 81.34 49.9128 81.34C49.5928 81.34 49.2995 81.4533 49.0328 81.68C48.7661 81.9067 48.5528 82.3267 48.3928 82.94C48.2328 83.5533 48.1528 84.44 48.1528 85.6C48.1528 86.76 48.2328 87.6533 48.3928 88.28C48.5528 88.9067 48.7661 89.3467 49.0328 89.6C49.2995 89.84 49.5928 89.96 49.9128 89.96Z" fill="#212529"/>
<path d="M26.86 118L23.5 107.504H24.924L26.604 113.168C26.796 113.787 26.9613 114.368 27.1 114.912C27.2493 115.445 27.4253 116.021 27.628 116.64H27.692C27.884 116.021 28.0547 115.445 28.204 114.912C28.3533 114.368 28.5187 113.787 28.7 113.168L30.38 107.504H31.74L28.412 118H26.86ZM33.0464 118V110.224H34.3584V118H33.0464ZM33.7184 108.624C33.4624 108.624 33.249 108.549 33.0784 108.4C32.9184 108.24 32.8384 108.027 32.8384 107.76C32.8384 107.504 32.9184 107.296 33.0784 107.136C33.249 106.976 33.4624 106.896 33.7184 106.896C33.9744 106.896 34.1824 106.976 34.3424 107.136C34.513 107.296 34.5984 107.504 34.5984 107.76C34.5984 108.027 34.513 108.24 34.3424 108.4C34.1824 108.549 33.9744 108.624 33.7184 108.624ZM39.0159 118.192C38.4612 118.192 37.9332 118.091 37.4319 117.888C36.9305 117.675 36.4932 117.419 36.1199 117.12L36.7759 116.24C37.1172 116.507 37.4692 116.731 37.8319 116.912C38.1945 117.083 38.6052 117.168 39.0639 117.168C39.5759 117.168 39.9599 117.051 40.2159 116.816C40.4719 116.571 40.5999 116.283 40.5999 115.952C40.5999 115.685 40.5092 115.461 40.3279 115.28C40.1572 115.099 39.9332 114.949 39.6559 114.832C39.3892 114.704 39.1119 114.587 38.8239 114.48C38.4612 114.341 38.1039 114.187 37.7519 114.016C37.3999 113.835 37.1119 113.605 36.8879 113.328C36.6639 113.04 36.5519 112.677 36.5519 112.24C36.5519 111.611 36.7865 111.088 37.2559 110.672C37.7359 110.245 38.3972 110.032 39.2399 110.032C39.7199 110.032 40.1679 110.117 40.5839 110.288C40.9999 110.459 41.3572 110.667 41.6559 110.912L41.0159 111.744C40.7492 111.541 40.4719 111.376 40.1839 111.248C39.8959 111.12 39.5812 111.056 39.2399 111.056C38.7492 111.056 38.3865 111.168 38.1519 111.392C37.9279 111.616 37.8159 111.877 37.8159 112.176C37.8159 112.421 37.8959 112.624 38.0559 112.784C38.2159 112.933 38.4239 113.067 38.6799 113.184C38.9359 113.291 39.2079 113.403 39.4959 113.52C39.8692 113.659 40.2372 113.819 40.5999 114C40.9625 114.171 41.2612 114.405 41.4959 114.704C41.7412 114.992 41.8639 115.381 41.8639 115.872C41.8639 116.288 41.7519 116.672 41.5279 117.024C41.3145 117.376 40.9945 117.659 40.5679 117.872C40.1519 118.085 39.6345 118.192 39.0159 118.192ZM43.687 118V110.224H44.999V118H43.687ZM44.359 108.624C44.103 108.624 43.8897 108.549 43.719 108.4C43.559 108.24 43.479 108.027 43.479 107.76C43.479 107.504 43.559 107.296 43.719 107.136C43.8897 106.976 44.103 106.896 44.359 106.896C44.615 106.896 44.823 106.976 44.983 107.136C45.1537 107.296 45.239 107.504 45.239 107.76C45.239 108.027 45.1537 108.24 44.983 108.4C44.823 108.549 44.615 108.624 44.359 108.624ZM50.0725 118.192C49.2405 118.192 48.6592 117.952 48.3285 117.472C48.0085 116.992 47.8485 116.368 47.8485 115.6V111.296H46.6965V110.304L47.9125 110.224L48.0725 108.048H49.1765V110.224H51.2725V111.296H49.1765V115.616C49.1765 116.096 49.2618 116.469 49.4325 116.736C49.6138 116.992 49.9285 117.12 50.3765 117.12C50.5152 117.12 50.6645 117.099 50.8245 117.056C50.9845 117.003 51.1285 116.955 51.2565 116.912L51.5125 117.904C51.2992 117.979 51.0645 118.043 50.8085 118.096C50.5632 118.16 50.3178 118.192 50.0725 118.192ZM55.836 118.192C55.2067 118.192 54.6147 118.032 54.06 117.712C53.516 117.392 53.0733 116.928 52.732 116.32C52.4013 115.712 52.236 114.981 52.236 114.128C52.236 113.253 52.4013 112.512 52.732 111.904C53.0733 111.296 53.516 110.832 54.06 110.512C54.6147 110.192 55.2067 110.032 55.836 110.032C56.476 110.032 57.068 110.192 57.612 110.512C58.156 110.832 58.5933 111.296 58.924 111.904C59.2653 112.512 59.436 113.253 59.436 114.128C59.436 114.981 59.2653 115.712 58.924 116.32C58.5933 116.928 58.156 117.392 57.612 117.712C57.068 118.032 56.476 118.192 55.836 118.192ZM55.836 117.104C56.508 117.104 57.0467 116.832 57.452 116.288C57.868 115.733 58.076 115.013 58.076 114.128C58.076 113.232 57.868 112.507 57.452 111.952C57.0467 111.397 56.508 111.12 55.836 111.12C55.1747 111.12 54.636 111.397 54.22 111.952C53.804 112.507 53.596 113.232 53.596 114.128C53.596 115.013 53.804 115.733 54.22 116.288C54.636 116.832 55.1747 117.104 55.836 117.104ZM61.4839 118V110.224H62.5719L62.6839 111.632H62.7319C62.9985 111.141 63.3239 110.752 63.7079 110.464C64.0919 110.176 64.5025 110.032 64.9399 110.032C65.2492 110.032 65.5265 110.085 65.7719 110.192L65.5159 111.344C65.3879 111.301 65.2705 111.269 65.1639 111.248C65.0572 111.227 64.9239 111.216 64.7639 111.216C64.4332 111.216 64.0865 111.349 63.7239 111.616C63.3719 111.883 63.0625 112.347 62.7959 113.008V118H61.4839ZM69.0003 118.192C68.4456 118.192 67.9176 118.091 67.4163 117.888C66.9149 117.675 66.4776 117.419 66.1043 117.12L66.7603 116.24C67.1016 116.507 67.4536 116.731 67.8163 116.912C68.1789 117.083 68.5896 117.168 69.0483 117.168C69.5603 117.168 69.9443 117.051 70.2003 116.816C70.4563 116.571 70.5843 116.283 70.5843 115.952C70.5843 115.685 70.4936 115.461 70.3123 115.28C70.1416 115.099 69.9176 114.949 69.6403 114.832C69.3736 114.704 69.0963 114.587 68.8083 114.48C68.4456 114.341 68.0883 114.187 67.7363 114.016C67.3843 113.835 67.0963 113.605 66.8723 113.328C66.6483 113.04 66.5363 112.677 66.5363 112.24C66.5363 111.611 66.7709 111.088 67.2403 110.672C67.7203 110.245 68.3816 110.032 69.2243 110.032C69.7043 110.032 70.1523 110.117 70.5683 110.288C70.9843 110.459 71.3416 110.667 71.6403 110.912L71.0003 111.744C70.7336 111.541 70.4563 111.376 70.1683 111.248C69.8803 111.12 69.5656 111.056 69.2243 111.056C68.7336 111.056 68.3709 111.168 68.1363 111.392C67.9123 111.616 67.8003 111.877 67.8003 112.176C67.8003 112.421 67.8803 112.624 68.0403 112.784C68.2003 112.933 68.4083 113.067 68.6643 113.184C68.9203 113.291 69.1923 113.403 69.4803 113.52C69.8536 113.659 70.2216 113.819 70.5843 114C70.9469 114.171 71.2456 114.405 71.4803 114.704C71.7256 114.992 71.8483 115.381 71.8483 115.872C71.8483 116.288 71.7363 116.672 71.5123 117.024C71.2989 117.376 70.9789 117.659 70.5523 117.872C70.1363 118.085 69.6189 118.192 69.0003 118.192ZM80.8745 118.192C79.9998 118.192 79.2212 117.968 78.5385 117.52C77.8665 117.072 77.3385 116.437 76.9545 115.616C76.5812 114.795 76.3945 113.824 76.3945 112.704C76.3945 111.584 76.5812 110.624 76.9545 109.824C77.3385 109.013 77.8665 108.395 78.5385 107.968C79.2212 107.531 79.9998 107.312 80.8745 107.312C81.7598 107.312 82.5385 107.531 83.2105 107.968C83.8825 108.395 84.4105 109.013 84.7945 109.824C85.1785 110.624 85.3705 111.584 85.3705 112.704C85.3705 113.824 85.1785 114.795 84.7945 115.616C84.4105 116.437 83.8825 117.072 83.2105 117.52C82.5385 117.968 81.7598 118.192 80.8745 118.192ZM80.8745 117.024C81.5038 117.024 82.0478 116.848 82.5065 116.496C82.9758 116.133 83.3385 115.632 83.5945 114.992C83.8505 114.341 83.9785 113.579 83.9785 112.704C83.9785 111.403 83.6958 110.373 83.1305 109.616C82.5652 108.859 81.8132 108.48 80.8745 108.48C79.9358 108.48 79.1838 108.859 78.6185 109.616C78.0532 110.373 77.7705 111.403 77.7705 112.704C77.7705 113.579 77.8985 114.341 78.1545 114.992C78.4105 115.632 78.7732 116.133 79.2425 116.496C79.7118 116.848 80.2558 117.024 80.8745 117.024ZM89.1795 118L86.3795 110.224H87.7395L89.2115 114.64C89.3288 115.024 89.4462 115.408 89.5635 115.792C89.6915 116.176 89.8142 116.555 89.9315 116.928H89.9955C90.1128 116.555 90.2302 116.176 90.3475 115.792C90.4755 115.408 90.5928 115.024 90.6995 114.64L92.1715 110.224H93.4675L90.7155 118H89.1795ZM98.0578 118.192C97.3644 118.192 96.7351 118.032 96.1698 117.712C95.6044 117.381 95.1564 116.912 94.8258 116.304C94.4951 115.696 94.3298 114.971 94.3298 114.128C94.3298 113.275 94.4951 112.544 94.8258 111.936C95.1671 111.328 95.6044 110.859 96.1378 110.528C96.6711 110.197 97.2311 110.032 97.8177 110.032C98.8098 110.032 99.5724 110.363 100.106 111.024C100.65 111.685 100.922 112.571 100.922 113.68C100.922 113.819 100.916 113.957 100.906 114.096C100.906 114.224 100.895 114.336 100.874 114.432H95.6258C95.6791 115.253 95.9351 115.909 96.3938 116.4C96.8631 116.891 97.4711 117.136 98.2178 117.136C98.5911 117.136 98.9324 117.083 99.2418 116.976C99.5618 116.859 99.8658 116.709 100.154 116.528L100.618 117.392C100.287 117.605 99.9084 117.792 99.4818 117.952C99.0658 118.112 98.5911 118.192 98.0578 118.192ZM95.6098 113.488H99.7698C99.7698 112.699 99.5991 112.101 99.2578 111.696C98.9271 111.28 98.4578 111.072 97.8498 111.072C97.3058 111.072 96.8151 111.285 96.3778 111.712C95.9511 112.128 95.6951 112.72 95.6098 113.488ZM102.843 118V110.224H103.931L104.043 111.632H104.091C104.358 111.141 104.683 110.752 105.067 110.464C105.451 110.176 105.862 110.032 106.299 110.032C106.609 110.032 106.886 110.085 107.131 110.192L106.875 111.344C106.747 111.301 106.63 111.269 106.523 111.248C106.417 111.227 106.283 111.216 106.123 111.216C105.793 111.216 105.446 111.349 105.083 111.616C104.731 111.883 104.422 112.347 104.155 113.008V118H102.843ZM113.897 118V108.624H110.729V107.504H118.409V108.624H115.241V118H113.897ZM120.171 118V110.224H121.483V118H120.171ZM120.843 108.624C120.587 108.624 120.374 108.549 120.203 108.4C120.043 108.24 119.963 108.027 119.963 107.76C119.963 107.504 120.043 107.296 120.203 107.136C120.374 106.976 120.587 106.896 120.843 106.896C121.099 106.896 121.307 106.976 121.467 107.136C121.638 107.296 121.723 107.504 121.723 107.76C121.723 108.027 121.638 108.24 121.467 108.4C121.307 108.549 121.099 108.624 120.843 108.624ZM124.109 118V110.224H125.197L125.309 111.344H125.357C125.698 110.971 126.072 110.661 126.477 110.416C126.882 110.16 127.314 110.032 127.773 110.032C128.37 110.032 128.834 110.165 129.165 110.432C129.506 110.688 129.757 111.051 129.917 111.52C130.322 111.083 130.733 110.725 131.149 110.448C131.565 110.171 132.008 110.032 132.477 110.032C133.277 110.032 133.869 110.293 134.253 110.816C134.648 111.328 134.845 112.08 134.845 113.072V118H133.533V113.248C133.533 112.523 133.416 111.995 133.181 111.664C132.946 111.333 132.584 111.168 132.093 111.168C131.517 111.168 130.866 111.568 130.141 112.368V118H128.829V113.248C128.829 112.523 128.712 111.995 128.477 111.664C128.242 111.333 127.874 111.168 127.373 111.168C126.797 111.168 126.146 111.568 125.421 112.368V118H124.109ZM140.527 118.192C139.833 118.192 139.204 118.032 138.639 117.712C138.073 117.381 137.625 116.912 137.295 116.304C136.964 115.696 136.799 114.971 136.799 114.128C136.799 113.275 136.964 112.544 137.295 111.936C137.636 111.328 138.073 110.859 138.607 110.528C139.14 110.197 139.7 110.032 140.286 110.032C141.279 110.032 142.041 110.363 142.575 111.024C143.119 111.685 143.391 112.571 143.391 113.68C143.391 113.819 143.385 113.957 143.375 114.096C143.375 114.224 143.364 114.336 143.343 114.432H138.095C138.148 115.253 138.404 115.909 138.863 116.4C139.332 116.891 139.94 117.136 140.687 117.136C141.06 117.136 141.401 117.083 141.711 116.976C142.031 116.859 142.335 116.709 142.623 116.528L143.087 117.392C142.756 117.605 142.377 117.792 141.951 117.952C141.535 118.112 141.06 118.192 140.527 118.192ZM138.079 113.488H142.239C142.239 112.699 142.068 112.101 141.727 111.696C141.396 111.28 140.927 111.072 140.319 111.072C139.775 111.072 139.284 111.285 138.847 111.712C138.42 112.128 138.164 112.72 138.079 113.488Z" fill="#212529"/>
<path d="M415.695 83.0625L415.007 82.375C414.726 82.0625 414.726 81.5938 415.007 81.3125L421.101 75.2188C421.382 74.9375 421.851 74.9375 422.132 75.2188L428.226 81.3125C428.507 81.5938 428.507 82.0625 428.226 82.375L427.538 83.0625C427.226 83.3438 426.757 83.3438 426.445 83.0312L422.882 79.2812V88.25C422.882 88.6875 422.538 89 422.132 89H421.132C420.695 89 420.382 88.6875 420.382 88.25V79.2812L416.788 83.0625C416.476 83.3438 416.007 83.375 415.695 83.0625Z" fill="#28A745"/>
<path d="M432.932 88V86.912H435.268V79.392H433.412V78.544C433.882 78.4587 434.287 78.3573 434.628 78.24C434.98 78.112 435.295 77.9627 435.572 77.792H436.58V86.912H438.692V88H432.932ZM440.261 88V87.216C441.285 86.192 442.155 85.296 442.869 84.528C443.584 83.7493 444.128 83.0507 444.501 82.432C444.875 81.8027 445.061 81.216 445.061 80.672C445.061 80.0853 444.901 79.6053 444.581 79.232C444.261 78.8587 443.776 78.672 443.125 78.672C442.699 78.672 442.304 78.7947 441.941 79.04C441.579 79.2747 441.248 79.5627 440.949 79.904L440.197 79.152C440.624 78.6827 441.077 78.3093 441.557 78.032C442.048 77.744 442.624 77.6 443.285 77.6C444.235 77.6 444.981 77.8773 445.525 78.432C446.069 78.976 446.341 79.7013 446.341 80.608C446.341 81.248 446.16 81.8987 445.797 82.56C445.445 83.2107 444.955 83.8987 444.325 84.624C443.707 85.3387 442.992 86.1173 442.181 86.96C442.459 86.9387 442.747 86.9173 443.045 86.896C443.344 86.8747 443.627 86.864 443.893 86.864H446.853V88H440.261ZM449.575 88.192C449.308 88.192 449.079 88.1013 448.887 87.92C448.705 87.728 448.615 87.488 448.615 87.2C448.615 86.8907 448.705 86.6453 448.887 86.464C449.079 86.272 449.308 86.176 449.575 86.176C449.831 86.176 450.049 86.272 450.231 86.464C450.423 86.6453 450.519 86.8907 450.519 87.2C450.519 87.488 450.423 87.728 450.231 87.92C450.049 88.1013 449.831 88.192 449.575 88.192ZM455.303 88.192C454.492 88.192 453.82 88.048 453.287 87.76C452.754 87.472 452.311 87.152 451.959 86.8L452.599 85.936C452.908 86.2347 453.266 86.5067 453.671 86.752C454.076 86.9867 454.578 87.104 455.175 87.104C455.804 87.104 456.332 86.896 456.759 86.48C457.196 86.0533 457.415 85.4827 457.415 84.768C457.415 84.064 457.218 83.5147 456.823 83.12C456.428 82.7253 455.9 82.528 455.239 82.528C454.887 82.528 454.583 82.5813 454.327 82.688C454.082 82.7947 453.804 82.9493 453.495 83.152L452.791 82.704L453.127 77.792H458.231V78.928H454.279L454.007 81.952C454.252 81.824 454.498 81.7227 454.743 81.648C454.988 81.5733 455.266 81.536 455.575 81.536C456.162 81.536 456.69 81.6533 457.159 81.888C457.639 82.112 458.023 82.4587 458.311 82.928C458.599 83.3973 458.743 84 458.743 84.736C458.743 85.472 458.578 86.1013 458.247 86.624C457.927 87.136 457.506 87.5253 456.983 87.792C456.46 88.0587 455.9 88.192 455.303 88.192ZM462.456 83.936C461.741 83.936 461.165 83.648 460.728 83.072C460.291 82.496 460.072 81.6747 460.072 80.608C460.072 79.5627 460.291 78.752 460.728 78.176C461.165 77.6 461.741 77.312 462.456 77.312C463.171 77.312 463.747 77.6 464.184 78.176C464.621 78.752 464.84 79.5627 464.84 80.608C464.84 81.6747 464.621 82.496 464.184 83.072C463.747 83.648 463.171 83.936 462.456 83.936ZM462.456 83.12C462.861 83.12 463.192 82.912 463.448 82.496C463.704 82.0693 463.832 81.44 463.832 80.608C463.832 79.776 463.704 79.1573 463.448 78.752C463.192 78.336 462.861 78.128 462.456 78.128C462.04 78.128 461.704 78.336 461.448 78.752C461.192 79.1573 461.064 79.776 461.064 80.608C461.064 81.44 461.192 82.0693 461.448 82.496C461.704 82.912 462.04 83.12 462.456 83.12ZM462.76 88.192L468.552 77.312H469.448L463.656 88.192H462.76ZM469.768 88.192C469.053 88.192 468.477 87.904 468.04 87.328C467.603 86.752 467.384 85.9307 467.384 84.864C467.384 83.8187 467.603 83.008 468.04 82.432C468.477 81.856 469.053 81.568 469.768 81.568C470.483 81.568 471.059 81.856 471.496 82.432C471.933 83.008 472.152 83.8187 472.152 84.864C472.152 85.9307 471.933 86.752 471.496 87.328C471.059 87.904 470.483 88.192 469.768 88.192ZM469.768 87.376C470.173 87.376 470.504 87.168 470.76 86.752C471.016 86.3253 471.144 85.696 471.144 84.864C471.144 84.032 471.016 83.4133 470.76 83.008C470.504 82.592 470.173 82.384 469.768 82.384C469.352 82.384 469.016 82.592 468.76 83.008C468.504 83.4133 468.376 84.032 468.376 84.864C468.376 85.696 468.504 86.3253 468.76 86.752C469.016 87.168 469.352 87.376 469.768 87.376Z" fill="#28A745"/>
<path d="M375.364 112.192C374.628 112.192 373.945 112.053 373.316 111.776C372.687 111.488 372.143 111.109 371.684 110.64L372.484 109.712C372.857 110.107 373.295 110.427 373.796 110.672C374.308 110.907 374.836 111.024 375.38 111.024C376.073 111.024 376.612 110.869 376.996 110.56C377.38 110.24 377.572 109.824 377.572 109.312C377.572 108.949 377.492 108.661 377.332 108.448C377.183 108.235 376.975 108.053 376.708 107.904C376.452 107.755 376.159 107.605 375.828 107.456L374.324 106.8C373.993 106.661 373.663 106.48 373.332 106.256C373.012 106.032 372.74 105.744 372.516 105.392C372.303 105.04 372.196 104.608 372.196 104.096C372.196 103.563 372.335 103.088 372.612 102.672C372.9 102.245 373.295 101.915 373.796 101.68C374.297 101.435 374.863 101.312 375.492 101.312C376.121 101.312 376.703 101.435 377.236 101.68C377.769 101.915 378.223 102.224 378.596 102.608L377.876 103.472C377.556 103.163 377.199 102.923 376.804 102.752C376.42 102.571 375.983 102.48 375.492 102.48C374.905 102.48 374.431 102.619 374.068 102.896C373.716 103.173 373.54 103.547 373.54 104.016C373.54 104.347 373.625 104.624 373.796 104.848C373.977 105.061 374.201 105.237 374.468 105.376C374.735 105.515 375.007 105.643 375.284 105.76L376.772 106.4C377.177 106.571 377.54 106.779 377.86 107.024C378.191 107.259 378.452 107.552 378.644 107.904C378.836 108.245 378.932 108.677 378.932 109.2C378.932 109.755 378.788 110.261 378.5 110.72C378.212 111.168 377.801 111.525 377.268 111.792C376.735 112.059 376.1 112.192 375.364 112.192ZM380.871 112V104.224H382.183V112H380.871ZM381.543 102.624C381.287 102.624 381.074 102.549 380.903 102.4C380.743 102.24 380.663 102.027 380.663 101.76C380.663 101.504 380.743 101.296 380.903 101.136C381.074 100.976 381.287 100.896 381.543 100.896C381.799 100.896 382.007 100.976 382.167 101.136C382.338 101.296 382.423 101.504 382.423 101.76C382.423 102.027 382.338 102.24 382.167 102.4C382.007 102.549 381.799 102.624 381.543 102.624ZM384.808 112V104.224H385.896L386.008 105.344H386.056C386.43 104.971 386.824 104.661 387.24 104.416C387.656 104.16 388.131 104.032 388.664 104.032C389.486 104.032 390.083 104.293 390.456 104.816C390.84 105.328 391.032 106.08 391.032 107.072V112H389.72V107.248C389.72 106.523 389.603 105.995 389.368 105.664C389.134 105.333 388.76 105.168 388.248 105.168C387.854 105.168 387.496 105.269 387.176 105.472C386.867 105.675 386.515 105.973 386.12 106.368V112H384.808ZM396.63 112.192C395.948 112.192 395.329 112.032 394.774 111.712C394.22 111.392 393.782 110.928 393.462 110.32C393.142 109.712 392.982 108.981 392.982 108.128C392.982 107.253 393.153 106.512 393.494 105.904C393.846 105.296 394.305 104.832 394.87 104.512C395.446 104.192 396.065 104.032 396.726 104.032C397.238 104.032 397.676 104.123 398.038 104.304C398.412 104.485 398.732 104.699 398.998 104.944L398.326 105.808C398.102 105.605 397.862 105.44 397.606 105.312C397.361 105.184 397.084 105.12 396.774 105.12C396.305 105.12 395.884 105.248 395.51 105.504C395.148 105.749 394.86 106.101 394.646 106.56C394.444 107.008 394.342 107.531 394.342 108.128C394.342 109.013 394.561 109.733 394.998 110.288C395.446 110.832 396.028 111.104 396.742 111.104C397.105 111.104 397.441 111.029 397.75 110.88C398.06 110.72 398.332 110.533 398.566 110.32L399.142 111.2C398.79 111.509 398.401 111.755 397.974 111.936C397.548 112.107 397.1 112.192 396.63 112.192ZM403.664 112.192C402.97 112.192 402.341 112.032 401.776 111.712C401.21 111.381 400.762 110.912 400.432 110.304C400.101 109.696 399.936 108.971 399.936 108.128C399.936 107.275 400.101 106.544 400.432 105.936C400.773 105.328 401.21 104.859 401.744 104.528C402.277 104.197 402.837 104.032 403.424 104.032C404.416 104.032 405.178 104.363 405.712 105.024C406.256 105.685 406.528 106.571 406.528 107.68C406.528 107.819 406.522 107.957 406.512 108.096C406.512 108.224 406.501 108.336 406.48 108.432H401.232C401.285 109.253 401.541 109.909 402 110.4C402.469 110.891 403.077 111.136 403.824 111.136C404.197 111.136 404.538 111.083 404.848 110.976C405.168 110.859 405.472 110.709 405.76 110.528L406.224 111.392C405.893 111.605 405.514 111.792 405.088 111.952C404.672 112.112 404.197 112.192 403.664 112.192ZM401.216 107.488H405.376C405.376 106.699 405.205 106.101 404.864 105.696C404.533 105.28 404.064 105.072 403.456 105.072C402.912 105.072 402.421 105.285 401.984 105.712C401.557 106.128 401.301 106.72 401.216 107.488ZM413.044 112.192C412.554 112.192 412.196 112.043 411.972 111.744C411.759 111.435 411.652 110.997 411.652 110.432V100.608H412.964V110.528C412.964 110.731 413.002 110.88 413.076 110.976C413.151 111.061 413.236 111.104 413.332 111.104C413.375 111.104 413.412 111.104 413.444 111.104C413.487 111.093 413.546 111.083 413.62 111.072L413.796 112.064C413.711 112.107 413.61 112.139 413.492 112.16C413.375 112.181 413.226 112.192 413.044 112.192ZM417.522 112.192C416.872 112.192 416.328 112 415.89 111.616C415.464 111.221 415.25 110.677 415.25 109.984C415.25 109.131 415.629 108.48 416.386 108.032C417.154 107.573 418.365 107.253 420.018 107.072C420.018 106.741 419.97 106.427 419.874 106.128C419.789 105.829 419.629 105.589 419.394 105.408C419.17 105.216 418.845 105.12 418.418 105.12C417.97 105.12 417.549 105.205 417.154 105.376C416.76 105.547 416.408 105.739 416.098 105.952L415.586 105.04C415.949 104.805 416.392 104.581 416.914 104.368C417.448 104.144 418.024 104.032 418.642 104.032C419.592 104.032 420.28 104.325 420.706 104.912C421.133 105.488 421.346 106.261 421.346 107.232V112H420.258L420.146 111.072H420.098C419.736 111.371 419.336 111.632 418.898 111.856C418.472 112.08 418.013 112.192 417.522 112.192ZM417.906 111.136C418.28 111.136 418.632 111.045 418.962 110.864C419.293 110.683 419.645 110.427 420.018 110.096V107.936C418.728 108.096 417.821 108.336 417.298 108.656C416.786 108.976 416.53 109.387 416.53 109.888C416.53 110.325 416.664 110.645 416.93 110.848C417.197 111.04 417.522 111.136 417.906 111.136ZM425.825 112.192C425.27 112.192 424.742 112.091 424.241 111.888C423.739 111.675 423.302 111.419 422.929 111.12L423.585 110.24C423.926 110.507 424.278 110.731 424.641 110.912C425.003 111.083 425.414 111.168 425.873 111.168C426.385 111.168 426.769 111.051 427.025 110.816C427.281 110.571 427.409 110.283 427.409 109.952C427.409 109.685 427.318 109.461 427.137 109.28C426.966 109.099 426.742 108.949 426.465 108.832C426.198 108.704 425.921 108.587 425.633 108.48C425.27 108.341 424.913 108.187 424.561 108.016C424.209 107.835 423.921 107.605 423.697 107.328C423.473 107.04 423.361 106.677 423.361 106.24C423.361 105.611 423.595 105.088 424.065 104.672C424.545 104.245 425.206 104.032 426.049 104.032C426.529 104.032 426.977 104.117 427.393 104.288C427.809 104.459 428.166 104.667 428.465 104.912L427.825 105.744C427.558 105.541 427.281 105.376 426.993 105.248C426.705 105.12 426.39 105.056 426.049 105.056C425.558 105.056 425.195 105.168 424.961 105.392C424.737 105.616 424.625 105.877 424.625 106.176C424.625 106.421 424.705 106.624 424.865 106.784C425.025 106.933 425.233 107.067 425.489 107.184C425.745 107.291 426.017 107.403 426.305 107.52C426.678 107.659 427.046 107.819 427.409 108C427.771 108.171 428.07 108.405 428.305 108.704C428.55 108.992 428.673 109.381 428.673 109.872C428.673 110.288 428.561 110.672 428.337 111.024C428.123 111.376 427.803 111.659 427.377 111.872C426.961 112.085 426.443 112.192 425.825 112.192ZM432.631 112.192C431.799 112.192 431.218 111.952 430.887 111.472C430.567 110.992 430.407 110.368 430.407 109.6V105.296H429.255V104.304L430.471 104.224L430.631 102.048H431.735V104.224H433.831V105.296H431.735V109.616C431.735 110.096 431.821 110.469 431.991 110.736C432.173 110.992 432.487 111.12 432.935 111.12C433.074 111.12 433.223 111.099 433.383 111.056C433.543 111.003 433.687 110.955 433.815 110.912L434.071 111.904C433.858 111.979 433.623 112.043 433.367 112.096C433.122 112.16 432.877 112.192 432.631 112.192ZM440.025 112L437.865 104.224H439.209L440.361 108.72C440.446 109.083 440.526 109.445 440.601 109.808C440.675 110.16 440.75 110.517 440.825 110.88H440.889C440.974 110.517 441.059 110.16 441.145 109.808C441.23 109.445 441.321 109.083 441.417 108.72L442.617 104.224H443.897L445.113 108.72C445.209 109.083 445.299 109.445 445.385 109.808C445.481 110.16 445.571 110.517 445.657 110.88H445.721C445.806 110.517 445.886 110.16 445.961 109.808C446.046 109.445 446.126 109.083 446.201 108.72L447.337 104.224H448.585L446.505 112H444.905L443.785 107.824C443.689 107.451 443.598 107.083 443.513 106.72C443.438 106.357 443.353 105.979 443.257 105.584H443.193C443.107 105.979 443.022 106.363 442.937 106.736C442.851 107.099 442.755 107.467 442.649 107.84L441.561 112H440.025ZM453.367 112.192C452.673 112.192 452.044 112.032 451.479 111.712C450.913 111.381 450.465 110.912 450.135 110.304C449.804 109.696 449.639 108.971 449.639 108.128C449.639 107.275 449.804 106.544 450.135 105.936C450.476 105.328 450.913 104.859 451.447 104.528C451.98 104.197 452.54 104.032 453.127 104.032C454.119 104.032 454.881 104.363 455.415 105.024C455.959 105.685 456.231 106.571 456.231 107.68C456.231 107.819 456.225 107.957 456.215 108.096C456.215 108.224 456.204 108.336 456.183 108.432H450.935C450.988 109.253 451.244 109.909 451.703 110.4C452.172 110.891 452.78 111.136 453.527 111.136C453.9 111.136 454.241 111.083 454.551 110.976C454.871 110.859 455.175 110.709 455.463 110.528L455.927 111.392C455.596 111.605 455.217 111.792 454.791 111.952C454.375 112.112 453.9 112.192 453.367 112.192ZM450.919 107.488H455.079C455.079 106.699 454.908 106.101 454.567 105.696C454.236 105.28 453.767 105.072 453.159 105.072C452.615 105.072 452.124 105.285 451.687 105.712C451.26 106.128 451.004 106.72 450.919 107.488ZM461.304 112.192C460.611 112.192 459.982 112.032 459.416 111.712C458.851 111.381 458.403 110.912 458.072 110.304C457.742 109.696 457.576 108.971 457.576 108.128C457.576 107.275 457.742 106.544 458.072 105.936C458.414 105.328 458.851 104.859 459.384 104.528C459.918 104.197 460.478 104.032 461.064 104.032C462.056 104.032 462.819 104.363 463.352 105.024C463.896 105.685 464.168 106.571 464.168 107.68C464.168 107.819 464.163 107.957 464.152 108.096C464.152 108.224 464.142 108.336 464.12 108.432H458.872C458.926 109.253 459.182 109.909 459.64 110.4C460.11 110.891 460.718 111.136 461.464 111.136C461.838 111.136 462.179 111.083 462.488 110.976C462.808 110.859 463.112 110.709 463.4 110.528L463.864 111.392C463.534 111.605 463.155 111.792 462.728 111.952C462.312 112.112 461.838 112.192 461.304 112.192ZM458.856 107.488H463.016C463.016 106.699 462.846 106.101 462.504 105.696C462.174 105.28 461.704 105.072 461.096 105.072C460.552 105.072 460.062 105.285 459.624 105.712C459.198 106.128 458.942 106.72 458.856 107.488ZM466.09 112V100.608H467.386V108.32H467.434L470.746 104.224H472.202L469.594 107.344L472.554 112H471.114L468.842 108.256L467.386 109.952V112H466.09Z" fill="#6C757D"/>
<path d="M549 369C549.812 369 550.5 369.688 550.5 370.5V381.5C550.5 382.344 549.812 383 549 383H538C537.156 383 536.5 382.344 536.5 381.5V370.5C536.5 369.688 537.156 369 538 369H549Z" fill="#065F4B"/>
<path d="M565.319 382V372.624H562.151V371.504H569.831V372.624H566.663V382H565.319ZM571.593 382V370.608H572.905V373.712L572.857 375.312C573.231 374.96 573.62 374.661 574.025 374.416C574.441 374.16 574.916 374.032 575.449 374.032C576.271 374.032 576.868 374.293 577.241 374.816C577.625 375.328 577.817 376.08 577.817 377.072V382H576.505V377.248C576.505 376.523 576.388 375.995 576.153 375.664C575.919 375.333 575.545 375.168 575.033 375.168C574.639 375.168 574.281 375.269 573.961 375.472C573.652 375.675 573.3 375.973 572.905 376.368V382H571.593ZM580.296 382V374.224H581.608V382H580.296ZM580.968 372.624C580.712 372.624 580.499 372.549 580.328 372.4C580.168 372.24 580.088 372.027 580.088 371.76C580.088 371.504 580.168 371.296 580.328 371.136C580.499 370.976 580.712 370.896 580.968 370.896C581.224 370.896 581.432 370.976 581.592 371.136C581.763 371.296 581.848 371.504 581.848 371.76C581.848 372.027 581.763 372.24 581.592 372.4C581.432 372.549 581.224 372.624 580.968 372.624ZM586.266 382.192C585.711 382.192 585.183 382.091 584.682 381.888C584.181 381.675 583.743 381.419 583.37 381.12L584.026 380.24C584.367 380.507 584.719 380.731 585.082 380.912C585.445 381.083 585.855 381.168 586.314 381.168C586.826 381.168 587.21 381.051 587.466 380.816C587.722 380.571 587.85 380.283 587.85 379.952C587.85 379.685 587.759 379.461 587.578 379.28C587.407 379.099 587.183 378.949 586.906 378.832C586.639 378.704 586.362 378.587 586.074 378.48C585.711 378.341 585.354 378.187 585.002 378.016C584.65 377.835 584.362 377.605 584.138 377.328C583.914 377.04 583.802 376.677 583.802 376.24C583.802 375.611 584.037 375.088 584.506 374.672C584.986 374.245 585.647 374.032 586.49 374.032C586.97 374.032 587.418 374.117 587.834 374.288C588.25 374.459 588.607 374.667 588.906 374.912L588.266 375.744C587.999 375.541 587.722 375.376 587.434 375.248C587.146 375.12 586.831 375.056 586.49 375.056C585.999 375.056 585.637 375.168 585.402 375.392C585.178 375.616 585.066 375.877 585.066 376.176C585.066 376.421 585.146 376.624 585.306 376.784C585.466 376.933 585.674 377.067 585.93 377.184C586.186 377.291 586.458 377.403 586.746 377.52C587.119 377.659 587.487 377.819 587.85 378C588.213 378.171 588.511 378.405 588.746 378.704C588.991 378.992 589.114 379.381 589.114 379.872C589.114 380.288 589.002 380.672 588.778 381.024C588.565 381.376 588.245 381.659 587.818 381.872C587.402 382.085 586.885 382.192 586.266 382.192ZM595.42 382L593.196 371.504H594.572L595.676 377.216C595.772 377.781 595.873 378.347 595.98 378.912C596.087 379.477 596.188 380.043 596.284 380.608H596.348C596.465 380.043 596.588 379.477 596.716 378.912C596.844 378.336 596.967 377.771 597.084 377.216L598.54 371.504H599.756L601.212 377.216C601.34 377.771 601.468 378.336 601.596 378.912C601.724 379.477 601.852 380.043 601.98 380.608H602.044C602.14 380.043 602.236 379.477 602.332 378.912C602.428 378.336 602.529 377.771 602.636 377.216L603.74 371.504H605.02L602.844 382H601.244L599.66 375.68C599.564 375.275 599.473 374.88 599.388 374.496C599.313 374.101 599.233 373.701 599.148 373.296H599.084C599.009 373.701 598.924 374.101 598.828 374.496C598.732 374.88 598.641 375.275 598.556 375.68L597.004 382H595.42ZM609.87 382.192C609.177 382.192 608.548 382.032 607.982 381.712C607.417 381.381 606.969 380.912 606.638 380.304C606.308 379.696 606.142 378.971 606.142 378.128C606.142 377.275 606.308 376.544 606.638 375.936C606.98 375.328 607.417 374.859 607.95 374.528C608.484 374.197 609.044 374.032 609.63 374.032C610.622 374.032 611.385 374.363 611.918 375.024C612.462 375.685 612.734 376.571 612.734 377.68C612.734 377.819 612.729 377.957 612.718 378.096C612.718 378.224 612.708 378.336 612.686 378.432H607.438C607.492 379.253 607.748 379.909 608.206 380.4C608.676 380.891 609.284 381.136 610.03 381.136C610.404 381.136 610.745 381.083 611.054 380.976C611.374 380.859 611.678 380.709 611.966 380.528L612.43 381.392C612.1 381.605 611.721 381.792 611.294 381.952C610.878 382.112 610.404 382.192 609.87 382.192ZM607.422 377.488H611.582C611.582 376.699 611.412 376.101 611.07 375.696C610.74 375.28 610.27 375.072 609.662 375.072C609.118 375.072 608.628 375.285 608.19 375.712C607.764 376.128 607.508 376.72 607.422 377.488ZM617.808 382.192C617.114 382.192 616.485 382.032 615.92 381.712C615.354 381.381 614.906 380.912 614.576 380.304C614.245 379.696 614.08 378.971 614.08 378.128C614.08 377.275 614.245 376.544 614.576 375.936C614.917 375.328 615.354 374.859 615.888 374.528C616.421 374.197 616.981 374.032 617.568 374.032C618.56 374.032 619.322 374.363 619.856 375.024C620.4 375.685 620.672 376.571 620.672 377.68C620.672 377.819 620.666 377.957 620.656 378.096C620.656 378.224 620.645 378.336 620.624 378.432H615.376C615.429 379.253 615.685 379.909 616.144 380.4C616.613 380.891 617.221 381.136 617.968 381.136C618.341 381.136 618.682 381.083 618.992 380.976C619.312 380.859 619.616 380.709 619.904 380.528L620.368 381.392C620.037 381.605 619.658 381.792 619.232 381.952C618.816 382.112 618.341 382.192 617.808 382.192ZM615.36 377.488H619.52C619.52 376.699 619.349 376.101 619.008 375.696C618.677 375.28 618.208 375.072 617.6 375.072C617.056 375.072 616.565 375.285 616.128 375.712C615.701 376.128 615.445 376.72 615.36 377.488ZM622.593 382V370.608H623.889V378.32H623.937L627.249 374.224H628.705L626.097 377.344L629.057 382H627.617L625.345 378.256L623.889 379.952V382H622.593Z" fill="#212529"/>
<line x1="57.2445" y1="126.794" x2="57.2445" y2="325.992" stroke="#ECECEE" stroke-width="0.703878"/>
<line x1="636.889" y1="326.344" x2="56.8928" y2="326.344" stroke="#ECECEE" stroke-width="0.703878"/>
<path d="M112.058 279.159C92.4019 285.399 58.3008 270.947 58.3008 270.947V344.293H584.99V164.906C562.881 158.222 533.037 107.413 519.664 127.06C478.836 187.043 430.202 121.597 384.93 140.627C338.739 160.044 327.814 194.617 278.095 196.683C255.073 197.639 258.571 261.068 235.565 262.378C212.074 263.716 190.44 209.705 168.198 217.748C144.421 226.346 136.13 271.517 112.058 279.159Z" fill="url(#paint0_linear_3519_3041)"/>
<path d="M58.3008 266.532C58.3008 266.532 92.3898 280.554 112.039 274.5C136.103 267.085 144.39 223.258 168.159 214.916C190.393 207.113 212.019 259.516 235.502 258.218C258.5 256.947 255.003 195.406 278.016 194.477C327.718 192.473 338.639 158.929 384.813 140.09C430.069 121.626 478.685 185.124 519.499 126.926C532.868 107.864 562.701 157.161 584.802 163.646" stroke="#065F4B" stroke-width="1.7597" stroke-linecap="round" stroke-linejoin="round"/>
<line x1="595.36" y1="321.769" x2="595.36" y2="330.215" stroke="#ECECEE" stroke-width="1.40776" stroke-linecap="round" stroke-linejoin="round"/>
<line x1="492.594" y1="321.769" x2="492.594" y2="330.215" stroke="#ECECEE" stroke-width="1.40776" stroke-linecap="round" stroke-linejoin="round"/>
<line x1="389.827" y1="321.769" x2="389.827" y2="330.215" stroke="#ECECEE" stroke-width="1.40776" stroke-linecap="round" stroke-linejoin="round"/>
<line x1="287.061" y1="321.769" x2="287.061" y2="330.215" stroke="#ECECEE" stroke-width="1.40776" stroke-linecap="round" stroke-linejoin="round"/>
<line x1="184.296" y1="321.769" x2="184.296" y2="330.215" stroke="#ECECEE" stroke-width="1.40776" stroke-linecap="round" stroke-linejoin="round"/>
<line x1="81.5291" y1="321.769" x2="81.5291" y2="330.215" stroke="#ECECEE" stroke-width="1.40776" stroke-linecap="round" stroke-linejoin="round"/>
<line x1="55.4851" y1="302.764" x2="61.1162" y2="302.764" stroke="#ECECEE" stroke-width="1.40776" stroke-linecap="round" stroke-linejoin="round"/>
<line x1="55.4851" y1="264.051" x2="61.1162" y2="264.051" stroke="#ECECEE" stroke-width="1.40776" stroke-linecap="round" stroke-linejoin="round"/>
<line x1="55.4851" y1="225.337" x2="61.1162" y2="225.337" stroke="#ECECEE" stroke-width="1.40776" stroke-linecap="round" stroke-linejoin="round"/>
<line x1="55.4851" y1="186.624" x2="61.1162" y2="186.624" stroke="#ECECEE" stroke-width="1.40776" stroke-linecap="round" stroke-linejoin="round"/>
<line x1="55.4851" y1="147.207" x2="61.1162" y2="147.207" stroke="#ECECEE" stroke-width="1.40776" stroke-linecap="round" stroke-linejoin="round"/>
<path d="M65.668 343.55V338.605L64.509 339.475L64.1626 338.947L65.7917 337.751H66.3773V343.55H65.668ZM69.8088 343.604C69.4926 343.604 69.2011 343.539 68.9344 343.41C68.6705 343.278 68.4409 343.09 68.2456 342.845C68.0532 342.597 67.902 342.287 67.792 341.913C67.6847 341.539 67.6311 341.119 67.6311 340.655C67.6311 340.226 67.6806 339.83 67.7796 339.467C67.8786 339.104 68.0188 338.792 68.2003 338.531C68.3818 338.27 68.61 338.066 68.8849 337.92C69.1626 337.772 69.4706 337.698 69.8088 337.698C70.1249 337.698 70.415 337.764 70.679 337.896C70.9457 338.025 71.1753 338.213 71.3677 338.461C71.563 338.705 71.7142 339.016 71.8214 339.393C71.9314 339.767 71.9864 340.187 71.9864 340.655C71.9864 341.084 71.9369 341.478 71.8379 341.838C71.7417 342.199 71.6014 342.509 71.4172 342.771C71.2358 343.032 71.0075 343.237 70.7326 343.385C70.4576 343.531 70.1497 343.604 69.8088 343.604ZM69.8129 342.944C70.1181 342.944 70.3807 342.849 70.6006 342.659C70.8206 342.469 70.9869 342.204 71.0997 341.863C71.2124 341.52 71.2688 341.117 71.2688 340.655C71.2688 339.929 71.1354 339.365 70.8687 338.964C70.602 338.56 70.2501 338.358 69.8129 338.358C69.3537 338.358 68.9949 338.564 68.7364 338.976C68.478 339.389 68.3488 339.948 68.3488 340.655C68.3488 341.372 68.4821 341.933 68.7488 342.338C69.0183 342.742 69.373 342.944 69.8129 342.944ZM73.4423 339.851C73.3515 339.851 73.2677 339.83 73.1907 339.789C73.1164 339.745 73.0573 339.687 73.0133 339.615C72.9721 339.541 72.9515 339.46 72.9515 339.372C72.9515 339.237 72.9982 339.123 73.0917 339.03C73.1879 338.936 73.3048 338.89 73.4423 338.89C73.577 338.89 73.6911 338.936 73.7846 339.03C73.8808 339.123 73.9289 339.237 73.9289 339.372C73.9289 339.504 73.8808 339.617 73.7846 339.71C73.6911 339.804 73.577 339.851 73.4423 339.851ZM73.4423 343.101C73.3048 343.101 73.1879 343.054 73.0917 342.96C72.9982 342.867 72.9515 342.754 72.9515 342.622C72.9515 342.487 72.9982 342.373 73.0917 342.28C73.1879 342.186 73.3048 342.14 73.4423 342.14C73.577 342.14 73.6911 342.186 73.7846 342.28C73.8808 342.373 73.9289 342.487 73.9289 342.622C73.9289 342.754 73.8808 342.867 73.7846 342.96C73.6911 343.054 73.577 343.101 73.4423 343.101ZM77.5665 340.539C77.8745 340.663 78.1164 340.851 78.2924 341.104C78.4684 341.357 78.5564 341.654 78.5564 341.995C78.5564 342.309 78.4739 342.589 78.3089 342.837C78.1467 343.081 77.9226 343.271 77.6367 343.406C77.3534 343.538 77.0345 343.604 76.6798 343.604C76.2014 343.604 75.7876 343.498 75.4384 343.286C75.092 343.074 74.8445 342.795 74.696 342.449L75.3106 342.168C75.382 342.328 75.4769 342.464 75.5951 342.577C75.7134 342.689 75.8605 342.777 76.0364 342.841C76.2151 342.904 76.4159 342.936 76.6386 342.936C76.8585 342.936 77.0593 342.893 77.2407 342.808C77.4222 342.722 77.5665 342.6 77.6738 342.441C77.781 342.278 77.8346 342.094 77.8346 341.888C77.8346 341.748 77.8071 341.616 77.7521 341.492C77.6999 341.368 77.6229 341.258 77.5212 341.162C77.4194 341.066 77.2861 340.99 77.1211 340.935C76.9561 340.88 76.7692 340.853 76.5602 340.853H76.0777V340.234H76.6427C76.8214 340.234 76.9795 340.209 77.117 340.16C77.2545 340.11 77.3631 340.043 77.4428 339.958C77.5253 339.87 77.5872 339.772 77.6284 339.665C77.6696 339.555 77.6903 339.437 77.6903 339.31C77.6903 339.03 77.5858 338.802 77.3768 338.626C77.1706 338.45 76.9135 338.362 76.6056 338.362C76.1079 338.362 75.7285 338.551 75.4673 338.931L74.894 338.617C75.048 338.337 75.2734 338.114 75.5704 337.949C75.8673 337.782 76.2165 337.698 76.618 337.698C76.9506 337.698 77.2503 337.757 77.517 337.875C77.7865 337.991 78.001 338.165 78.1604 338.399C78.3227 338.63 78.4038 338.902 78.4038 339.215C78.4038 339.504 78.3295 339.764 78.1811 339.995C78.0353 340.226 77.8305 340.405 77.5665 340.531V340.539ZM81.6207 343.604C81.3045 343.604 81.0131 343.539 80.7464 343.41C80.4824 343.278 80.2528 343.09 80.0576 342.845C79.8651 342.597 79.7139 342.287 79.6039 341.913C79.4967 341.539 79.4431 341.119 79.4431 340.655C79.4431 340.226 79.4926 339.83 79.5916 339.467C79.6905 339.104 79.8308 338.792 80.0122 338.531C80.1937 338.27 80.4219 338.066 80.6969 337.92C80.9746 337.772 81.2825 337.698 81.6207 337.698C81.9369 337.698 82.227 337.764 82.4909 337.896C82.7576 338.025 82.9872 338.213 83.1797 338.461C83.3749 338.705 83.5261 339.016 83.6334 339.393C83.7433 339.767 83.7983 340.187 83.7983 340.655C83.7983 341.084 83.7488 341.478 83.6499 341.838C83.5536 342.199 83.4134 342.509 83.2292 342.771C83.0477 343.032 82.8195 343.237 82.5446 343.385C82.2696 343.531 81.9617 343.604 81.6207 343.604ZM81.6248 342.944C81.93 342.944 82.1926 342.849 82.4126 342.659C82.6325 342.469 82.7989 342.204 82.9116 341.863C83.0243 341.52 83.0807 341.117 83.0807 340.655C83.0807 339.929 82.9474 339.365 82.6807 338.964C82.414 338.56 82.062 338.358 81.6248 338.358C81.1657 338.358 80.8069 338.564 80.5484 338.976C80.2899 339.389 80.1607 339.948 80.1607 340.655C80.1607 341.372 80.2941 341.933 80.5608 342.338C80.8302 342.742 81.1849 342.944 81.6248 342.944ZM91.354 343.55L90.8179 342.09H88.1412L87.6092 343.55H86.8379L89.1063 337.549H89.8445L92.1294 343.55H91.354ZM88.3763 341.447H90.5828L89.4857 338.448H89.4692L88.3763 341.447ZM98.2828 337.549H99.0211V343.55H98.287V338.951H98.2746L96.3197 342.342H95.8206L93.8657 338.951H93.8533V343.55H93.1192V337.549H93.8575L96.0598 341.43H96.0846L98.2828 337.549Z" fill="#92959E"/>
<path d="M44.5023 304.837V299.892L43.3433 300.762L42.9969 300.234L44.626 299.038H45.2116V304.837H44.5023ZM48.2017 302.952H48.1894L47.3274 303.909V304.837H46.6469V298.617H47.3274V302.969H47.3398L49.3648 300.725H50.1938L48.6595 302.428L50.202 304.837H49.4225L48.2017 302.952Z" fill="#92959E"/>
<path d="M42.4086 223.727C42.5791 223.727 42.744 223.746 42.9035 223.785C43.063 223.821 43.2114 223.874 43.3489 223.946C43.4891 224.017 43.6156 224.108 43.7284 224.218C43.8438 224.325 43.9414 224.446 44.0212 224.581C44.1037 224.716 44.1669 224.868 44.2109 225.039C44.2576 225.209 44.281 225.389 44.281 225.579C44.281 225.945 44.1917 226.272 44.0129 226.561C43.8342 226.849 43.5909 227.073 43.2829 227.233C42.9777 227.39 42.6382 227.468 42.2642 227.468C41.8628 227.468 41.4916 227.383 41.1507 227.212C40.8097 227.039 40.5389 226.801 40.3382 226.499L40.8661 226.095C41.0008 226.312 41.185 226.485 41.4188 226.614C41.6552 226.741 41.9192 226.804 42.2106 226.804C42.4581 226.804 42.6849 226.752 42.8911 226.647C43.0973 226.54 43.2609 226.391 43.3819 226.202C43.5029 226.012 43.5634 225.802 43.5634 225.571C43.5634 225.381 43.5263 225.208 43.452 225.051C43.3778 224.894 43.2788 224.766 43.1551 224.668C43.0314 224.566 42.8884 224.489 42.7262 224.437C42.5667 224.382 42.3976 224.354 42.2189 224.354C41.7872 224.354 41.4462 224.46 41.196 224.672L40.7836 224.544L40.9527 221.611H44.0171V222.263H41.6208L41.5301 223.892C41.8518 223.782 42.1446 223.727 42.4086 223.727ZM46.9123 225.525H46.8999L46.038 226.482V227.41H45.3574V221.191H46.038V225.542H46.0503L48.0754 223.298H48.9043L47.3701 225.002L48.9126 227.41H48.1331L46.9123 225.525Z" fill="#92959E"/>
<path d="M42.4045 144.131C42.6904 144.131 42.9571 144.186 43.2046 144.296C43.4548 144.403 43.6706 144.554 43.8521 144.75C44.0363 144.945 44.1807 145.185 44.2851 145.471C44.3896 145.757 44.4419 146.069 44.4419 146.408C44.4419 146.817 44.3841 147.209 44.2686 147.583C44.1559 147.957 44.0019 148.288 43.8067 148.577C43.6143 148.863 43.3888 149.119 43.1303 149.344C42.8719 149.57 42.5969 149.752 42.3055 149.893C42.0168 150.033 41.7198 150.13 41.4146 150.185L41.2043 149.579C41.4765 149.51 41.7336 149.416 41.9755 149.295C42.2202 149.174 42.4526 149.024 42.6725 148.845C42.8925 148.666 43.085 148.449 43.2499 148.193C43.4149 147.938 43.54 147.655 43.6252 147.344L43.6129 147.336C43.4891 147.443 43.3517 147.535 43.2004 147.612C43.0492 147.689 42.8843 147.748 42.7055 147.789C42.5296 147.831 42.3481 147.851 42.1611 147.851C41.8284 147.851 41.5287 147.78 41.262 147.637C40.9981 147.491 40.7877 147.279 40.631 147.002C40.477 146.721 40.4001 146.397 40.4001 146.028C40.4001 145.674 40.4867 145.352 40.6599 145.063C40.8359 144.772 41.0764 144.543 41.3816 144.378C41.6868 144.214 42.0278 144.131 42.4045 144.131ZM42.3178 147.2C42.6065 147.2 42.8788 147.127 43.1345 146.981C43.3929 146.832 43.5978 146.637 43.749 146.395V146.35C43.749 146.042 43.6912 145.77 43.5758 145.533C43.4603 145.294 43.3022 145.111 43.1015 144.985C42.9007 144.856 42.6725 144.791 42.4168 144.791C42.2244 144.791 42.0456 144.824 41.8807 144.89C41.7185 144.956 41.581 145.045 41.4682 145.158C41.3583 145.271 41.2717 145.403 41.2084 145.554C41.1452 145.705 41.1136 145.865 41.1136 146.032C41.1136 146.379 41.2235 146.661 41.4435 146.878C41.6662 147.092 41.9577 147.2 42.3178 147.2ZM47.102 148.099H47.0896L46.2277 149.055V149.983H45.5472V143.764H46.2277V148.115H46.24L48.2651 145.871H49.0941L47.5598 147.575L49.1023 149.983H48.3228L47.102 148.099Z" fill="#92959E"/>
<path d="M43.1097 263.113C43.4177 263.237 43.6596 263.425 43.8356 263.678C44.0116 263.931 44.0995 264.228 44.0995 264.569C44.0995 264.882 44.0171 265.163 43.8521 265.41C43.6899 265.655 43.4658 265.844 43.1798 265.979C42.8966 266.111 42.5777 266.177 42.223 266.177C41.7446 266.177 41.3308 266.071 40.9816 265.86C40.6351 265.648 40.3877 265.369 40.2392 265.022L40.8537 264.742C40.9252 264.901 41.0201 265.037 41.1383 265.15C41.2565 265.263 41.4036 265.351 41.5796 265.414C41.7583 265.477 41.959 265.509 42.1817 265.509C42.4017 265.509 42.6024 265.466 42.7839 265.381C42.9654 265.296 43.1097 265.174 43.2169 265.014C43.3242 264.852 43.3778 264.668 43.3778 264.461C43.3778 264.321 43.3503 264.189 43.2953 264.066C43.2431 263.942 43.1661 263.832 43.0643 263.736C42.9626 263.639 42.8293 263.564 42.6643 263.509C42.4993 263.454 42.3124 263.426 42.1034 263.426H41.6208V262.808H42.1859C42.3646 262.808 42.5227 262.783 42.6602 262.733C42.7976 262.684 42.9062 262.617 42.986 262.531C43.0685 262.443 43.1303 262.346 43.1716 262.238C43.2128 262.128 43.2334 262.01 43.2334 261.884C43.2334 261.603 43.129 261.375 42.92 261.199C42.7138 261.023 42.4567 260.935 42.1488 260.935C41.6511 260.935 41.2717 261.125 41.0105 261.504L40.4372 261.191C40.5911 260.91 40.8166 260.688 41.1136 260.523C41.4105 260.355 41.7597 260.271 42.1611 260.271C42.4938 260.271 42.7935 260.33 43.0602 260.449C43.3297 260.564 43.5441 260.739 43.7036 260.972C43.8658 261.203 43.9469 261.475 43.9469 261.789C43.9469 262.078 43.8727 262.337 43.7242 262.568C43.5785 262.799 43.3737 262.978 43.1097 263.105V263.113ZM46.7556 264.239H46.7432L45.8812 265.196V266.124H45.2007V259.904H45.8812V264.255H45.8936L47.9186 262.012H48.7476L47.2134 263.715L48.7559 266.124H47.9764L46.7556 264.239Z" fill="#92959E"/>
<path d="M40.231 182.898H43.8191V183.389L41.5219 188.796L40.8125 188.656L43.0314 183.55H40.231V182.898ZM46.3844 186.812H46.372L45.51 187.769V188.697H44.8295V182.477H45.51V186.828H45.5224L47.5474 184.585H48.3764L46.8422 186.288L48.3847 188.697H47.6052L46.3844 186.812Z" fill="#92959E"/>
<path d="M270.598 343.55V338.605L269.439 339.475L269.092 338.947L270.722 337.751H271.307V343.55H270.598ZM273.501 342.898H276.075V343.55H272.425L272.417 343.059L274.4 341.034C274.541 340.889 274.657 340.761 274.751 340.651C274.844 340.541 274.935 340.42 275.023 340.288C275.111 340.153 275.177 340.02 275.221 339.888C275.265 339.753 275.287 339.615 275.287 339.475C275.287 339.154 275.184 338.888 274.978 338.679C274.774 338.468 274.513 338.362 274.194 338.362C273.639 338.362 273.224 338.627 272.949 339.158L272.425 338.799C272.538 338.579 272.674 338.389 272.833 338.23C272.995 338.067 273.196 337.938 273.435 337.842C273.677 337.746 273.945 337.698 274.24 337.698C274.471 337.698 274.692 337.738 274.904 337.817C275.115 337.894 275.302 338.004 275.464 338.147C275.627 338.29 275.756 338.47 275.852 338.688C275.951 338.905 276.001 339.144 276.001 339.405C276.001 339.738 275.924 340.057 275.77 340.362C275.618 340.664 275.366 340.996 275.011 341.356L273.501 342.886V342.898ZM277.465 339.851C277.374 339.851 277.29 339.83 277.213 339.789C277.139 339.745 277.08 339.687 277.036 339.615C276.995 339.541 276.974 339.46 276.974 339.372C276.974 339.237 277.021 339.123 277.114 339.03C277.21 338.936 277.327 338.89 277.465 338.89C277.599 338.89 277.714 338.936 277.807 339.03C277.903 339.123 277.951 339.237 277.951 339.372C277.951 339.504 277.903 339.617 277.807 339.71C277.714 339.804 277.599 339.851 277.465 339.851ZM277.465 343.101C277.327 343.101 277.21 343.054 277.114 342.96C277.021 342.867 276.974 342.754 276.974 342.622C276.974 342.487 277.021 342.373 277.114 342.28C277.21 342.186 277.327 342.14 277.465 342.14C277.599 342.14 277.714 342.186 277.807 342.28C277.903 342.373 277.951 342.487 277.951 342.622C277.951 342.754 277.903 342.867 277.807 342.96C277.714 343.054 277.599 343.101 277.465 343.101ZM281.589 340.539C281.897 340.663 282.139 340.851 282.315 341.104C282.491 341.357 282.579 341.654 282.579 341.995C282.579 342.309 282.496 342.589 282.331 342.837C282.169 343.081 281.945 343.271 281.659 343.406C281.376 343.538 281.057 343.604 280.702 343.604C280.224 343.604 279.81 343.498 279.461 343.286C279.114 343.074 278.867 342.795 278.719 342.449L279.333 342.168C279.405 342.328 279.499 342.464 279.618 342.577C279.736 342.689 279.883 342.777 280.059 342.841C280.238 342.904 280.438 342.936 280.661 342.936C280.881 342.936 281.082 342.893 281.263 342.808C281.445 342.722 281.589 342.6 281.696 342.441C281.804 342.278 281.857 342.094 281.857 341.888C281.857 341.748 281.83 341.616 281.775 341.492C281.722 341.368 281.645 341.258 281.544 341.162C281.442 341.066 281.309 340.99 281.144 340.935C280.979 340.88 280.792 340.853 280.583 340.853H280.1V340.234H280.665C280.844 340.234 281.002 340.209 281.14 340.16C281.277 340.11 281.386 340.043 281.465 339.958C281.548 339.87 281.61 339.772 281.651 339.665C281.692 339.555 281.713 339.437 281.713 339.31C281.713 339.03 281.608 338.802 281.399 338.626C281.193 338.45 280.936 338.362 280.628 338.362C280.13 338.362 279.751 338.551 279.49 338.931L278.917 338.617C279.07 338.337 279.296 338.114 279.593 337.949C279.89 337.782 280.239 337.698 280.64 337.698C280.973 337.698 281.273 337.757 281.54 337.875C281.809 337.991 282.023 338.165 282.183 338.399C282.345 338.63 282.426 338.902 282.426 339.215C282.426 339.504 282.352 339.764 282.204 339.995C282.058 340.226 281.853 340.405 281.589 340.531V340.539ZM285.643 343.604C285.327 343.604 285.036 343.539 284.769 343.41C284.505 343.278 284.275 343.09 284.08 342.845C283.888 342.597 283.736 342.287 283.626 341.913C283.519 341.539 283.466 341.119 283.466 340.655C283.466 340.226 283.515 339.83 283.614 339.467C283.713 339.104 283.853 338.792 284.035 338.531C284.216 338.27 284.444 338.066 284.719 337.92C284.997 337.772 285.305 337.698 285.643 337.698C285.959 337.698 286.249 337.764 286.513 337.896C286.78 338.025 287.01 338.213 287.202 338.461C287.397 338.705 287.549 339.016 287.656 339.393C287.766 339.767 287.821 340.187 287.821 340.655C287.821 341.084 287.771 341.478 287.672 341.838C287.576 342.199 287.436 342.509 287.252 342.771C287.07 343.032 286.842 343.237 286.567 343.385C286.292 343.531 285.984 343.604 285.643 343.604ZM285.647 342.944C285.953 342.944 286.215 342.849 286.435 342.659C286.655 342.469 286.821 342.204 286.934 341.863C287.047 341.52 287.103 341.117 287.103 340.655C287.103 339.929 286.97 339.365 286.703 338.964C286.436 338.56 286.085 338.358 285.647 338.358C285.188 338.358 284.829 338.564 284.571 338.976C284.312 339.389 284.183 339.948 284.183 340.655C284.183 341.372 284.317 341.933 284.583 342.338C284.853 342.742 285.207 342.944 285.647 342.944ZM295.377 343.55L294.84 342.09H292.164L291.632 343.55H290.86L293.129 337.549H293.867L296.152 343.55H295.377ZM292.399 341.447H294.605L293.508 338.448H293.492L292.399 341.447ZM302.305 337.549H303.044V343.55H302.309V338.951H302.297L300.342 342.342H299.843L297.888 338.951H297.876V343.55H297.142V337.549H297.88L300.082 341.43H300.107L302.305 337.549Z" fill="#92959E"/>
<path d="M168.442 343.55V338.605L167.283 339.475L166.936 338.947L168.566 337.751H169.151V343.55H168.442ZM171.618 343.55V338.605L170.459 339.475L170.112 338.947L171.741 337.751H172.327V343.55H171.618ZM174.088 339.851C173.997 339.851 173.913 339.83 173.836 339.789C173.762 339.745 173.703 339.687 173.659 339.615C173.618 339.541 173.597 339.46 173.597 339.372C173.597 339.237 173.644 339.123 173.737 339.03C173.834 338.936 173.951 338.89 174.088 338.89C174.223 338.89 174.337 338.936 174.43 339.03C174.527 339.123 174.575 339.237 174.575 339.372C174.575 339.504 174.527 339.617 174.43 339.71C174.337 339.804 174.223 339.851 174.088 339.851ZM174.088 343.101C173.951 343.101 173.834 343.054 173.737 342.96C173.644 342.867 173.597 342.754 173.597 342.622C173.597 342.487 173.644 342.373 173.737 342.28C173.834 342.186 173.951 342.14 174.088 342.14C174.223 342.14 174.337 342.186 174.43 342.28C174.527 342.373 174.575 342.487 174.575 342.622C174.575 342.754 174.527 342.867 174.43 342.96C174.337 343.054 174.223 343.101 174.088 343.101ZM178.212 340.539C178.52 340.663 178.762 340.851 178.938 341.104C179.114 341.357 179.202 341.654 179.202 341.995C179.202 342.309 179.12 342.589 178.955 342.837C178.792 343.081 178.568 343.271 178.282 343.406C177.999 343.538 177.68 343.604 177.326 343.604C176.847 343.604 176.433 343.498 176.084 343.286C175.738 343.074 175.49 342.795 175.342 342.449L175.956 342.168C176.028 342.328 176.123 342.464 176.241 342.577C176.359 342.689 176.506 342.777 176.682 342.841C176.861 342.904 177.062 342.936 177.284 342.936C177.504 342.936 177.705 342.893 177.886 342.808C178.068 342.722 178.212 342.6 178.32 342.441C178.427 342.278 178.48 342.094 178.48 341.888C178.48 341.748 178.453 341.616 178.398 341.492C178.346 341.368 178.269 341.258 178.167 341.162C178.065 341.066 177.932 340.99 177.767 340.935C177.602 340.88 177.415 340.853 177.206 340.853H176.723V340.234H177.288C177.467 340.234 177.625 340.209 177.763 340.16C177.9 340.11 178.009 340.043 178.089 339.958C178.171 339.87 178.233 339.772 178.274 339.665C178.315 339.555 178.336 339.437 178.336 339.31C178.336 339.03 178.232 338.802 178.023 338.626C177.816 338.45 177.559 338.362 177.251 338.362C176.754 338.362 176.374 338.551 176.113 338.931L175.54 338.617C175.694 338.337 175.919 338.114 176.216 337.949C176.513 337.782 176.862 337.698 177.264 337.698C177.596 337.698 177.896 337.757 178.163 337.875C178.432 337.991 178.647 338.165 178.806 338.399C178.968 338.63 179.05 338.902 179.05 339.215C179.05 339.504 178.975 339.764 178.827 339.995C178.681 340.226 178.476 340.405 178.212 340.531V340.539ZM182.266 343.604C181.95 343.604 181.659 343.539 181.392 343.41C181.128 343.278 180.899 343.09 180.703 342.845C180.511 342.597 180.36 342.287 180.25 341.913C180.142 341.539 180.089 341.119 180.089 340.655C180.089 340.226 180.138 339.83 180.237 339.467C180.336 339.104 180.477 338.792 180.658 338.531C180.839 338.27 181.068 338.066 181.343 337.92C181.62 337.772 181.928 337.698 182.266 337.698C182.583 337.698 182.873 337.764 183.137 337.896C183.403 338.025 183.633 338.213 183.825 338.461C184.021 338.705 184.172 339.016 184.279 339.393C184.389 339.767 184.444 340.187 184.444 340.655C184.444 341.084 184.395 341.478 184.296 341.838C184.199 342.199 184.059 342.509 183.875 342.771C183.693 343.032 183.465 343.237 183.19 343.385C182.915 343.531 182.607 343.604 182.266 343.604ZM182.271 342.944C182.576 342.944 182.838 342.849 183.058 342.659C183.278 342.469 183.445 342.204 183.557 341.863C183.67 341.52 183.726 341.117 183.726 340.655C183.726 339.929 183.593 339.365 183.326 338.964C183.06 338.56 182.708 338.358 182.271 338.358C181.811 338.358 181.453 338.564 181.194 338.976C180.936 339.389 180.806 339.948 180.806 340.655C180.806 341.372 180.94 341.933 181.207 342.338C181.476 342.742 181.831 342.944 182.271 342.944ZM192 343.55L191.464 342.09H188.787L188.255 343.55H187.484L189.752 337.549H190.49L192.775 343.55H192ZM189.022 341.447H191.229L190.131 338.448H190.115L189.022 341.447ZM198.929 337.549H199.667V343.55H198.933V338.951H198.92L196.965 342.342H196.466L194.511 338.951H194.499V343.55H193.765V337.549H194.503L196.706 341.43H196.73L198.929 337.549Z" fill="#92959E"/>
<path d="M374.526 343.604C374.21 343.604 373.918 343.539 373.651 343.41C373.387 343.278 373.158 343.09 372.963 342.845C372.77 342.597 372.619 342.287 372.509 341.913C372.402 341.539 372.348 341.119 372.348 340.655C372.348 340.226 372.398 339.83 372.497 339.467C372.596 339.104 372.736 338.792 372.917 338.531C373.099 338.27 373.327 338.066 373.602 337.92C373.88 337.772 374.188 337.698 374.526 337.698C374.842 337.698 375.132 337.764 375.396 337.896C375.663 338.025 375.892 338.213 376.085 338.461C376.28 338.705 376.431 339.016 376.538 339.393C376.648 339.767 376.703 340.187 376.703 340.655C376.703 341.084 376.654 341.478 376.555 341.838C376.459 342.199 376.318 342.509 376.134 342.771C375.953 343.032 375.724 343.237 375.45 343.385C375.175 343.531 374.867 343.604 374.526 343.604ZM374.53 342.944C374.835 342.944 375.098 342.849 375.318 342.659C375.538 342.469 375.704 342.204 375.817 341.863C375.929 341.52 375.986 341.117 375.986 340.655C375.986 339.929 375.852 339.365 375.586 338.964C375.319 338.56 374.967 338.358 374.53 338.358C374.071 338.358 373.712 338.564 373.453 338.976C373.195 339.389 373.066 339.948 373.066 340.655C373.066 341.372 373.199 341.933 373.466 342.338C373.735 342.742 374.09 342.944 374.53 342.944ZM378.807 343.55V338.605L377.648 339.475L377.301 338.947L378.93 337.751H379.516V343.55H378.807ZM381.277 339.851C381.186 339.851 381.103 339.83 381.026 339.789C380.951 339.745 380.892 339.687 380.848 339.615C380.807 339.541 380.786 339.46 380.786 339.372C380.786 339.237 380.833 339.123 380.927 339.03C381.023 338.936 381.14 338.89 381.277 338.89C381.412 338.89 381.526 338.936 381.619 339.03C381.716 339.123 381.764 339.237 381.764 339.372C381.764 339.504 381.716 339.617 381.619 339.71C381.526 339.804 381.412 339.851 381.277 339.851ZM381.277 343.101C381.14 343.101 381.023 343.054 380.927 342.96C380.833 342.867 380.786 342.754 380.786 342.622C380.786 342.487 380.833 342.373 380.927 342.28C381.023 342.186 381.14 342.14 381.277 342.14C381.412 342.14 381.526 342.186 381.619 342.28C381.716 342.373 381.764 342.487 381.764 342.622C381.764 342.754 381.716 342.867 381.619 342.96C381.526 343.054 381.412 343.101 381.277 343.101ZM385.401 340.539C385.709 340.663 385.951 340.851 386.127 341.104C386.303 341.357 386.391 341.654 386.391 341.995C386.391 342.309 386.309 342.589 386.144 342.837C385.982 343.081 385.758 343.271 385.472 343.406C385.188 343.538 384.869 343.604 384.515 343.604C384.036 343.604 383.623 343.498 383.273 343.286C382.927 343.074 382.679 342.795 382.531 342.449L383.145 342.168C383.217 342.328 383.312 342.464 383.43 342.577C383.548 342.689 383.695 342.777 383.871 342.841C384.05 342.904 384.251 342.936 384.473 342.936C384.693 342.936 384.894 342.893 385.076 342.808C385.257 342.722 385.401 342.6 385.509 342.441C385.616 342.278 385.67 342.094 385.67 341.888C385.67 341.748 385.642 341.616 385.587 341.492C385.535 341.368 385.458 341.258 385.356 341.162C385.254 341.066 385.121 340.99 384.956 340.935C384.791 340.88 384.604 340.853 384.395 340.853H383.913V340.234H384.478C384.656 340.234 384.814 340.209 384.952 340.16C385.089 340.11 385.198 340.043 385.278 339.958C385.36 339.87 385.422 339.772 385.463 339.665C385.505 339.555 385.525 339.437 385.525 339.31C385.525 339.03 385.421 338.802 385.212 338.626C385.006 338.45 384.748 338.362 384.44 338.362C383.943 338.362 383.563 338.551 383.302 338.931L382.729 338.617C382.883 338.337 383.108 338.114 383.405 337.949C383.702 337.782 384.051 337.698 384.453 337.698C384.786 337.698 385.085 337.757 385.352 337.875C385.621 337.991 385.836 338.165 385.995 338.399C386.158 338.63 386.239 338.902 386.239 339.215C386.239 339.504 386.164 339.764 386.016 339.995C385.87 340.226 385.665 340.405 385.401 340.531V340.539ZM389.456 343.604C389.139 343.604 388.848 343.539 388.581 343.41C388.317 343.278 388.088 343.09 387.893 342.845C387.7 342.597 387.549 342.287 387.439 341.913C387.332 341.539 387.278 341.119 387.278 340.655C387.278 340.226 387.327 339.83 387.426 339.467C387.525 339.104 387.666 338.792 387.847 338.531C388.029 338.27 388.257 338.066 388.532 337.92C388.809 337.772 389.117 337.698 389.456 337.698C389.772 337.698 390.062 337.764 390.326 337.896C390.593 338.025 390.822 338.213 391.015 338.461C391.21 338.705 391.361 339.016 391.468 339.393C391.578 339.767 391.633 340.187 391.633 340.655C391.633 341.084 391.584 341.478 391.485 341.838C391.389 342.199 391.248 342.509 391.064 342.771C390.883 343.032 390.654 343.237 390.379 343.385C390.105 343.531 389.797 343.604 389.456 343.604ZM389.46 342.944C389.765 342.944 390.028 342.849 390.247 342.659C390.467 342.469 390.634 342.204 390.747 341.863C390.859 341.52 390.916 341.117 390.916 340.655C390.916 339.929 390.782 339.365 390.516 338.964C390.249 338.56 389.897 338.358 389.46 338.358C389.001 338.358 388.642 338.564 388.383 338.976C388.125 339.389 387.996 339.948 387.996 340.655C387.996 341.372 388.129 341.933 388.396 342.338C388.665 342.742 389.02 342.944 389.46 342.944ZM395.197 343.55V337.549H397.296C397.637 337.549 397.937 337.596 398.195 337.689C398.453 337.783 398.66 337.915 398.814 338.085C398.97 338.253 399.087 338.448 399.164 338.671C399.241 338.891 399.28 339.137 399.28 339.409C399.28 339.72 399.229 339.995 399.127 340.234C399.025 340.471 398.88 340.664 398.69 340.816C398.503 340.964 398.282 341.075 398.026 341.15C397.773 341.224 397.487 341.261 397.168 341.261H395.931V343.55H395.197ZM395.931 340.585H397.102C397.347 340.585 397.561 340.556 397.745 340.498C397.93 340.438 398.077 340.354 398.187 340.246C398.297 340.137 398.379 340.011 398.434 339.871C398.489 339.728 398.517 339.569 398.517 339.393C398.517 339.019 398.401 338.732 398.17 338.531C397.942 338.327 397.624 338.226 397.218 338.226H395.931V340.585ZM405.582 337.549H406.32V343.55H405.586V338.951H405.573L403.618 342.342H403.119L401.164 338.951H401.152V343.55H400.418V337.549H401.156L403.359 341.43H403.383L405.582 337.549Z" fill="#92959E"/>
<path d="M476.313 343.604C475.997 343.604 475.706 343.539 475.439 343.41C475.175 343.278 474.945 343.09 474.75 342.845C474.558 342.597 474.406 342.287 474.296 341.913C474.189 341.539 474.136 341.119 474.136 340.655C474.136 340.226 474.185 339.83 474.284 339.467C474.383 339.104 474.523 338.792 474.705 338.531C474.886 338.27 475.114 338.066 475.389 337.92C475.667 337.772 475.975 337.698 476.313 337.698C476.629 337.698 476.92 337.764 477.183 337.896C477.45 338.025 477.68 338.213 477.872 338.461C478.067 338.705 478.219 339.016 478.326 339.393C478.436 339.767 478.491 340.187 478.491 340.655C478.491 341.084 478.441 341.478 478.342 341.838C478.246 342.199 478.106 342.509 477.922 342.771C477.74 343.032 477.512 343.237 477.237 343.385C476.962 343.531 476.654 343.604 476.313 343.604ZM476.317 342.944C476.623 342.944 476.885 342.849 477.105 342.659C477.325 342.469 477.491 342.204 477.604 341.863C477.717 341.52 477.773 341.117 477.773 340.655C477.773 339.929 477.64 339.365 477.373 338.964C477.106 338.56 476.755 338.358 476.317 338.358C475.858 338.358 475.499 338.564 475.241 338.976C474.982 339.389 474.853 339.948 474.853 340.655C474.853 341.372 474.987 341.933 475.253 342.338C475.523 342.742 475.877 342.944 476.317 342.944ZM480.355 342.898H482.929V343.55H479.279L479.27 343.059L481.254 341.034C481.394 340.889 481.511 340.761 481.605 340.651C481.698 340.541 481.789 340.42 481.877 340.288C481.965 340.153 482.031 340.02 482.075 339.888C482.119 339.753 482.141 339.615 482.141 339.475C482.141 339.154 482.038 338.888 481.832 338.679C481.628 338.468 481.367 338.362 481.048 338.362C480.493 338.362 480.077 338.627 479.802 339.158L479.279 338.799C479.391 338.579 479.527 338.389 479.687 338.23C479.849 338.067 480.05 337.938 480.289 337.842C480.531 337.746 480.799 337.698 481.093 337.698C481.324 337.698 481.546 337.738 481.757 337.817C481.969 337.894 482.156 338.004 482.318 338.147C482.48 338.29 482.61 338.47 482.706 338.688C482.805 338.905 482.854 339.144 482.854 339.405C482.854 339.738 482.777 340.057 482.623 340.362C482.472 340.664 482.219 340.996 481.865 341.356L480.355 342.886V342.898ZM484.318 339.851C484.228 339.851 484.144 339.83 484.067 339.789C483.993 339.745 483.934 339.687 483.89 339.615C483.848 339.541 483.828 339.46 483.828 339.372C483.828 339.237 483.874 339.123 483.968 339.03C484.064 338.936 484.181 338.89 484.318 338.89C484.453 338.89 484.567 338.936 484.661 339.03C484.757 339.123 484.805 339.237 484.805 339.372C484.805 339.504 484.757 339.617 484.661 339.71C484.567 339.804 484.453 339.851 484.318 339.851ZM484.318 343.101C484.181 343.101 484.064 343.054 483.968 342.96C483.874 342.867 483.828 342.754 483.828 342.622C483.828 342.487 483.874 342.373 483.968 342.28C484.064 342.186 484.181 342.14 484.318 342.14C484.453 342.14 484.567 342.186 484.661 342.28C484.757 342.373 484.805 342.487 484.805 342.622C484.805 342.754 484.757 342.867 484.661 342.96C484.567 343.054 484.453 343.101 484.318 343.101ZM488.443 340.539C488.751 340.663 488.993 340.851 489.169 341.104C489.345 341.357 489.433 341.654 489.433 341.995C489.433 342.309 489.35 342.589 489.185 342.837C489.023 343.081 488.799 343.271 488.513 343.406C488.23 343.538 487.911 343.604 487.556 343.604C487.078 343.604 486.664 343.498 486.315 343.286C485.968 343.074 485.721 342.795 485.572 342.449L486.187 342.168C486.258 342.328 486.353 342.464 486.471 342.577C486.59 342.689 486.737 342.777 486.913 342.841C487.091 342.904 487.292 342.936 487.515 342.936C487.735 342.936 487.935 342.893 488.117 342.808C488.298 342.722 488.443 342.6 488.55 342.441C488.657 342.278 488.711 342.094 488.711 341.888C488.711 341.748 488.683 341.616 488.628 341.492C488.576 341.368 488.499 341.258 488.397 341.162C488.296 341.066 488.162 340.99 487.997 340.935C487.832 340.88 487.645 340.853 487.436 340.853H486.954V340.234H487.519C487.698 340.234 487.856 340.209 487.993 340.16C488.131 340.11 488.239 340.043 488.319 339.958C488.402 339.87 488.463 339.772 488.505 339.665C488.546 339.555 488.567 339.437 488.567 339.31C488.567 339.03 488.462 338.802 488.253 338.626C488.047 338.45 487.79 338.362 487.482 338.362C486.984 338.362 486.605 338.551 486.344 338.931L485.77 338.617C485.924 338.337 486.15 338.114 486.447 337.949C486.744 337.782 487.093 337.698 487.494 337.698C487.827 337.698 488.127 337.757 488.393 337.875C488.663 337.991 488.877 338.165 489.037 338.399C489.199 338.63 489.28 338.902 489.28 339.215C489.28 339.504 489.206 339.764 489.057 339.995C488.912 340.226 488.707 340.405 488.443 340.531V340.539ZM492.497 343.604C492.181 343.604 491.889 343.539 491.623 343.41C491.359 343.278 491.129 343.09 490.934 342.845C490.741 342.597 490.59 342.287 490.48 341.913C490.373 341.539 490.319 341.119 490.319 340.655C490.319 340.226 490.369 339.83 490.468 339.467C490.567 339.104 490.707 338.792 490.888 338.531C491.07 338.27 491.298 338.066 491.573 337.92C491.851 337.772 492.159 337.698 492.497 337.698C492.813 337.698 493.103 337.764 493.367 337.896C493.634 338.025 493.863 338.213 494.056 338.461C494.251 338.705 494.402 339.016 494.51 339.393C494.62 339.767 494.675 340.187 494.675 340.655C494.675 341.084 494.625 341.478 494.526 341.838C494.43 342.199 494.29 342.509 494.105 342.771C493.924 343.032 493.696 343.237 493.421 343.385C493.146 343.531 492.838 343.604 492.497 343.604ZM492.501 342.944C492.806 342.944 493.069 342.849 493.289 342.659C493.509 342.469 493.675 342.204 493.788 341.863C493.901 341.52 493.957 341.117 493.957 340.655C493.957 339.929 493.824 339.365 493.557 338.964C493.29 338.56 492.938 338.358 492.501 338.358C492.042 338.358 491.683 338.564 491.425 338.976C491.166 339.389 491.037 339.948 491.037 340.655C491.037 341.372 491.17 341.933 491.437 342.338C491.706 342.742 492.061 342.944 492.501 342.944ZM498.238 343.55V337.549H500.337C500.678 337.549 500.978 337.596 501.236 337.689C501.495 337.783 501.701 337.915 501.855 338.085C502.012 338.253 502.129 338.448 502.206 338.671C502.283 338.891 502.321 339.137 502.321 339.409C502.321 339.72 502.27 339.995 502.168 340.234C502.067 340.471 501.921 340.664 501.731 340.816C501.544 340.964 501.323 341.075 501.067 341.15C500.814 341.224 500.528 341.261 500.209 341.261H498.972V343.55H498.238ZM498.972 340.585H500.143C500.388 340.585 500.603 340.556 500.787 340.498C500.971 340.438 501.118 340.354 501.228 340.246C501.338 340.137 501.421 340.011 501.476 339.871C501.531 339.728 501.558 339.569 501.558 339.393C501.558 339.019 501.443 338.732 501.212 338.531C500.983 338.327 500.666 338.226 500.259 338.226H498.972V340.585ZM508.623 337.549H509.361V343.55H508.627V338.951H508.615L506.66 342.342H506.161L504.206 338.951H504.193V343.55H503.459V337.549H504.198L506.4 341.43H506.425L508.623 337.549Z" fill="#92959E"/>
<path d="M581.823 343.604C581.507 343.604 581.215 343.539 580.948 343.41C580.685 343.278 580.455 343.09 580.26 342.845C580.067 342.597 579.916 342.287 579.806 341.913C579.699 341.539 579.645 341.119 579.645 340.655C579.645 340.226 579.695 339.83 579.794 339.467C579.893 339.104 580.033 338.792 580.214 338.531C580.396 338.27 580.624 338.066 580.899 337.92C581.177 337.772 581.485 337.698 581.823 337.698C582.139 337.698 582.429 337.764 582.693 337.896C582.96 338.025 583.189 338.213 583.382 338.461C583.577 338.705 583.728 339.016 583.835 339.393C583.945 339.767 584 340.187 584 340.655C584 341.084 583.951 341.478 583.852 341.838C583.756 342.199 583.616 342.509 583.431 342.771C583.25 343.032 583.022 343.237 582.747 343.385C582.472 343.531 582.164 343.604 581.823 343.604ZM581.827 342.944C582.132 342.944 582.395 342.849 582.615 342.659C582.835 342.469 583.001 342.204 583.114 341.863C583.226 341.52 583.283 341.117 583.283 340.655C583.283 339.929 583.149 339.365 582.883 338.964C582.616 338.56 582.264 338.358 581.827 338.358C581.368 338.358 581.009 338.564 580.751 338.976C580.492 339.389 580.363 339.948 580.363 340.655C580.363 341.372 580.496 341.933 580.763 342.338C581.032 342.742 581.387 342.944 581.827 342.944ZM587.518 340.539C587.826 340.663 588.068 340.851 588.244 341.104C588.42 341.357 588.508 341.654 588.508 341.995C588.508 342.309 588.426 342.589 588.261 342.837C588.099 343.081 587.875 343.271 587.589 343.406C587.305 343.538 586.986 343.604 586.632 343.604C586.153 343.604 585.74 343.498 585.39 343.286C585.044 343.074 584.796 342.795 584.648 342.449L585.262 342.168C585.334 342.328 585.429 342.464 585.547 342.577C585.665 342.689 585.812 342.777 585.988 342.841C586.167 342.904 586.368 342.936 586.59 342.936C586.81 342.936 587.011 342.893 587.193 342.808C587.374 342.722 587.518 342.6 587.626 342.441C587.733 342.278 587.787 342.094 587.787 341.888C587.787 341.748 587.759 341.616 587.704 341.492C587.652 341.368 587.575 341.258 587.473 341.162C587.371 341.066 587.238 340.99 587.073 340.935C586.908 340.88 586.721 340.853 586.512 340.853H586.03V340.234H586.595C586.773 340.234 586.931 340.209 587.069 340.16C587.206 340.11 587.315 340.043 587.395 339.958C587.477 339.87 587.539 339.772 587.58 339.665C587.622 339.555 587.642 339.437 587.642 339.31C587.642 339.03 587.538 338.802 587.329 338.626C587.123 338.45 586.865 338.362 586.557 338.362C586.06 338.362 585.68 338.551 585.419 338.931L584.846 338.617C585 338.337 585.225 338.114 585.522 337.949C585.819 337.782 586.168 337.698 586.57 337.698C586.903 337.698 587.202 337.757 587.469 337.875C587.738 337.991 587.953 338.165 588.112 338.399C588.275 338.63 588.356 338.902 588.356 339.215C588.356 339.504 588.281 339.764 588.133 339.995C587.987 340.226 587.782 340.405 587.518 340.531V340.539ZM589.935 339.851C589.845 339.851 589.761 339.83 589.684 339.789C589.609 339.745 589.55 339.687 589.506 339.615C589.465 339.541 589.444 339.46 589.444 339.372C589.444 339.237 589.491 339.123 589.585 339.03C589.681 338.936 589.798 338.89 589.935 338.89C590.07 338.89 590.184 338.936 590.278 339.03C590.374 339.123 590.422 339.237 590.422 339.372C590.422 339.504 590.374 339.617 590.278 339.71C590.184 339.804 590.07 339.851 589.935 339.851ZM589.935 343.101C589.798 343.101 589.681 343.054 589.585 342.96C589.491 342.867 589.444 342.754 589.444 342.622C589.444 342.487 589.491 342.373 589.585 342.28C589.681 342.186 589.798 342.14 589.935 342.14C590.07 342.14 590.184 342.186 590.278 342.28C590.374 342.373 590.422 342.487 590.422 342.622C590.422 342.754 590.374 342.867 590.278 342.96C590.184 343.054 590.07 343.101 589.935 343.101ZM594.06 340.539C594.368 340.663 594.609 340.851 594.785 341.104C594.961 341.357 595.049 341.654 595.049 341.995C595.049 342.309 594.967 342.589 594.802 342.837C594.64 343.081 594.416 343.271 594.13 343.406C593.846 343.538 593.528 343.604 593.173 343.604C592.694 343.604 592.281 343.498 591.931 343.286C591.585 343.074 591.338 342.795 591.189 342.449L591.804 342.168C591.875 342.328 591.97 342.464 592.088 342.577C592.206 342.689 592.353 342.777 592.529 342.841C592.708 342.904 592.909 342.936 593.132 342.936C593.352 342.936 593.552 342.893 593.734 342.808C593.915 342.722 594.06 342.6 594.167 342.441C594.274 342.278 594.328 342.094 594.328 341.888C594.328 341.748 594.3 341.616 594.245 341.492C594.193 341.368 594.116 341.258 594.014 341.162C593.912 341.066 593.779 340.99 593.614 340.935C593.449 340.88 593.262 340.853 593.053 340.853H592.571V340.234H593.136C593.314 340.234 593.473 340.209 593.61 340.16C593.748 340.11 593.856 340.043 593.936 339.958C594.018 339.87 594.08 339.772 594.121 339.665C594.163 339.555 594.183 339.437 594.183 339.31C594.183 339.03 594.079 338.802 593.87 338.626C593.664 338.45 593.407 338.362 593.099 338.362C592.601 338.362 592.222 338.551 591.96 338.931L591.387 338.617C591.541 338.337 591.766 338.114 592.063 337.949C592.36 337.782 592.71 337.698 593.111 337.698C593.444 337.698 593.743 337.757 594.01 337.875C594.28 337.991 594.494 338.165 594.653 338.399C594.816 338.63 594.897 338.902 594.897 339.215C594.897 339.504 594.823 339.764 594.674 339.995C594.528 340.226 594.324 340.405 594.06 340.531V340.539ZM598.114 343.604C597.798 343.604 597.506 343.539 597.239 343.41C596.975 343.278 596.746 343.09 596.551 342.845C596.358 342.597 596.207 342.287 596.097 341.913C595.99 341.539 595.936 341.119 595.936 340.655C595.936 340.226 595.986 339.83 596.085 339.467C596.184 339.104 596.324 338.792 596.505 338.531C596.687 338.27 596.915 338.066 597.19 337.92C597.468 337.772 597.776 337.698 598.114 337.698C598.43 337.698 598.72 337.764 598.984 337.896C599.251 338.025 599.48 338.213 599.673 338.461C599.868 338.705 600.019 339.016 600.126 339.393C600.236 339.767 600.291 340.187 600.291 340.655C600.291 341.084 600.242 341.478 600.143 341.838C600.047 342.199 599.906 342.509 599.722 342.771C599.541 343.032 599.313 343.237 599.038 343.385C598.763 343.531 598.455 343.604 598.114 343.604ZM598.118 342.944C598.423 342.944 598.686 342.849 598.906 342.659C599.126 342.469 599.292 342.204 599.405 341.863C599.517 341.52 599.574 341.117 599.574 340.655C599.574 339.929 599.44 339.365 599.174 338.964C598.907 338.56 598.555 338.358 598.118 338.358C597.659 338.358 597.3 338.564 597.041 338.976C596.783 339.389 596.654 339.948 596.654 340.655C596.654 341.372 596.787 341.933 597.054 342.338C597.323 342.742 597.678 342.944 598.118 342.944ZM603.855 343.55V337.549H605.954C606.295 337.549 606.595 337.596 606.853 337.689C607.112 337.783 607.318 337.915 607.472 338.085C607.628 338.253 607.745 338.448 607.822 338.671C607.899 338.891 607.938 339.137 607.938 339.409C607.938 339.72 607.887 339.995 607.785 340.234C607.683 340.471 607.538 340.664 607.348 340.816C607.161 340.964 606.94 341.075 606.684 341.15C606.431 341.224 606.145 341.261 605.826 341.261H604.589V343.55H603.855ZM604.589 340.585H605.76C606.005 340.585 606.219 340.556 606.404 340.498C606.588 340.438 606.735 340.354 606.845 340.246C606.955 340.137 607.037 340.011 607.092 339.871C607.147 339.728 607.175 339.569 607.175 339.393C607.175 339.019 607.059 338.732 606.828 338.531C606.6 338.327 606.283 338.226 605.876 338.226H604.589V340.585ZM614.24 337.549H614.978V343.55H614.244V338.951H614.231L612.277 342.342H611.778L609.823 338.951H609.81V343.55H609.076V337.549H609.814L612.017 341.43H612.041L614.24 337.549Z" fill="#92959E"/>
<path d="M454.232 325.64V148.615" stroke="#ECECEE" stroke-width="0.703878"/>
<circle cx="454.232" cy="148.967" r="5.27909" fill="white" stroke="#065F4B" stroke-width="2.11163"/>
<circle cx="454.232" cy="325.64" r="3.16745" fill="white" stroke="#065F4B" stroke-width="2.11163"/>
<path d="M378.72 94.1293H376.049" stroke="#92959E" stroke-width="1.05582" stroke-linecap="round" stroke-linejoin="round"/>
<path d="M379.91 87.3071H382.581" stroke="#92959E" stroke-width="1.05582" stroke-linecap="round" stroke-linejoin="round"/>
<path fill-rule="evenodd" clip-rule="evenodd" d="M378.04 87.2689C378.04 86.3569 377.591 85.6174 377.038 85.6174C376.485 85.6174 376.036 86.3569 376.036 87.2689C376.036 88.1809 376.485 88.9204 377.038 88.9204C377.591 88.9204 378.04 88.1809 378.04 87.2689Z" stroke="#92959E" stroke-width="1.05582" stroke-linecap="round" stroke-linejoin="round"/>
<path fill-rule="evenodd" clip-rule="evenodd" d="M382.818 94.1018C382.818 93.1898 382.37 92.4503 381.817 92.4503C381.263 92.4503 380.814 93.1898 380.814 94.1018C380.814 95.0138 381.263 95.7533 381.817 95.7533C382.37 95.7533 382.818 95.0138 382.818 94.1018Z" stroke="#92959E" stroke-width="1.05582" stroke-linecap="round" stroke-linejoin="round"/>
</g>
<defs>
<filter id="filter0_dd_3519_3041" x="0" y="0" width="798" height="412" filterUnits="userSpaceOnUse" color-interpolation-filters="sRGB">
<feFlood flood-opacity="0" result="BackgroundImageFix"/>
<feColorMatrix in="SourceAlpha" type="matrix" values="0 0 0 0 0 0 0 0 0 0 0 0 0 0 0 0 0 0 127 0" result="hardAlpha"/>
<feOffset dy="1"/>
<feGaussianBlur stdDeviation="1.5"/>
<feComposite in2="hardAlpha" operator="out"/>
<feColorMatrix type="matrix" values="0 0 0 0 0 0 0 0 0 0 0 0 0 0 0 0 0 0 0.2 0"/>
<feBlend mode="normal" in2="BackgroundImageFix" result="effect1_dropShadow_3519_3041"/>
<feColorMatrix in="SourceAlpha" type="matrix" values="0 0 0 0 0 0 0 0 0 0 0 0 0 0 0 0 0 0 127 0" result="hardAlpha"/>
<feOffset/>
<feGaussianBlur stdDeviation="0.5"/>
<feComposite in2="hardAlpha" operator="out"/>
<feColorMatrix type="matrix" values="0 0 0 0 0 0 0 0 0 0 0 0 0 0 0 0 0 0 0.125 0"/>
<feBlend mode="normal" in2="effect1_dropShadow_3519_3041" result="effect2_dropShadow_3519_3041"/>
<feBlend mode="normal" in="SourceGraphic" in2="effect2_dropShadow_3519_3041" result="shape"/>
</filter>
<linearGradient id="paint0_linear_3519_3041" x1="347.504" y1="92.5797" x2="347.504" y2="340.008" gradientUnits="userSpaceOnUse">
<stop stop-color="#F3F0FF"/>
<stop offset="1" stop-color="#F1EDFF" stop-opacity="0"/>
</linearGradient>
</defs>
</svg>
