<svg width="282" height="242" viewBox="0 0 282 242" fill="none" xmlns="http://www.w3.org/2000/svg">
<rect x="0.5" y="0.671875" width="281" height="241" rx="10" fill="white"/>
<path d="M17.3839 40.6719V32.6264H18.5978V39.6269H22.2434V40.6719H17.3839ZM23.4339 40.6719V34.6378H24.6085V40.6719H23.4339ZM24.0271 33.7067C23.8228 33.7067 23.6473 33.6386 23.5007 33.5025C23.3566 33.3637 23.2846 33.1987 23.2846 33.0075C23.2846 32.8137 23.3566 32.6487 23.5007 32.5125C23.6473 32.3737 23.8228 32.3043 24.0271 32.3043C24.2314 32.3043 24.4055 32.3737 24.5496 32.5125C24.6962 32.6487 24.7696 32.8137 24.7696 33.0075C24.7696 33.1987 24.6962 33.3637 24.5496 33.5025C24.4055 33.6386 24.2314 33.7067 24.0271 33.7067ZM28.9054 34.6378V35.5806H25.6094V34.6378H28.9054ZM26.4933 33.1921H27.6679V38.9001C27.6679 39.128 27.702 39.2995 27.7701 39.4148C27.8382 39.5274 27.9259 39.6046 28.0333 39.6466C28.1433 39.6858 28.2624 39.7055 28.3908 39.7055C28.4851 39.7055 28.5676 39.6989 28.6383 39.6858C28.709 39.6727 28.764 39.6623 28.8033 39.6544L29.0154 40.6247C28.9473 40.6509 28.8504 40.6771 28.7247 40.7033C28.599 40.7321 28.4418 40.7478 28.2533 40.7504C27.9442 40.7557 27.6562 40.7007 27.389 40.5854C27.1219 40.4702 26.9058 40.2921 26.7408 40.0512C26.5758 39.8102 26.4933 39.5077 26.4933 39.1437V33.1921ZM32.9214 34.6378V35.5806H29.6255V34.6378H32.9214ZM30.5094 33.1921H31.684V38.9001C31.684 39.128 31.718 39.2995 31.7861 39.4148C31.8542 39.5274 31.9419 39.6046 32.0493 39.6466C32.1593 39.6858 32.2785 39.7055 32.4068 39.7055C32.5011 39.7055 32.5836 39.6989 32.6543 39.6858C32.725 39.6727 32.78 39.6623 32.8193 39.6544L33.0314 40.6247C32.9633 40.6509 32.8664 40.6771 32.7407 40.7033C32.615 40.7321 32.4579 40.7478 32.2693 40.7504C31.9603 40.7557 31.6722 40.7007 31.405 40.5854C31.1379 40.4702 30.9218 40.2921 30.7569 40.0512C30.5919 39.8102 30.5094 39.5077 30.5094 39.1437V33.1921ZM36.6566 40.7937C36.0621 40.7937 35.5501 40.6666 35.1205 40.4126C34.6937 40.1559 34.3637 39.7958 34.1306 39.3323C33.9001 38.8661 33.7849 38.32 33.7849 37.6941C33.7849 37.076 33.9001 36.5313 34.1306 36.0599C34.3637 35.5885 34.6884 35.2205 35.1048 34.956C35.5239 34.6915 36.0136 34.5592 36.5741 34.5592C36.9145 34.5592 37.2445 34.6155 37.564 34.7281C37.8836 34.8408 38.1703 35.0175 38.4244 35.2585C38.6784 35.4994 38.8788 35.8124 39.0254 36.1974C39.1721 36.5797 39.2454 37.0446 39.2454 37.592V38.0084H34.4488V37.1284H38.0944C38.0944 36.8194 38.0315 36.5457 37.9058 36.3074C37.7801 36.0664 37.6033 35.8766 37.3755 35.7377C37.1502 35.5989 36.8857 35.5295 36.5819 35.5295C36.2519 35.5295 35.9639 35.6107 35.7177 35.7731C35.4741 35.9329 35.2855 36.1424 35.152 36.4017C35.021 36.6583 34.9556 36.9372 34.9556 37.2384V37.9259C34.9556 38.3292 35.0263 38.6723 35.1677 38.9551C35.3117 39.238 35.5121 39.4541 35.7687 39.6033C36.0254 39.75 36.3253 39.8233 36.6684 39.8233C36.891 39.8233 37.0939 39.7919 37.2773 39.729C37.4606 39.6636 37.619 39.5667 37.7526 39.4383C37.8862 39.31 37.9883 39.1516 38.059 38.963L39.1708 39.1634C39.0817 39.4907 38.922 39.7775 38.6915 40.0237C38.4637 40.2672 38.1769 40.4571 37.8312 40.5933C37.4881 40.7269 37.0966 40.7937 36.6566 40.7937ZM40.4487 40.6719V34.6378H41.584V35.5963H41.6469C41.7568 35.2716 41.9507 35.0162 42.2283 34.8303C42.5085 34.6417 42.8254 34.5474 43.1789 34.5474C43.2523 34.5474 43.3387 34.55 43.4382 34.5553C43.5404 34.5605 43.6202 34.5671 43.6779 34.5749V35.6985C43.6307 35.6854 43.5469 35.671 43.4264 35.6553C43.306 35.6369 43.1855 35.6278 43.065 35.6278C42.7874 35.6278 42.5399 35.6867 42.3225 35.8045C42.1078 35.9198 41.9376 36.0808 41.8118 36.2877C41.6861 36.492 41.6233 36.7251 41.6233 36.987V40.6719H40.4487ZM44.5943 40.6719V34.6378H45.7689V40.6719H44.5943ZM45.1875 33.7067C44.9833 33.7067 44.8078 33.6386 44.6611 33.5025C44.5171 33.3637 44.4451 33.1987 44.4451 33.0075C44.4451 32.8137 44.5171 32.6487 44.6611 32.5125C44.8078 32.3737 44.9833 32.3043 45.1875 32.3043C45.3918 32.3043 45.566 32.3737 45.71 32.5125C45.8567 32.6487 45.93 32.8137 45.93 33.0075C45.93 33.1987 45.8567 33.3637 45.71 33.5025C45.566 33.6386 45.3918 33.7067 45.1875 33.7067ZM48.4238 37.0891V40.6719H47.2492V34.6378H48.3766V35.6199H48.4513C48.5901 35.3004 48.8074 35.0437 49.1034 34.8499C49.402 34.6561 49.7778 34.5592 50.2309 34.5592C50.642 34.5592 51.0021 34.6456 51.3112 34.8185C51.6202 34.9887 51.8598 35.2428 52.0301 35.5806C52.2003 35.9185 52.2854 36.3362 52.2854 36.8338V40.6719H51.1108V36.9752C51.1108 36.5378 50.9969 36.1961 50.769 35.9499C50.5412 35.7011 50.2282 35.5767 49.8302 35.5767C49.5578 35.5767 49.3155 35.6356 49.1034 35.7535C48.8939 35.8713 48.7276 36.0442 48.6045 36.272C48.484 36.4972 48.4238 36.7696 48.4238 37.0891ZM56.2907 43.0604C55.8114 43.0604 55.3989 42.9975 55.0532 42.8718C54.7101 42.7461 54.4299 42.5798 54.2125 42.3729C53.9951 42.166 53.8328 41.9395 53.7254 41.6933L54.735 41.2769C54.8057 41.3921 54.9 41.5139 55.0178 41.6422C55.1383 41.7731 55.3007 41.8845 55.505 41.9761C55.7119 42.0678 55.9777 42.1136 56.3024 42.1136C56.7477 42.1136 57.1156 42.0049 57.4063 41.7876C57.697 41.5728 57.8424 41.2297 57.8424 40.7583V39.5719H57.7677C57.697 39.7002 57.5949 39.843 57.4613 40.0001C57.3304 40.1572 57.1497 40.2934 56.9192 40.4087C56.6887 40.5239 56.3889 40.5815 56.0196 40.5815C55.5429 40.5815 55.1134 40.4702 54.7311 40.2476C54.3513 40.0224 54.0501 39.6911 53.8275 39.2537C53.6075 38.8137 53.4975 38.2729 53.4975 37.6313C53.4975 36.9896 53.6062 36.4396 53.8236 35.9813C54.0436 35.523 54.3448 35.1721 54.7271 34.9285C55.1095 34.6823 55.5429 34.5592 56.0274 34.5592C56.402 34.5592 56.7045 34.6221 56.9349 34.7478C57.1654 34.8709 57.3448 35.0149 57.4731 35.1799C57.6041 35.3449 57.7049 35.4903 57.7756 35.616H57.862V34.6378H59.0131V40.8054C59.0131 41.324 58.8926 41.7496 58.6516 42.0822C58.4107 42.4148 58.0846 42.661 57.6735 42.8207C57.2649 42.9805 56.804 43.0604 56.2907 43.0604ZM56.2789 39.6073C56.6167 39.6073 56.9022 39.5287 57.1353 39.3716C57.371 39.2118 57.5491 38.984 57.6695 38.688C57.7926 38.3894 57.8542 38.032 57.8542 37.6155C57.8542 37.2096 57.7939 36.8521 57.6735 36.5431C57.553 36.234 57.3762 35.9931 57.1431 35.8202C56.91 35.6448 56.622 35.557 56.2789 35.557C55.9253 35.557 55.6307 35.6487 55.395 35.832C55.1593 36.0127 54.9812 36.2589 54.8607 36.5706C54.7428 36.8822 54.6839 37.2306 54.6839 37.6155C54.6839 38.011 54.7442 38.358 54.8646 38.6566C54.9851 38.9551 55.1632 39.1882 55.3989 39.3558C55.6372 39.5235 55.9305 39.6073 56.2789 39.6073ZM63.4103 40.6719V32.6264H68.3995V33.6714H64.6242V36.1227H68.042V37.1638H64.6242V40.6719H63.4103ZM69.698 40.6719V34.6378H70.8726V40.6719H69.698ZM70.2912 33.7067C70.0869 33.7067 69.9114 33.6386 69.7648 33.5025C69.6207 33.3637 69.5487 33.1987 69.5487 33.0075C69.5487 32.8137 69.6207 32.6487 69.7648 32.5125C69.9114 32.3737 70.0869 32.3043 70.2912 32.3043C70.4955 32.3043 70.6696 32.3737 70.8137 32.5125C70.9603 32.6487 71.0337 32.8137 71.0337 33.0075C71.0337 33.1987 70.9603 33.3637 70.8137 33.5025C70.6696 33.6386 70.4955 33.7067 70.2912 33.7067ZM73.5274 37.0891V40.6719H72.3528V34.6378H73.4803V35.6199H73.5549C73.6937 35.3004 73.9111 35.0437 74.207 34.8499C74.5056 34.6561 74.8814 34.5592 75.3345 34.5592C75.7457 34.5592 76.1058 34.6456 76.4148 34.8185C76.7238 34.9887 76.9635 35.2428 77.1337 35.5806C77.304 35.9185 77.3891 36.3362 77.3891 36.8338V40.6719H76.2145V36.9752C76.2145 36.5378 76.1005 36.1961 75.8727 35.9499C75.6448 35.7011 75.3319 35.5767 74.9338 35.5767C74.6614 35.5767 74.4192 35.6356 74.207 35.7535C73.9975 35.8713 73.8312 36.0442 73.7081 36.272C73.5876 36.4972 73.5274 36.7696 73.5274 37.0891ZM81.465 40.7937C80.8705 40.7937 80.3585 40.6666 79.929 40.4126C79.5021 40.1559 79.1721 39.7958 78.939 39.3323C78.7085 38.8661 78.5933 38.32 78.5933 37.6941C78.5933 37.076 78.7085 36.5313 78.939 36.0599C79.1721 35.5885 79.4969 35.2205 79.9133 34.956C80.3323 34.6915 80.822 34.5592 81.3825 34.5592C81.723 34.5592 82.053 34.6155 82.3725 34.7281C82.692 34.8408 82.9788 35.0175 83.2328 35.2585C83.4868 35.4994 83.6872 35.8124 83.8339 36.1974C83.9805 36.5797 84.0538 37.0446 84.0538 37.592V38.0084H79.2572V37.1284H82.9028C82.9028 36.8194 82.84 36.5457 82.7142 36.3074C82.5885 36.0664 82.4118 35.8766 82.1839 35.7377C81.9587 35.5989 81.6942 35.5295 81.3904 35.5295C81.0604 35.5295 80.7723 35.6107 80.5261 35.7731C80.2825 35.9329 80.094 36.1424 79.9604 36.4017C79.8295 36.6583 79.764 36.9372 79.764 37.2384V37.9259C79.764 38.3292 79.8347 38.6723 79.9761 38.9551C80.1202 39.238 80.3205 39.4541 80.5772 39.6033C80.8338 39.75 81.1337 39.8233 81.4768 39.8233C81.6994 39.8233 81.9024 39.7919 82.0857 39.729C82.269 39.6636 82.4275 39.5667 82.561 39.4383C82.6946 39.31 82.7967 39.1516 82.8675 38.963L83.9792 39.1634C83.8902 39.4907 83.7304 39.7775 83.4999 40.0237C83.2721 40.2672 82.9853 40.4571 82.6396 40.5933C82.2965 40.7269 81.905 40.7937 81.465 40.7937ZM89.7787 36.111L88.7141 36.2995C88.6696 36.1633 88.5989 36.0337 88.502 35.9106C88.4077 35.7875 88.2794 35.6867 88.117 35.6081C87.9546 35.5295 87.7517 35.4903 87.5081 35.4903C87.1755 35.4903 86.8979 35.5649 86.6753 35.7142C86.4527 35.8608 86.3414 36.0507 86.3414 36.2838C86.3414 36.4855 86.416 36.6478 86.5653 36.7709C86.7146 36.894 86.9555 36.9949 87.2881 37.0734L88.2467 37.2934C88.8019 37.4217 89.2157 37.6195 89.488 37.8866C89.7604 38.1537 89.8966 38.5008 89.8966 38.9276C89.8966 39.2891 89.7918 39.6112 89.5823 39.894C89.3754 40.1743 89.086 40.3943 88.7141 40.554C88.3449 40.7138 87.9167 40.7937 87.4295 40.7937C86.7538 40.7937 86.2026 40.6496 85.7757 40.3615C85.3488 40.0708 85.0869 39.6583 84.99 39.1241L86.1253 38.9512C86.196 39.2472 86.3414 39.4711 86.5614 39.623C86.7813 39.7723 87.0681 39.8469 87.4217 39.8469C87.8067 39.8469 88.1144 39.767 88.3449 39.6073C88.5753 39.4449 88.6906 39.2472 88.6906 39.0141C88.6906 38.8255 88.6199 38.6671 88.4784 38.5387C88.3396 38.4104 88.1262 38.3135 87.8381 38.248L86.8167 38.0241C86.2536 37.8958 85.8372 37.6915 85.5675 37.4113C85.3003 37.131 85.1668 36.7762 85.1668 36.3467C85.1668 35.9905 85.2663 35.6788 85.4653 35.4117C85.6644 35.1446 85.9393 34.9363 86.2903 34.7871C86.6412 34.6352 87.0432 34.5592 87.4963 34.5592C88.1484 34.5592 88.6618 34.7006 89.0363 34.9835C89.4108 35.2637 89.6583 35.6395 89.7787 36.111Z" fill="#0A2540"/>
<path d="M173.084 57.5648V53.2138H173.95V57.5648H173.084ZM171.343 55.8205V54.9581H175.694V55.8205H171.343ZM179.576 58.762C179.134 58.762 178.739 58.6858 178.392 58.5335C178.046 58.3812 177.773 58.1698 177.571 57.8995C177.371 57.627 177.264 57.3116 177.249 56.9533H178.26C178.272 57.1486 178.338 57.3181 178.456 57.4618C178.576 57.6034 178.733 57.7128 178.926 57.7901C179.119 57.8673 179.333 57.9059 179.569 57.9059C179.829 57.9059 180.059 57.8609 180.258 57.7708C180.46 57.6807 180.617 57.5552 180.731 57.3942C180.845 57.2312 180.902 57.0435 180.902 56.8311C180.902 56.6101 180.845 56.4159 180.731 56.2486C180.62 56.0791 180.455 55.946 180.239 55.8495C180.024 55.753 179.765 55.7047 179.46 55.7047H178.903V54.8937H179.46C179.705 54.8937 179.919 54.8497 180.104 54.7617C180.29 54.6738 180.436 54.5515 180.541 54.3949C180.646 54.2361 180.699 54.0505 180.699 53.8381C180.699 53.6343 180.653 53.4573 180.561 53.3071C180.471 53.1548 180.342 53.0357 180.174 52.9499C180.009 52.8641 179.814 52.8212 179.589 52.8212C179.374 52.8212 179.174 52.8608 178.987 52.9402C178.802 53.0175 178.652 53.129 178.536 53.2749C178.421 53.4187 178.358 53.5914 178.35 53.7931H177.387C177.398 53.4369 177.503 53.1237 177.703 52.8533C177.905 52.583 178.171 52.3717 178.501 52.2193C178.831 52.067 179.198 51.9909 179.602 51.9909C180.024 51.9909 180.389 52.0735 180.696 52.2387C181.005 52.4017 181.243 52.6195 181.41 52.892C181.58 53.1644 181.663 53.4627 181.661 53.7866C181.663 54.1556 181.56 54.4689 181.352 54.7263C181.146 54.9838 180.872 55.1565 180.528 55.2445V55.296C180.966 55.3625 181.305 55.5363 181.545 55.8173C181.788 56.0984 181.908 56.447 181.906 56.8632C181.908 57.2258 181.807 57.5509 181.603 57.8384C181.402 58.1259 181.126 58.3522 180.776 58.5174C180.427 58.6805 180.026 58.762 179.576 58.762ZM183.322 58.6719V57.951L185.553 55.6403C185.791 55.3893 185.987 55.1694 186.141 54.9806C186.298 54.7896 186.415 54.6083 186.492 54.4367C186.57 54.2651 186.608 54.0827 186.608 53.8896C186.608 53.6708 186.557 53.482 186.454 53.3232C186.351 53.1623 186.21 53.0389 186.032 52.9531C185.854 52.8651 185.653 52.8212 185.43 52.8212C185.194 52.8212 184.988 52.8694 184.812 52.966C184.636 53.0625 184.501 53.1988 184.407 53.3747C184.312 53.5506 184.265 53.7566 184.265 53.9926H183.316C183.316 53.5914 183.408 53.2406 183.593 52.9402C183.777 52.6399 184.03 52.4071 184.352 52.2419C184.674 52.0745 185.04 51.9909 185.45 51.9909C185.864 51.9909 186.228 52.0735 186.544 52.2387C186.861 52.4017 187.109 52.6248 187.287 52.908C187.465 53.1891 187.554 53.5066 187.554 53.8606C187.554 54.1052 187.508 54.3444 187.416 54.5783C187.326 54.8122 187.168 55.0728 186.943 55.3603C186.718 55.6457 186.404 55.9922 186.003 56.3998L184.693 57.7708V57.819H187.66V58.6719H183.322ZM189.727 58.733C189.551 58.733 189.4 58.6708 189.273 58.5464C189.147 58.4198 189.083 58.2675 189.083 58.0894C189.083 57.9134 189.147 57.7633 189.273 57.6388C189.4 57.5122 189.551 57.449 189.727 57.449C189.903 57.449 190.054 57.5122 190.181 57.6388C190.307 57.7633 190.371 57.9134 190.371 58.0894C190.371 58.2074 190.341 58.3157 190.281 58.4144C190.223 58.511 190.145 58.5882 190.049 58.6461C189.952 58.7041 189.845 58.733 189.727 58.733ZM193.852 58.762C193.391 58.762 192.984 58.6826 192.63 58.5238C192.278 58.3651 192.002 58.1462 191.802 57.8673C191.603 57.5884 191.504 57.2709 191.506 56.9147C191.504 56.6358 191.561 56.3794 191.677 56.1456C191.795 55.9096 191.955 55.7133 192.156 55.5566C192.358 55.3979 192.583 55.297 192.832 55.2541V55.2155C192.504 55.1361 192.241 54.9602 192.044 54.6877C191.846 54.4152 191.749 54.102 191.751 53.748C191.749 53.4112 191.838 53.1108 192.018 52.8469C192.2 52.5809 192.45 52.3717 192.768 52.2193C193.085 52.067 193.447 51.9909 193.852 51.9909C194.254 51.9909 194.612 52.0681 194.927 52.2226C195.245 52.3749 195.495 52.5841 195.677 52.8501C195.86 53.114 195.952 53.4133 195.954 53.748C195.952 54.102 195.851 54.4152 195.651 54.6877C195.452 54.9602 195.192 55.1361 194.873 55.2155V55.2541C195.119 55.297 195.341 55.3979 195.539 55.5566C195.738 55.7133 195.897 55.9096 196.015 56.1456C196.135 56.3794 196.196 56.6358 196.199 56.9147C196.196 57.2709 196.096 57.5884 195.896 57.8673C195.697 58.1462 195.42 58.3651 195.066 58.5238C194.714 58.6826 194.309 58.762 193.852 58.762ZM193.852 57.9478C194.125 57.9478 194.361 57.9027 194.56 57.8126C194.76 57.7204 194.914 57.5927 195.024 57.4296C195.133 57.2644 195.189 57.0713 195.191 56.8504C195.189 56.6208 195.129 56.4181 195.011 56.2421C194.895 56.0662 194.737 55.9278 194.538 55.827C194.338 55.7261 194.11 55.6757 193.852 55.6757C193.593 55.6757 193.362 55.7261 193.161 55.827C192.959 55.9278 192.8 56.0662 192.684 56.2421C192.568 56.4181 192.512 56.6208 192.514 56.8504C192.512 57.0713 192.564 57.2644 192.671 57.4296C192.781 57.5927 192.936 57.7204 193.138 57.8126C193.34 57.9027 193.578 57.9478 193.852 57.9478ZM193.852 54.8808C194.071 54.8808 194.265 54.8368 194.435 54.7489C194.604 54.6609 194.737 54.5386 194.834 54.382C194.933 54.2254 194.983 54.0419 194.985 53.8317C194.983 53.6257 194.934 53.4455 194.837 53.291C194.743 53.1365 194.611 53.0175 194.441 52.9338C194.272 52.848 194.076 52.8051 193.852 52.8051C193.625 52.8051 193.426 52.848 193.254 52.9338C193.084 53.0175 192.952 53.1365 192.858 53.291C192.764 53.4455 192.718 53.6257 192.72 53.8317C192.718 54.0419 192.765 54.2254 192.861 54.382C192.958 54.5386 193.091 54.6609 193.26 54.7489C193.432 54.8368 193.629 54.8808 193.852 54.8808ZM200.992 57.4361V57.0885C200.992 56.8396 201.043 56.6122 201.146 56.4062C201.251 56.1981 201.404 56.0319 201.603 55.9074C201.805 55.7808 202.048 55.7176 202.334 55.7176C202.626 55.7176 202.87 55.7798 203.067 55.9042C203.265 56.0286 203.414 56.1949 203.515 56.403C203.618 56.6111 203.669 56.8396 203.669 57.0885V57.4361C203.669 57.685 203.618 57.9134 203.515 58.1216C203.412 58.3275 203.261 58.4938 203.061 58.6204C202.864 58.7448 202.621 58.807 202.334 58.807C202.044 58.807 201.8 58.7448 201.6 58.6204C201.4 58.4938 201.249 58.3275 201.146 58.1216C201.043 57.9134 200.992 57.685 200.992 57.4361ZM201.742 57.0885V57.4361C201.742 57.6206 201.786 57.7879 201.874 57.9381C201.961 58.0883 202.115 58.1634 202.334 58.1634C202.55 58.1634 202.702 58.0883 202.788 57.9381C202.873 57.7879 202.916 57.6206 202.916 57.4361V57.0885C202.916 56.904 202.874 56.7367 202.791 56.5865C202.709 56.4363 202.557 56.3612 202.334 56.3612C202.119 56.3612 201.967 56.4363 201.877 56.5865C201.787 56.7367 201.742 56.904 201.742 57.0885ZM197.677 53.6643V53.3168C197.677 53.0679 197.728 52.8394 197.831 52.6313C197.937 52.4232 198.089 52.2569 198.288 52.1325C198.49 52.008 198.734 51.9458 199.019 51.9458C199.311 51.9458 199.555 52.008 199.753 52.1325C199.95 52.2569 200.099 52.4232 200.2 52.6313C200.301 52.8394 200.351 53.0679 200.351 53.3168V53.6643C200.351 53.9132 200.3 54.1417 200.197 54.3498C200.096 54.5558 199.946 54.722 199.746 54.8486C199.549 54.9731 199.306 55.0353 199.019 55.0353C198.727 55.0353 198.482 54.9731 198.282 54.8486C198.085 54.722 197.934 54.5558 197.831 54.3498C197.728 54.1417 197.677 53.9132 197.677 53.6643ZM198.43 53.3168V53.6643C198.43 53.8488 198.473 54.0162 198.559 54.1664C198.647 54.3166 198.8 54.3916 199.019 54.3916C199.234 54.3916 199.384 54.3166 199.47 54.1664C199.557 54.0162 199.601 53.8488 199.601 53.6643V53.3168C199.601 53.1323 199.56 52.9649 199.476 52.8147C199.392 52.6645 199.24 52.5894 199.019 52.5894C198.804 52.5894 198.652 52.6645 198.562 52.8147C198.474 52.9649 198.43 53.1323 198.43 53.3168ZM197.983 58.6719L202.514 52.081H203.283L198.752 58.6719H197.983Z" fill="#15BE53"/>
<path d="M17.7678 62.6719V53.1264H20.8486C21.526 53.1264 22.0915 53.2492 22.5451 53.4946C23.0019 53.737 23.3453 54.0741 23.5752 54.506C23.8082 54.9348 23.9248 55.4273 23.9248 55.9835C23.9248 56.5397 23.8082 57.0307 23.5752 57.4564C23.3453 57.8821 23.0035 58.2145 22.5498 58.4538C22.0961 58.693 21.5337 58.8127 20.8626 58.8127H18.2385V58.0157H20.8393C21.3364 58.0157 21.7497 57.9333 22.0791 57.7686C22.4115 57.604 22.6586 57.3694 22.8201 57.0649C22.9848 56.7603 23.0672 56.3999 23.0672 55.9835C23.0672 55.5672 22.9848 55.2036 22.8201 54.8929C22.6555 54.5791 22.4069 54.3367 22.0744 54.1658C21.745 53.9949 21.3287 53.9094 20.8253 53.9094H18.6393V62.6719H17.7678ZM21.9765 58.3652L24.3256 62.6719H23.3188L20.9931 58.3652H21.9765ZM30.8853 57.0835L30.1256 57.2979C30.0511 57.0835 29.9454 56.8893 29.8087 56.7153C29.672 56.5413 29.4933 56.403 29.2727 56.3005C29.0552 56.1979 28.7848 56.1467 28.4617 56.1467C27.977 56.1467 27.5792 56.2616 27.2685 56.4916C26.9578 56.7215 26.8024 57.0182 26.8024 57.3818C26.8024 57.6894 26.9081 57.9395 27.1194 58.1322C27.3338 58.3217 27.6631 58.4724 28.1075 58.5843L29.1888 58.85C29.7885 58.996 30.2375 59.2275 30.5358 59.5444C30.8372 59.8614 30.9879 60.2591 30.9879 60.7376C30.9879 61.1416 30.876 61.5004 30.6523 61.8143C30.4286 62.1281 30.1163 62.3751 29.7155 62.5554C29.3177 62.7325 28.8563 62.821 28.3312 62.821C27.6321 62.821 27.0557 62.6641 26.602 62.3503C26.1484 62.0333 25.8578 61.5766 25.7304 60.98L26.5274 60.7842C26.63 61.2099 26.8304 61.5315 27.1287 61.749C27.4301 61.9665 27.8263 62.0753 28.3172 62.0753C28.8672 62.0753 29.3069 61.9525 29.6362 61.7071C29.9656 61.4585 30.1303 61.1478 30.1303 60.7749C30.1303 60.4859 30.034 60.2436 29.8413 60.0478C29.6487 59.8489 29.3566 59.7029 28.9651 59.6097L27.7952 59.33C27.1737 59.1809 26.7139 58.9447 26.4156 58.6216C26.1173 58.2984 25.9681 57.8976 25.9681 57.4191C25.9681 57.0245 26.0753 56.678 26.2897 56.3797C26.5041 56.0783 26.7993 55.8422 27.1753 55.6713C27.5513 55.5004 27.9801 55.4149 28.4617 55.4149C29.1173 55.4149 29.6409 55.5641 30.0324 55.8623C30.427 56.1575 30.7113 56.5646 30.8853 57.0835ZM39.9627 62.8024C39.3754 62.8024 38.8503 62.6967 38.3873 62.4854C37.9244 62.271 37.5577 61.9743 37.2874 61.5952C37.017 61.2161 36.8741 60.7796 36.8586 60.2855H37.7395C37.755 60.6335 37.8622 60.938 38.0611 61.199C38.2599 61.4569 38.5241 61.6589 38.8534 61.805C39.1828 61.9479 39.5495 62.0194 39.9534 62.0194C40.3946 62.0194 40.783 61.937 41.1186 61.7723C41.4573 61.6076 41.7214 61.3824 41.911 61.0965C42.1036 60.8075 42.1999 60.4813 42.1999 60.1177C42.1999 59.7324 42.1021 59.3922 41.9063 59.097C41.7105 58.8018 41.4293 58.5719 41.0627 58.4072C40.6991 58.2425 40.2641 58.1602 39.7576 58.1602H39.1983V57.3771H39.7576C40.1709 57.3771 40.536 57.3026 40.8529 57.1534C41.173 57.0012 41.4247 56.7883 41.608 56.5149C41.7913 56.2414 41.883 55.9198 41.883 55.5501C41.883 55.199 41.8038 54.8898 41.6453 54.6226C41.4868 54.3553 41.2631 54.1456 40.9741 53.9933C40.6883 53.8411 40.3542 53.765 39.972 53.765C39.6023 53.765 39.2636 53.8364 38.956 53.9794C38.6484 54.1223 38.3998 54.3243 38.2102 54.5853C38.0238 54.8463 37.9244 55.1555 37.9119 55.5128H37.0683C37.0807 55.0156 37.2175 54.5791 37.4785 54.2031C37.7426 53.824 38.0922 53.5288 38.5272 53.3175C38.9653 53.1031 39.45 52.9959 39.9814 52.9959C40.5438 52.9959 41.0301 53.1109 41.4402 53.3408C41.8504 53.5708 42.1673 53.8768 42.391 54.259C42.6179 54.6381 42.7313 55.056 42.7313 55.5128C42.7313 56.0566 42.5837 56.5226 42.2885 56.911C41.9933 57.2963 41.5956 57.5636 41.0953 57.7127V57.7733C41.7043 57.8945 42.1828 58.1648 42.5309 58.5843C42.882 59.0007 43.0575 59.5118 43.0575 60.1177C43.0575 60.6273 42.9239 61.0856 42.6567 61.4927C42.3895 61.8966 42.0228 62.2167 41.5567 62.4528C41.0938 62.6859 40.5624 62.8024 39.9627 62.8024ZM48.1887 52.9959C48.5865 52.999 48.9718 53.0798 49.3446 53.2383C49.7206 53.3936 50.0593 53.6453 50.3607 53.9933C50.6621 54.3382 50.9014 54.7981 51.0785 55.373C51.2556 55.9447 51.3441 56.6485 51.3441 57.4843C51.3441 58.2642 51.2758 58.9789 51.1391 59.6283C51.0023 60.2777 50.7973 60.8402 50.5238 61.3156C50.2535 61.7879 49.9117 62.1545 49.4984 62.4155C49.0883 62.6734 48.6082 62.8024 48.0582 62.8024C47.5455 62.8024 47.0903 62.6952 46.6926 62.4808C46.298 62.2664 45.9779 61.9696 45.7324 61.5906C45.487 61.2084 45.3347 60.7671 45.2757 60.2669H46.1333C46.2172 60.7765 46.4223 61.1959 46.7485 61.5253C47.0779 61.8547 47.5145 62.0194 48.0582 62.0194C48.8381 62.0194 49.4441 61.6558 49.876 60.9287C50.3079 60.2016 50.5238 59.1669 50.5238 57.8246H50.4632C50.3141 58.1042 50.1183 58.3481 49.876 58.5563C49.6367 58.7645 49.3633 58.9276 49.0556 59.0457C48.748 59.1607 48.4233 59.2182 48.0815 59.2182C47.5502 59.2182 47.0639 59.0846 46.6227 58.8173C46.1814 58.547 45.8288 58.1788 45.5647 57.7127C45.3005 57.2435 45.1685 56.7091 45.1685 56.1094C45.1685 55.5439 45.2928 55.0249 45.5414 54.5526C45.793 54.0772 46.1442 53.6982 46.5947 53.4154C47.0484 53.1295 47.5797 52.9897 48.1887 52.9959ZM48.1887 53.7789C47.7755 53.7789 47.4041 53.8846 47.0748 54.0959C46.7485 54.3041 46.4891 54.5853 46.2964 54.9395C46.1069 55.2906 46.0121 55.6806 46.0121 56.1094C46.0121 56.5413 46.1069 56.9343 46.2964 57.2886C46.4891 57.6397 46.7485 57.9193 47.0748 58.1275C47.4041 58.3326 47.7755 58.4351 48.1887 58.4351C48.5057 58.4351 48.8009 58.3714 49.0743 58.2441C49.3477 58.1135 49.5839 57.9364 49.7827 57.7127C49.9847 57.489 50.137 57.2358 50.2395 56.953C50.3452 56.6671 50.3871 56.3673 50.3654 56.0534C50.3281 55.6184 50.2115 55.23 50.0158 54.8882C49.8231 54.5433 49.5683 54.273 49.2514 54.0772C48.9376 53.8784 48.5833 53.7789 48.1887 53.7789ZM54.5306 61.3668L54.4467 61.8655C54.3939 62.2011 54.3193 62.5709 54.223 62.9748C54.1266 63.3788 54.0272 63.7625 53.9247 64.1261C53.8221 64.4896 53.7336 64.7817 53.659 65.0023H53.0205C53.0609 64.791 53.1121 64.5222 53.1743 64.196C53.2395 63.8697 53.3063 63.5077 53.3747 63.11C53.443 62.7154 53.5052 62.3083 53.5611 61.8888L53.6264 61.3668H54.5306ZM56.8944 62.6719V62.0333L60.0125 58.5284C60.4196 58.0685 60.7474 57.6754 60.996 57.3492C61.2445 57.0229 61.4248 56.7215 61.5366 56.445C61.6516 56.1684 61.7091 55.881 61.7091 55.5827C61.7091 55.2191 61.6236 54.9022 61.4527 54.6319C61.2849 54.3584 61.0534 54.1456 60.7583 53.9933C60.4631 53.8411 60.1306 53.765 59.7608 53.765C59.3693 53.765 59.026 53.8489 58.7308 54.0166C58.4387 54.1844 58.2119 54.4144 58.0503 54.7065C57.8887 54.9985 57.8079 55.3341 57.8079 55.7132H56.9736C56.9736 55.185 57.0948 54.7173 57.3372 54.3103C57.5826 53.9001 57.9167 53.5785 58.3393 53.3455C58.765 53.1124 59.2466 52.9959 59.7841 52.9959C60.3155 52.9959 60.7878 53.1109 61.201 53.3408C61.6143 53.5676 61.939 53.8768 62.1752 54.2683C62.4113 54.6598 62.5294 55.098 62.5294 55.5827C62.5294 55.9338 62.4672 56.2741 62.3429 56.6034C62.2218 56.9328 62.012 57.2994 61.7137 57.7034C61.4154 58.1073 61.0022 58.6014 60.4739 59.1855L58.1062 61.8283V61.8888H62.8277V62.6719H56.8944ZM65.3802 62.6719L69.7288 53.97V53.9094H64.7184V53.1264H70.6424V53.9467L66.2984 62.6719H65.3802ZM71.7035 60.6211V59.9126L75.9588 53.1264H76.4808V54.3149H76.094L72.6776 59.7775V59.8381H78.2566V60.6211H71.7035ZM76.1592 62.6719V60.3974V60.0711V53.1264H76.9889V62.6719H76.1592Z" fill="#0A2540"/>
<path d="M103.479 61.6719V54.2969H105.86C106.383 54.2969 106.82 54.3917 107.171 54.5814C107.523 54.7686 107.789 55.0291 107.966 55.3628C108.146 55.6941 108.237 56.0746 108.237 56.5043C108.237 56.9341 108.146 57.3134 107.966 57.6423C107.789 57.9712 107.525 58.228 107.174 58.4129C106.824 58.5978 106.389 58.6902 105.871 58.6902H103.843V58.0744H105.853C106.237 58.0744 106.556 58.0108 106.81 57.8835C107.067 57.7563 107.258 57.5751 107.383 57.3398C107.51 57.1045 107.574 56.826 107.574 56.5043C107.574 56.1826 107.51 55.9018 107.383 55.6617C107.256 55.4192 107.064 55.232 106.807 55.0999C106.552 54.9679 106.231 54.9019 105.842 54.9019H104.153V61.6719H103.479ZM106.731 58.3445L108.546 61.6719H107.768L105.971 58.3445H106.731ZM113.36 57.3542L112.773 57.5198C112.715 57.3542 112.634 57.2041 112.528 57.0697C112.422 56.9353 112.284 56.8284 112.114 56.7492C111.946 56.67 111.737 56.6304 111.487 56.6304C111.113 56.6304 110.806 56.7192 110.565 56.8969C110.325 57.0745 110.205 57.3038 110.205 57.5847C110.205 57.8223 110.287 58.0156 110.45 58.1644C110.616 58.3109 110.87 58.4273 111.214 58.5137L112.049 58.719C112.512 58.8318 112.859 59.0107 113.09 59.2556C113.323 59.5004 113.439 59.8077 113.439 60.1774C113.439 60.4895 113.353 60.7668 113.18 61.0093C113.007 61.2517 112.766 61.4426 112.456 61.5818C112.149 61.7187 111.792 61.7871 111.386 61.7871C110.846 61.7871 110.401 61.6659 110.05 61.4234C109.7 61.1785 109.476 60.8256 109.377 60.3647L109.993 60.2134C110.072 60.5423 110.227 60.7908 110.457 60.9589C110.69 61.1269 110.996 61.2109 111.376 61.2109C111.801 61.2109 112.14 61.1161 112.395 60.9265C112.649 60.7344 112.776 60.4943 112.776 60.2062C112.776 59.983 112.702 59.7957 112.553 59.6445C112.404 59.4908 112.179 59.378 111.876 59.306L110.972 59.0899C110.492 58.9747 110.137 58.7922 109.906 58.5425C109.676 58.2929 109.561 57.9832 109.561 57.6135C109.561 57.3086 109.644 57.0409 109.809 56.8104C109.975 56.5776 110.203 56.3951 110.493 56.2631C110.784 56.131 111.115 56.065 111.487 56.065C111.994 56.065 112.398 56.1802 112.701 56.4107C113.006 56.6388 113.225 56.9533 113.36 57.3542ZM117.469 61.6719V61.1785L119.879 58.4705C120.193 58.1152 120.446 57.8115 120.638 57.5594C120.83 57.3074 120.97 57.0745 121.056 56.8608C121.145 56.6472 121.189 56.4251 121.189 56.1946C121.189 55.9138 121.123 55.6689 120.991 55.46C120.862 55.2488 120.683 55.0843 120.455 54.9667C120.227 54.849 119.97 54.7902 119.684 54.7902C119.382 54.7902 119.116 54.855 118.888 54.9847C118.663 55.1143 118.487 55.292 118.363 55.5176C118.238 55.7433 118.175 56.0026 118.175 56.2955H117.531C117.531 55.8873 117.624 55.526 117.812 55.2115C118.001 54.8947 118.259 54.6462 118.586 54.4661C118.915 54.2861 119.287 54.196 119.702 54.196C120.113 54.196 120.478 54.2849 120.797 54.4625C121.116 54.6378 121.367 54.8766 121.549 55.1791C121.732 55.4816 121.823 55.8201 121.823 56.1946C121.823 56.4659 121.775 56.7288 121.679 56.9833C121.585 57.2378 121.423 57.521 121.193 57.8331C120.962 58.1452 120.643 58.5269 120.235 58.9783L118.406 61.0201V61.0669H122.054V61.6719H117.469ZM125.777 54.196C126.084 54.1984 126.382 54.2609 126.67 54.3833C126.961 54.5033 127.222 54.6978 127.455 54.9667C127.688 55.2332 127.873 55.5885 128.01 56.0326C128.147 56.4743 128.215 57.0181 128.215 57.6639C128.215 58.2665 128.162 58.8186 128.057 59.3204C127.951 59.8221 127.792 60.2567 127.581 60.624C127.372 60.9889 127.108 61.2722 126.789 61.4738C126.472 61.6731 126.101 61.7727 125.676 61.7727C125.28 61.7727 124.928 61.6899 124.621 61.5242C124.316 61.3586 124.069 61.1293 123.879 60.8364C123.69 60.5411 123.572 60.2002 123.526 59.8137H124.189C124.254 60.2074 124.412 60.5315 124.664 60.786C124.919 61.0405 125.256 61.1677 125.676 61.1677C126.279 61.1677 126.747 60.8868 127.081 60.3251C127.414 59.7633 127.581 58.9639 127.581 57.9268H127.534C127.419 58.1428 127.268 58.3313 127.081 58.4921C126.896 58.653 126.685 58.779 126.447 58.8702C126.209 58.9591 125.958 59.0035 125.694 59.0035C125.284 59.0035 124.908 58.9002 124.567 58.6938C124.226 58.4849 123.954 58.2004 123.75 57.8403C123.546 57.4778 123.444 57.0649 123.444 56.6016C123.444 56.1646 123.54 55.7637 123.732 55.3988C123.926 55.0315 124.197 54.7386 124.545 54.5201C124.896 54.2993 125.307 54.1912 125.777 54.196ZM125.777 54.801C125.458 54.801 125.171 54.8826 124.916 55.0459C124.664 55.2067 124.464 55.424 124.315 55.6977C124.169 55.969 124.095 56.2703 124.095 56.6016C124.095 56.9353 124.169 57.239 124.315 57.5126C124.464 57.7839 124.664 58 124.916 58.1608C125.171 58.3193 125.458 58.3985 125.777 58.3985C126.022 58.3985 126.25 58.3493 126.461 58.2509C126.673 58.15 126.855 58.0132 127.009 57.8403C127.165 57.6675 127.282 57.4718 127.362 57.2534C127.443 57.0325 127.476 56.8008 127.459 56.5583C127.43 56.2222 127.34 55.9222 127.189 55.6581C127.04 55.3916 126.843 55.1827 126.598 55.0315C126.356 54.8778 126.082 54.801 125.777 54.801ZM130.422 60.6636L130.358 61.0489C130.317 61.3082 130.259 61.5939 130.185 61.9059C130.11 62.218 130.033 62.5145 129.954 62.7954C129.875 63.0763 129.807 63.302 129.749 63.4724H129.256C129.287 63.3092 129.326 63.1015 129.374 62.8494C129.425 62.5974 129.476 62.3177 129.529 62.0104C129.582 61.7055 129.63 61.391 129.673 61.0669L129.724 60.6636H130.422ZM134.052 61.7727C133.642 61.7727 133.274 61.6899 132.95 61.5242C132.629 61.3562 132.372 61.1257 132.18 60.8328C131.99 60.5399 131.889 60.205 131.877 59.8281H132.529C132.551 60.2194 132.704 60.5411 132.99 60.7932C133.276 61.0429 133.63 61.1677 134.052 61.1677C134.381 61.1677 134.674 61.0897 134.931 60.9337C135.188 60.7752 135.388 60.5591 135.532 60.2855C135.679 60.0094 135.752 59.6985 135.752 59.3528C135.749 58.9927 135.671 58.6758 135.518 58.4021C135.364 58.126 135.155 57.91 134.891 57.7539C134.63 57.5979 134.335 57.5198 134.009 57.5198C133.762 57.5174 133.519 57.5582 133.282 57.6423C133.044 57.7263 132.846 57.8343 132.687 57.9664L132.014 57.8799L132.457 54.2969H136.101V54.9019H133.022L132.727 57.3686H132.763C132.926 57.2318 133.124 57.1201 133.357 57.0337C133.592 56.9473 133.841 56.9041 134.103 56.9041C134.537 56.9041 134.927 57.0085 135.273 57.2173C135.621 57.4262 135.896 57.7143 136.098 58.0816C136.302 58.4465 136.404 58.8666 136.404 59.342C136.404 59.8077 136.302 60.2242 136.098 60.5916C135.896 60.9565 135.617 61.2445 135.262 61.4558C134.909 61.6671 134.506 61.7727 134.052 61.7727ZM138.048 61.6719L141.408 54.9487V54.9019H137.537V54.2969H142.114V54.9307L138.758 61.6719H138.048ZM145.676 61.7727C145.223 61.7727 144.817 61.6911 144.459 61.5278C144.101 61.3622 143.818 61.1329 143.609 60.84C143.4 60.5471 143.29 60.2098 143.278 59.8281H143.959C143.971 60.097 144.053 60.3323 144.207 60.5339C144.361 60.7332 144.565 60.8892 144.819 61.0021C145.074 61.1125 145.357 61.1677 145.669 61.1677C146.01 61.1677 146.31 61.1041 146.569 60.9769C146.831 60.8496 147.035 60.6756 147.182 60.4547C147.33 60.2314 147.405 59.9794 147.405 59.6985C147.405 59.4008 147.329 59.1379 147.178 58.9099C147.027 58.6818 146.809 58.5041 146.526 58.3769C146.245 58.2497 145.909 58.186 145.518 58.186H145.086V57.5811H145.518C145.837 57.5811 146.119 57.5234 146.364 57.4082C146.611 57.2906 146.806 57.1261 146.947 56.9149C147.089 56.7036 147.16 56.4551 147.16 56.1694C147.16 55.8982 147.099 55.6593 146.976 55.4528C146.854 55.2464 146.681 55.0843 146.458 54.9667C146.237 54.849 145.979 54.7902 145.684 54.7902C145.398 54.7902 145.136 54.8454 144.898 54.9559C144.661 55.0663 144.469 55.2224 144.322 55.424C144.178 55.6257 144.101 55.8645 144.092 56.1406H143.44C143.45 55.7565 143.555 55.4192 143.757 55.1287C143.961 54.8358 144.231 54.6078 144.567 54.4445C144.906 54.2789 145.28 54.196 145.691 54.196C146.125 54.196 146.501 54.2849 146.818 54.4625C147.135 54.6402 147.38 54.8766 147.552 55.1719C147.728 55.4648 147.815 55.7877 147.815 56.1406C147.815 56.5608 147.701 56.9209 147.473 57.2209C147.245 57.5186 146.938 57.7251 146.551 57.8403V57.8871C147.022 57.9808 147.392 58.1896 147.661 58.5137C147.932 58.8354 148.067 59.2303 148.067 59.6985C148.067 60.0922 147.964 60.4463 147.758 60.7608C147.551 61.0729 147.268 61.3202 146.908 61.5026C146.55 61.6827 146.14 61.7727 145.676 61.7727Z" fill="#727F96"/>
<mask id="mask0_3548_998" style="mask-type:luminance" maskUnits="userSpaceOnUse" x="16" y="78" width="222" height="106">
<path d="M16.5098 78.6719H237.49V183.672H16.5098V78.6719Z" fill="white"/>
</mask>
<g mask="url(#mask0_3548_998)">
<g opacity="0.3">
<path d="M236.109 180.823H17.3232V181.152H236.109V180.823Z" fill="#C4CCD8"/>
<path d="M236.109 180.823H17.3232V181.152H236.109V180.823Z" stroke="#C4CCD8" stroke-width="0.395086"/>
</g>
<path opacity="0.3" d="M236.329 124.783H203.233L170.138 138.751L137.041 110.814L103.947 152.72L70.8518 180.658H37.7539" stroke="#C4CCD8" stroke-width="0.790172" stroke-linejoin="round"/>
<path d="M37.7549 180.658L70.8518 152.72L103.947 138.751L137.041 166.689L170.138 124.783H203.233L236.329 96.8452" stroke="white" stroke-width="3.15975" stroke-linejoin="round"/>
<path d="M37.7549 180.658L70.8518 152.72L103.947 138.751L137.041 166.689L170.138 124.783H203.233L236.329 96.8452" stroke="#635BFF" stroke-width="1.57941" stroke-linejoin="round"/>
<path opacity="0.3" d="M38.2255 181.48H37.9111V183.782H38.2255V181.48Z" stroke="#C4CCD8" stroke-width="0.395086" stroke-linejoin="round"/>
</g>
<path d="M17.4613 198.672H16.7762L19.3804 191.513H20.0795L22.6838 198.672H21.9987L19.7545 192.362H19.7055L17.4613 198.672ZM17.9542 195.928H21.5058V196.515H17.9542V195.928ZM23.9814 200.685V193.303H24.5862V194.327H24.6596C24.7342 194.166 24.8367 194.002 24.9672 193.834C25.0977 193.664 25.2702 193.52 25.4846 193.404C25.7013 193.287 25.974 193.229 26.3025 193.229C26.7453 193.229 27.1322 193.346 27.4631 193.579C27.7964 193.809 28.055 194.133 28.2391 194.551C28.4256 194.965 28.5188 195.449 28.5188 196.001C28.5188 196.556 28.4256 197.042 28.2391 197.459C28.055 197.876 27.7964 198.201 27.4631 198.434C27.1322 198.667 26.7477 198.784 26.3095 198.784C25.9856 198.784 25.7141 198.725 25.4951 198.609C25.2783 198.492 25.1024 198.349 24.9672 198.179C24.8344 198.007 24.7318 197.839 24.6596 197.676H24.6037V200.685H23.9814ZM24.5967 195.991C24.5967 196.424 24.6608 196.809 24.7889 197.144C24.9194 197.478 25.1059 197.74 25.3482 197.931C25.5929 198.12 25.8889 198.214 26.2361 198.214C26.5927 198.214 26.8933 198.116 27.138 197.92C27.385 197.722 27.5726 197.455 27.7008 197.12C27.8313 196.784 27.8966 196.408 27.8966 195.991C27.8966 195.578 27.8325 195.207 27.7043 194.876C27.5785 194.545 27.392 194.283 27.145 194.089C26.898 193.893 26.595 193.795 26.2361 193.795C25.8866 193.795 25.5894 193.89 25.3447 194.079C25.1 194.265 24.9136 194.524 24.7854 194.855C24.6596 195.183 24.5967 195.562 24.5967 195.991ZM30.0838 198.672V193.303H30.6886V194.128H30.734C30.8412 193.857 31.0277 193.639 31.2933 193.474C31.5613 193.306 31.8643 193.222 32.2022 193.222C32.2535 193.222 32.3106 193.223 32.3735 193.226C32.4364 193.228 32.4889 193.23 32.5308 193.233V193.865C32.5028 193.861 32.4539 193.854 32.384 193.844C32.3141 193.835 32.2383 193.83 32.1568 193.83C31.8771 193.83 31.6278 193.89 31.4087 194.009C31.192 194.125 31.0207 194.287 30.8948 194.495C30.769 194.702 30.7061 194.939 30.7061 195.204V198.672H30.0838ZM36.7367 198.672V198.193L39.0753 195.564C39.3806 195.219 39.6264 194.925 39.8129 194.68C39.9993 194.435 40.1345 194.209 40.2184 194.002C40.3046 193.794 40.3477 193.579 40.3477 193.355C40.3477 193.082 40.2836 192.845 40.1554 192.642C40.0296 192.437 39.856 192.277 39.6346 192.163C39.4132 192.049 39.1638 191.992 38.8865 191.992C38.5929 191.992 38.3354 192.055 38.114 192.18C37.8949 192.306 37.7248 192.479 37.6036 192.698C37.4824 192.917 37.4218 193.169 37.4218 193.453H36.7961C36.7961 193.057 36.887 192.706 37.0688 192.401C37.2529 192.093 37.5034 191.852 37.8203 191.677C38.1396 191.502 38.5008 191.415 38.904 191.415C39.3025 191.415 39.6567 191.501 39.9667 191.674C40.2766 191.844 40.5201 192.076 40.6973 192.369C40.8744 192.663 40.9629 192.991 40.9629 193.355C40.9629 193.618 40.9163 193.874 40.8231 194.121C40.7322 194.368 40.5749 194.643 40.3512 194.946C40.1275 195.248 39.8175 195.619 39.4213 196.057L37.6456 198.039V198.085H41.1866V198.672H36.7367ZM42.6197 197.134V196.602L45.8113 191.513H46.2028V192.404H45.9126L43.3503 196.501V196.547H47.5346V197.134H42.6197ZM45.9616 198.672V196.966V196.721V191.513H46.5838V198.672H45.9616Z" fill="#727F96"/>
<path d="M210.001 191.309V190.74H215.027V191.309H212.831V197.672H212.198V191.309H210.001ZM217.794 197.78C217.345 197.78 216.947 197.666 216.602 197.438C216.259 197.21 215.991 196.896 215.797 196.494C215.603 196.09 215.506 195.624 215.506 195.096C215.506 194.564 215.603 194.095 215.797 193.691C215.991 193.285 216.259 192.969 216.602 192.744C216.947 192.516 217.345 192.402 217.794 192.402C218.243 192.402 218.639 192.516 218.982 192.744C219.325 192.972 219.593 193.288 219.787 193.691C219.983 194.095 220.082 194.564 220.082 195.096C220.082 195.624 219.985 196.09 219.791 196.494C219.597 196.896 219.327 197.21 218.982 197.438C218.639 197.666 218.243 197.78 217.794 197.78ZM217.794 197.228C218.155 197.228 218.46 197.131 218.711 196.937C218.961 196.743 219.151 196.485 219.279 196.162C219.41 195.84 219.476 195.484 219.476 195.096C219.476 194.708 219.41 194.352 219.279 194.027C219.151 193.702 218.961 193.441 218.711 193.245C218.46 193.048 218.155 192.95 217.794 192.95C217.435 192.95 217.129 193.048 216.876 193.245C216.626 193.441 216.435 193.702 216.304 194.027C216.176 194.352 216.111 194.708 216.111 195.096C216.111 195.484 216.176 195.84 216.304 196.162C216.435 196.485 216.626 196.743 216.876 196.937C217.127 197.131 217.433 197.228 217.794 197.228ZM223.476 197.78C223.049 197.78 222.676 197.667 222.356 197.442C222.035 197.216 221.785 196.901 221.604 196.497C221.426 196.093 221.337 195.623 221.337 195.086C221.337 194.551 221.426 194.083 221.604 193.681C221.785 193.277 222.036 192.964 222.359 192.74C222.682 192.515 223.057 192.402 223.486 192.402C223.802 192.402 224.065 192.458 224.275 192.571C224.485 192.682 224.653 192.819 224.779 192.984C224.905 193.149 225.004 193.309 225.074 193.465H225.128V190.74H225.734V197.672H225.145V196.707H225.074C225.004 196.865 224.904 197.028 224.776 197.195C224.647 197.359 224.477 197.498 224.265 197.611C224.055 197.724 223.792 197.78 223.476 197.78ZM223.547 197.228C223.883 197.228 224.17 197.137 224.407 196.954C224.644 196.769 224.824 196.515 224.948 196.193C225.075 195.868 225.138 195.496 225.138 195.076C225.138 194.661 225.076 194.294 224.952 193.976C224.828 193.655 224.647 193.405 224.41 193.224C224.173 193.042 223.885 192.95 223.547 192.95C223.2 192.95 222.906 193.045 222.667 193.235C222.43 193.422 222.25 193.676 222.125 193.996C222.004 194.317 221.943 194.676 221.943 195.076C221.943 195.48 222.005 195.844 222.129 196.169C222.253 196.494 222.433 196.752 222.67 196.944C222.91 197.134 223.202 197.228 223.547 197.228ZM229.102 197.79C228.788 197.79 228.501 197.729 228.242 197.608C227.982 197.483 227.776 197.305 227.622 197.073C227.469 196.838 227.392 196.554 227.392 196.22C227.392 195.963 227.441 195.746 227.538 195.57C227.635 195.394 227.773 195.25 227.951 195.137C228.129 195.024 228.34 194.935 228.584 194.869C228.827 194.804 229.096 194.753 229.389 194.717C229.68 194.681 229.926 194.649 230.127 194.622C230.33 194.595 230.485 194.552 230.591 194.494C230.697 194.435 230.75 194.34 230.75 194.209V194.088C230.75 193.733 230.644 193.455 230.432 193.251C230.222 193.046 229.92 192.943 229.525 192.943C229.15 192.943 228.844 193.026 228.607 193.191C228.373 193.355 228.208 193.549 228.113 193.773L227.541 193.566C227.659 193.282 227.821 193.055 228.029 192.886C228.236 192.714 228.469 192.591 228.726 192.517C228.983 192.44 229.244 192.402 229.508 192.402C229.706 192.402 229.913 192.428 230.127 192.48C230.344 192.532 230.545 192.622 230.73 192.751C230.915 192.877 231.065 193.054 231.18 193.282C231.295 193.508 231.352 193.794 231.352 194.142V197.672H230.75V196.849H230.713C230.64 197.003 230.533 197.152 230.391 197.296C230.249 197.441 230.071 197.559 229.856 197.652C229.642 197.744 229.39 197.79 229.102 197.79ZM229.183 197.239C229.503 197.239 229.781 197.168 230.015 197.025C230.25 196.883 230.431 196.695 230.557 196.46C230.686 196.223 230.75 195.963 230.75 195.678V194.927C230.705 194.97 230.629 195.008 230.523 195.042C230.419 195.076 230.299 195.106 230.161 195.133C230.026 195.158 229.89 195.18 229.755 195.198C229.619 195.216 229.498 195.232 229.389 195.245C229.096 195.281 228.845 195.338 228.638 195.414C228.43 195.491 228.271 195.597 228.161 195.732C228.05 195.866 227.995 196.037 227.995 196.247C227.995 196.563 228.108 196.808 228.333 196.981C228.559 197.153 228.842 197.239 229.183 197.239ZM233.389 199.621C233.269 199.621 233.157 199.61 233.053 199.588C232.95 199.565 232.867 199.54 232.806 199.513L232.969 198.982C233.174 199.045 233.357 199.067 233.517 199.049C233.677 199.034 233.82 198.961 233.944 198.833C234.068 198.706 234.178 198.512 234.275 198.251L234.465 197.723L232.553 192.473H233.206L234.749 196.876H234.797L236.34 192.473H236.993L234.793 198.494C234.701 198.745 234.587 198.954 234.451 199.121C234.316 199.29 234.159 199.415 233.981 199.496C233.805 199.58 233.607 199.621 233.389 199.621Z" fill="#727F96"/>
<path d="M18.2198 219.763H19.2159V226.986C19.2159 227.728 19.0419 228.392 18.6939 228.978C18.3459 229.56 17.8612 230.02 17.2397 230.358C16.6218 230.691 15.9027 230.858 15.0824 230.858C14.2656 230.858 13.5465 230.69 12.9251 230.352C12.3036 230.015 11.8189 229.555 11.4709 228.973C11.1229 228.39 10.9489 227.728 10.9489 226.986V219.763H11.945V226.917C11.945 227.495 12.0746 228.012 12.3338 228.467C12.593 228.918 12.957 229.273 13.4258 229.532C13.8981 229.791 14.4503 229.921 15.0824 229.921C15.7145 229.921 16.2667 229.791 16.739 229.532C17.2113 229.273 17.5753 228.918 17.831 228.467C18.0902 228.012 18.2198 227.495 18.2198 226.917V219.763ZM22.1139 233.74V222.49H23.0354V224.051H23.1473C23.2609 223.806 23.4172 223.555 23.616 223.3C23.8149 223.04 24.0777 222.822 24.4044 222.645C24.7346 222.467 25.1501 222.378 25.6508 222.378C26.3255 222.378 26.915 222.556 27.4193 222.911C27.9271 223.262 28.3213 223.756 28.6018 224.392C28.8859 225.024 29.0279 225.761 29.0279 226.602C29.0279 227.447 28.8859 228.188 28.6018 228.824C28.3213 229.459 27.9271 229.955 27.4193 230.31C26.915 230.665 26.3291 230.842 25.6615 230.842C25.1679 230.842 24.7542 230.754 24.4203 230.576C24.0901 230.398 23.822 230.18 23.616 229.921C23.4136 229.658 23.2574 229.402 23.1473 229.154H23.062V233.74H22.1139ZM23.0514 226.586C23.0514 227.247 23.149 227.833 23.3444 228.344C23.5432 228.852 23.8273 229.251 24.1966 229.543C24.5695 229.83 25.0205 229.974 25.5496 229.974C26.0929 229.974 26.551 229.825 26.9239 229.527C27.3003 229.225 27.5862 228.818 27.7815 228.307C27.9804 227.795 28.0798 227.222 28.0798 226.586C28.0798 225.958 27.9821 225.391 27.7868 224.887C27.5951 224.383 27.311 223.983 26.9346 223.689C26.5581 223.39 26.0965 223.241 25.5496 223.241C25.0169 223.241 24.5642 223.385 24.1913 223.673C23.8184 223.957 23.5343 224.351 23.339 224.855C23.1473 225.356 23.0514 225.933 23.0514 226.586ZM34.2537 230.842C33.5825 230.842 32.9948 230.665 32.4906 230.31C31.9863 229.955 31.5921 229.459 31.308 228.824C31.0275 228.188 30.8872 227.447 30.8872 226.602C30.8872 225.761 31.0275 225.024 31.308 224.392C31.5921 223.756 31.9881 223.262 32.4959 222.911C33.0037 222.556 33.595 222.378 34.2697 222.378C34.7668 222.378 35.1805 222.467 35.5108 222.645C35.8411 222.819 36.1056 223.035 36.3045 223.294C36.5033 223.554 36.6578 223.806 36.7679 224.051H36.8531V219.763H37.8066V230.672H36.8798V229.154H36.7679C36.6578 229.402 36.5016 229.658 36.2991 229.921C36.0967 230.18 35.8286 230.398 35.4948 230.576C35.1646 230.754 34.7509 230.842 34.2537 230.842ZM34.3656 229.974C34.8947 229.974 35.3457 229.83 35.7185 229.543C36.0914 229.251 36.3755 228.852 36.5708 228.344C36.7697 227.833 36.8691 227.247 36.8691 226.586C36.8691 225.933 36.7714 225.356 36.5761 224.855C36.3808 224.351 36.0967 223.957 35.7239 223.673C35.351 223.385 34.8982 223.241 34.3656 223.241C33.8187 223.241 33.357 223.39 32.9806 223.689C32.6077 223.983 32.3237 224.383 32.1283 224.887C31.9366 225.391 31.8407 225.958 31.8407 226.586C31.8407 227.222 31.9384 227.795 32.1337 228.307C32.329 228.818 32.6131 229.225 32.9859 229.527C33.3624 229.825 33.8222 229.974 34.3656 229.974ZM42.9924 230.858C42.4988 230.858 42.0478 230.762 41.6394 230.571C41.231 230.375 40.9061 230.095 40.6646 229.729C40.4232 229.36 40.3024 228.912 40.3024 228.387C40.3024 227.982 40.3788 227.641 40.5315 227.364C40.6842 227.087 40.9008 226.86 41.1813 226.682C41.4619 226.505 41.7939 226.364 42.1774 226.261C42.5609 226.158 42.9835 226.078 43.4452 226.022C43.9033 225.965 44.2903 225.915 44.6064 225.873C44.926 225.83 45.1692 225.762 45.3362 225.67C45.5031 225.578 45.5865 225.429 45.5865 225.223V225.031C45.5865 224.473 45.4196 224.035 45.0858 223.715C44.7555 223.392 44.2797 223.23 43.6582 223.23C43.0688 223.23 42.5876 223.36 42.2147 223.619C41.8454 223.879 41.5862 224.184 41.437 224.536L40.5368 224.211C40.7214 223.763 40.9771 223.406 41.3038 223.14C41.6305 222.87 41.9963 222.676 42.4011 222.559C42.806 222.439 43.2161 222.378 43.6316 222.378C43.9441 222.378 44.269 222.419 44.6064 222.501C44.9473 222.582 45.2634 222.724 45.5545 222.927C45.8457 223.126 46.0819 223.404 46.263 223.763C46.4441 224.118 46.5347 224.569 46.5347 225.116V230.672H45.5865V229.377H45.5279C45.4143 229.619 45.2456 229.853 45.0219 230.081C44.7982 230.308 44.5176 230.494 44.1803 230.64C43.8429 230.786 43.4469 230.858 42.9924 230.858ZM43.1202 229.99C43.6245 229.99 44.0613 229.878 44.4306 229.654C44.7999 229.431 45.084 229.134 45.2829 228.765C45.4853 228.392 45.5865 227.982 45.5865 227.534V226.352C45.5155 226.419 45.3965 226.48 45.2296 226.533C45.0663 226.586 44.8763 226.634 44.6597 226.677C44.4466 226.716 44.2335 226.75 44.0205 226.778C43.8074 226.806 43.6156 226.831 43.4452 226.853C42.9835 226.909 42.5893 226.998 42.2626 227.119C41.9359 227.24 41.6856 227.407 41.5116 227.62C41.3376 227.829 41.2506 228.099 41.2506 228.429C41.2506 228.926 41.4281 229.312 41.7832 229.585C42.1384 229.855 42.584 229.99 43.1202 229.99ZM52.4795 222.49V223.316H48.575V222.49H52.4795ZM49.7949 220.53H50.7483V228.536C50.7483 228.877 50.8069 229.145 50.9241 229.34C51.0413 229.532 51.194 229.669 51.3822 229.75C51.5704 229.828 51.7711 229.868 51.9841 229.868C52.1084 229.868 52.2149 229.86 52.3037 229.846C52.3925 229.828 52.4706 229.811 52.5381 229.793L52.7405 230.651C52.6482 230.686 52.5346 230.718 52.3996 230.746C52.2647 230.778 52.0978 230.794 51.8989 230.794C51.5509 230.794 51.2153 230.718 50.8922 230.565C50.5725 230.413 50.3098 230.185 50.1038 229.884C49.8978 229.582 49.7949 229.207 49.7949 228.76V220.53ZM58.0528 230.842C57.2893 230.842 56.6288 230.665 56.0713 230.31C55.5138 229.951 55.0823 229.456 54.7769 228.824C54.4751 228.188 54.3241 227.456 54.3241 226.629C54.3241 225.805 54.4751 225.074 54.7769 224.434C55.0823 223.792 55.5031 223.289 56.0393 222.927C56.5791 222.561 57.2023 222.378 57.909 222.378C58.3529 222.378 58.7808 222.46 59.1927 222.623C59.6047 222.783 59.974 223.03 60.3007 223.364C60.6309 223.694 60.892 224.111 61.0837 224.615C61.2755 225.116 61.3714 225.709 61.3714 226.395V226.863H54.9793V226.027H60.4019C60.4019 225.501 60.2954 225.029 60.0823 224.61C59.8728 224.187 59.5798 223.854 59.2034 223.609C58.8305 223.364 58.3991 223.241 57.909 223.241C57.3905 223.241 56.9342 223.38 56.54 223.657C56.1459 223.934 55.8369 224.299 55.6132 224.754C55.393 225.208 55.2812 225.706 55.2776 226.245V226.746C55.2776 227.396 55.3895 227.964 55.6132 228.451C55.8405 228.934 56.1618 229.308 56.5773 229.575C56.9928 229.841 57.4846 229.974 58.0528 229.974C58.4399 229.974 58.779 229.914 59.0702 229.793C59.365 229.672 59.6118 229.511 59.8106 229.308C60.0131 229.102 60.1657 228.877 60.2687 228.632L61.1689 228.925C61.0447 229.269 60.8405 229.587 60.5564 229.878C60.2758 230.169 59.9243 230.404 59.5017 230.581C59.0827 230.755 58.5997 230.842 58.0528 230.842ZM66.6064 230.842C65.9353 230.842 65.3476 230.665 64.8433 230.31C64.339 229.955 63.9449 229.459 63.6608 228.824C63.3802 228.188 63.24 227.447 63.24 226.602C63.24 225.761 63.3802 225.024 63.6608 224.392C63.9449 223.756 64.3408 223.262 64.8486 222.911C65.3564 222.556 65.9477 222.378 66.6224 222.378C67.1196 222.378 67.5333 222.467 67.8635 222.645C68.1938 222.819 68.4583 223.035 68.6572 223.294C68.8561 223.554 69.0105 223.806 69.1206 224.051H69.2059V219.763H70.1593V230.672H69.2325V229.154H69.1206C69.0105 229.402 68.8543 229.658 68.6519 229.921C68.4495 230.18 68.1814 230.398 67.8476 230.576C67.5173 230.754 67.1036 230.842 66.6064 230.842ZM66.7183 229.974C67.2474 229.974 67.6984 229.83 68.0713 229.543C68.4441 229.251 68.7282 228.852 68.9235 228.344C69.1224 227.833 69.2218 227.247 69.2218 226.586C69.2218 225.933 69.1242 225.356 68.9289 224.855C68.7336 224.351 68.4495 223.957 68.0766 223.673C67.7037 223.385 67.251 223.241 66.7183 223.241C66.1714 223.241 65.7098 223.39 65.3333 223.689C64.9605 223.983 64.6764 224.383 64.4811 224.887C64.2893 225.391 64.1934 225.958 64.1934 226.586C64.1934 227.222 64.2911 227.795 64.4864 228.307C64.6817 228.818 64.9658 229.225 65.3387 229.527C65.7151 229.825 66.175 229.974 66.7183 229.974ZM80.7014 222.49V223.316H76.7969V222.49H80.7014ZM78.0167 220.53H78.9702V228.536C78.9702 228.877 79.0288 229.145 79.146 229.34C79.2632 229.532 79.4159 229.669 79.6041 229.75C79.7923 229.828 79.9929 229.868 80.206 229.868C80.3303 229.868 80.4368 229.86 80.5256 229.846C80.6144 229.828 80.6925 229.811 80.76 229.793L80.9624 230.651C80.8701 230.686 80.7564 230.718 80.6215 230.746C80.4865 230.778 80.3196 230.794 80.1208 230.794C79.7728 230.794 79.4372 230.718 79.114 230.565C78.7944 230.413 78.5316 230.185 78.3257 229.884C78.1197 229.582 78.0167 229.207 78.0167 228.76V220.53ZM86.1469 230.842C85.4402 230.842 84.8152 230.663 84.2719 230.304C83.7321 229.946 83.3095 229.45 83.0041 228.818C82.6987 228.183 82.546 227.449 82.546 226.618C82.546 225.78 82.6987 225.043 83.0041 224.408C83.3095 223.768 83.7321 223.271 84.2719 222.916C84.8152 222.558 85.4402 222.378 86.1469 222.378C86.8535 222.378 87.4768 222.558 88.0165 222.916C88.5563 223.275 88.9789 223.772 89.2843 224.408C89.5932 225.043 89.7477 225.78 89.7477 226.618C89.7477 227.449 89.595 228.183 89.2896 228.818C88.9842 229.45 88.5599 229.946 88.0165 230.304C87.4768 230.663 86.8535 230.842 86.1469 230.842ZM86.1469 229.974C86.715 229.974 87.1962 229.821 87.5904 229.516C87.9846 229.211 88.2829 228.804 88.4853 228.296C88.6912 227.788 88.7942 227.229 88.7942 226.618C88.7942 226.007 88.6912 225.446 88.4853 224.935C88.2829 224.424 87.9846 224.013 87.5904 223.705C87.1962 223.396 86.715 223.241 86.1469 223.241C85.5822 223.241 85.1011 223.396 84.7033 223.705C84.3091 224.013 84.0091 224.424 83.8031 224.935C83.6007 225.446 83.4995 226.007 83.4995 226.618C83.4995 227.229 83.6007 227.788 83.8031 228.296C84.0091 228.804 84.3091 229.211 84.7033 229.516C85.0975 229.821 85.5787 229.974 86.1469 229.974ZM94.9748 230.842C94.3036 230.842 93.7159 230.665 93.2116 230.31C92.7074 229.955 92.3132 229.459 92.0291 228.824C91.7486 228.188 91.6083 227.447 91.6083 226.602C91.6083 225.761 91.7486 225.024 92.0291 224.392C92.3132 223.756 92.7092 223.262 93.217 222.911C93.7248 222.556 94.3161 222.378 94.9908 222.378C95.4879 222.378 95.9016 222.467 96.2319 222.645C96.5621 222.819 96.8267 223.035 97.0256 223.294C97.2244 223.554 97.3789 223.806 97.489 224.051H97.5742V219.763H98.5277V230.672H97.6009V229.154H97.489C97.3789 229.402 97.2227 229.658 97.0202 229.921C96.8178 230.18 96.5497 230.398 96.2159 230.576C95.8857 230.754 95.4719 230.842 94.9748 230.842ZM95.0866 229.974C95.6158 229.974 96.0668 229.83 96.4396 229.543C96.8125 229.251 97.0966 228.852 97.2919 228.344C97.4908 227.833 97.5902 227.247 97.5902 226.586C97.5902 225.933 97.4925 225.356 97.2972 224.855C97.1019 224.351 96.8178 223.957 96.445 223.673C96.0721 223.385 95.6193 223.241 95.0866 223.241C94.5398 223.241 94.0781 223.39 93.7017 223.689C93.3288 223.983 93.0447 224.383 92.8494 224.887C92.6577 225.391 92.5618 225.958 92.5618 226.586C92.5618 227.222 92.6594 227.795 92.8548 228.307C93.0501 228.818 93.3342 229.225 93.707 229.527C94.0835 229.825 94.5433 229.974 95.0866 229.974ZM103.713 230.858C103.22 230.858 102.769 230.762 102.361 230.571C101.952 230.375 101.627 230.095 101.386 229.729C101.144 229.36 101.024 228.912 101.024 228.387C101.024 227.982 101.1 227.641 101.253 227.364C101.405 227.087 101.622 226.86 101.902 226.682C102.183 226.505 102.515 226.364 102.899 226.261C103.282 226.158 103.705 226.078 104.166 226.022C104.624 225.965 105.011 225.915 105.327 225.873C105.647 225.83 105.89 225.762 106.057 225.67C106.224 225.578 106.308 225.429 106.308 225.223V225.031C106.308 224.473 106.141 224.035 105.807 223.715C105.477 223.392 105.001 223.23 104.379 223.23C103.79 223.23 103.309 223.36 102.936 223.619C102.566 223.879 102.307 224.184 102.158 224.536L101.258 224.211C101.443 223.763 101.698 223.406 102.025 223.14C102.352 222.87 102.717 222.676 103.122 222.559C103.527 222.439 103.937 222.378 104.353 222.378C104.665 222.378 104.99 222.419 105.327 222.501C105.668 222.582 105.984 222.724 106.276 222.927C106.567 223.126 106.803 223.404 106.984 223.763C107.165 224.118 107.256 224.569 107.256 225.116V230.672H106.308V229.377H106.249C106.135 229.619 105.967 229.853 105.743 230.081C105.519 230.308 105.239 230.494 104.901 230.64C104.564 230.786 104.168 230.858 103.713 230.858ZM103.841 229.99C104.346 229.99 104.782 229.878 105.152 229.654C105.521 229.431 105.805 229.134 106.004 228.765C106.206 228.392 106.308 227.982 106.308 227.534V226.352C106.237 226.419 106.118 226.48 105.951 226.533C105.787 226.586 105.597 226.634 105.381 226.677C105.168 226.716 104.955 226.75 104.742 226.778C104.528 226.806 104.337 226.831 104.166 226.853C103.705 226.909 103.31 226.998 102.984 227.119C102.657 227.24 102.407 227.407 102.233 227.62C102.059 227.829 101.972 228.099 101.972 228.429C101.972 228.926 102.149 229.312 102.504 229.585C102.859 229.855 103.305 229.99 103.841 229.99ZM110.345 233.74C110.157 233.74 109.982 233.722 109.818 233.687C109.655 233.651 109.525 233.612 109.429 233.57L109.685 232.733C110.008 232.833 110.296 232.868 110.548 232.84C110.8 232.815 111.024 232.701 111.219 232.499C111.414 232.3 111.588 231.995 111.741 231.583L112.039 230.752L109.03 222.49H110.058L112.487 229.42H112.561L114.99 222.49H116.018L112.556 231.966C112.41 232.36 112.231 232.689 112.018 232.952C111.805 233.218 111.558 233.415 111.278 233.543C111.001 233.674 110.69 233.74 110.345 233.74ZM122.769 230.672L127.739 220.727V220.658H122.013V219.763H128.783V220.7L123.819 230.672H122.769ZM131.388 229.037C131.179 229.037 130.997 228.962 130.845 228.813C130.696 228.66 130.621 228.479 130.621 228.27C130.621 228.056 130.696 227.875 130.845 227.726C130.997 227.577 131.179 227.502 131.388 227.502C131.601 227.502 131.782 227.577 131.931 227.726C132.081 227.875 132.155 228.056 132.155 228.27C132.155 228.408 132.12 228.536 132.049 228.653C131.981 228.77 131.889 228.864 131.772 228.935C131.658 229.003 131.53 229.037 131.388 229.037ZM131.388 223.502C131.179 223.502 130.997 223.428 130.845 223.278C130.696 223.126 130.621 222.945 130.621 222.735C130.621 222.526 130.696 222.346 130.845 222.197C130.997 222.044 131.179 221.968 131.388 221.968C131.601 221.968 131.782 222.044 131.931 222.197C132.081 222.346 132.155 222.526 132.155 222.735C132.155 222.874 132.12 223.001 132.049 223.119C131.981 223.236 131.889 223.33 131.772 223.401C131.658 223.468 131.53 223.502 131.388 223.502ZM138.013 230.821C137.406 230.821 136.863 230.699 136.383 230.453C135.908 230.205 135.528 229.864 135.243 229.431C134.963 228.998 134.814 228.502 134.796 227.945H135.76C135.792 228.523 136.019 228.999 136.442 229.372C136.865 229.741 137.388 229.926 138.013 229.926C138.5 229.926 138.933 229.811 139.313 229.58C139.693 229.346 139.99 229.026 140.203 228.621C140.419 228.213 140.528 227.753 140.528 227.241C140.524 226.709 140.409 226.24 140.181 225.835C139.954 225.427 139.645 225.107 139.255 224.876C138.867 224.646 138.432 224.53 137.949 224.53C137.584 224.527 137.225 224.587 136.873 224.711C136.522 224.836 136.229 224.995 135.995 225.191L134.998 225.063L135.654 219.763H141.044V220.658H136.49L136.053 224.306H136.106C136.348 224.104 136.641 223.939 136.985 223.811C137.333 223.683 137.701 223.619 138.088 223.619C138.731 223.619 139.308 223.774 139.819 224.083C140.334 224.392 140.741 224.818 141.039 225.361C141.341 225.901 141.492 226.522 141.492 227.225C141.492 227.914 141.341 228.531 141.039 229.074C140.741 229.614 140.329 230.04 139.803 230.352C139.281 230.665 138.685 230.821 138.013 230.821ZM147.346 230.821C146.579 230.821 145.924 230.601 145.38 230.161C144.841 229.717 144.425 229.076 144.134 228.238C143.846 227.4 143.703 226.393 143.703 225.217C143.703 224.045 143.846 223.042 144.134 222.208C144.425 221.37 144.842 220.729 145.386 220.285C145.933 219.837 146.586 219.614 147.346 219.614C148.106 219.614 148.758 219.837 149.301 220.285C149.848 220.729 150.265 221.37 150.553 222.208C150.844 223.042 150.989 224.045 150.989 225.217C150.989 226.393 150.844 227.4 150.553 228.238C150.265 229.076 149.85 229.717 149.306 230.161C148.766 230.601 148.113 230.821 147.346 230.821ZM147.346 229.926C148.188 229.926 148.845 229.516 149.317 228.696C149.789 227.872 150.025 226.712 150.025 225.217C150.025 224.223 149.917 223.374 149.7 222.671C149.487 221.964 149.18 221.425 148.779 221.052C148.381 220.679 147.904 220.493 147.346 220.493C146.511 220.493 145.856 220.908 145.38 221.739C144.905 222.566 144.667 223.726 144.667 225.217C144.667 226.212 144.773 227.06 144.986 227.763C145.203 228.467 145.51 229.003 145.908 229.372C146.309 229.741 146.788 229.926 147.346 229.926ZM158.027 230.672H156.983L160.951 219.763H162.016L165.985 230.672H164.941L161.521 221.057H161.446L158.027 230.672ZM158.778 226.49H164.19V227.385H158.778V226.49ZM168.054 219.763H169.205L173.163 229.266H173.259L177.216 219.763H178.367V230.672H177.429V221.867H177.344L173.663 230.672H172.758L169.077 221.867H168.992V230.672H168.054V219.763Z" fill="#727F96"/>
</svg>
